<?xml version="1.0" encoding="utf-8"?>
<!-- Generator: Adobe Illustrator 26.2.1, SVG Export Plug-In . SVG Version: 6.00 Build 0)  -->
<svg version="1.1" id="Layer_1" xmlns="http://www.w3.org/2000/svg" xmlns:xlink="http://www.w3.org/1999/xlink" x="0px" y="0px"
	 viewBox="0 0 384 320" style="enable-background:new 0 0 384 320;" xml:space="preserve">
<style type="text/css">
	.st0{opacity:0.5;}
	.st1{fill:#09080D;}
	.st2{fill:none;stroke:#FFFFFF;stroke-opacity:0.1;}
	.st3{fill:#0B0A0F;}
	.st4{fill:none;stroke:#FFFFFF;stroke-opacity:0.25;}
	.st5{fill:none;stroke:#FFFFFF;stroke-width:0.691;stroke-opacity:0.25;}
	.st6{fill:#0E0D12;}
	.st7{fill:#FFFFFF;fill-opacity:5.000000e-02;}
	.st8{fill:#705BEF;fill-opacity:0.15;stroke:#BBB9F9;stroke-width:1.372;stroke-linecap:round;}
	.st9{opacity:0.2;fill:#D9D9D9;enable-background:new    ;}
	.st10{fill:#107D98;fill-opacity:0.15;}
	.st11{fill:none;stroke:#107D98;stroke-width:1.372;stroke-linecap:round;}
	.st12{fill:#1753ED;fill-opacity:0.1;stroke:#1753ED;stroke-width:1.372;stroke-linecap:round;}
	.st13{fill:#8A6FD5;fill-opacity:0.15;stroke:#8A6FD5;stroke-width:1.372;stroke-linecap:round;}
	.st14{fill:#107D98;fill-opacity:0.15;stroke:#107D98;stroke-width:1.372;stroke-linecap:round;}
</style>
<g class="st0">
	<path class="st1" d="M4.4,205.6L213.7,66.1c1.9-1.3,5-1.3,6.9,0L380,173.2c1.9,1.3,1.9,3.3,0,4.6L170.8,317.3c-1.9,1.3-5,1.3-6.9,0
		L4.4,210.2C2.5,208.9,2.5,206.8,4.4,205.6z"/>
	<path class="st2" d="M4.9,205.8L214.1,66.4c1.7-1.1,4.4-1.1,6.1,0l159.4,107.1c1.7,1.1,1.7,2.9,0,4.1L170.3,317
		c-1.7,1.1-4.4,1.1-6.1,0L4.9,209.9C3.2,208.8,3.2,206.9,4.9,205.8z"/>
	<path class="st3" d="M4.4,198L213.7,58.5c1.9-1.3,5-1.3,6.9,0L380,165.6c1.9,1.3,1.9,3.3,0,4.6L170.8,309.7c-1.9,1.3-5,1.3-6.9,0
		L4.4,202.6C2.5,201.3,2.5,199.2,4.4,198z"/>
	<path class="st4" d="M4.9,198.2L214.1,58.8c1.7-1.1,4.4-1.1,6.1,0l159.4,107.1c1.7,1.1,1.7,2.9,0,4.1L170.3,309.4
		c-1.7,1.1-4.4,1.1-6.1,0L4.9,202.3C3.2,201.2,3.2,199.3,4.9,198.2z"/>
</g>
<path class="st1" d="M18,196.3v-5.8c-0.3-0.8-0.3-1.7,0-2.5v-0.6h0.3c0.4-0.7,1-1.4,1.9-2l89-59.4c3.2-2.1,8.3-2.1,11.5,0l62,42.6
	c1.8,1.2,2.6,2.9,2.3,4.5h0.2v7.8H185c-0.1,1.4-0.9,2.7-2.4,3.7l-89,59.4c-3.2,2.1-8.3,2.1-11.5,0l-62-42.6c-0.7-0.5-1.2-1-1.6-1.5
	H18v-1.1C17.7,197.9,17.7,197.1,18,196.3L18,196.3z"/>
<path class="st5" d="M18.3,196.4L18.3,196.4l0-5.9l0-0.1c-0.3-0.7-0.3-1.5,0-2.2l0-0.1v-0.3h0.1l0.1-0.2c0.4-0.7,1-1.3,1.8-1.9
	l89-59.4h0c1.5-1,3.5-1.5,5.6-1.5c2,0,4,0.5,5.6,1.6l0,0l62,42.6l0,0c1.7,1.2,2.4,2.7,2.2,4.1l-0.1,0.4h0.3v7.1h-0.1l0,0.3
	c-0.1,1.2-0.8,2.5-2.2,3.4l-89,59.4c-1.5,1-3.5,1.5-5.6,1.5c-2,0-4-0.5-5.6-1.6l0,0l-62-42.6l0,0c-0.6-0.4-1.1-0.9-1.5-1.4l-0.1-0.1
	h-0.4v-0.8l0-0.1C18,197.9,18,197.1,18.3,196.4z"/>
<path class="st6" d="M20,184.4l90.2-60.1c2.1-1.4,5.6-1.4,7.7,0l65.1,43.8c2.1,1.4,2.1,3.8,0,5.2l-90.2,60.1c-2.1,1.4-5.6,1.4-7.7,0
	L20,189.6C17.8,188.1,17.8,185.8,20,184.4z"/>
<path class="st4" d="M20.4,184.7l90.2-60.1c1.9-1.3,5-1.3,6.9,0l65.1,43.8c1.9,1.3,1.9,3.4,0,4.6l-90.2,60.1c-1.9,1.3-5,1.3-6.9,0
	l-65.1-43.8C18.5,188,18.5,185.9,20.4,184.7z"/>
<path class="st7" d="M38.6,193.8l85.6-57l0.8,0.6l-85.6,57L38.6,193.8z"/>
<path class="st8" d="M77.3,218.8l-0.7,0.4l10.9,7.1c0.9,0.6,2.4,0.6,3.3,0l82.2-55.2c0.9-0.6,0.9-1.6,0-2.2l-32.6-21.4l-0.7,0.4
	l0.5,0.4l-2,1.3l1.7,1.1l-0.7,0.4h0l-0.7,0.4l-0.4-0.3l-0.7,0.4l0.6,0.4l-0.7,0.4l1.7,1.2l-2,1.3l0.7,0.5l-0.7,0.4l0.3,0.2l-0.7,0.4
	l1.2,0.8l-0.7,0.4l0,0l-0.7,0.4l-0.3-0.2l-2,1.3l-1.3-0.9l-0.7,0.4l0.1,0.1l-0.7,0.4l0.2,0.1l-0.7,0.4l0.8,0.5l-0.7,0.4l1,0.7
	l-2,1.3l0.4,0.2l-0.7,0.4l0.7,0.4l-0.7,0.4l0.4,0.2l-0.7,0.4l-0.2-0.1l-2.7,1.8l1.4,0.9l-0.7,0.4l0,0l-0.7,0.4l0.5,0.3l-0.7,0.4
	l-1.3-0.9l-0.7,0.4l0.7,0.5l-2,1.3l1,0.7l-0.7,0.4l0,0l-0.7,0.4l1.8,1.2l-0.7,0.4l0.9,0.6l-0.7,0.4l0.5,0.4l-2,1.3l0.5,0.3l-0.7,0.4
	l0.5,0.3l-0.7,0.4l-0.1-0.1l-0.7,0.4l0,0l-0.7,0.4l0.4,0.3l-2,1.3l0.6,0.4l-0.7,0.4l0.3,0.2l-0.7,0.4l-0.2-0.1l-0.7,0.4l2.8,1.9
	l-0.7,0.4l-0.8-0.5l-2,1.3l0.8,0.5l-0.7,0.4l-0.8-0.5l-0.7,0.4l-0.1-0.1l-0.7,0.4l0.5,0.3l-2.7,1.8l0.5,0.4l-0.7,0.4l-0.2-0.1
	l-0.7,0.4l-0.1-0.1l-0.7,0.4l-0.1-0.1l-0.7,0.4l0.2,0.1l-2,1.3l-0.1,0l-0.7,0.4l0.5,0.3l-0.7,0.4l0.5,0.3l-0.7,0.4l0.2,0.2l-2.7,1.8
	l0.7,0.5l-0.7,0.4l0,0l-0.7,0.4l0.3,0.2l-0.7,0.4l-0.4-0.3l-2.7,1.8l0.3,0.2l-0.7,0.4l0.5,0.4l-0.7,0.4l0.2,0.2l-0.7,0.4l0.1,0
	l-0.7,0.4l1.5,1l-2,1.3l0.1,0.1l-0.7,0.4l0.2,0.2l-0.7,0.4l-0.1-0.1l-0.7,0.4l-0.9-0.6l-0.7,0.4l-0.3-0.2l-2,1.3l-0.2-0.1l-0.7,0.4
	l0.3,0.2l-0.7,0.4l0.2,0.1l-0.7,0.4l-0.2-0.1l-0.7,0.4l-0.2-0.1l-2,1.3l0.4,0.2l-0.7,0.4l0.2,0.1l-0.7,0.4l0.6,0.4l-0.7,0.4l1,0.7
	l-0.7,0.4l-0.3-0.2l-2,1.3l1.4,0.9l-1.3,0.9l-0.4-0.2l-0.7,0.4l-1-0.7l-0.7,0.4l0.8,0.5l-2,1.3l-0.6-0.4l-0.7,0.4l-0.3-0.2l-0.7,0.4
	l-0.8-0.5l-0.7,0.4L77.3,218.8L77.3,218.8z"/>
<path class="st9" d="M77.8,153.4l35.1-23.4c0.9-0.6,2.4-0.6,3.3,0l0.7,0.5c0.9,0.6,0.9,1.6,0,2.2l-35.1,23.4c-0.9,0.6-2.4,0.6-3.3,0
	l-0.7-0.5C76.9,155,76.9,154,77.8,153.4z"/>
<g>
	<path class="st1" d="M198.1,181.3v-5.8c-0.3-0.8-0.3-1.7,0-2.5v-0.6h0.3c0.4-0.7,1-1.4,1.9-2l89-59.4c3.2-2.1,8.3-2.1,11.5,0
		l62,42.6c1.8,1.2,2.6,2.9,2.3,4.5h0.2v7.8h-0.1c-0.1,1.4-0.9,2.7-2.4,3.7l-89,59.4c-3.2,2.1-8.3,2.1-11.5,0l-62-42.6
		c-0.7-0.5-1.2-1-1.6-1.5h-0.6v-1.1C197.9,183,197.9,182.1,198.1,181.3L198.1,181.3z"/>
	<path class="st5" d="M198.5,181.4L198.5,181.4l0-5.9l0-0.1c-0.3-0.7-0.3-1.5,0-2.2l0-0.1v-0.3h0.1l0.1-0.2c0.4-0.7,1-1.3,1.8-1.9
		l89-59.4h0c1.5-1,3.5-1.5,5.6-1.5c2,0,4,0.5,5.6,1.6l0,0l62,42.6l0,0c1.7,1.2,2.4,2.7,2.2,4.1l-0.1,0.4h0.3v7.1h-0.1l0,0.3
		c-0.1,1.2-0.8,2.5-2.2,3.4l-89,59.4h0c-1.5,1-3.5,1.5-5.6,1.5c-2,0-4-0.5-5.6-1.6l0,0l-62-42.6l0,0c-0.6-0.4-1.1-0.9-1.5-1.4
		l-0.1-0.1h-0.4v-0.8l0-0.1C198.2,183,198.2,182.2,198.5,181.4L198.5,181.4z"/>
	<path class="st6" d="M200.1,169.4l90.2-60.1c2.1-1.4,5.6-1.4,7.7,0l65.1,43.8c2.1,1.4,2.1,3.8,0,5.2L273,218.4
		c-2.1,1.4-5.6,1.4-7.7,0l-65.1-43.8C198,173.2,198,170.9,200.1,169.4z"/>
	<path class="st4" d="M200.6,169.7l90.2-60.1c1.9-1.3,5-1.3,6.9,0l65.1,43.8c1.9,1.3,1.9,3.4,0,4.6l-90.2,60.1c-1.9,1.3-5,1.3-6.9,0
		l-65.1-43.8C198.6,173.1,198.7,171,200.6,169.7z"/>
	<path class="st7" d="M218.8,178.8l85.6-57l0.8,0.6l-85.6,57L218.8,178.8z"/>
	<path class="st10" d="M333.1,143.3l1.9-1.3l19.1,12.7l-84.9,56.8l-16.9-11.2l-0.4-0.2l1.9-1.3l-0.1-0.1l1.9-1.3l-0.4-0.3l1.9-1.3
		l0.4,0.3l5.7-3.8l0.1,0l1.9-1.3l-0.4-0.3l1.9-1.3l-0.1,0l1.9-1.3l0,0l1.9-1.3l-0.4-0.3l5.7-3.8l-0.4-0.3l1.9-1.3l-0.2-0.1l1.9-1.3
		l0,0l1.9-1.3l-0.2-0.1l7.5-5.1l0.8,0.5l1.9-1.3l0.2,0.1l1.9-1.3l-0.1-0.1l1.9-1.3l0.3,0.2l1.9-1.3l-0.2-0.1l5.7-3.8l-0.1,0l1.9-1.3
		l-0.4-0.3l1.9-1.3l0,0l1.9-1.3l0.3,0.2l1.9-1.3l0.2,0.1l5.7-3.8l-0.5-0.4l1.9-1.3l-0.5-0.3l1.9-1.3l0,0l1.9-1.3l-0.2-0.1l1.9-1.3
		l0.1,0.1l5.7-3.8l0.1,0l1.9-1.3l0,0l1.9-1.3l-0.2-0.1l1.9-1.3L333.1,143.3L333.1,143.3z"/>
	<path class="st11" d="M335.7,142.1l-0.1-0.1 M335.6,142l-1.9,1.3l-0.1-0.1l-1.9,1.3l0.2,0.1l-1.9,1.3l0,0l-1.9,1.3l-0.1,0l-5.7,3.8
		l-0.1-0.1l-1.9,1.3l0.2,0.1l-1.9,1.3l0,0l-1.9,1.3l0.5,0.3l-1.9,1.3l0.5,0.4l-5.7,3.8l-0.2-0.1l-1.9,1.3l-0.3-0.2l-1.9,1.3l0,0
		l-1.9,1.3l0.4,0.3l-1.9,1.3l0.1,0l-5.7,3.8l0.2,0.1l-1.9,1.3l-0.3-0.2l-1.9,1.3l0.1,0.1L291,173l-0.2-0.1l-1.9,1.3l-0.8-0.5
		l-7.6,5.1l0.2,0.1l-1.9,1.3l0,0l-1.9,1.3l0.2,0.1l-1.9,1.3l0.4,0.3l-5.7,3.8l0.4,0.3l-1.9,1.3l0,0l-1.9,1.3l0.1,0l-1.9,1.3l0.4,0.3
		l-1.9,1.3l-0.1,0l-5.7,3.8l-0.4-0.3l-1.9,1.3l0.4,0.3l-1.9,1.3l0.1,0.1l-1.9,1.3l0.4,0.2l17,11.2l85.5-56.8L335.6,142L335.6,142z"
		/>
	<path class="st9" d="M259.2,137.7l35.1-23.4c0.9-0.6,2.4-0.6,3.3,0l0.7,0.5c0.9,0.6,0.9,1.6,0,2.2l-35.1,23.4
		c-0.9,0.6-2.4,0.6-3.3,0l-0.7-0.5C258.2,139.4,258.2,138.4,259.2,137.7z"/>
	<path class="st9" d="M276.3,146.3l31.4-21.1c0.8-0.6,2.2-0.6,3,0l0.6,0.4c0.8,0.6,0.8,1.5,0,2l-31.4,21.1c-0.8,0.6-2.2,0.6-3,0
		l-0.6-0.4C275.5,147.7,275.5,146.8,276.3,146.3z"/>
</g>
<g>
	<path class="st1" d="M168.1,137.2v-5.8c-0.3-0.8-0.3-1.7,0-2.5v-0.6h0.3c0.4-0.7,1-1.4,1.9-2l89-59.4c3.2-2.1,8.3-2.1,11.5,0
		l62,42.6c1.8,1.2,2.6,2.9,2.3,4.5h0.2v7.8h-0.1c-0.1,1.4-0.9,2.7-2.4,3.7l-89,59.4c-3.2,2.1-8.3,2.1-11.5,0l-62-42.6
		c-0.7-0.5-1.2-1-1.6-1.5h-0.6v-1.1C167.9,138.8,167.9,138,168.1,137.2L168.1,137.2z"/>
	<path class="st5" d="M168.5,137.3L168.5,137.3l0-5.9l0-0.1c-0.3-0.7-0.3-1.5,0-2.2l0-0.1v-0.3h0.1l0.1-0.2c0.4-0.7,1-1.3,1.8-1.9
		l89-59.4h0c1.5-1,3.5-1.5,5.6-1.5c2,0,4,0.5,5.6,1.6l0,0l62,42.6l0,0c1.7,1.2,2.4,2.7,2.2,4.1l-0.1,0.4h0.3v7.1h-0.1l0,0.3
		c-0.1,1.2-0.8,2.5-2.2,3.4l-89,59.4h0c-1.5,1-3.5,1.5-5.6,1.5c-2,0-4-0.5-5.6-1.6l0,0l-62-42.6l0,0c-0.6-0.4-1.1-0.9-1.5-1.4
		l-0.1-0.1h-0.4v-0.8l0-0.1C168.2,138.8,168.2,138,168.5,137.3L168.5,137.3z"/>
	<path class="st6" d="M170.3,125.6l90.2-60.1c2.1-1.4,5.6-1.4,7.7,0l65.1,43.8c2.1,1.4,2.1,3.8,0,5.2l-90.2,60.1
		c-2.1,1.4-5.6,1.4-7.7,0l-65.1-43.8C168.2,129.3,168.2,127,170.3,125.6z"/>
	<path class="st4" d="M170.7,125.9l90.2-60.1c1.9-1.3,5-1.3,6.9,0l65.1,43.8c1.9,1.3,1.9,3.4,0,4.6l-90.2,60.1c-1.9,1.3-5,1.3-6.9,0
		l-65.1-43.8C168.8,129.2,168.8,127.2,170.7,125.9z"/>
	<path class="st7" d="M188.9,135l85.6-57l0.8,0.6l-85.6,57L188.9,135z"/>
	<path class="st12" d="M228.8,159.3l-1,0.7l9.8,7.2c0.9,0.7,2.5,0.7,3.4,0.1l82.1-55.3c0.9-0.6,0.9-1.6,0-2.2l-27.6-18.3l-3,2
		l0.8,0.5l-1,0.7l-1,0.7l-1,0.7l-1,0.7l-3,2l-1,0.7l0.1,0.1l-1,0.7l0.2,0.2l-1,0.7l0.8,0.5l-1,0.7l1.1,0.7l-3,2l0.4,0.3l-1,0.7
		l0.7,0.5l-1,0.7l0.2,0.1l-1,0.7l-4.1,2.7l0.6,0.4l-1,0.7l-1,0.7l-1,0.7l-1,0.7l0.8,0.5l-3,2l1,0.7l-1,0.7l0,0l-1,0.7l1.8,1.2
		l-1,0.7l0.9,0.6l-1,0.7l0.5,0.4l-3,2l0.5,0.3l-1,0.7l0.4,0.2l-1,0.7l-1,0.7l-1,0.7l0.4,0.3l-3,2l0.6,0.4l-1,0.7l-1,0.7l-1,0.7
		l2,1.4l-1,0.7l-3,2l-1,0.7l-1,0.7l-1,0.7l0.5,0.3l-4.1,2.7l0.2,0.1l-1,0.7l-1,0.7l-1,0.7l-1,0.7l-3,2l-1,0.7l0.6,0.4l-1,0.7
		l0.5,0.3l-1,0.7l0.2,0.2l-4.1,2.7l0.5,0.4l-1,0.7l-1,0.7l-1,0.7l-4.1,2.7l0.3,0.2l-1,0.7l0.5,0.4l-1,0.7l0.2,0.2L228.8,159.3
		L228.8,159.3L228.8,159.3z"/>
	<path class="st9" d="M228.5,92.5L263.6,69c0.9-0.6,2.4-0.6,3.3,0l0.7,0.5c0.9,0.6,0.9,1.6,0,2.2l-35.1,23.4c-0.9,0.6-2.4,0.6-3.3,0
		l-0.7-0.5C227.6,94.1,227.6,93.1,228.5,92.5z"/>
	<g>
		<path class="st1" d="M131.8,89.7v-5.8c-0.3-0.8-0.3-1.7,0-2.5v-0.6h0.3c0.4-0.7,1-1.4,1.9-2l89-59.4c3.2-2.1,8.3-2.1,11.5,0
			l62,42.6c1.8,1.2,2.6,2.9,2.3,4.5h0.2v7.8h-0.1c-0.1,1.3-0.9,2.7-2.4,3.7l-89,59.4c-3.2,2.1-8.3,2.1-11.5,0l-62-42.6
			c-0.7-0.5-1.2-1-1.6-1.5h-0.6v-1.1C131.5,91.3,131.5,90.5,131.8,89.7L131.8,89.7z"/>
		<path class="st5" d="M132.1,89.8L132.1,89.8l0-5.9l0-0.1c-0.3-0.7-0.3-1.5,0-2.2l0-0.1v-0.3h0.1l0.1-0.2c0.4-0.7,1-1.3,1.8-1.9
			l89-59.4h0c1.5-1,3.5-1.5,5.6-1.5c2,0,4,0.5,5.6,1.6l0,0l62,42.6l0,0c1.7,1.2,2.4,2.7,2.2,4.1l-0.1,0.4h0.3v7.1h-0.1l0,0.3
			c-0.1,1.2-0.8,2.5-2.2,3.4l-89,59.4h0c-1.5,1-3.5,1.5-5.6,1.5c-2,0-4-0.5-5.6-1.6l0,0l-62-42.6l0,0c-0.6-0.4-1.1-0.9-1.5-1.4
			l-0.1-0.1h-0.4v-0.8l0-0.1C131.8,91.3,131.8,90.5,132.1,89.8L132.1,89.8z"/>
		<path class="st6" d="M133.9,78.1L224.2,18c2.1-1.4,5.6-1.4,7.7,0L297,61.7c2.1,1.4,2.1,3.8,0,5.2l-90.2,60.1
			c-2.1,1.4-5.6,1.4-7.7,0l-65.1-43.8C131.8,81.9,131.8,79.5,133.9,78.1z"/>
		<path class="st4" d="M134.4,78.4l90.2-60.1c1.9-1.3,5-1.3,6.9,0L296.6,62c1.9,1.3,1.9,3.4,0,4.6l-90.2,60.1c-1.9,1.3-5,1.3-6.9,0
			L134.4,83C132.4,81.7,132.4,79.7,134.4,78.4z"/>
		<path class="st7" d="M152.6,87.5l85.6-57l0.8,0.6l-85.6,57L152.6,87.5z"/>
		<path class="st13" d="M256,44.6l1.1-0.8l29.6,19.4c0.9,0.6,0.9,1.6,0,2.2l-82.1,54.8c-0.9,0.6-2.4,0.6-3.3,0l-25.4-17.4l1.1-0.8
			l-1.6-1l1.1-0.8l-0.1-0.1l1.1-0.8l-2.6-1.7l1.1-0.8l11.8,7.9l3.4-2.3l-2.3-1.5l1.1-0.8l-1.9-1.2l1.1-0.8l0.1,0l1.1-0.8l-1.1-0.7
			l1.1-0.8l0.1,0l3.4-2.3l1.5,1l1.1-0.8l-0.6-0.4l1.1-0.8l-1.4-0.9l1.1-0.8l-0.6-0.4l4.6-3.1l-1.6-1.1l1.1-0.8l-2-1.3l1.1-0.8
			l-0.4-0.3l1.1-0.8l0.3,0.2l1.1-0.8l-0.8-0.6l3.4-2.3l-1.5-1l1.1-0.8l1.3,0.8l1.1-0.8l-2.2-1.5l1.1-0.8l0.7,0.5l1.1-0.8l-2.6-1.7
			l3.4-2.3l1.3,0.9l1.1-0.8l1.3,0.9l1.1-0.8l0.4,0.3l1.1-0.8l1.5,1l1.1-0.8l2.9,2l3.4-2.3l-0.2-0.1l1.1-0.8l1.4,1l1.1-0.8l0.2,0.1
			l1.1-0.8l-0.1,0l1.1-0.8l1.6,1l3.4-2.3l1.4,0.9l1.1-0.8l0.7,0.5l1.1-0.8l-0.2-0.1l1.1-0.8l0.6,0.4l4.6-3.1l-12.1-8.1l1.1-0.8
			l-0.6-0.4l1.1-0.8l0.5,0.3l1.1-0.8l-1.2-0.8l1.1-0.8l0.6,0.4l3.4-2.3l0.2,0.1L242,49l1.4,0.9l1.1-0.8l-0.2-0.1l1.1-0.8l-1-0.6
			l1.1-0.8l-0.7-0.5l3.4-2.3l1.9,1.3l1.1-0.8l1.6,1.1l1.1-0.8l0.2,0.1l1.1-0.8L256,44.6L256,44.6z"/>
		<path class="st14" d="M280.4,62l1.9-1.3l4.3,2.6c1,0.6,1.1,1.7,0.1,2.3l-82,54.7c-0.9,0.6-2.4,0.6-3.4,0l-10.8-7.6l1.9-1.3
			l0.5,0.3l1.9-1.3l1.7,1.2l1.9-1.3l-1.8-1.2l5.7-3.8l-0.2-0.1l1.9-1.3l1.7,1.1l1.9-1.3l0.2,0.2l1.9-1.3l-0.1,0l1.9-1.3l1.8,1.2
			l5.7-3.8l1.6,1.1l1.9-1.3l0.8,0.5l1.9-1.3l-0.2-0.1l1.9-1.3l0.7,0.5l7.5-5l-3.2-2.1l1.9-1.3l-0.7-0.5l1.9-1.3l0.5,0.4l1.9-1.3
			l-1.4-0.9l1.9-1.3l0.7,0.4l5.7-3.8l0.2,0.2l1.9-1.3l1.6,1.1l1.9-1.3l-0.2-0.1l1.9-1.3l-1.1-0.8l1.9-1.3l-0.9-0.6l5.7-3.8l2.2,1.5
			l1.9-1.3l1.8,1.2l1.9-1.3l0.2,0.1l1.9-1.3l0.7,0.5l1.9-1.3l-0.6-0.4l5.7-3.8l-0.3-0.2l1.9-1.3l0,0l1.9-1.3l0.9,0.6l1.9-1.3
			L280.4,62L280.4,62z"/>
		<path class="st9" d="M194.3,45.3l32.6-21.5c0.6-0.4,1.7-0.4,2.3,0l0.5,0.3c0.6,0.4,0.6,1.1,0,1.5L197,47.2c-0.6,0.4-1.7,0.4-2.3,0
			l-0.5-0.3C193.6,46.4,193.6,45.8,194.3,45.3z"/>
	</g>
	<g>
		<path class="st1" d="M102.7,251.6v-5.3c-0.3-0.7-0.3-1.5,0-2.2v-0.6h0.2c0.4-0.7,0.9-1.3,1.8-1.9l81.5-54.4c2.9-2,7.6-1.9,10.5,0
			l56.8,39c1.7,1.1,2.4,2.6,2.1,4.1h0.2v7.1h-0.1c-0.1,1.2-0.8,2.5-2.2,3.4L172,295.3c-2.9,2-7.6,1.9-10.5,0l-56.8-39
			c-0.6-0.4-1.1-0.9-1.5-1.4h-0.5v-1C102.4,253.2,102.4,252.4,102.7,251.6L102.7,251.6z"/>
		<path class="st5" d="M103,251.7L103,251.7l0-5.4l0,0c-0.2-0.7-0.2-1.4,0-2l0,0v-0.3h0.1l0.1-0.2c0.3-0.6,0.9-1.2,1.7-1.7
			l81.5-54.4h0c1.4-0.9,3.2-1.4,5.1-1.4c1.9,0,3.7,0.5,5.1,1.4l0,0l56.8,39l0,0c1.6,1.1,2.2,2.5,2,3.8l-0.1,0.4h0.2v6.5h-0.1l0,0.3
			c0,1.1-0.7,2.3-2,3.2l-81.5,54.4h0c-1.4,0.9-3.2,1.4-5.1,1.4c-1.9,0-3.7-0.5-5.1-1.4l0,0l-56.8-39l0,0c-0.6-0.4-1.1-0.8-1.4-1.3
			l-0.1-0.1H103v-0.8l0,0C102.7,253.1,102.7,252.4,103,251.7L103,251.7z"/>
		<path class="st6" d="M104.7,241l82.6-55.1c2-1.3,5.1-1.3,7.1,0L254,226c2,1.3,2,3.4,0,4.7l-82.6,55.1c-2,1.3-5.1,1.3-7.1,0
			l-59.6-40.1C102.7,244.5,102.7,242.3,104.7,241z"/>
		<path class="st4" d="M105.1,241.3l82.6-55.1c1.7-1.2,4.6-1.2,6.3,0l59.6,40.1c1.7,1.2,1.7,3.1,0,4.2L171,285.6
			c-1.7,1.2-4.6,1.2-6.3,0l-59.6-40.1C103.3,244.4,103.3,242.5,105.1,241.3z"/>
		<path class="st7" d="M121.7,249.6l78.3-52.2l0.8,0.5l-78.3,52.2L121.7,249.6z"/>
		<path class="st13" d="M216.4,210.4l1.1-0.7l27.1,17.8c0.9,0.6,0.9,1.5,0,2l-75.2,50.1c-0.8,0.6-2.2,0.6-3.1,0l-23.2-15.9l1.1-0.7
			l-1.4-1l1.1-0.7l-0.1-0.1l1.1-0.7l-2.4-1.6l1.1-0.7l10.8,7.3l3.2-2.1l-2.1-1.4l1.1-0.7l-1.7-1.1l1.1-0.7l0.1,0l1.1-0.7l-1-0.7
			l1.1-0.7l0.1,0l3.2-2.1l1.4,0.9l1.1-0.7l-0.6-0.4l1.1-0.7l-1.3-0.9l1.1-0.7l-0.6-0.4l4.2-2.8l-1.5-1l1.1-0.7l-1.8-1.2l1.1-0.7
			l-0.4-0.3l1.1-0.7l0.3,0.2l1.1-0.7l-0.8-0.5l3.2-2.1l-1.3-0.9l1.1-0.7l1.2,0.8l1.1-0.7l-2-1.4l1.1-0.7l0.6,0.4l1.1-0.7l-2.4-1.6
			l3.2-2.1l1.2,0.8l1.1-0.7l1.2,0.8l1.1-0.7l0.4,0.3l1.1-0.7l1.3,0.9l1.1-0.7l2.7,1.8l3.2-2.1l-0.2-0.1l1.1-0.7l1.3,0.9l1.1-0.7
			l0.2,0.1l1.1-0.7l0,0l1.1-0.7l1.4,1l3.2-2.1l1.3,0.9l1.1-0.7l0.6,0.4l1.1-0.7l-0.1-0.1l1.1-0.7l0.6,0.4l4.2-2.8l-11-7.4l1.1-0.7
			l-0.6-0.4l1.1-0.7l0.4,0.3l1.1-0.7l-1.1-0.7l1.1-0.7l0.5,0.4l3.2-2.1l0.2,0.1l1.1-0.7l1.3,0.8l1.1-0.7l-0.2-0.1l1.1-0.7l-0.9-0.6
			l1.1-0.7l-0.7-0.5l3.2-2.1l1.7,1.1l1.1-0.7l1.4,1l1.1-0.7l0.2,0.1l1.1-0.7L216.4,210.4L216.4,210.4z"/>
		<path class="st14" d="M238.8,226.3l1.7-1.2l3.9,2.3c0.9,0.6,1,1.5,0.1,2.1l-75.1,50.1c-0.9,0.6-2.2,0.6-3.1,0l-9.9-7l1.7-1.2
			l0.4,0.3l1.7-1.2l1.6,1.1l1.7-1.2l-1.6-1.1l5.2-3.5l-0.2-0.1l1.7-1.2l1.6,1l1.7-1.2l0.2,0.1l1.7-1.2l-0.1,0l1.7-1.2l1.7,1.1
			l5.2-3.5l1.5,1l1.7-1.2l0.7,0.5l1.7-1.2l-0.2-0.1l1.7-1.2l0.6,0.4l6.9-4.6l-2.9-1.9l1.7-1.2l-0.7-0.4l1.7-1.2l0.5,0.3l1.7-1.2
			l-1.3-0.9l1.7-1.2l0.6,0.4l5.2-3.5l0.2,0.2l1.7-1.2l1.5,1l1.7-1.2l-0.2-0.1l1.7-1.2l-1-0.7l1.7-1.2l-0.8-0.5l5.2-3.5l2,1.3
			l1.7-1.2l1.7,1.1l1.7-1.2l0.2,0.1l1.7-1.2l0.6,0.4l1.7-1.2l-0.5-0.3l5.2-3.5l-0.3-0.2l1.7-1.2l0,0l1.7-1.2l0.8,0.5l1.7-1.2
			L238.8,226.3L238.8,226.3z"/>
		<path class="st9" d="M159.9,211l29.8-19.7c0.6-0.4,1.5-0.4,2.1,0l0.4,0.3c0.6,0.4,0.6,1,0,1.4l-29.8,19.7c-0.6,0.4-1.5,0.4-2.1,0
			l-0.4-0.3C159.3,212,159.3,211.4,159.9,211z"/>
	</g>
</g>
</svg>
