<svg width="384" height="320" fill="none" xmlns="http://www.w3.org/2000/svg"><g opacity=".5"><rect width="259.74" height="200.332" rx="4.145" transform="matrix(.83205 -.5547 .83014 .55756 1 206.177)" fill="#09080D"/><rect x=".831" y=".001" width="258.74" height="199.332" rx="3.645" transform="matrix(.83205 -.5547 .83014 .55756 1.138 206.639)" stroke="#fff" stroke-opacity=".1"/><rect width="259.74" height="200.332" rx="4.145" transform="matrix(.83205 -.5547 .83014 .55756 1 198.578)" fill="#0B0A0F"/><rect x=".831" y=".001" width="258.74" height="199.332" rx="3.645" transform="matrix(.83205 -.5547 .83014 .55756 1.138 199.04)" stroke="#fff" stroke-opacity=".25"/><path d="M7.145 200.142c.459.308.458.806-.002 1.112-.46.306-1.204.305-1.662-.003-.458-.308-.458-.806.002-1.112.46-.306 1.204-.305 1.662.003ZM20.427 209.063c.459.308.458.806-.002 1.112-.46.306-1.203.305-1.662-.003-.458-.308-.457-.806.002-1.112.46-.307 1.204-.305 1.662.003ZM33.71 217.984c.458.307.457.805-.002 1.112-.46.306-1.204.305-1.663-.003-.458-.308-.457-.806.002-1.112.46-.307 1.204-.305 1.663.003ZM46.992 226.904c.458.308.457.806-.002 1.113-.46.306-1.204.305-1.662-.003-.459-.308-.458-.806.002-1.112.46-.307 1.203-.305 1.662.002ZM60.274 235.825c.459.308.458.806-.002 1.113-.46.306-1.204.305-1.662-.003-.459-.308-.458-.806.002-1.112.46-.307 1.204-.306 1.662.002ZM73.556 244.746c.459.308.458.806-.002 1.113-.46.306-1.203.305-1.662-.003-.458-.308-.457-.806.002-1.113.46-.306 1.204-.305 1.662.003ZM86.838 253.667c.459.308.458.806-.001 1.112-.46.307-1.204.305-1.663-.002-.458-.308-.457-.806.002-1.113.46-.306 1.204-.305 1.662.003ZM100.121 262.588c.458.308.457.806-.002 1.112-.46.307-1.204.305-1.662-.003-.459-.307-.458-.805.002-1.112.46-.306 1.203-.305 1.662.003ZM113.403 271.509c.458.308.458.806-.002 1.112-.46.307-1.204.305-1.662-.003-.459-.308-.458-.806.002-1.112.459-.306 1.203-.305 1.662.003ZM126.685 280.43c.459.308.458.806-.002 1.112-.459.306-1.203.305-1.662-.003-.458-.308-.458-.806.002-1.112.46-.306 1.204-.305 1.662.003ZM139.967 289.351c.459.308.458.806-.002 1.112-.459.306-1.203.305-1.662-.003-.458-.308-.457-.806.002-1.112.46-.306 1.204-.305 1.662.003ZM153.25 298.272c.458.308.457.806-.002 1.112-.46.306-1.204.305-1.662-.003-.459-.308-.458-.806.001-1.112.46-.307 1.204-.305 1.663.003ZM166.532 307.193c.458.307.457.805-.002 1.112-.46.306-1.204.305-1.662-.003-.459-.308-.458-.806.002-1.112.459-.307 1.203-.305 1.662.003ZM20.458 191.267c.458.307.458.805-.002 1.112-.46.306-1.204.305-1.662-.003-.459-.308-.458-.806.002-1.112.46-.307 1.204-.305 1.662.003ZM33.74 200.187c.459.308.458.806-.002 1.113-.46.306-1.203.305-1.662-.003-.458-.308-.458-.806.002-1.112.46-.307 1.204-.305 1.662.002ZM47.022 209.108c.459.308.458.806-.002 1.113-.46.306-1.203.305-1.662-.003-.458-.308-.457-.806.002-1.113.46-.306 1.204-.305 1.662.003ZM60.305 218.029c.458.308.457.806-.002 1.113-.46.306-1.204.305-1.662-.003-.459-.308-.458-.806.001-1.113.46-.306 1.204-.305 1.663.003ZM73.587 226.95c.458.308.457.806-.002 1.112-.46.307-1.204.305-1.662-.002-.459-.308-.458-.806.002-1.113.46-.306 1.203-.305 1.662.003ZM86.87 235.871c.457.308.457.806-.003 1.112-.46.307-1.204.305-1.662-.003-.459-.307-.458-.805.002-1.112.46-.306 1.204-.305 1.662.003ZM100.151 244.792c.459.308.458.806-.002 1.112-.46.307-1.203.305-1.662-.003-.458-.308-.457-.806.002-1.112.46-.306 1.204-.305 1.662.003ZM113.434 253.713c.458.308.457.806-.002 1.112-.46.306-1.204.305-1.663-.003-.458-.308-.457-.806.002-1.112.46-.306 1.204-.305 1.663.003ZM126.716 262.634c.458.308.457.806-.002 1.112-.46.306-1.204.305-1.662-.003-.459-.308-.458-.806.002-1.112.459-.306 1.203-.305 1.662.003ZM139.998 271.555c.458.308.458.806-.002 1.112-.459.306-1.204.305-1.662-.003-.459-.308-.458-.806.002-1.112.459-.307 1.203-.305 1.662.003ZM153.28 280.476c.459.307.458.805-.002 1.112-.459.306-1.203.305-1.662-.003-.458-.308-.458-.806.002-1.112.46-.307 1.204-.305 1.662.003ZM166.562 289.396c.459.308.458.806-.001 1.113-.46.306-1.204.305-1.663-.003-.458-.308-.457-.806.002-1.112.46-.307 1.204-.305 1.662.002ZM179.845 298.317c.458.308.457.806-.002 1.113-.46.306-1.204.305-1.662-.003-.459-.308-.458-.806.001-1.113.46-.306 1.204-.305 1.663.003ZM33.77 182.391c.46.308.458.806-.001 1.113-.46.306-1.204.305-1.662-.003-.459-.308-.458-.806.002-1.113.46-.306 1.203-.305 1.662.003ZM47.053 191.312c.458.308.458.806-.002 1.113-.46.306-1.204.305-1.662-.003-.459-.308-.458-.806.002-1.113.46-.306 1.203-.305 1.662.003ZM60.335 200.233c.459.308.458.806-.002 1.112-.46.307-1.203.305-1.662-.002-.458-.308-.457-.806.002-1.113.46-.306 1.204-.305 1.662.003ZM73.617 209.154c.459.308.458.806-.002 1.112-.459.307-1.203.305-1.662-.003-.458-.307-.457-.805.002-1.112.46-.306 1.204-.305 1.662.003ZM86.9 218.075c.458.308.457.806-.002 1.112-.46.307-1.204.305-1.662-.003-.459-.308-.458-.806.001-1.112.46-.306 1.204-.305 1.663.003ZM100.182 226.996c.458.308.457.806-.002 1.112-.46.306-1.204.305-1.662-.003-.459-.308-.458-.806.002-1.112.46-.306 1.203-.305 1.662.003ZM113.464 235.917c.459.308.458.806-.002 1.112-.459.306-1.204.305-1.662-.003-.458-.308-.458-.806.002-1.112.459-.306 1.204-.305 1.662.003ZM126.746 244.838c.459.308.458.806-.002 1.112-.459.306-1.203.305-1.662-.003-.458-.308-.457-.806.002-1.112.46-.307 1.204-.305 1.662.003ZM140.029 253.759c.458.307.457.805-.002 1.112-.46.306-1.204.305-1.663-.003-.458-.308-.457-.806.002-1.112.46-.307 1.204-.305 1.663.003ZM153.311 262.679c.458.308.457.806-.002 1.113-.46.306-1.204.305-1.662-.003-.459-.308-.458-.806.002-1.112.459-.307 1.203-.305 1.662.002ZM166.593 271.6c.458.308.458.806-.002 1.113-.459.306-1.204.305-1.662-.003-.459-.308-.458-.806.002-1.113.459-.306 1.204-.305 1.662.003ZM179.875 280.521c.459.308.458.806-.002 1.113-.459.306-1.203.305-1.662-.003-.458-.308-.457-.806.002-1.113.46-.306 1.204-.305 1.662.003ZM193.157 289.442c.459.308.458.806-.001 1.112-.46.307-1.204.305-1.663-.002-.458-.308-.457-.806.002-1.113.46-.306 1.204-.305 1.662.003ZM47.084 173.516c.458.308.457.806-.002 1.112-.46.307-1.204.305-1.663-.002-.458-.308-.457-.806.002-1.113.46-.306 1.204-.305 1.663.003ZM60.366 182.437c.458.308.457.806-.002 1.112-.46.307-1.204.305-1.662-.003-.459-.307-.458-.805.002-1.112.46-.306 1.203-.305 1.662.003ZM73.648 191.358c.459.308.458.806-.002 1.112-.46.307-1.204.305-1.662-.003-.459-.308-.458-.806.002-1.112.46-.306 1.203-.305 1.662.003ZM86.93 200.279c.459.308.458.806-.002 1.112-.46.306-1.203.305-1.662-.003-.458-.308-.458-.806.002-1.112.46-.306 1.204-.305 1.662.003ZM100.212 209.2c.459.308.458.806-.001 1.112-.46.306-1.204.305-1.663-.003-.458-.308-.457-.806.002-1.112.46-.306 1.204-.305 1.662.003ZM113.495 218.121c.458.308.457.806-.002 1.112-.46.306-1.204.305-1.662-.003-.459-.308-.458-.806.001-1.112.46-.307 1.204-.305 1.663.003ZM126.777 227.042c.458.307.458.805-.002 1.112-.46.306-1.204.305-1.662-.003-.459-.308-.458-.806.002-1.112.459-.307 1.203-.305 1.662.003ZM140.059 235.962c.459.308.458.806-.002 1.113-.459.306-1.204.305-1.662-.003-.458-.308-.458-.806.002-1.112.459-.307 1.204-.305 1.662.002ZM153.341 244.883c.459.308.458.806-.002 1.113-.459.306-1.203.305-1.662-.003-.458-.308-.457-.806.002-1.113.46-.306 1.204-.305 1.662.003ZM166.624 253.804c.458.308.457.806-.002 1.113-.46.306-1.204.305-1.663-.003-.458-.308-.457-.806.002-1.113.46-.306 1.204-.305 1.663.003ZM179.906 262.725c.458.308.457.806-.002 1.112-.46.307-1.204.305-1.662-.002-.459-.308-.458-.806.002-1.113.459-.306 1.203-.305 1.662.003ZM193.188 271.646c.459.308.458.806-.002 1.112-.459.307-1.204.305-1.662-.003-.459-.307-.458-.805.002-1.112.459-.306 1.204-.305 1.662.003ZM206.47 280.567c.459.308.458.806-.002 1.112-.459.307-1.203.305-1.662-.003-.458-.308-.457-.806.002-1.112.46-.306 1.204-.305 1.662.003ZM60.396 164.641c.459.308.458.806-.002 1.112-.46.307-1.203.305-1.662-.003-.458-.308-.457-.806.002-1.112.46-.306 1.204-.305 1.662.003ZM73.679 173.562c.458.308.457.806-.002 1.112-.46.306-1.204.305-1.663-.003-.458-.308-.457-.806.002-1.112.46-.306 1.204-.305 1.663.003ZM86.96 182.483c.46.308.458.806-.001 1.112-.46.306-1.204.305-1.662-.003-.459-.308-.458-.806.002-1.112.46-.306 1.203-.305 1.662.003ZM100.243 191.404c.458.308.458.806-.002 1.112-.46.306-1.204.305-1.662-.003-.459-.308-.458-.806.002-1.112.46-.307 1.203-.305 1.662.003ZM113.525 200.325c.459.307.458.805-.002 1.112-.459.306-1.203.305-1.662-.003-.458-.308-.457-.806.002-1.112.46-.307 1.204-.305 1.662.003ZM126.807 209.245c.459.308.458.806-.001 1.113-.46.306-1.204.305-1.663-.003-.458-.308-.457-.806.002-1.112.46-.307 1.204-.305 1.662.002ZM140.09 218.166c.458.308.457.806-.002 1.113-.46.306-1.204.305-1.662-.003-.459-.308-.458-.806.002-1.113.459-.306 1.203-.305 1.662.003ZM153.372 227.087c.458.308.458.806-.002 1.112-.46.307-1.204.306-1.662-.002-.459-.308-.458-.806.002-1.113.459-.306 1.203-.305 1.662.003ZM166.654 236.008c.459.308.458.806-.002 1.112-.459.307-1.203.305-1.662-.002-.458-.308-.458-.806.002-1.113.459-.306 1.204-.305 1.662.003ZM179.936 244.929c.459.308.458.806-.002 1.112-.459.307-1.203.305-1.662-.003-.458-.307-.457-.805.002-1.112.46-.306 1.204-.305 1.662.003ZM193.219 253.85c.458.308.457.806-.002 1.112-.46.307-1.204.305-1.662-.003-.459-.308-.458-.806.001-1.112.46-.306 1.204-.305 1.663.003ZM206.501 262.771c.458.308.457.806-.002 1.112-.46.306-1.204.305-1.662-.003-.459-.308-.458-.806.002-1.112.459-.306 1.203-.305 1.662.003ZM219.783 271.692c.459.308.458.806-.002 1.112-.459.306-1.204.305-1.662-.003-.459-.308-.458-.806.002-1.112.459-.306 1.204-.305 1.662.003ZM73.71 155.766c.458.308.457.806-.003 1.112-.46.306-1.203.305-1.662-.003-.458-.308-.458-.806.002-1.112.46-.306 1.204-.305 1.662.003ZM86.991 164.687c.459.308.458.806-.001 1.112-.46.306-1.204.305-1.663-.003-.458-.308-.457-.806.002-1.112.46-.307 1.204-.305 1.662.003ZM100.274 173.608c.458.307.457.805-.002 1.112-.46.306-1.204.305-1.663-.003-.458-.308-.457-.806.002-1.112.46-.307 1.204-.305 1.663.003ZM113.556 182.528c.458.308.457.806-.002 1.113-.46.306-1.204.305-1.662-.003-.459-.308-.458-.806.002-1.112.459-.307 1.203-.305 1.662.002ZM126.838 191.449c.459.308.458.806-.002 1.113-.459.306-1.204.305-1.662-.003-.459-.308-.458-.806.002-1.113.459-.306 1.204-.305 1.662.003ZM140.12 200.37c.459.308.458.806-.002 1.112-.459.307-1.203.306-1.662-.002-.458-.308-.457-.806.002-1.113.46-.306 1.204-.305 1.662.003ZM153.403 209.291c.458.308.457.806-.002 1.112-.46.307-1.204.305-1.663-.002-.458-.308-.457-.806.002-1.113.46-.306 1.204-.305 1.663.003ZM166.685 218.212c.458.308.457.806-.002 1.112-.46.307-1.204.305-1.662-.003-.459-.307-.458-.805.002-1.112.459-.306 1.203-.305 1.662.003ZM179.967 227.133c.458.308.458.806-.002 1.112-.459.307-1.204.305-1.662-.003-.459-.308-.458-.806.002-1.112.459-.306 1.203-.305 1.662.003ZM193.249 236.054c.459.308.458.806-.002 1.112-.459.306-1.203.305-1.662-.003-.458-.308-.458-.806.002-1.112.46-.306 1.204-.305 1.662.003ZM206.531 244.975c.459.308.458.806-.001 1.112-.46.306-1.204.305-1.663-.003-.458-.308-.457-.806.002-1.112.46-.306 1.204-.305 1.662.003ZM219.814 253.896c.458.308.457.806-.002 1.112-.46.306-1.204.305-1.662-.003-.459-.308-.458-.806.001-1.112.46-.307 1.204-.305 1.663.003ZM233.096 262.817c.458.307.457.805-.002 1.112-.46.306-1.204.305-1.662-.003-.459-.308-.458-.806.002-1.112.459-.307 1.203-.305 1.662.003ZM87.022 146.891c.458.307.458.805-.002 1.112-.46.306-1.204.305-1.662-.003-.459-.308-.458-.806.002-1.112.46-.307 1.204-.305 1.662.003ZM100.304 155.811c.459.308.458.806-.002 1.113-.46.306-1.204.305-1.662-.003-.458-.308-.457-.806.002-1.112.46-.307 1.204-.305 1.662.002ZM113.586 164.732c.459.308.458.806-.002 1.113-.459.306-1.203.305-1.662-.003-.458-.308-.457-.806.002-1.113.46-.306 1.204-.305 1.662.003ZM126.869 173.653c.458.308.457.806-.002 1.112-.46.307-1.204.306-1.662-.002-.459-.308-.458-.806.001-1.113.46-.306 1.204-.305 1.663.003ZM140.151 182.574c.458.308.457.806-.002 1.112-.46.307-1.204.305-1.662-.002-.459-.308-.458-.806.002-1.113.459-.306 1.203-.305 1.662.003ZM153.433 191.495c.459.308.458.806-.002 1.112-.459.307-1.204.305-1.662-.003-.458-.307-.458-.805.002-1.112.459-.306 1.204-.305 1.662.003ZM166.715 200.416c.459.308.458.806-.002 1.112-.459.307-1.203.305-1.662-.003-.458-.308-.457-.806.002-1.112.46-.306 1.204-.305 1.662.003ZM179.998 209.337c.458.308.457.806-.002 1.112-.46.306-1.204.305-1.663-.003-.458-.308-.457-.806.002-1.112.46-.306 1.204-.305 1.663.003ZM193.28 218.258c.458.308.457.806-.002 1.112-.46.306-1.204.305-1.662-.003-.459-.308-.458-.806.002-1.112.459-.306 1.203-.305 1.662.003ZM206.562 227.179c.458.308.458.806-.002 1.112-.459.306-1.204.305-1.662-.003-.459-.308-.458-.806.002-1.112.459-.307 1.204-.305 1.662.003ZM219.844 236.1c.459.307.458.805-.002 1.112-.459.306-1.203.305-1.662-.003-.458-.308-.457-.806.002-1.112.46-.307 1.204-.305 1.662.003ZM233.126 245.02c.459.308.458.806-.001 1.113-.46.306-1.204.305-1.663-.003-.458-.308-.457-.806.002-1.112.46-.307 1.204-.305 1.662.002ZM246.409 253.941c.458.308.457.806-.002 1.113-.46.306-1.204.305-1.662-.003-.459-.308-.458-.806.001-1.113.46-.306 1.204-.305 1.663.003ZM100.335 138.015c.458.308.457.806-.002 1.113-.46.306-1.204.305-1.662-.003-.459-.308-.458-.806.002-1.113.46-.306 1.203-.305 1.662.003ZM113.617 146.936c.458.308.458.806-.002 1.112-.459.307-1.204.306-1.662-.002-.459-.308-.458-.806.002-1.113.459-.306 1.204-.305 1.662.003ZM126.899 155.857c.459.308.458.806-.002 1.112-.459.307-1.203.305-1.662-.002-.458-.308-.458-.806.002-1.113.46-.306 1.204-.305 1.662.003ZM140.181 164.778c.459.308.458.806-.001 1.112-.46.307-1.204.305-1.663-.003-.458-.307-.457-.805.002-1.112.46-.306 1.204-.305 1.662.003ZM153.464 173.699c.458.308.457.806-.002 1.112-.46.307-1.204.305-1.662-.003-.459-.308-.458-.806.001-1.112.46-.306 1.204-.305 1.663.003ZM166.746 182.62c.458.308.458.806-.002 1.112-.46.306-1.204.305-1.662-.003-.459-.308-.458-.806.002-1.112.459-.306 1.203-.305 1.662.003ZM180.028 191.541c.459.308.458.806-.002 1.112-.459.306-1.204.305-1.662-.003-.458-.308-.458-.806.002-1.112.459-.306 1.204-.305 1.662.003ZM193.31 200.462c.459.308.458.806-.002 1.112-.459.306-1.203.305-1.662-.003-.458-.308-.457-.806.002-1.112.46-.307 1.204-.305 1.662.003ZM206.593 209.383c.458.307.457.805-.002 1.112-.46.306-1.204.305-1.663-.003-.458-.308-.457-.806.002-1.112.46-.307 1.204-.305 1.663.003ZM219.875 218.303c.458.308.457.806-.002 1.113-.46.306-1.204.305-1.662-.003-.459-.308-.458-.806.002-1.112.459-.307 1.203-.305 1.662.002ZM233.157 227.224c.459.308.458.806-.002 1.113-.459.306-1.204.305-1.662-.003-.459-.308-.458-.806.002-1.113.459-.306 1.204-.305 1.662.003ZM246.439 236.145c.459.308.458.806-.002 1.112-.459.307-1.203.306-1.662-.002-.458-.308-.457-.806.002-1.113.46-.306 1.204-.305 1.662.003ZM259.721 245.066c.459.308.458.806-.001 1.112-.46.307-1.204.305-1.663-.002-.458-.308-.457-.806.002-1.113.46-.306 1.204-.305 1.662.003ZM113.648 129.14c.458.308.457.806-.002 1.112-.46.307-1.204.305-1.663-.002-.458-.308-.457-.806.002-1.113.46-.306 1.204-.305 1.663.003ZM126.93 138.061c.458.308.457.806-.002 1.112-.46.307-1.204.305-1.662-.003-.459-.307-.458-.805.002-1.112.459-.306 1.203-.305 1.662.003ZM140.212 146.982c.458.308.458.806-.002 1.112-.459.307-1.204.305-1.662-.003-.459-.308-.458-.806.002-1.112.459-.306 1.204-.305 1.662.003ZM153.494 155.903c.459.308.458.806-.002 1.112-.459.306-1.203.305-1.662-.003-.458-.308-.457-.806.002-1.112.46-.306 1.204-.305 1.662.003ZM166.776 164.824c.459.308.458.806-.001 1.112-.46.306-1.204.305-1.663-.003-.458-.308-.457-.806.002-1.112.46-.306 1.204-.305 1.662.003ZM180.059 173.745c.458.308.457.806-.002 1.112-.46.306-1.204.305-1.662-.003-.459-.308-.458-.806.002-1.112.459-.307 1.203-.305 1.662.003ZM193.341 182.666c.458.307.458.805-.002 1.112-.46.306-1.204.305-1.662-.003-.459-.308-.458-.806.002-1.112.459-.307 1.203-.305 1.662.003ZM206.623 191.586c.459.308.458.806-.002 1.113-.459.306-1.203.305-1.662-.003-.458-.308-.458-.806.002-1.112.459-.307 1.204-.305 1.662.002ZM219.905 200.507c.459.308.458.806-.002 1.113-.459.306-1.203.305-1.662-.003-.458-.308-.457-.806.002-1.113.46-.306 1.204-.305 1.662.003ZM233.188 209.428c.458.308.457.806-.002 1.112-.46.307-1.204.306-1.662-.002-.459-.308-.458-.806.001-1.113.46-.306 1.204-.305 1.663.003ZM246.47 218.349c.458.308.457.806-.002 1.112-.46.307-1.204.305-1.662-.002-.459-.308-.458-.806.002-1.113.459-.306 1.203-.305 1.662.003ZM259.752 227.27c.459.308.458.806-.002 1.112-.459.307-1.204.305-1.662-.003-.459-.308-.458-.805.002-1.112.459-.306 1.204-.305 1.662.003ZM273.034 236.191c.459.308.458.806-.002 1.112-.459.307-1.203.305-1.662-.003-.458-.308-.457-.806.002-1.112.46-.306 1.204-.305 1.662.003ZM126.96 120.265c.459.308.458.806-.002 1.112-.459.307-1.203.305-1.662-.003-.458-.308-.457-.806.002-1.112.46-.306 1.204-.305 1.662.003ZM140.243 129.186c.458.308.457.806-.002 1.112-.46.306-1.204.305-1.663-.003-.458-.308-.457-.806.002-1.112.46-.306 1.204-.305 1.663.003ZM153.525 138.107c.458.308.457.806-.002 1.112-.46.306-1.204.305-1.662-.003-.459-.308-.458-.806.002-1.112.459-.306 1.203-.305 1.662.003ZM166.807 147.028c.459.308.458.806-.002 1.112-.459.306-1.204.305-1.662-.003-.459-.308-.458-.806.002-1.112.459-.307 1.204-.305 1.662.003ZM180.089 155.949c.459.307.458.805-.002 1.112-.459.306-1.203.305-1.662-.003-.458-.308-.457-.806.002-1.112.46-.307 1.204-.305 1.662.003ZM193.372 164.869c.458.308.457.806-.002 1.113-.46.306-1.204.305-1.663-.003-.458-.308-.457-.806.002-1.112.46-.307 1.204-.306 1.663.002ZM206.654 173.79c.458.308.457.806-.002 1.113-.46.306-1.204.305-1.662-.003-.459-.308-.458-.806.002-1.113.459-.306 1.203-.305 1.662.003ZM219.936 182.711c.458.308.458.806-.002 1.112-.459.307-1.204.306-1.662-.002-.459-.308-.458-.806.002-1.113.459-.306 1.203-.305 1.662.003ZM233.218 191.632c.459.308.458.806-.002 1.112-.459.307-1.203.305-1.662-.002-.458-.308-.458-.806.002-1.113.46-.306 1.204-.305 1.662.003ZM246.5 200.553c.459.308.458.806-.001 1.112-.46.307-1.204.305-1.663-.003-.458-.308-.457-.805.002-1.112.46-.306 1.204-.305 1.662.003ZM259.783 209.474c.458.308.457.806-.002 1.112-.46.307-1.204.305-1.662-.003-.459-.308-.458-.806.001-1.112.46-.306 1.204-.305 1.663.003ZM273.065 218.395c.458.308.457.806-.002 1.112-.46.306-1.204.305-1.662-.003-.459-.308-.458-.806.002-1.112.459-.306 1.203-.305 1.662.003ZM286.347 227.316c.459.308.458.806-.002 1.112-.459.306-1.204.305-1.662-.003-.458-.308-.458-.806.002-1.112.459-.306 1.204-.305 1.662.003ZM140.273 111.39c.459.308.458.806-.002 1.112-.459.306-1.203.305-1.662-.003-.458-.308-.458-.806.002-1.112.46-.306 1.204-.305 1.662.003ZM153.555 120.311c.459.308.458.806-.002 1.112-.459.306-1.203.305-1.662-.003-.458-.308-.457-.806.002-1.112.46-.307 1.204-.305 1.662.003ZM166.838 129.232c.458.307.457.805-.002 1.112-.46.306-1.204.305-1.662-.003-.459-.308-.458-.806.001-1.112.46-.307 1.204-.305 1.663.003ZM180.12 138.152c.458.308.457.806-.002 1.113-.46.306-1.204.305-1.662-.003-.459-.308-.458-.806.002-1.112.459-.307 1.203-.306 1.662.002ZM193.402 147.073c.459.308.458.806-.002 1.113-.459.306-1.204.305-1.662-.003-.458-.308-.458-.806.002-1.113.459-.306 1.204-.305 1.662.003ZM206.684 155.994c.459.308.458.806-.002 1.112-.459.307-1.203.306-1.662-.002-.458-.308-.457-.806.002-1.113.46-.306 1.204-.305 1.662.003ZM219.967 164.915c.458.308.457.806-.002 1.112-.46.307-1.204.305-1.663-.002-.458-.308-.457-.806.002-1.113.46-.306 1.204-.305 1.663.003ZM233.249 173.836c.458.308.457.806-.002 1.112-.46.307-1.204.305-1.662-.003-.459-.308-.458-.805.002-1.112.459-.306 1.203-.305 1.662.003ZM246.531 182.757c.458.308.458.806-.002 1.112-.459.307-1.204.305-1.662-.003-.459-.308-.458-.806.002-1.112.459-.306 1.204-.305 1.662.003ZM259.813 191.678c.459.308.458.806-.002 1.112-.459.306-1.203.305-1.662-.003-.458-.308-.458-.806.002-1.112.46-.306 1.204-.305 1.662.003ZM273.095 200.599c.459.308.458.806-.001 1.112-.46.306-1.204.305-1.663-.003-.458-.308-.457-.806.002-1.112.46-.306 1.204-.305 1.662.003ZM286.378 209.52c.458.308.457.806-.002 1.112-.46.306-1.204.305-1.662-.003-.459-.308-.458-.806.001-1.112.46-.307 1.204-.305 1.663.003ZM299.66 218.441c.458.307.458.805-.002 1.112-.46.306-1.204.305-1.662-.003-.459-.308-.458-.806.002-1.112.459-.307 1.203-.305 1.662.003ZM153.586 102.515c.458.307.458.805-.002 1.112-.459.306-1.204.305-1.662-.003-.459-.308-.458-.806.002-1.112.459-.307 1.204-.305 1.662.003ZM166.868 111.435c.459.308.458.806-.002 1.113-.459.306-1.203.305-1.662-.003-.458-.308-.458-.806.002-1.112.46-.307 1.204-.306 1.662.002ZM180.15 120.356c.459.308.458.806-.001 1.113-.46.306-1.204.305-1.663-.003-.458-.308-.457-.806.002-1.113.46-.306 1.204-.305 1.662.003ZM193.433 129.277c.458.308.457.806-.002 1.112-.46.307-1.204.306-1.662-.002-.459-.308-.458-.806.001-1.113.46-.306 1.204-.305 1.663.003ZM206.715 138.198c.458.308.458.806-.002 1.112-.46.307-1.204.305-1.662-.002-.459-.308-.458-.806.002-1.113.459-.306 1.203-.305 1.662.003ZM219.997 147.119c.459.308.458.806-.002 1.112-.459.307-1.204.305-1.662-.003-.458-.308-.458-.805.002-1.112.459-.306 1.204-.305 1.662.003ZM233.279 156.04c.459.308.458.806-.002 1.112-.459.307-1.203.305-1.662-.003-.458-.308-.457-.806.002-1.112.46-.306 1.204-.305 1.662.003ZM246.562 164.961c.458.308.457.806-.002 1.112-.46.306-1.204.305-1.663-.003-.458-.308-.457-.806.002-1.112.46-.306 1.204-.305 1.663.003ZM259.844 173.882c.458.308.457.806-.002 1.112-.46.306-1.204.305-1.662-.003-.459-.308-.458-.806.002-1.112.459-.306 1.203-.305 1.662.003ZM273.126 182.803c.458.308.458.806-.002 1.112-.459.306-1.204.305-1.662-.003-.459-.308-.458-.806.002-1.112.459-.307 1.204-.305 1.662.003ZM286.408 191.724c.459.307.458.805-.002 1.112-.459.306-1.203.305-1.662-.003-.458-.308-.457-.806.002-1.112.46-.307 1.204-.305 1.662.003ZM299.69 200.644c.459.308.458.806-.001 1.113-.46.306-1.204.305-1.663-.003-.458-.308-.457-.806.002-1.112.46-.307 1.204-.306 1.662.002ZM312.973 209.565c.458.308.457.806-.002 1.113-.46.306-1.204.305-1.662-.003-.459-.308-.458-.806.002-1.113.459-.306 1.203-.305 1.662.003ZM166.899 93.64c.458.307.457.805-.002 1.112-.46.306-1.204.305-1.662-.003-.459-.308-.458-.806.002-1.112.459-.307 1.203-.306 1.662.002ZM180.181 102.56c.458.308.458.806-.002 1.112-.459.307-1.204.306-1.662-.002-.459-.308-.458-.806.002-1.113.459-.306 1.204-.305 1.662.003ZM193.463 111.481c.459.308.458.806-.002 1.112-.459.307-1.203.305-1.662-.002-.458-.308-.457-.806.002-1.113.46-.306 1.204-.305 1.662.003ZM206.745 120.402c.459.308.458.806-.001 1.112-.46.307-1.204.305-1.663-.003-.458-.308-.457-.805.002-1.112.46-.306 1.204-.305 1.662.003ZM220.028 129.323c.458.308.457.806-.002 1.112-.46.307-1.204.305-1.662-.003-.459-.308-.458-.806.002-1.112.459-.306 1.203-.305 1.662.003ZM233.31 138.244c.458.308.458.806-.002 1.112-.46.306-1.204.305-1.662-.003-.459-.308-.458-.806.002-1.112.459-.306 1.203-.305 1.662.003ZM246.592 147.165c.459.308.458.806-.002 1.112-.459.306-1.203.305-1.662-.003-.458-.308-.458-.806.002-1.112.459-.306 1.204-.305 1.662.003ZM259.874 156.086c.459.308.458.806-.002 1.112-.459.306-1.203.305-1.662-.003-.458-.308-.457-.806.002-1.112.46-.307 1.204-.305 1.662.003ZM273.157 165.007c.458.307.457.805-.002 1.112-.46.306-1.204.305-1.662-.003-.459-.308-.458-.806.001-1.112.46-.307 1.204-.305 1.663.003ZM286.439 173.927c.458.308.457.806-.002 1.113-.46.306-1.204.305-1.662-.003-.459-.308-.458-.806.002-1.112.459-.307 1.203-.306 1.662.002ZM299.721 182.848c.459.308.458.806-.002 1.113-.459.306-1.204.305-1.662-.003-.459-.308-.458-.806.002-1.113.459-.306 1.204-.305 1.662.003ZM313.003 191.769c.459.308.458.806-.002 1.112-.459.307-1.203.306-1.662-.002-.458-.308-.457-.806.002-1.113.46-.306 1.204-.305 1.662.003ZM326.286 200.69c.458.308.457.806-.002 1.112-.46.307-1.204.305-1.663-.002-.458-.308-.457-.806.002-1.113.46-.306 1.204-.305 1.663.003ZM180.212 84.764c.458.308.457.806-.002 1.112-.46.307-1.204.305-1.663-.002-.458-.308-.457-.806.002-1.113.46-.306 1.204-.305 1.663.003ZM193.494 93.685c.458.308.457.806-.002 1.112-.46.307-1.204.305-1.662-.003-.459-.307-.458-.805.002-1.112.459-.306 1.203-.305 1.662.003ZM206.776 102.606c.459.308.458.806-.002 1.112-.459.307-1.204.305-1.662-.003-.459-.308-.458-.806.002-1.112.459-.306 1.204-.305 1.662.003ZM220.058 111.527c.459.308.458.806-.002 1.112-.459.306-1.203.305-1.662-.003-.458-.308-.457-.806.002-1.112.46-.306 1.204-.305 1.662.003ZM233.34 120.448c.459.308.458.806-.001 1.112-.46.306-1.204.305-1.663-.003-.458-.308-.457-.806.002-1.112.46-.306 1.204-.305 1.662.003ZM246.623 129.369c.458.308.457.806-.002 1.112-.46.306-1.204.305-1.662-.003-.459-.308-.458-.806.002-1.112.459-.307 1.203-.305 1.662.003ZM259.905 138.29c.458.307.458.805-.002 1.112-.459.306-1.204.305-1.662-.003-.459-.308-.458-.806.002-1.112.459-.307 1.203-.305 1.662.003ZM273.187 147.21c.459.308.458.806-.002 1.113-.459.306-1.203.305-1.662-.003-.458-.308-.458-.806.002-1.112.46-.307 1.204-.306 1.662.002ZM286.469 156.131c.459.308.458.806-.002 1.113-.459.306-1.203.305-1.662-.003-.458-.308-.457-.806.002-1.113.46-.306 1.204-.305 1.662.003ZM299.752 165.052c.458.308.457.806-.002 1.112-.46.307-1.204.306-1.662-.002-.459-.308-.458-.806.001-1.113.46-.306 1.204-.305 1.663.003ZM313.034 173.973c.458.308.457.806-.002 1.112-.46.307-1.204.305-1.662-.002-.459-.308-.458-.806.002-1.113.459-.306 1.203-.305 1.662.003ZM326.316 182.894c.459.308.458.806-.002 1.112-.459.307-1.204.305-1.662-.003-.458-.308-.458-.805.002-1.112.459-.306 1.204-.305 1.662.003ZM339.598 191.815c.459.308.458.806-.002 1.112-.459.307-1.203.305-1.662-.003-.458-.308-.457-.806.002-1.112.46-.306 1.204-.305 1.662.003ZM193.524 75.889c.459.308.458.806-.002 1.112-.459.306-1.203.305-1.662-.003-.458-.308-.457-.806.002-1.112.46-.306 1.204-.305 1.662.003ZM206.807 84.81c.458.308.457.806-.002 1.112-.46.306-1.204.305-1.662-.003-.459-.308-.458-.806.001-1.112.46-.306 1.204-.305 1.663.003ZM220.089 93.73c.458.309.457.807-.002 1.113-.46.306-1.204.305-1.662-.003-.459-.308-.458-.806.002-1.112.459-.306 1.203-.305 1.662.003ZM233.371 102.652c.459.308.458.806-.002 1.112-.459.306-1.204.305-1.662-.003-.459-.308-.458-.806.002-1.112.459-.307 1.204-.305 1.662.003ZM246.653 111.573c.459.307.458.805-.002 1.112-.459.306-1.203.305-1.662-.003-.458-.308-.457-.806.002-1.112.46-.307 1.204-.305 1.662.003ZM259.936 120.493c.458.308.457.806-.002 1.113-.46.306-1.204.305-1.663-.003-.458-.308-.457-.806.002-1.112.46-.307 1.204-.306 1.663.002ZM273.218 129.414c.458.308.457.806-.002 1.113-.46.306-1.204.305-1.662-.003-.459-.308-.458-.806.002-1.113.459-.306 1.203-.305 1.662.003ZM286.5 138.335c.458.308.458.806-.002 1.112-.459.307-1.204.306-1.662-.002-.459-.308-.458-.806.002-1.113.459-.306 1.204-.305 1.662.003ZM299.782 147.256c.459.308.458.806-.002 1.112-.459.307-1.203.305-1.662-.002-.458-.308-.458-.806.002-1.113.46-.306 1.204-.305 1.662.003ZM313.064 156.177c.459.308.458.806-.001 1.112-.46.307-1.204.305-1.663-.003-.458-.308-.457-.805.002-1.112.46-.306 1.204-.305 1.662.003ZM326.347 165.098c.458.308.457.806-.002 1.112-.46.307-1.204.305-1.662-.003-.459-.308-.458-.806.001-1.112.46-.306 1.204-.305 1.663.003ZM339.629 174.019c.458.308.458.806-.002 1.112-.46.306-1.204.305-1.662-.003-.459-.308-.458-.806.002-1.112.459-.306 1.203-.305 1.662.003ZM352.911 182.94c.459.308.458.806-.002 1.112-.459.306-1.204.305-1.662-.003-.458-.308-.458-.806.002-1.112.459-.307 1.204-.305 1.662.003ZM206.837 67.014c.459.308.458.806-.002 1.112-.459.306-1.203.305-1.662-.003-.458-.308-.458-.806.002-1.112.46-.306 1.204-.305 1.662.003ZM220.119 75.935c.459.308.458.805-.001 1.112-.46.306-1.204.305-1.663-.003-.458-.308-.457-.806.002-1.112.46-.307 1.204-.305 1.662.003ZM233.402 84.856c.458.307.457.805-.002 1.112-.46.306-1.204.305-1.662-.003-.459-.308-.458-.806.001-1.112.46-.307 1.204-.305 1.663.003ZM246.684 93.776c.458.308.457.806-.002 1.113-.46.306-1.204.305-1.662-.003-.459-.308-.458-.806.002-1.112.459-.307 1.203-.305 1.662.002ZM259.966 102.697c.459.308.458.806-.002 1.113-.459.306-1.204.305-1.662-.003-.458-.308-.458-.806.002-1.113.459-.306 1.204-.305 1.662.003ZM273.248 111.618c.459.308.458.806-.002 1.112-.459.307-1.203.306-1.662-.002-.458-.308-.457-.806.002-1.113.46-.306 1.204-.305 1.662.003ZM286.531 120.539c.458.308.457.806-.002 1.112-.46.307-1.204.305-1.663-.002-.458-.308-.457-.806.002-1.113.46-.306 1.204-.305 1.663.003ZM299.813 129.46c.458.308.457.806-.002 1.112-.46.307-1.204.305-1.662-.003-.459-.308-.458-.805.002-1.112.459-.306 1.203-.305 1.662.003ZM313.095 138.381c.458.308.458.806-.002 1.112-.459.307-1.204.305-1.662-.003-.459-.308-.458-.806.002-1.112.459-.306 1.204-.305 1.662.003ZM326.377 147.302c.459.308.458.806-.002 1.112-.459.306-1.203.305-1.662-.003-.458-.308-.457-.806.002-1.112.46-.306 1.204-.305 1.662.003ZM339.659 156.223c.459.308.458.806-.001 1.112-.46.306-1.204.305-1.663-.003-.458-.308-.457-.806.002-1.112.46-.307 1.204-.305 1.662.003ZM352.942 165.144c.458.308.457.806-.002 1.112-.46.306-1.204.305-1.662-.003-.459-.308-.458-.806.002-1.112.459-.307 1.203-.305 1.662.003ZM366.224 174.065c.458.307.458.805-.002 1.112-.46.306-1.204.305-1.662-.003-.459-.308-.458-.806.002-1.112.459-.307 1.203-.305 1.662.003ZM220.15 58.139c.458.307.458.805-.002 1.112-.459.306-1.204.305-1.662-.003-.459-.308-.458-.806.002-1.112.459-.307 1.204-.305 1.662.002ZM233.432 67.06c.459.307.458.805-.002 1.112-.459.306-1.203.305-1.662-.003-.458-.308-.457-.806.002-1.112.46-.307 1.204-.306 1.662.002ZM246.714 75.98c.459.308.458.806-.001 1.113-.46.306-1.204.305-1.663-.003-.458-.308-.457-.806.002-1.112.46-.307 1.204-.306 1.662.002ZM259.997 84.901c.458.308.457.806-.002 1.112-.46.307-1.204.305-1.662-.002-.459-.308-.458-.806.001-1.113.46-.306 1.204-.305 1.663.003ZM273.279 93.822c.458.308.458.806-.002 1.112-.46.307-1.204.305-1.662-.002-.459-.308-.458-.806.002-1.113.459-.306 1.203-.305 1.662.003ZM286.561 102.743c.459.308.458.806-.002 1.112-.459.307-1.203.305-1.662-.003-.458-.308-.458-.805.002-1.112.459-.306 1.204-.305 1.662.003ZM299.843 111.664c.459.308.458.806-.002 1.112-.459.307-1.203.305-1.662-.003-.458-.308-.457-.806.002-1.112.46-.306 1.204-.305 1.662.003ZM313.126 120.585c.458.308.457.806-.002 1.112-.46.306-1.204.305-1.663-.003-.458-.308-.457-.806.002-1.112.46-.306 1.204-.305 1.663.003ZM326.408 129.506c.458.308.457.806-.002 1.112-.46.306-1.204.305-1.662-.003-.459-.308-.458-.806.002-1.112.459-.307 1.203-.305 1.662.003ZM339.69 138.427c.459.308.458.806-.002 1.112-.459.306-1.204.305-1.662-.003-.459-.308-.458-.806.002-1.112.459-.307 1.204-.305 1.662.003ZM352.972 147.348c.459.307.458.805-.002 1.112-.459.306-1.203.305-1.662-.003-.458-.308-.457-.806.002-1.112.46-.307 1.204-.305 1.662.003ZM366.255 156.268c.458.308.457.806-.002 1.113-.46.306-1.204.305-1.663-.003-.458-.308-.457-.806.002-1.112.46-.307 1.204-.306 1.663.002ZM379.537 165.189c.458.308.457.806-.002 1.113-.46.306-1.204.305-1.662-.003-.459-.308-.458-.806.002-1.113.459-.306 1.203-.305 1.662.003Z" fill="#33323E"/></g><path d="m103.171 172.94.019-.055v-6.524l-.018-.054a1.886 1.886 0 0 1-.001-1.239l.019-.055v-.076h.021l.097-.183c.205-.384.545-.759 1.036-1.086l57.477-38.318c.884-.59 2.061-.893 3.255-.891 1.193.002 2.369.309 3.251.902l33.26 22.339c1.006.676 1.377 1.543 1.244 2.327l-.068.403h.178v6.908h-.071l-.014.331c-.029.668-.426 1.373-1.276 1.939l-57.478 38.319c-.884.589-2.06.893-3.254.891-1.193-.002-2.369-.31-3.251-.902l-33.26-22.34a3.28 3.28 0 0 1-.868-.822l-.103-.146h-.176v-.374l-.018-.055a1.874 1.874 0 0 1-.001-1.239Z" fill="#09080D"/><path d="m103.171 172.94.019-.055v-6.524l-.018-.054a1.886 1.886 0 0 1-.001-1.239l.019-.055v-.076h.021l.097-.183c.205-.384.545-.759 1.036-1.086l57.477-38.318c.884-.59 2.061-.893 3.255-.891 1.193.002 2.369.309 3.251.902l33.26 22.339c1.006.676 1.377 1.543 1.244 2.327l-.068.403h.178v6.908h-.071l-.014.331c-.029.668-.426 1.373-1.276 1.939l-57.478 38.319c-.884.589-2.06.893-3.254.891-1.193-.002-2.369-.31-3.251-.902l-33.26-22.34a3.28 3.28 0 0 1-.868-.822l-.103-.146h-.176v-.374l-.018-.055a1.874 1.874 0 0 1-.001-1.239Z" stroke="#fff" stroke-opacity=".25" stroke-width=".691"/><path d="m103.171 172.94.019-.055v-6.524l-.018-.054a1.886 1.886 0 0 1-.001-1.239l.019-.055v-.076h.021l.097-.183c.205-.384.545-.759 1.036-1.086l57.477-38.318c.884-.59 2.061-.893 3.255-.891 1.193.002 2.369.309 3.251.902l33.26 22.339c1.006.676 1.377 1.543 1.244 2.327l-.068.403h.178v6.908h-.071l-.014.331c-.029.668-.426 1.373-1.276 1.939l-57.478 38.319c-.884.589-2.06.893-3.254.891-1.193-.002-2.369-.31-3.251-.902l-33.26-22.34a3.28 3.28 0 0 1-.868-.822l-.103-.146h-.176v-.374l-.018-.055a1.874 1.874 0 0 1-.001-1.239Z" stroke="#4E4D51" stroke-width=".691"/><rect width="77.369" height="48.356" rx="4.145" transform="matrix(.83205 -.5547 .83014 .55756 101.192 162.917)" fill="#131217"/><rect x=".831" y=".001" width="76.369" height="47.356" rx="3.645" transform="matrix(.83205 -.5547 .83014 .55756 101.33 163.378)" stroke="#fff" stroke-opacity=".25"/><rect x=".831" y=".001" width="76.369" height="47.356" rx="3.645" transform="matrix(.83205 -.5547 .83014 .55756 101.33 163.378)" stroke="#4E4D51" stroke-opacity=".3"/><rect opacity=".2" width="31.388" height="4.837" rx="2" transform="matrix(.83205 -.5547 .83014 .55756 127.68 156.017)" fill="#D9D9D9"/><rect opacity=".1" width="38.684" height="3.066" rx="1.533" transform="matrix(.83205 -.5547 .83014 .55756 148.198 172.422)" fill="#D9D9D9"/><g opacity=".5" clip-path="url(#clip0_1979_204926)"><path fill-rule="evenodd" clip-rule="evenodd" d="M117.956 160.188c-2.076 1.384-2.08 3.632-.008 5.024 1.659 1.114 4.136 1.338 6.127.676.221-.103.179-.226.08-.292-.089-.06-.389-.255-.703-.466-.771.746-1.418.638-1.704.547-.15-.045-.666-.146-.915-.099-.202.04-.563.049-.253-.164.291-.201.779-.156.962-.127.905.155 1.286-.312 1.404-.522-.211-.186-.276-.362-.262-.497-.93.495-2.127.86-3.561-.103-.408-.274-.6-.598-.623-.934-.131-.038-.647-.208-.956-.692 0 0 .216-.276 1.418-.431.216-.257.493-.499.813-.712a5.227 5.227 0 0 1 1.066-.541c.231-.807.649-.947.649-.947.723.208.975.554 1.031.642.503.017.981.143 1.393.42 1.439.967.88 1.766.137 2.387.254-.012.596.061.948.297.501.337.899.61 1.026.695a.344.344 0 0 0 .437-.052c.987-1.324.657-2.985-.998-4.097-2.071-1.391-5.431-1.397-7.508-.012Z" fill="#F7F7F8"/></g><path d="m143.046 176.643.135.091c.318.213.523.489.587.787.064.297-.018.601-.233.865-.215.263-.552.474-.96.599a3.049 3.049 0 0 1-1.306.095c-.44-.064-.837-.22-1.133-.447-.296-.227-.474-.511-.509-.811-.034-.3.077-.599.317-.853.241-.254.597-.449 1.017-.556" stroke="#42946E" stroke-linecap="round" stroke-linejoin="round"/><path d="m142.004 175.943-.002 1.973-.884-.002" stroke="#42946E" stroke-linecap="round" stroke-linejoin="round"/><path d="m192.172 199.94.018-.055v-6.524l-.018-.054a1.88 1.88 0 0 1 0-1.239l.018-.055v-.076h.021l.097-.183c.205-.384.545-.759 1.036-1.086l57.478-38.318c.884-.59 2.06-.893 3.254-.891 1.193.002 2.369.309 3.251.902l33.26 22.339c1.006.676 1.377 1.543 1.244 2.327l-.068.403h.179v6.908h-.072l-.014.331c-.029.668-.426 1.373-1.276 1.939l-57.477 38.319c-.885.589-2.061.893-3.255.891-1.193-.002-2.369-.31-3.251-.902l-33.26-22.34a3.26 3.26 0 0 1-.867-.822l-.104-.146h-.176v-.374l-.018-.055a1.88 1.88 0 0 1 0-1.239Z" fill="#09080D" stroke="#4E4D51" stroke-width=".691"/><rect x=".831" y=".001" width="76.369" height="47.356" rx="3.645" transform="matrix(.83205 -.5547 .83014 .55756 190.33 190.378)" fill="#131217" stroke="#4E4D51"/><rect opacity=".2" width="31.931" height="4.837" rx="2" transform="matrix(.83205 -.5547 .83014 .55756 216.68 183.017)" fill="#D9D9D9"/><rect opacity=".1" width="25.75" height="3.066" rx="1.533" transform="matrix(.83205 -.5547 .83014 .55756 237.198 199.422)" fill="#D9D9D9"/><g opacity=".5" clip-path="url(#clip1_1979_204926)"><path d="M215.063 187.793a.738.738 0 0 0-.553.039.845.845 0 0 0-.231.172c-.131.132-.24.223-.327.284a5.866 5.866 0 0 0-1.055-1.738c-.731-.832-1.316-1.043-1.678-1.073-.959-.08-1.863.137-2.614.625-.4.261-.67.545-.795.703a5.083 5.083 0 0 0-.59.328c-.362.234-.6.496-.71.783-.2.066-.51.178-.832.331-.757.362-1.198.768-1.311 1.205-.137.529.216 1.054 1.05 1.561.265.161 1.173.582 2.123.922.546.195 1.029.338 1.437.423.578.12 1.015.127 1.335.021.18-.06.456-.202.499-.517.072.004.155.002.249-.012.12-.018.247-.053.359-.098.404-.161.686-.376.831-.624l.131.083.183.116c.396.245.717.426 1 .513l.063.021c.155.053.415.142.732.137a1.403 1.403 0 0 0 .999-.428c.22-.226.446-.499.35-.871-.091-.352-.45-.735-1.163-1.239l-.053-.045-.034-.029.056-.031.014-.008c.297-.181.585-.454.7-.663.091-.165.347-.718-.165-.891" fill="#000"/><path d="M214.651 188.167c-.673.682-1.017.529-1.017.529-.429-1.485-1.736-2.863-2.469-2.924-2.002-.166-2.994 1.205-3.006 1.231l-.006.007a4.38 4.38 0 0 0-.624.337c-.389.251-.574.516-.627.775 0 0-3.834 1.062-1.186 2.671.563.342 4.828 2.212 4.652.906-.065-.478-.081-.907-.081-.907.259-.035.498-.124.674-.266l.002-.019a.845.845 0 0 0 .158.098c.026.323.138.308-.225.676-.367.372.074.304.295.216.269-.107.842-.388.708-.927l.041.045c.161-.012.617.211.964.458.346.246.584.416.846.497.262.082.763.324 1.235-.162.395-.407.377-.767-.051-1.102-.304-.239-.197-.245-.488-.445l-.093-.125c-.393-.336-.582-.403-.206-.564l.082-.045c.237-.145.488-.375.582-.546.202-.368.134-.712-.16-.413v-.001" fill="#336791"/><path d="M208.705 189.121c-.087.044-.146.096-.155.137a.049.049 0 0 0 .017.048c.027.024.083.033.115.036a.47.47 0 0 0 .243-.038.128.128 0 0 0 .025-.015c.093-.061.105-.165.059-.206-.057-.051-.197-.016-.304.038Zm2.53-1.684c-.06-.03-.167.022-.243.089-.076.067-.121.15-.062.18.046.024.189.021.275-.037a.157.157 0 0 0 .076-.14c-.002-.042-.02-.078-.046-.092" fill="#fff"/><path d="M214.913 187.967c-.13-.044-.265.004-.402.143-.407.412-.664.486-.769.496a5.58 5.58 0 0 0-1.117-1.959 4.201 4.201 0 0 0-.735-.673c-.265-.183-.508-.285-.724-.303-.868-.072-1.689.126-2.374.573-.471.307-.746.649-.788.723a3.39 3.39 0 0 0-.595.306c-.355.229-.574.487-.654.768a6.718 6.718 0 0 0-.925.36c-.69.332-1.09.696-1.189 1.08-.118.459.205.924.958 1.382.254.154 1.135.561 2.064.894 1.223.438 2.064.586 2.501.441a.629.629 0 0 0 .153-.073c.119-.08.212-.213.182-.438a9.435 9.435 0 0 1-.075-.822c.198-.039.378-.108.527-.202a.075.075 0 0 0 .012.007c.005.037.01.073.017.11.027.152.032.183-.224.443-.073.074-.267.27-.1.387.182.128.553-.014.594-.031.145-.058.271-.123.378-.194.259-.172.402-.382.42-.613.659.449 1.341.871 1.62.951.229.066.788.228 1.293-.109.074-.05.147-.11.218-.183.414-.427.411-.736-.013-1.139a32.016 32.016 0 0 0-1.112-.97c.106-.037.221-.099.334-.174.234-.156.455-.37.546-.536.102-.186.229-.561-.021-.645Zm-3.627-.756c.102.071.181.143.264.22.09.081.182.166.31.258.125.089.275.168.42.245.294.155.596.314.737.577a1.831 1.831 0 0 1-.17-.04 4.191 4.191 0 0 0-.278-.058c-.508-.097-1.698-.326-1.791-.68-.028-.106.042-.28.508-.522Zm-2.258-.844c.621-.396 1.328-.564 2.102-.499.594.049 1.82 1.257 2.294 2.689l-.057-.005-.024-.001c-.139-.382-.531-.589-.879-.773a3.248 3.248 0 0 1-.387-.225 2.924 2.924 0 0 1-.287-.239 2.46 2.46 0 0 0-.366-.29.202.202 0 0 0-.053-.04c-.157-.087-.75-.266-1.472-.304a4.758 4.758 0 0 0-1.424.133c.124-.127.308-.29.553-.446Zm1.175 5.338c.034.247-.121.299-.172.315-.331.111-1.143-.049-2.229-.438-.939-.336-1.791-.736-2.004-.866-.673-.409-.964-.813-.865-1.201.162-.63 1.304-1.079 1.788-1.242l-.001.02c.004.805 1.05 1.488 1.114 1.529.024.017.061.038.111.068.184.11.526.314.84.594.292.259.729.413 1.2.42.048.001.096 0 .144-.002.007.142.027.453.074.803Zm-.212-.999c-.379-.006-.732-.131-.969-.341-.332-.296-.689-.508-.88-.623a5.7 5.7 0 0 1-.068-.041c.01-.11.198-.526.554-.674a.635.635 0 0 1 .519.02c.972.421 1.154.744 1.301 1.004.03.054.059.104.093.154l.026.038c.066.097.127.187.197.265-.198.131-.474.203-.773.198Zm1.107.703a.893.893 0 0 1-.2.053.649.649 0 0 1 .105-.129c.302-.306.305-.382.271-.576-.008-.045-.017-.095-.022-.161-.008-.097.037-.109.117-.131a.46.46 0 0 1 .25.021c.038.015.105.046.118.097.106.429-.289.686-.639.826Zm3.832-.086c-.365.377-.766.327-1.145.218-.244-.071-1.065-.576-1.91-1.176a.718.718 0 0 0-.112-.052.87.87 0 0 0-.507-.032c-.06.017-.169.047-.238.125-.062-.068-.119-.153-.182-.245l-.026-.038c-.03-.044-.056-.091-.085-.142-.153-.272-.364-.644-1.417-1.101-.394-.17-.787-.12-1.106.142a1.357 1.357 0 0 0-.376.501c-.3-.237-.807-.716-.81-1.231-.001-.324.201-.619.599-.877.785-.506 1.677-.571 2.286-.536.525.03.942.136 1.148.205-.431.234-.621.463-.563.683.125.477 1.393.72 2.002.837.111.021.208.04.245.05.243.068.45.084.601.095.046.004.091.007.128.012-.084.102-.219.297.195.548.182.144.996.84 1.267 1.097.357.34.359.554.006.917Zm-.274-2.779c-.066.118-.226.282-.41.417-.203.148-.345.198-.392.201-.257-.157-.191-.235-.121-.318l.031-.039.05-.005c.284-.038.602-.234.944-.581l.004-.004a.805.805 0 0 1-.106.329Z" fill="#fff"/></g><path d="m232.046 203.643.135.091c.318.213.523.489.587.787.064.297-.018.601-.233.865-.215.263-.552.474-.96.599a3.049 3.049 0 0 1-1.306.095c-.44-.064-.837-.22-1.133-.447-.296-.227-.474-.511-.509-.811-.034-.3.077-.599.317-.853.241-.254.597-.449 1.017-.556" stroke="#42946E" stroke-linecap="round" stroke-linejoin="round"/><path d="m231.004 202.943-.002 1.973-.884-.002" stroke="#42946E" stroke-linecap="round" stroke-linejoin="round"/><g opacity=".4"><path d="M319 77.954a.753.753 0 0 1 1.181-.619l30.494 21.083c.204.14.325.372.325.619v25.11a.753.753 0 0 1-1.181.62l-30.494-21.083a.75.75 0 0 1-.325-.619v-25.11Z" fill="#0A090E" stroke="#4E4D51" stroke-width=".753" stroke-linecap="round"/><path d="M383 77.954a.753.753 0 0 0-1.181-.619l-30.494 21.083a.752.752 0 0 0-.325.619v25.11c0 .607.682.965 1.181.62l30.494-21.083a.75.75 0 0 0 .325-.619v-25.11Z" fill="#0A090E" stroke="#4E4D51" stroke-width=".753" stroke-linecap="round"/><path d="m355.926 57.319 26.196 18.386c.427.3.427.932 0 1.232L351.627 98.34a.752.752 0 0 1-.861.003L319.893 76.94a.753.753 0 0 1 0-1.238l26.557-18.41a8.28 8.28 0 0 1 9.476.027Z" fill="#0A090E" stroke="#4E4D51" stroke-width=".753" stroke-linecap="round"/><g clip-path="url(#clip2_1979_204926)"><path d="M351.634 69.449c1.043.7-.654 2.962-3.789 5.053-3.135 2.09-6.522 3.217-7.565 2.516m11.354-7.57c-1.043-.7-4.43.427-7.565 2.518-3.135 2.09-4.832 4.352-3.789 5.052m11.354-7.57 8.811 5.919c1.045.701-.635 2.95-3.789 5.052-3.154 2.103-6.521 3.219-7.565 2.517l-8.811-5.918m15.76-4.61c1.044.701-.636 2.95-3.79 5.052-3.153 2.103-6.52 3.219-7.565 2.517" stroke="#868593" stroke-width="1.129" stroke-linecap="round" stroke-linejoin="round"/></g></g><g opacity=".44"><path d="M42 84.954a.753.753 0 0 1 1.181-.619l30.494 21.082a.755.755 0 0 1 .325.62v25.11a.753.753 0 0 1-1.181.62l-30.494-21.083a.752.752 0 0 1-.325-.619v-25.11Z" fill="#0A090E" stroke="#4E4D51" stroke-width=".753" stroke-linecap="round"/><path d="M106 84.954a.753.753 0 0 0-1.181-.619l-30.494 21.082a.755.755 0 0 0-.325.62v25.11c0 .607.682.965 1.181.62l30.494-21.083a.75.75 0 0 0 .325-.619v-25.11Z" fill="#0A090E" stroke="#4E4D51" stroke-width=".753" stroke-linecap="round"/><path d="m78.926 64.319 26.196 18.386c.427.3.427.932 0 1.232L74.627 105.34a.755.755 0 0 1-.861.003L42.893 83.94a.753.753 0 0 1 0-1.238l26.556-18.41a8.282 8.282 0 0 1 9.477.027Z" fill="#0A090E" stroke="#4E4D51" stroke-width=".753" stroke-linecap="round"/><g clip-path="url(#clip3_1979_204926)"><path d="m79.67 78.987-12.615 8.41m12.615-8.41 3.776 2.536c.334.225.522.528.52.844 0 .317-.188.62-.522.843L73.35 89.938c-.335.223-.788.348-1.26.347-.473 0-.926-.127-1.26-.351l-3.776-2.536m12.615-8.41-6.512-1.462a2.63 2.63 0 0 0-.975-.033 2.14 2.14 0 0 0-.853.316l-6.005 4.004c-.234.156-.399.353-.475.57a.82.82 0 0 0 .045.651l2.16 4.364m5.04.008.006-.004m2.517-1.678.007-.004" stroke="#868593" stroke-width="1.129" stroke-linecap="round" stroke-linejoin="round"/></g></g><path opacity=".8" d="M152 75v75m0 0-3-3m3 3 3-3" stroke="url(#paint0_linear_1979_204926)" stroke-width="2.5" stroke-linecap="round"/><path opacity=".8" d="M241 109v75m0 0-3-3m3 3 3-3" stroke="url(#paint1_linear_1979_204926)" stroke-width="2.5" stroke-linecap="round"/><path d="M120 25.954a.753.753 0 0 1 1.181-.619l30.494 21.082c.204.141.325.373.325.62v25.11a.753.753 0 0 1-1.181.62l-30.494-21.083a.752.752 0 0 1-.325-.62v-25.11Z" fill="#0A090E" stroke="#C913AC" stroke-opacity=".7" stroke-width=".753" stroke-linecap="round"/><path d="M184 25.954a.753.753 0 0 0-1.181-.619l-30.494 21.082a.752.752 0 0 0-.325.62v25.11c0 .607.682.965 1.181.62l30.494-21.083a.752.752 0 0 0 .325-.62v-25.11Z" fill="#0A090E" stroke="#C913AC" stroke-opacity=".7" stroke-width=".753" stroke-linecap="round"/><path d="m156.926 5.319 26.196 18.386c.427.3.427.932 0 1.232L152.627 46.34a.752.752 0 0 1-.861.003L120.893 24.94a.753.753 0 0 1 0-1.238l26.557-18.41a8.281 8.281 0 0 1 9.476.027Z" fill="#0A090E" stroke="#C913AC" stroke-opacity=".7" stroke-width=".753" stroke-linecap="round"/><g clip-path="url(#clip4_1979_204926)"><path fill-rule="evenodd" clip-rule="evenodd" d="M143.81 19.12c-4.182 2.788-4.189 7.316-.017 10.119 3.342 2.244 8.331 2.695 12.341 1.362.444-.208.36-.455.161-.588-.179-.12-.783-.514-1.416-.939-1.552 1.503-2.856 1.286-3.432 1.101-.303-.089-1.342-.293-1.843-.199-.406.082-1.134.1-.51-.33.587-.403 1.57-.313 1.938-.256 1.824.313 2.591-.628 2.828-1.05-.425-.375-.556-.73-.528-1.001-1.873.996-4.284 1.732-7.173-.208-.821-.552-1.207-1.204-1.253-1.88-.265-.077-1.304-.42-1.926-1.395 0 0 .436-.556 2.856-.868a7.767 7.767 0 0 1 1.637-1.433c.644-.429 1.372-.8 2.147-1.09.466-1.625 1.308-1.908 1.308-1.908 1.455.42 1.964 1.116 2.077 1.294 1.011.033 1.975.288 2.805.846 2.899 1.946 1.771 3.557.276 4.806.51-.024 1.2.123 1.908.598 1.01.678 1.812 1.23 2.067 1.401a.692.692 0 0 0 .879-.106c1.99-2.665 1.324-6.012-2.008-8.25-4.173-2.802-10.939-2.814-15.122-.026Z" fill="#F7F7F8"/></g><path d="M209 69.954a.753.753 0 0 1 1.181-.619l30.494 21.083c.204.14.325.372.325.619v25.11a.753.753 0 0 1-1.181.62l-30.494-21.083a.752.752 0 0 1-.325-.62v-25.11Z" fill="#0A090E" stroke="#C91380" stroke-opacity=".4" stroke-width=".753" stroke-linecap="round"/><path d="M273 69.954a.753.753 0 0 0-1.181-.619l-30.494 21.083a.752.752 0 0 0-.325.619v25.11c0 .607.682.965 1.181.62l30.494-21.083a.752.752 0 0 0 .325-.62v-25.11Z" fill="#0A090E" stroke="#C91380" stroke-opacity=".4" stroke-width=".753" stroke-linecap="round"/><path d="m245.926 49.319 26.196 18.386c.427.3.427.932 0 1.232L241.627 90.34a.752.752 0 0 1-.861.003L209.893 68.94a.753.753 0 0 1 0-1.238l26.557-18.41a8.28 8.28 0 0 1 9.476.027Z" fill="#0A090E" stroke="#C91380" stroke-opacity=".4" stroke-width=".753" stroke-linecap="round"/><path d="m245.926 49.319 26.196 18.386c.427.3.427.932 0 1.232L241.627 90.34a.752.752 0 0 1-.861.003L209.893 68.94a.753.753 0 0 1 0-1.238l26.557-18.41a8.28 8.28 0 0 1 9.476.027Z" fill="#0A090E" stroke="#C91380" stroke-opacity=".4" stroke-width=".753" stroke-linecap="round"/><g clip-path="url(#clip5_1979_204926)"><path d="M249.137 64.339a1.49 1.49 0 0 0-1.113.078c-.161.08-.313.193-.464.347a5.018 5.018 0 0 1-.659.572 11.851 11.851 0 0 0-2.126-3.5c-1.471-1.675-2.65-2.1-3.379-2.16-1.932-.161-3.752.274-5.264 1.258-.807.525-1.35 1.097-1.602 1.416a9.97 9.97 0 0 0-1.188.66c-.73.471-1.209 1-1.431 1.577a14.57 14.57 0 0 0-1.675.668c-1.524.729-2.412 1.545-2.64 2.425-.276 1.066.435 2.124 2.114 3.144.533.324 2.363 1.172 4.276 1.857 1.099.394 2.073.68 2.894.852 1.165.243 2.045.257 2.69.042.361-.12.917-.406 1.005-1.041.145.01.311.004.501-.025.241-.036.497-.105.723-.195.812-.325 1.381-.758 1.673-1.257l.264.167c.127.08.252.16.369.232.796.494 1.443.858 2.014 1.035l.127.042c.312.107.836.286 1.473.275a2.827 2.827 0 0 0 2.013-.861c.443-.457.899-1.006.704-1.756-.183-.709-.907-1.479-2.343-2.495a6.973 6.973 0 0 0-.105-.09l-.069-.058.112-.062.029-.017c.599-.365 1.179-.914 1.41-1.335.183-.332.699-1.445-.333-1.795" fill="#000"/><path d="M248.307 65.094c-1.354 1.372-2.047 1.064-2.047 1.064-.865-2.99-3.496-5.765-4.973-5.888-4.031-.336-6.03 2.426-6.054 2.48l-.013.012a8.87 8.87 0 0 0-1.256.68c-.784.505-1.155 1.04-1.263 1.561 0 0-7.721 2.137-2.389 5.378 1.134.69 9.725 4.455 9.369 1.825-.131-.961-.162-1.827-.162-1.827.521-.07 1.002-.248 1.357-.536l.005-.038c.088.072.187.133.317.197.053.652.278.622-.453 1.362-.739.75.148.614.594.435.541-.216 1.695-.78 1.427-1.866l.081.09c.324-.023 1.244.425 1.942.922.698.497 1.177.838 1.705 1.002.527.165 1.537.653 2.487-.327.795-.819.759-1.544-.102-2.22-.613-.48-.398-.492-.984-.896l-.187-.251c-.792-.677-1.173-.811-.416-1.135l.165-.093c.479-.291.984-.754 1.173-1.099.407-.74.271-1.434-.323-.832" fill="#336791"/><path d="M236.332 67.014c-.175.088-.294.194-.311.277a.096.096 0 0 0 .033.096c.054.048.169.066.232.072a.94.94 0 0 0 .489-.075.543.543 0 0 0 .052-.03c.186-.124.21-.334.119-.416-.115-.102-.399-.032-.614.076Zm5.095-3.39c-.119-.062-.336.043-.489.178-.152.134-.244.302-.125.363.093.047.381.042.555-.074a.318.318 0 0 0 .153-.283c-.004-.085-.04-.158-.094-.185" fill="#fff"/><path d="M248.835 64.689c-.261-.088-.534.009-.81.289-.82.83-1.337.978-1.547 1-.417-1.355-1.232-2.785-2.251-3.946-.483-.55-.995-1.02-1.481-1.355-.532-.37-1.023-.575-1.456-.611-1.748-.146-3.402.253-4.781 1.153-.95.619-1.503 1.309-1.589 1.456a6.996 6.996 0 0 0-1.197.616c-.716.462-1.157.981-1.318 1.548-.3.091-1.06.338-1.864.725-1.389.669-2.194 1.4-2.393 2.176-.237.924.412 1.86 1.93 2.783.51.31 2.284 1.13 4.155 1.8 2.463.882 4.158 1.18 5.037.888.103-.034.21-.081.308-.147.241-.16.428-.43.367-.882a19.203 19.203 0 0 1-.15-1.655c.398-.08.761-.218 1.06-.406l.025.013c.009.074.021.147.034.22.054.307.065.37-.451.894-.147.149-.537.544-.201.78.367.257 1.113-.03 1.197-.063.292-.117.546-.247.761-.39.521-.348.81-.77.846-1.237 1.326.906 2.7 1.755 3.263 1.917.461.133 1.586.458 2.604-.22.149-.1.296-.221.438-.368.835-.86.828-1.482-.026-2.295-.456-.434-1.61-1.428-2.24-1.954.214-.075.446-.199.672-.35.472-.314.917-.744 1.1-1.078.206-.375.462-1.13-.042-1.301Zm-7.305-1.522c.205.143.366.29.533.442.18.165.366.335.624.52.251.18.554.34.847.495.59.312 1.199.633 1.482 1.16a4.011 4.011 0 0 1-.341-.079 8.723 8.723 0 0 0-.56-.117c-1.024-.196-3.42-.656-3.608-1.37-.055-.213.085-.564 1.023-1.05Zm-4.546-1.7c1.25-.797 2.674-1.135 4.233-1.005 1.195.1 3.665 2.533 4.62 5.416a14.833 14.833 0 0 0-.115-.01l-.048-.003c-.28-.767-1.07-1.185-1.771-1.555-.288-.152-.56-.295-.78-.453a5.839 5.839 0 0 1-.578-.483 4.828 4.828 0 0 0-.737-.583.414.414 0 0 0-.106-.08c-.316-.177-1.51-.537-2.965-.613a9.585 9.585 0 0 0-2.867.267c.25-.254.62-.582 1.114-.897Zm2.366 10.751c.068.498-.244.602-.346.636-.667.222-2.304-.1-4.49-.883-1.891-.678-3.606-1.483-4.035-1.744-1.357-.824-1.943-1.638-1.743-2.419.325-1.27 2.626-2.173 3.6-2.503l-.002.042c.01 1.62 2.115 2.996 2.245 3.08.048.033.122.076.223.137.37.22 1.058.631 1.691 1.194.589.524 1.469.833 2.417.848.097.001.194 0 .291-.006.014.287.054.914.149 1.618Zm-.427-2.012c-.763-.012-1.475-.263-1.953-.687-.668-.595-1.386-1.023-1.771-1.253-.054-.032-.102-.06-.138-.083.02-.222.4-1.06 1.116-1.359.326-.136.668-.123 1.046.04 1.956.848 2.324 1.5 2.62 2.024.061.108.118.21.186.31l.053.076c.133.196.256.377.397.533-.398.265-.955.409-1.556.4Zm2.23 1.416c-.146.058-.3.094-.403.107.027-.05.085-.133.211-.26.608-.616.615-.77.546-1.16a3.032 3.032 0 0 1-.044-.323c-.017-.196.073-.22.235-.266a.914.914 0 0 1 .503.043c.078.03.212.093.237.196.214.865-.581 1.382-1.285 1.663Zm7.718-.173c-.736.758-1.544.66-2.306.44-.493-.143-2.147-1.161-3.848-2.37a.332.332 0 0 0-.076-.039 1.751 1.751 0 0 0-1.171-.13c-.12.034-.34.095-.479.252-.124-.137-.24-.308-.366-.493l-.053-.077a3.781 3.781 0 0 1-.171-.285c-.309-.548-.733-1.298-2.854-2.217-.794-.344-1.586-.244-2.228.284a2.75 2.75 0 0 0-.757 1.01c-.603-.478-1.626-1.441-1.631-2.48-.003-.653.404-1.247 1.207-1.765 1.581-1.02 3.376-1.15 4.603-1.08 1.057.06 1.897.273 2.312.412-.868.472-1.25.933-1.134 1.375.253.961 2.805 1.451 4.032 1.686.225.044.419.08.494.102.49.137.906.169 1.211.192.093.007.183.014.258.023-.171.205-.441.598.392 1.105.366.288 2.006 1.69 2.551 2.208.72.684.723 1.116.014 1.847Zm-.554-5.597c-.131.238-.455.568-.825.839-.409.3-.695.4-.788.405-.519-.316-.386-.473-.246-.64.022-.026.044-.052.063-.078.032-.002.066-.006.102-.01.572-.078 1.211-.471 1.9-1.17l.008-.008a1.61 1.61 0 0 1-.214.662Z" fill="#fff"/></g><g opacity=".44"><path d="M1 111.954a.753.753 0 0 1 1.181-.619l30.494 21.082a.755.755 0 0 1 .325.62v25.11a.753.753 0 0 1-1.181.62L1.325 137.684a.752.752 0 0 1-.325-.619v-25.111Z" fill="#0A090E" stroke="#4E4D51" stroke-width=".753" stroke-linecap="round"/><path d="M65 111.954a.753.753 0 0 0-1.181-.619l-30.494 21.082a.755.755 0 0 0-.325.62v25.11c0 .607.682.965 1.181.62l30.494-21.083a.752.752 0 0 0 .325-.619v-25.111Z" fill="#0A090E" stroke="#4E4D51" stroke-width=".753" stroke-linecap="round"/><path d="m37.926 91.319 26.196 18.386a.752.752 0 0 1 0 1.232L33.627 132.34a.755.755 0 0 1-.861.003L1.893 110.94a.753.753 0 0 1 0-1.238l26.557-18.41a8.282 8.282 0 0 1 9.476.027Z" fill="#0A090E" stroke="#4E4D51" stroke-width=".753" stroke-linecap="round"/><path d="m30.391 111.401-2.36-1.585m2.36 1.585c.044.029.044.076 0 .105l-2.996 1.998a.153.153 0 0 1-.157 0l-2.36-1.585c-.044-.03-.044-.077 0-.106l2.996-1.997a.153.153 0 0 1 .157 0m2.36 1.585a.153.153 0 0 0 .158 0l2.996-1.997c.044-.029.044-.076 0-.106l-2.36-1.585a.153.153 0 0 0-.157 0l-2.996 1.998c-.044.029-.044.076 0 .105m7.936-4.159c.178-.119 1.688-.09 2.54-.233.428.703.573 1.829-.225 2.144 1.648 3.027 1.088 4.743-1.502 6.47-2.6 1.733-6.611 3.062-10.342.203-.038-.03-.037-.075.004-.103l7.812-5.207c.497-.32 1.14-.823.923-.981-1.17-.167-1.56-.904-2.069-1.937.598-.08 2.601-.529 2.859-.356Zm-9.513 5.105 2.996-1.998c.043-.029.043-.076 0-.105l-2.36-1.585a.153.153 0 0 0-.158 0l-2.996 1.997c-.043.029-.043.076 0 .106l2.36 1.585a.153.153 0 0 0 .158 0Z" stroke="#868593" stroke-width="1.129"/></g><defs><clipPath id="clip0_1979_204926"><path fill="#fff" transform="matrix(.83205 -.5547 .83014 .55756 114.198 162.693)" d="M0 0h9.034v9.034H0z"/></clipPath><clipPath id="clip1_1979_204926"><path fill="#fff" transform="matrix(.83205 -.5547 .83014 .55756 203.198 189.693)" d="M0 0h9.034v9.034H0z"/></clipPath><clipPath id="clip2_1979_204926"><path fill="#fff" transform="matrix(.83205 -.5547 .83014 .55756 335.241 76.166)" d="M0 0h18.195v18.195H0z"/></clipPath><clipPath id="clip3_1979_204926"><path fill="#fff" transform="matrix(.83205 -.5547 .83014 .55756 58.241 83.166)" d="M0 0h18.195v18.195H0z"/></clipPath><clipPath id="clip4_1979_204926"><path fill="#fff" transform="matrix(.83205 -.5547 .83014 .55756 136.241 24.166)" d="M0 0h18.195v18.195H0z"/></clipPath><clipPath id="clip5_1979_204926"><path fill="#fff" transform="matrix(.83205 -.5547 .83014 .55756 225.241 68.166)" d="M0 0h18.195v18.195H0z"/></clipPath><linearGradient id="paint0_linear_1979_204926" x1="152" y1="75" x2="152" y2="150" gradientUnits="userSpaceOnUse"><stop stop-color="#C91396" stop-opacity="0"/><stop offset="1" stop-color="#C91396"/></linearGradient><linearGradient id="paint1_linear_1979_204926" x1="241" y1="109" x2="241" y2="184" gradientUnits="userSpaceOnUse"><stop stop-color="#C91380" stop-opacity="0"/><stop offset="1" stop-color="#C91380"/></linearGradient></defs></svg>