<?xml version="1.0" encoding="utf-8"?>
<!-- Generator: Adobe Illustrator 26.2.1, SVG Export Plug-In . SVG Version: 6.00 Build 0)  -->
<svg version="1.1" id="Layer_1" xmlns="http://www.w3.org/2000/svg" xmlns:xlink="http://www.w3.org/1999/xlink" x="0px" y="0px"
	 viewBox="0 0 448.1 390.1" style="enable-background:new 0 0 448.1 390.1;" xml:space="preserve">
<style type="text/css">
	.st0{opacity:0.5;}
	.st1{fill:#09080D;}
	.st2{fill:none;stroke:#FFFFFF;stroke-opacity:0.1;}
	.st3{fill:#0B0A0F;}
	.st4{fill:none;stroke:#FFFFFF;stroke-opacity:0.25;}
	.st5{fill:none;stroke:#FFFFFF;stroke-width:0.691;stroke-opacity:0.25;}
	.st6{fill:#0E0D12;}
	.st7{fill:#FFFFFF;fill-opacity:5.000000e-02;}
	.st8{fill:#107D98;fill-opacity:0.15;}
	.st9{fill:none;stroke:#107D98;stroke-width:1.372;stroke-linecap:round;}
	.st10{opacity:0.2;fill:#D9D9D9;enable-background:new    ;}
	.st11{fill:#1753ED;fill-opacity:0.1;stroke:#1753ED;stroke-width:1.372;stroke-linecap:round;}
	.st12{fill:#8A6FD5;fill-opacity:0.15;stroke:#8A6FD5;stroke-width:1.372;stroke-linecap:round;}
	.st13{fill:#107D98;fill-opacity:0.15;stroke:#107D98;stroke-width:1.372;stroke-linecap:round;}
</style>
<g class="st0">
	<path class="st1" d="M9.1,254.4L248.6,94.7c2.2-1.5,5.7-1.4,7.9,0l182.5,122.6c2.2,1.5,2.2,3.8,0,5.3L199.4,382.2
		c-2.2,1.5-5.7,1.4-7.9,0L9.1,259.6C6.9,258.2,6.9,255.8,9.1,254.4z"/>
	<path class="st2" d="M9.6,254.7L249,95c1.9-1.3,5-1.3,6.9,0l182.5,122.6c1.9,1.3,1.9,3.4,0,4.6L199,381.9c-1.9,1.3-5,1.3-6.9,0
		L9.6,259.3C7.6,258,7.6,256,9.6,254.7z"/>
	<path class="st3" d="M9.1,245.7L248.6,86c2.2-1.5,5.7-1.4,7.9,0l182.5,122.6c2.2,1.5,2.2,3.8,0,5.3L199.4,373.5
		c-2.2,1.5-5.7,1.4-7.9,0L9.1,250.9C6.9,249.5,6.9,247.1,9.1,245.7z"/>
	<path class="st4" d="M9.6,246L249,86.3c1.9-1.3,5-1.3,6.9,0l182.5,122.6c1.9,1.3,1.9,3.4,0,4.6L199,373.2c-1.9,1.3-5,1.3-6.9,0
		L9.6,250.6C7.6,249.3,7.6,247.3,9.6,246z"/>
</g>
<g>
	<path class="st1" d="M128.8,250.9v-8.6c-0.4-1.2-0.4-2.5,0-3.7v-0.9h0.4c0.6-1.1,1.5-2.1,2.9-3l132.7-88.6c4.7-3.2,12.4-3.2,17.2,0
		l92.4,63.5c2.7,1.8,3.9,4.3,3.5,6.7h0.3v11.6h-0.2c-0.1,2-1.3,4-3.6,5.5l-132.7,88.6c-4.7,3.2-12.4,3.2-17.2,0L132,258.5
		c-1-0.7-1.8-1.5-2.4-2.3h-0.9v-1.7C128.4,253.4,128.4,252.1,128.8,250.9L128.8,250.9z"/>
	<path class="st5" d="M129.3,251.1L129.3,251.1l0-8.8l0-0.1c-0.4-1.1-0.4-2.3,0-3.3l0-0.1v-0.5h0.2l0.1-0.3c0.5-1,1.4-2,2.7-2.8
		L265,146.5h0c2.3-1.5,5.3-2.3,8.3-2.3c3,0,6,0.8,8.3,2.3l0,0l92.4,63.5l0,0c2.6,1.7,3.6,4,3.2,6.2l-0.1,0.6h0.4v10.5h-0.2l0,0.5
		c-0.1,1.8-1.1,3.7-3.3,5.1l-132.7,88.6h0c-2.3,1.5-5.3,2.3-8.3,2.3c-3,0-6-0.8-8.3-2.3l0,0l-92.4-63.5l0,0c-1-0.7-1.7-1.4-2.3-2.1
		l-0.2-0.2h-0.6v-1.2l0-0.1C128.9,253.4,128.9,252.2,129.3,251.1L129.3,251.1z"/>
	<path class="st6" d="M131.8,233.2l134.5-89.7c3.2-2.1,8.4-2.1,11.5,0l97.2,65.3c3.2,2.1,3.2,5.6,0,7.7l-134.5,89.7
		c-3.2,2.1-8.4,2.1-11.5,0l-97.2-65.3C128.6,238.8,128.6,235.3,131.8,233.2z"/>
	<path class="st4" d="M132.4,233.6L267,143.9c2.8-1.9,7.5-1.9,10.3,0l97.2,65.3c2.8,1.9,2.8,5,0,6.9l-134.5,89.7
		c-2.8,1.9-7.5,1.9-10.3,0l-97.2-65.3C129.6,238.6,129.6,235.5,132.4,233.6z"/>
	<path class="st7" d="M159.6,247.2l127.6-85.1l1.2,0.8L160.8,248L159.6,247.2z"/>
	<path class="st8" d="M330.2,194.2l2.8-1.9l28.5,19L234.8,296l-25.1-16.7l-0.5-0.4l2.8-1.9l-0.2-0.1l2.8-1.9l-0.6-0.4l2.8-1.9
		l0.6,0.4l8.4-5.7l0.1,0.1l2.8-1.9l-0.6-0.4l2.8-1.9l-0.1-0.1l2.8-1.9l0,0l2.8-1.9l-0.7-0.5l8.4-5.7l-0.6-0.4l2.8-1.9l-0.3-0.2
		l2.8-1.9l0.1,0l2.8-1.9l-0.3-0.2l11.2-7.5l1.2,0.8l2.8-1.9l0.3,0.2l2.8-1.9l-0.2-0.1l2.8-1.9l0.5,0.3l2.8-1.9l-0.2-0.2l8.4-5.7
		l-0.1-0.1l2.8-1.9L286,225l2.8-1.9l0.1,0l2.8-1.9l0.4,0.3l2.8-1.9l0.3,0.2l8.4-5.7l-0.8-0.5l2.8-1.9l-0.7-0.5l2.8-1.9l-0.1,0
		l2.8-1.9l-0.2-0.2l2.8-1.9l0.2,0.1l8.4-5.7l0.1,0.1l2.8-1.9l0,0l2.8-1.9l-0.3-0.2l2.8-1.9L330.2,194.2L330.2,194.2z"/>
	<path class="st9" d="M334,192.5l-0.2-0.1 M333.8,192.3l-2.8,1.9l-0.2-0.1L328,196l0.3,0.2l-2.8,1.9l0,0l-2.8,1.9l-0.1-0.1l-8.5,5.7
		l-0.2-0.1l-2.8,1.9l0.2,0.2l-2.8,1.9l0.1,0l-2.8,1.9l0.7,0.5l-2.8,1.9l0.8,0.5l-8.5,5.7l-0.3-0.2l-2.8,1.9l-0.4-0.3l-2.8,1.9
		l-0.1,0l-2.8,1.9l0.6,0.4l-2.8,1.9l0.1,0.1l-8.5,5.7l0.2,0.2l-2.8,1.9l-0.5-0.3l-2.8,1.9l0.2,0.1l-2.8,1.9l-0.3-0.2l-2.8,1.9
		l-1.2-0.8l-11.3,7.5l0.3,0.2l-2.8,1.9l-0.1,0l-2.8,1.9l0.3,0.2l-2.8,1.9l0.6,0.4l-8.5,5.7l0.7,0.5l-2.8,1.9l0,0l-2.8,1.9l0.1,0.1
		l-2.8,1.9l0.6,0.4l-2.8,1.9l-0.1-0.1l-8.5,5.7l-0.7-0.4l-2.8,1.9l0.6,0.4l-2.8,1.9l0.2,0.1l-2.8,1.9l0.5,0.4l25.3,16.7l127.5-84.7
		L333.8,192.3L333.8,192.3z"/>
	<path class="st10" d="M219.8,185.9l52.4-34.9c1.4-0.9,3.6-0.9,5,0l1,0.7c1.4,0.9,1.4,2.4,0,3.3L225.8,190c-1.4,0.9-3.6,0.9-5,0
		l-1-0.7C218.5,188.3,218.5,186.8,219.8,185.9z"/>
	<path class="st10" d="M245.4,198.6l46.9-31.5c1.2-0.8,3.2-0.8,4.4,0l0.9,0.6c1.2,0.8,1.2,2.2,0,3l-46.9,31.5
		c-1.2,0.8-3.2,0.8-4.4,0l-0.9-0.6C244.2,200.8,244.2,199.5,245.4,198.6z"/>
</g>
<g>
	<path class="st1" d="M84.1,185.1v-8.6c-0.4-1.2-0.4-2.5,0-3.7v-0.9h0.4c0.6-1.1,1.5-2.1,2.9-3L220,80.2c4.7-3.2,12.4-3.2,17.2,0
		l92.4,63.5c2.7,1.8,3.9,4.3,3.5,6.7h0.3v11.6h-0.2c-0.1,2-1.3,4-3.6,5.5l-132.7,88.6c-4.7,3.2-12.4,3.2-17.2,0l-92.4-63.5
		c-1-0.7-1.8-1.5-2.4-2.3h-0.9v-1.7C83.7,187.5,83.7,186.3,84.1,185.1L84.1,185.1z"/>
	<path class="st5" d="M84.6,185.2L84.6,185.2l0-8.8l0-0.1c-0.4-1.1-0.4-2.3,0-3.3l0-0.1v-0.5h0.2l0.1-0.3c0.5-1,1.4-2,2.7-2.8
		l132.7-88.6h0c2.3-1.5,5.3-2.3,8.3-2.3c3,0,6,0.8,8.3,2.3l0,0l92.4,63.5l0,0c2.6,1.7,3.6,4,3.2,6.2l-0.1,0.6h0.4v10.5h-0.2l0,0.5
		c-0.1,1.8-1.1,3.7-3.3,5.1l-132.7,88.6h0c-2.3,1.5-5.3,2.3-8.3,2.3c-3,0-6-0.8-8.3-2.3l0,0l-92.4-63.5l0,0c-1-0.7-1.7-1.4-2.3-2.1
		l-0.2-0.2h-0.6v-1.2l0-0.1C84.2,187.5,84.2,186.3,84.6,185.2L84.6,185.2z"/>
	<path class="st6" d="M87.3,167.8l134.5-89.7c3.2-2.1,8.4-2.1,11.5,0l97.2,65.3c3.2,2.1,3.2,5.6,0,7.7L196,240.8
		c-3.2,2.1-8.4,2.1-11.5,0l-97.2-65.3C84.1,173.4,84.1,170,87.3,167.8z"/>
	<path class="st4" d="M87.9,168.2l134.5-89.7c2.8-1.9,7.5-1.9,10.3,0l97.2,65.3c2.8,1.9,2.8,5,0,6.9l-134.5,89.7
		c-2.8,1.9-7.5,1.9-10.3,0l-97.2-65.3C85.1,173.2,85.1,170.1,87.9,168.2z"/>
	<path class="st7" d="M115.1,181.8l127.6-85.1l1.2,0.8l-127.6,85.1L115.1,181.8z"/>
	<path class="st11" d="M174.6,218l-1.5,1l14.6,10.8c1.3,1,3.7,1,5.1,0.1l122.4-82.4c1.4-0.9,1.4-2.4,0-3.3L274,116.9l-4.5,3l1.1,0.8
		l-1.5,1l-1.5,1l-1.5,1l-1.5,1l-4.5,3l-1.5,1l0.1,0.1l-1.5,1l0.3,0.2l-1.5,1l1.2,0.8l-1.5,1l1.6,1.1l-4.5,3l0.6,0.4l-1.5,1l1,0.7
		l-1.5,1l0.3,0.2l-1.5,1l-6,4l0.9,0.6l-1.5,1l-1.5,1l-1.5,1l-1.5,1l1.1,0.8l-4.5,3l1.5,1l-1.5,1l0,0l-1.5,1l2.8,1.8l-1.5,1l1.3,0.9
		l-1.5,1l0.8,0.5l-4.5,3l0.7,0.5l-1.5,1l0.5,0.4l-1.5,1l-1.5,1l-1.5,1l0.6,0.4l-4.5,3l1,0.6l-1.5,1l-1.5,1l-1.5,1l3,2l-1.5,1l-4.5,3
		l-1.5,1l-1.5,1l-1.5,1l0.7,0.5l-6,4l0.2,0.2l-1.5,1l-1.5,1l-1.5,1l-1.5,1l-4.5,3l-1.5,1l0.9,0.6l-1.5,1l0.8,0.5l-1.5,1l0.4,0.2
		l-6,4l0.8,0.5l-1.5,1l-1.5,1l-1.5,1l-6,4l0.5,0.3l-1.5,1l0.8,0.5l-1.5,1l0.4,0.2L174.6,218L174.6,218L174.6,218z"/>
	<path class="st10" d="M174.1,118.4l52.4-34.9c1.4-0.9,3.6-0.9,5,0l1,0.7c1.4,0.9,1.4,2.4,0,3.3l-52.4,34.9c-1.4,0.9-3.6,0.9-5,0
		l-1-0.7C172.7,120.8,172.8,119.3,174.1,118.4z"/>
	<g>
		<path class="st1" d="M29.8,114.3v-8.6c-0.4-1.2-0.4-2.5,0-3.7v-0.9h0.4c0.6-1.1,1.5-2.1,2.9-3L165.8,9.4c4.7-3.2,12.4-3.2,17.2,0
			L275.4,73c2.7,1.8,3.9,4.3,3.5,6.7h0.3v11.6h-0.2c-0.1,2-1.3,4-3.6,5.5l-132.7,88.6c-4.7,3.2-12.4,3.2-17.2,0L33,121.9
			c-1-0.7-1.8-1.5-2.4-2.3h-0.9v-1.7C29.4,116.7,29.4,115.4,29.8,114.3L29.8,114.3z"/>
		<path class="st5" d="M30.3,114.4L30.3,114.4l0-8.8l0-0.1c-0.4-1.1-0.4-2.3,0-3.3l0-0.1v-0.5h0.2l0.1-0.3c0.5-1,1.4-2,2.7-2.8
			L166,9.9h0c2.3-1.5,5.3-2.3,8.3-2.3c3,0,6,0.8,8.3,2.3l0,0l92.4,63.5l0,0c2.6,1.7,3.6,4,3.2,6.2l-0.1,0.6h0.4v10.5h-0.2l0,0.5
			c-0.1,1.8-1.1,3.7-3.3,5.1L142.4,185h0c-2.3,1.5-5.3,2.3-8.3,2.3c-3,0-6-0.8-8.3-2.3l0,0l-92.4-63.5l0,0c-1-0.7-1.7-1.4-2.3-2.1
			l-0.2-0.2h-0.6v-1.2l0-0.1C29.9,116.7,29.9,115.5,30.3,114.4L30.3,114.4z"/>
		<path class="st6" d="M33.1,97L167.6,7.3c3.2-2.1,8.4-2.1,11.5,0l97.2,65.3c3.2,2.1,3.2,5.6,0,7.7L141.8,170
			c-3.2,2.1-8.4,2.1-11.5,0l-97.2-65.3C29.9,102.6,29.9,99.1,33.1,97z"/>
		<path class="st4" d="M33.7,97.4L168.2,7.7c2.8-1.9,7.5-1.9,10.3,0L275.7,73c2.8,1.9,2.8,5,0,6.9l-134.5,89.7
			c-2.8,1.9-7.5,1.9-10.3,0l-97.2-65.3C30.8,102.4,30.8,99.3,33.7,97.4z"/>
		<path class="st7" d="M60.8,111l127.6-85.1l1.2,0.8L62.1,111.8L60.8,111z"/>
		<path class="st12" d="M215.1,47l1.7-1.1l44.1,29c1.4,0.9,1.4,2.4,0,3.3l-122.5,81.7c-1.4,0.9-3.6,0.9-5,0l-37.8-25.9l1.7-1.1
			l-2.3-1.6l1.7-1.1l-0.2-0.1l1.7-1.1l-3.9-2.6l1.7-1.1l17.7,11.9l5.1-3.4l-3.4-2.3l1.7-1.1l-2.8-1.9l1.7-1.1l0.1,0.1l1.7-1.1
			l-1.6-1.1l1.7-1.1l0.1,0.1l5.1-3.4l2.2,1.5l1.7-1.1l-1-0.7l1.7-1.1l-2.1-1.4l1.7-1.1l-0.9-0.6l6.8-4.6l-2.4-1.6l1.7-1.1l-2.9-2
			l1.7-1.1l-0.6-0.4l1.7-1.1l0.5,0.3l1.7-1.1l-1.2-0.8l5.1-3.4l-2.2-1.5l1.7-1.1l1.9,1.3l1.7-1.1l-3.3-2.2l1.7-1.1l1,0.7l1.7-1.1
			l-3.9-2.6l5.1-3.4l1.9,1.3l1.7-1.1l1.9,1.3l1.7-1.1l0.6,0.4l1.7-1.1l2.2,1.5l1.7-1.1l4.4,2.9l5.1-3.4l-0.3-0.2l1.7-1.1l2.2,1.4
			l1.7-1.1l0.3,0.2l1.7-1.1l-0.1-0.1l1.7-1.1l2.3,1.6l5.1-3.4l2.1,1.4l1.7-1.1l1,0.7l1.7-1.1l-0.2-0.2l1.7-1.1l0.9,0.6l6.8-4.6
			l-18-12.1l1.7-1.1l-0.9-0.6l1.7-1.1l0.7,0.5l1.7-1.1l-1.8-1.2l1.7-1.1l0.9,0.6l5.1-3.4l0.3,0.2l1.7-1.1l2.1,1.4l1.7-1.1l-0.3-0.2
			l1.7-1.1l-1.4-1l1.7-1.1l-1.1-0.7l5.1-3.4l2.8,1.9l1.7-1.1l2.3,1.6l1.7-1.1l0.3,0.2l1.7-1.1L215.1,47L215.1,47z"/>
		<path class="st13" d="M251.5,73l2.8-1.9l6.4,3.8c1.5,0.9,1.6,2.5,0.1,3.4l-122.3,81.6c-1.4,0.9-3.7,0.9-5,0l-16.2-11.3l2.8-1.9
			l0.7,0.5l2.8-1.9l2.6,1.7l2.8-1.9l-2.6-1.8l8.4-5.6l-0.3-0.2l2.8-1.9l2.5,1.7l2.8-1.9l0.3,0.2l2.8-1.9l-0.1-0.1l2.8-1.9l2.7,1.8
			l8.4-5.6l2.4,1.6l2.8-1.9l1.2,0.8l2.8-1.9l-0.3-0.2l2.8-1.9l1,0.7l11.3-7.5l-4.7-3.2l2.8-1.9l-1.1-0.7l2.8-1.9l0.8,0.5l2.8-1.9
			l-2.1-1.4l2.8-1.9l1,0.7l8.4-5.6l0.4,0.2l2.8-1.9l2.4,1.6l2.8-1.9l-0.3-0.2l2.8-1.9l-1.7-1.1l2.8-1.9l-1.3-0.9l8.4-5.6l3.3,2.2
			l2.8-1.9l2.7,1.8l2.8-1.9l0.3,0.2l2.8-1.9l1,0.7l2.8-1.9l-0.8-0.6l8.4-5.6l-0.4-0.3l2.8-1.9l0,0l2.8-1.9l1.3,0.9l2.8-1.9L251.5,73
			L251.5,73z"/>
		<path class="st10" d="M123,48.1L171.6,16c0.9-0.6,2.5-0.6,3.4,0l0.7,0.5c0.9,0.6,0.9,1.6,0,2.3l-48.6,32.1c-0.9,0.6-2.5,0.6-3.4,0
			l-0.7-0.5C122.1,49.7,122.1,48.7,123,48.1z"/>
	</g>
</g>
</svg>
