<?xml version="1.0" encoding="utf-8"?>
<!-- Generator: Adobe Illustrator 26.2.1, SVG Export Plug-In . SVG Version: 6.00 Build 0)  -->
<svg version="1.1" id="Layer_1" xmlns="http://www.w3.org/2000/svg" xmlns:xlink="http://www.w3.org/1999/xlink" x="0px" y="0px"
	 viewBox="0 0 384 320" style="enable-background:new 0 0 384 320;" xml:space="preserve">
<style type="text/css">
	.st0{opacity:0.5;}
	.st1{fill:#09080D;}
	.st2{fill:none;stroke:#FFFFFF;stroke-opacity:0.1;}
	.st3{fill:#0B0A0F;}
	.st4{fill:none;stroke:#FFFFFF;stroke-opacity:0.25;}
	.st5{fill:#33323E;}
	.st6{fill:none;stroke:#FFFFFF;stroke-width:0.691;stroke-opacity:0.25;}
	.st7{fill:none;stroke:#4E4D51;stroke-width:0.691;}
	.st8{fill:#131217;}
	.st9{fill:none;stroke:#4E4D51;stroke-opacity:0.3;}
	.st10{opacity:0.2;fill:#D9D9D9;enable-background:new    ;}
	.st11{opacity:0.1;fill:#D9D9D9;enable-background:new    ;}
	.st12{fill:none;stroke:#42946E;stroke-linecap:round;stroke-linejoin:round;}
	.st13{fill:#09080D;stroke:#4E4D51;stroke-width:0.691;}
	.st14{fill:#131217;stroke:#4E4D51;}
	.st15{opacity:0.4;}
	.st16{fill:#0A090E;stroke:#4E4D51;stroke-width:0.753;stroke-linecap:round;}
	.st17{clip-path:url(#SVGID_00000036241206974779526860000001348619204780144318_);}
	.st18{fill:none;stroke:#868593;stroke-width:1.129;stroke-linecap:round;stroke-linejoin:round;}
	.st19{opacity:0.44;}
	.st20{clip-path:url(#SVGID_00000008832991319694926330000013805685460042466726_);}
	
		.st21{opacity:0.8;fill:none;stroke:url(#SVGID_00000080166500048766407570000017269967367755746475_);stroke-width:2.5;stroke-linecap:round;enable-background:new    ;}
	
		.st22{opacity:0.8;fill:none;stroke:url(#SVGID_00000164472914460095669520000007555385865612211611_);stroke-width:2.5;stroke-linecap:round;enable-background:new    ;}
	.st23{fill:#0A090E;stroke:#C913AC;stroke-width:0.753;stroke-linecap:round;stroke-opacity:0.7;}
	.st24{fill:#0A090E;stroke:#C91380;stroke-width:0.753;stroke-linecap:round;stroke-opacity:0.4;}
	.st25{clip-path:url(#SVGID_00000088824479640078364030000005286407664160091037_);}
	.st26{fill:#336791;}
	.st27{fill:#FFFFFF;}
	.st28{fill:none;stroke:#868593;stroke-width:1.129;}
</style>
<g class="st0">
	<path class="st1" d="M4.4,203.9L213.7,64.4c1.9-1.3,5-1.3,6.9,0L380,171.5c1.9,1.3,1.9,3.3,0,4.6L170.8,315.6c-1.9,1.3-5,1.3-6.9,0
		L4.4,208.5C2.5,207.2,2.5,205.1,4.4,203.9z"/>
	<path class="st2" d="M4.9,204.2L214.1,64.7c1.7-1.1,4.4-1.1,6.1,0l159.4,107.1c1.7,1.1,1.7,2.9,0,4.1L170.3,315.3
		c-1.7,1.1-4.4,1.1-6.1,0L4.9,208.2C3.2,207.1,3.2,205.3,4.9,204.2z"/>
	<path class="st3" d="M4.4,196.3L213.7,56.8c1.9-1.3,5-1.3,6.9,0L380,163.9c1.9,1.3,1.9,3.3,0,4.6L170.8,308c-1.9,1.3-5,1.3-6.9,0
		L4.4,200.9C2.5,199.6,2.5,197.5,4.4,196.3z"/>
	<path class="st4" d="M4.9,196.6L214.1,57.1c1.7-1.1,4.4-1.1,6.1,0l159.4,107.1c1.7,1.1,1.7,2.9,0,4.1L170.3,307.7
		c-1.7,1.1-4.4,1.1-6.1,0L4.9,200.6C3.2,199.5,3.2,197.7,4.9,196.6z"/>
	<path class="st5" d="M7.1,200.1c0.5,0.3,0.5,0.8,0,1.1s-1.2,0.3-1.7,0s-0.5-0.8,0-1.1S6.7,199.8,7.1,200.1z M20.4,209.1
		c0.5,0.3,0.5,0.8,0,1.1c-0.5,0.3-1.2,0.3-1.7,0c-0.5-0.3-0.5-0.8,0-1.1C19.2,208.8,20,208.8,20.4,209.1z M33.7,218
		c0.5,0.3,0.5,0.8,0,1.1c-0.5,0.3-1.2,0.3-1.7,0c-0.5-0.3-0.5-0.8,0-1.1C32.5,217.7,33.3,217.7,33.7,218z M47,226.9
		c0.5,0.3,0.5,0.8,0,1.1c-0.5,0.3-1.2,0.3-1.7,0c-0.5-0.3-0.5-0.8,0-1.1C45.8,226.6,46.5,226.6,47,226.9z M60.3,235.8
		c0.5,0.3,0.5,0.8,0,1.1c-0.5,0.3-1.2,0.3-1.7,0c-0.5-0.3-0.5-0.8,0-1.1C59.1,235.5,59.8,235.5,60.3,235.8z M73.6,244.7
		c0.5,0.3,0.5,0.8,0,1.1c-0.5,0.3-1.2,0.3-1.7,0c-0.5-0.3-0.5-0.8,0-1.1C72.4,244.4,73.1,244.4,73.6,244.7z M86.8,253.7
		c0.5,0.3,0.5,0.8,0,1.1c-0.5,0.3-1.2,0.3-1.7,0c-0.5-0.3-0.5-0.8,0-1.1C85.6,253.4,86.4,253.4,86.8,253.7z M100.1,262.6
		c0.5,0.3,0.5,0.8,0,1.1c-0.5,0.3-1.2,0.3-1.7,0c-0.5-0.3-0.5-0.8,0-1.1C98.9,262.3,99.7,262.3,100.1,262.6z M113.4,271.5
		c0.5,0.3,0.5,0.8,0,1.1c-0.5,0.3-1.2,0.3-1.7,0c-0.5-0.3-0.5-0.8,0-1.1C112.2,271.2,112.9,271.2,113.4,271.5z M126.7,280.4
		c0.5,0.3,0.5,0.8,0,1.1c-0.5,0.3-1.2,0.3-1.7,0c-0.5-0.3-0.5-0.8,0-1.1S126.2,280.1,126.7,280.4z M140,289.4c0.5,0.3,0.5,0.8,0,1.1
		c-0.5,0.3-1.2,0.3-1.7,0c-0.5-0.3-0.5-0.8,0-1.1C138.8,289,139.5,289,140,289.4z M153.2,298.3c0.5,0.3,0.5,0.8,0,1.1
		c-0.5,0.3-1.2,0.3-1.7,0c-0.5-0.3-0.5-0.8,0-1.1C152,298,152.8,298,153.2,298.3z M166.5,307.2c0.5,0.3,0.5,0.8,0,1.1
		c-0.5,0.3-1.2,0.3-1.7,0c-0.5-0.3-0.5-0.8,0-1.1C165.3,306.9,166.1,306.9,166.5,307.2z M20.5,191.3c0.5,0.3,0.5,0.8,0,1.1
		c-0.5,0.3-1.2,0.3-1.7,0c-0.5-0.3-0.5-0.8,0-1.1C19.3,191,20,191,20.5,191.3z M33.7,200.2c0.5,0.3,0.5,0.8,0,1.1
		c-0.5,0.3-1.2,0.3-1.7,0c-0.5-0.3-0.5-0.8,0-1.1C32.5,199.9,33.3,199.9,33.7,200.2z M47,209.1c0.5,0.3,0.5,0.8,0,1.1
		c-0.5,0.3-1.2,0.3-1.7,0c-0.5-0.3-0.5-0.8,0-1.1C45.8,208.8,46.6,208.8,47,209.1z M60.3,218c0.5,0.3,0.5,0.8,0,1.1
		c-0.5,0.3-1.2,0.3-1.7,0c-0.5-0.3-0.5-0.8,0-1.1C59.1,217.7,59.8,217.7,60.3,218z M73.6,226.9c0.5,0.3,0.5,0.8,0,1.1
		c-0.5,0.3-1.2,0.3-1.7,0c-0.5-0.3-0.5-0.8,0-1.1C72.4,226.6,73.1,226.6,73.6,226.9z M86.9,235.9c0.5,0.3,0.5,0.8,0,1.1
		c-0.5,0.3-1.2,0.3-1.7,0c-0.5-0.3-0.5-0.8,0-1.1C85.7,235.6,86.4,235.6,86.9,235.9L86.9,235.9z M100.2,244.8c0.5,0.3,0.5,0.8,0,1.1
		c-0.5,0.3-1.2,0.3-1.7,0c-0.5-0.3-0.5-0.8,0-1.1C98.9,244.5,99.7,244.5,100.2,244.8z M113.4,253.7c0.5,0.3,0.5,0.8,0,1.1
		c-0.5,0.3-1.2,0.3-1.7,0c-0.5-0.3-0.5-0.8,0-1.1C112.2,253.4,113,253.4,113.4,253.7z M126.7,262.6c0.5,0.3,0.5,0.8,0,1.1
		c-0.5,0.3-1.2,0.3-1.7,0c-0.5-0.3-0.5-0.8,0-1.1C125.5,262.3,126.3,262.3,126.7,262.6z M140,271.6c0.5,0.3,0.5,0.8,0,1.1
		c-0.5,0.3-1.2,0.3-1.7,0c-0.5-0.3-0.5-0.8,0-1.1C138.8,271.2,139.5,271.2,140,271.6z M153.3,280.5c0.5,0.3,0.5,0.8,0,1.1
		c-0.5,0.3-1.2,0.3-1.7,0c-0.5-0.3-0.5-0.8,0-1.1C152.1,280.2,152.8,280.2,153.3,280.5z M166.6,289.4c0.5,0.3,0.5,0.8,0,1.1
		c-0.5,0.3-1.2,0.3-1.7,0c-0.5-0.3-0.5-0.8,0-1.1C165.4,289.1,166.1,289.1,166.6,289.4L166.6,289.4z M179.8,298.3
		c0.5,0.3,0.5,0.8,0,1.1c-0.5,0.3-1.2,0.3-1.7,0c-0.5-0.3-0.5-0.8,0-1.1C178.6,298,179.4,298,179.8,298.3z M33.8,182.4
		c0.5,0.3,0.5,0.8,0,1.1c-0.5,0.3-1.2,0.3-1.7,0c-0.5-0.3-0.5-0.8,0-1.1C32.6,182.1,33.3,182.1,33.8,182.4L33.8,182.4z M47.1,191.3
		c0.5,0.3,0.5,0.8,0,1.1c-0.5,0.3-1.2,0.3-1.7,0c-0.5-0.3-0.5-0.8,0-1.1C45.9,191,46.6,191,47.1,191.3z M60.3,200.2
		c0.5,0.3,0.5,0.8,0,1.1c-0.5,0.3-1.2,0.3-1.7,0c-0.5-0.3-0.5-0.8,0-1.1C59.1,199.9,59.9,199.9,60.3,200.2z M73.6,209.2
		c0.5,0.3,0.5,0.8,0,1.1c-0.5,0.3-1.2,0.3-1.7,0c-0.5-0.3-0.5-0.8,0-1.1C72.4,208.8,73.2,208.8,73.6,209.2z M86.9,218.1
		c0.5,0.3,0.5,0.8,0,1.1c-0.5,0.3-1.2,0.3-1.7,0c-0.5-0.3-0.5-0.8,0-1.1C85.7,217.8,86.4,217.8,86.9,218.1z M100.2,227
		c0.5,0.3,0.5,0.8,0,1.1c-0.5,0.3-1.2,0.3-1.7,0c-0.5-0.3-0.5-0.8,0-1.1S99.7,226.7,100.2,227z M113.5,235.9c0.5,0.3,0.5,0.8,0,1.1
		c-0.5,0.3-1.2,0.3-1.7,0s-0.5-0.8,0-1.1C112.3,235.6,113,235.6,113.5,235.9z M126.7,244.8c0.5,0.3,0.5,0.8,0,1.1
		c-0.5,0.3-1.2,0.3-1.7,0c-0.5-0.3-0.5-0.8,0-1.1C125.5,244.5,126.3,244.5,126.7,244.8z M140,253.8c0.5,0.3,0.5,0.8,0,1.1
		c-0.5,0.3-1.2,0.3-1.7,0c-0.5-0.3-0.5-0.8,0-1.1C138.8,253.4,139.6,253.5,140,253.8z M153.3,262.7c0.5,0.3,0.5,0.8,0,1.1
		c-0.5,0.3-1.2,0.3-1.7,0c-0.5-0.3-0.5-0.8,0-1.1C152.1,262.4,152.9,262.4,153.3,262.7L153.3,262.7z M166.6,271.6
		c0.5,0.3,0.5,0.8,0,1.1c-0.5,0.3-1.2,0.3-1.7,0c-0.5-0.3-0.5-0.8,0-1.1C165.4,271.3,166.1,271.3,166.6,271.6z M179.9,280.5
		c0.5,0.3,0.5,0.8,0,1.1c-0.5,0.3-1.2,0.3-1.7,0c-0.5-0.3-0.5-0.8,0-1.1C178.7,280.2,179.4,280.2,179.9,280.5z M193.2,289.4
		c0.5,0.3,0.5,0.8,0,1.1c-0.5,0.3-1.2,0.3-1.7,0c-0.5-0.3-0.5-0.8,0-1.1C192,289.1,192.7,289.1,193.2,289.4L193.2,289.4z
		 M47.1,173.5c0.5,0.3,0.5,0.8,0,1.1c-0.5,0.3-1.2,0.3-1.7,0c-0.5-0.3-0.5-0.8,0-1.1C45.9,173.2,46.6,173.2,47.1,173.5z M60.4,182.4
		c0.5,0.3,0.5,0.8,0,1.1c-0.5,0.3-1.2,0.3-1.7,0c-0.5-0.3-0.5-0.8,0-1.1C59.2,182.1,59.9,182.1,60.4,182.4z M73.6,191.4
		c0.5,0.3,0.5,0.8,0,1.1c-0.5,0.3-1.2,0.3-1.7,0c-0.5-0.3-0.5-0.8,0-1.1S73.2,191.1,73.6,191.4z M86.9,200.3c0.5,0.3,0.5,0.8,0,1.1
		s-1.2,0.3-1.7,0c-0.5-0.3-0.5-0.8,0-1.1S86.5,200,86.9,200.3z M100.2,209.2c0.5,0.3,0.5,0.8,0,1.1c-0.5,0.3-1.2,0.3-1.7,0
		c-0.5-0.3-0.5-0.8,0-1.1C99,208.9,99.8,208.9,100.2,209.2z M113.5,218.1c0.5,0.3,0.5,0.8,0,1.1c-0.5,0.3-1.2,0.3-1.7,0
		c-0.5-0.3-0.5-0.8,0-1.1C112.3,217.8,113,217.8,113.5,218.1z M126.8,227c0.5,0.3,0.5,0.8,0,1.1c-0.5,0.3-1.2,0.3-1.7,0
		c-0.5-0.3-0.5-0.8,0-1.1C125.6,226.7,126.3,226.7,126.8,227z M140.1,236c0.5,0.3,0.5,0.8,0,1.1c-0.5,0.3-1.2,0.3-1.7,0
		c-0.5-0.3-0.5-0.8,0-1.1C138.9,235.7,139.6,235.7,140.1,236z M153.3,244.9c0.5,0.3,0.5,0.8,0,1.1c-0.5,0.3-1.2,0.3-1.7,0
		c-0.5-0.3-0.5-0.8,0-1.1C152.1,244.6,152.9,244.6,153.3,244.9z M166.6,253.8c0.5,0.3,0.5,0.8,0,1.1c-0.5,0.3-1.2,0.3-1.7,0
		c-0.5-0.3-0.5-0.8,0-1.1C165.4,253.5,166.2,253.5,166.6,253.8z M179.9,262.7c0.5,0.3,0.5,0.8,0,1.1c-0.5,0.3-1.2,0.3-1.7,0
		c-0.5-0.3-0.5-0.8,0-1.1C178.7,262.4,179.4,262.4,179.9,262.7L179.9,262.7z M193.2,271.6c0.5,0.3,0.5,0.8,0,1.1
		c-0.5,0.3-1.2,0.3-1.7,0c-0.5-0.3-0.5-0.8,0-1.1C192,271.3,192.7,271.3,193.2,271.6z M206.5,280.6c0.5,0.3,0.5,0.8,0,1.1
		c-0.5,0.3-1.2,0.3-1.7,0c-0.5-0.3-0.5-0.8,0-1.1C205.3,280.3,206,280.3,206.5,280.6z M60.4,164.6c0.5,0.3,0.5,0.8,0,1.1
		c-0.5,0.3-1.2,0.3-1.7,0c-0.5-0.3-0.5-0.8,0-1.1C59.2,164.3,59.9,164.3,60.4,164.6z M73.7,173.6c0.5,0.3,0.5,0.8,0,1.1
		c-0.5,0.3-1.2,0.3-1.7,0c-0.5-0.3-0.5-0.8,0-1.1C72.5,173.3,73.2,173.3,73.7,173.6z M87,182.5c0.5,0.3,0.5,0.8,0,1.1
		c-0.5,0.3-1.2,0.3-1.7,0c-0.5-0.3-0.5-0.8,0-1.1S86.5,182.2,87,182.5L87,182.5z M100.2,191.4c0.5,0.3,0.5,0.8,0,1.1s-1.2,0.3-1.7,0
		c-0.5-0.3-0.5-0.8,0-1.1C99,191.1,99.8,191.1,100.2,191.4z M113.5,200.3c0.5,0.3,0.5,0.8,0,1.1c-0.5,0.3-1.2,0.3-1.7,0
		c-0.5-0.3-0.5-0.8,0-1.1C112.3,200,113.1,200,113.5,200.3z M126.8,209.2c0.5,0.3,0.5,0.8,0,1.1c-0.5,0.3-1.2,0.3-1.7,0
		c-0.5-0.3-0.5-0.8,0-1.1C125.6,208.9,126.3,208.9,126.8,209.2z M140.1,218.2c0.5,0.3,0.5,0.8,0,1.1c-0.5,0.3-1.2,0.3-1.7,0
		c-0.5-0.3-0.5-0.8,0-1.1C138.9,217.9,139.6,217.9,140.1,218.2z M153.4,227.1c0.5,0.3,0.5,0.8,0,1.1c-0.5,0.3-1.2,0.3-1.7,0
		c-0.5-0.3-0.5-0.8,0-1.1C152.2,226.8,152.9,226.8,153.4,227.1z M166.7,236c0.5,0.3,0.5,0.8,0,1.1c-0.5,0.3-1.2,0.3-1.7,0
		c-0.5-0.3-0.5-0.8,0-1.1C165.5,235.7,166.2,235.7,166.7,236z M179.9,244.9c0.5,0.3,0.5,0.8,0,1.1c-0.5,0.3-1.2,0.3-1.7,0
		c-0.5-0.3-0.5-0.8,0-1.1C178.7,244.6,179.5,244.6,179.9,244.9z M193.2,253.9c0.5,0.3,0.5,0.8,0,1.1c-0.5,0.3-1.2,0.3-1.7,0
		c-0.5-0.3-0.5-0.8,0-1.1C192,253.5,192.8,253.5,193.2,253.9z M206.5,262.8c0.5,0.3,0.5,0.8,0,1.1c-0.5,0.3-1.2,0.3-1.7,0
		c-0.5-0.3-0.5-0.8,0-1.1C205.3,262.5,206,262.5,206.5,262.8z M219.8,271.7c0.5,0.3,0.5,0.8,0,1.1c-0.5,0.3-1.2,0.3-1.7,0
		c-0.5-0.3-0.5-0.8,0-1.1C218.6,271.4,219.3,271.4,219.8,271.7z M73.7,155.8c0.5,0.3,0.5,0.8,0,1.1s-1.2,0.3-1.7,0
		c-0.5-0.3-0.5-0.8,0-1.1S73.3,155.5,73.7,155.8L73.7,155.8z M87,164.7c0.5,0.3,0.5,0.8,0,1.1c-0.5,0.3-1.2,0.3-1.7,0
		c-0.5-0.3-0.5-0.8,0-1.1C85.8,164.4,86.5,164.4,87,164.7z M100.3,173.6c0.5,0.3,0.5,0.8,0,1.1c-0.5,0.3-1.2,0.3-1.7,0
		c-0.5-0.3-0.5-0.8,0-1.1C99.1,173.3,99.8,173.3,100.3,173.6z M113.6,182.5c0.5,0.3,0.5,0.8,0,1.1c-0.5,0.3-1.2,0.3-1.7,0
		c-0.5-0.3-0.5-0.8,0-1.1C112.4,182.2,113.1,182.2,113.6,182.5z M126.8,191.4c0.5,0.3,0.5,0.8,0,1.1c-0.5,0.3-1.2,0.3-1.7,0
		c-0.5-0.3-0.5-0.8,0-1.1C125.6,191.1,126.4,191.1,126.8,191.4z M140.1,200.4c0.5,0.3,0.5,0.8,0,1.1c-0.5,0.3-1.2,0.3-1.7,0
		c-0.5-0.3-0.5-0.8,0-1.1C138.9,200.1,139.7,200.1,140.1,200.4z M153.4,209.3c0.5,0.3,0.5,0.8,0,1.1c-0.5,0.3-1.2,0.3-1.7,0
		c-0.5-0.3-0.5-0.8,0-1.1C152.2,209,152.9,209,153.4,209.3z M166.7,218.2c0.5,0.3,0.5,0.8,0,1.1c-0.5,0.3-1.2,0.3-1.7,0
		c-0.5-0.3-0.5-0.8,0-1.1C165.5,217.9,166.2,217.9,166.7,218.2z M180,227.1c0.5,0.3,0.5,0.8,0,1.1c-0.5,0.3-1.2,0.3-1.7,0
		c-0.5-0.3-0.5-0.8,0-1.1C178.8,226.8,179.5,226.8,180,227.1z M193.2,236.1c0.5,0.3,0.5,0.8,0,1.1c-0.5,0.3-1.2,0.3-1.7,0
		c-0.5-0.3-0.5-0.8,0-1.1C192,235.7,192.8,235.7,193.2,236.1z M206.5,245c0.5,0.3,0.5,0.8,0,1.1c-0.5,0.3-1.2,0.3-1.7,0
		c-0.5-0.3-0.5-0.8,0-1.1C205.3,244.7,206.1,244.7,206.5,245z M219.8,253.9c0.5,0.3,0.5,0.8,0,1.1c-0.5,0.3-1.2,0.3-1.7,0
		c-0.5-0.3-0.5-0.8,0-1.1C218.6,253.6,219.4,253.6,219.8,253.9z M233.1,262.8c0.5,0.3,0.5,0.8,0,1.1c-0.5,0.3-1.2,0.3-1.7,0
		c-0.5-0.3-0.5-0.8,0-1.1C231.9,262.5,232.6,262.5,233.1,262.8z M87,146.9c0.5,0.3,0.5,0.8,0,1.1c-0.5,0.3-1.2,0.3-1.7,0
		c-0.5-0.3-0.5-0.8,0-1.1C85.8,146.6,86.6,146.6,87,146.9z M100.3,155.8c0.5,0.3,0.5,0.8,0,1.1c-0.5,0.3-1.2,0.3-1.7,0
		s-0.5-0.8,0-1.1C99.1,155.5,99.8,155.5,100.3,155.8z M113.6,164.7c0.5,0.3,0.5,0.8,0,1.1c-0.5,0.3-1.2,0.3-1.7,0
		c-0.5-0.3-0.5-0.8,0-1.1C112.4,164.4,113.1,164.4,113.6,164.7z M126.9,173.7c0.5,0.3,0.5,0.8,0,1.1c-0.5,0.3-1.2,0.3-1.7,0
		c-0.5-0.3-0.5-0.8,0-1.1C125.7,173.3,126.4,173.3,126.9,173.7z M140.2,182.6c0.5,0.3,0.5,0.8,0,1.1c-0.5,0.3-1.2,0.3-1.7,0
		c-0.5-0.3-0.5-0.8,0-1.1C138.9,182.3,139.7,182.3,140.2,182.6z M153.4,191.5c0.5,0.3,0.5,0.8,0,1.1c-0.5,0.3-1.2,0.3-1.7,0
		c-0.5-0.3-0.5-0.8,0-1.1C152.2,191.2,153,191.2,153.4,191.5z M166.7,200.4c0.5,0.3,0.5,0.8,0,1.1c-0.5,0.3-1.2,0.3-1.7,0
		c-0.5-0.3-0.5-0.8,0-1.1C165.5,200.1,166.3,200.1,166.7,200.4z M180,209.3c0.5,0.3,0.5,0.8,0,1.1c-0.5,0.3-1.2,0.3-1.7,0
		c-0.5-0.3-0.5-0.8,0-1.1C178.8,209,179.5,209,180,209.3z M193.3,218.3c0.5,0.3,0.5,0.8,0,1.1c-0.5,0.3-1.2,0.3-1.7,0
		c-0.5-0.3-0.5-0.8,0-1.1C192.1,217.9,192.8,217.9,193.3,218.3z M206.6,227.2c0.5,0.3,0.5,0.8,0,1.1c-0.5,0.3-1.2,0.3-1.7,0
		c-0.5-0.3-0.5-0.8,0-1.1C205.4,226.9,206.1,226.9,206.6,227.2z M219.8,236.1c0.5,0.3,0.5,0.8,0,1.1c-0.5,0.3-1.2,0.3-1.7,0
		c-0.5-0.3-0.5-0.8,0-1.1C218.6,235.8,219.4,235.8,219.8,236.1z M233.1,245c0.5,0.3,0.5,0.8,0,1.1c-0.5,0.3-1.2,0.3-1.7,0
		c-0.5-0.3-0.5-0.8,0-1.1C231.9,244.7,232.7,244.7,233.1,245z M246.4,253.9c0.5,0.3,0.5,0.8,0,1.1c-0.5,0.3-1.2,0.3-1.7,0
		c-0.5-0.3-0.5-0.8,0-1.1C245.2,253.6,245.9,253.6,246.4,253.9z M100.3,138c0.5,0.3,0.5,0.8,0,1.1c-0.5,0.3-1.2,0.3-1.7,0
		c-0.5-0.3-0.5-0.8,0-1.1C99.1,137.7,99.9,137.7,100.3,138z M113.6,146.9c0.5,0.3,0.5,0.8,0,1.1c-0.5,0.3-1.2,0.3-1.7,0
		c-0.5-0.3-0.5-0.8,0-1.1C112.4,146.6,113.2,146.6,113.6,146.9z M126.9,155.9c0.5,0.3,0.5,0.8,0,1.1c-0.5,0.3-1.2,0.3-1.7,0
		c-0.5-0.3-0.5-0.8,0-1.1C125.7,155.5,126.4,155.5,126.9,155.9z M140.2,164.8c0.5,0.3,0.5,0.8,0,1.1c-0.5,0.3-1.2,0.3-1.7,0
		c-0.5-0.3-0.5-0.8,0-1.1C139,164.5,139.7,164.5,140.2,164.8z M153.5,173.7c0.5,0.3,0.5,0.8,0,1.1c-0.5,0.3-1.2,0.3-1.7,0
		c-0.5-0.3-0.5-0.8,0-1.1C152.3,173.4,153,173.4,153.5,173.7z M166.7,182.6c0.5,0.3,0.5,0.8,0,1.1c-0.5,0.3-1.2,0.3-1.7,0
		c-0.5-0.3-0.5-0.8,0-1.1C165.5,182.3,166.3,182.3,166.7,182.6z M180,191.5c0.5,0.3,0.5,0.8,0,1.1c-0.5,0.3-1.2,0.3-1.7,0
		c-0.5-0.3-0.5-0.8,0-1.1C178.8,191.2,179.6,191.2,180,191.5z M193.3,200.5c0.5,0.3,0.5,0.8,0,1.1c-0.5,0.3-1.2,0.3-1.7,0
		c-0.5-0.3-0.5-0.8,0-1.1C192.1,200.2,192.9,200.2,193.3,200.5z M206.6,209.4c0.5,0.3,0.5,0.8,0,1.1c-0.5,0.3-1.2,0.3-1.7,0
		c-0.5-0.3-0.5-0.8,0-1.1C205.4,209.1,206.1,209.1,206.6,209.4z M219.9,218.3c0.5,0.3,0.5,0.8,0,1.1c-0.5,0.3-1.2,0.3-1.7,0
		c-0.5-0.3-0.5-0.8,0-1.1C218.7,218,219.4,218,219.9,218.3z M233.2,227.2c0.5,0.3,0.5,0.8,0,1.1c-0.5,0.3-1.2,0.3-1.7,0
		c-0.5-0.3-0.5-0.8,0-1.1C232,226.9,232.7,226.9,233.2,227.2z M246.4,236.1c0.5,0.3,0.5,0.8,0,1.1c-0.5,0.3-1.2,0.3-1.7,0
		c-0.5-0.3-0.5-0.8,0-1.1C245.2,235.8,246,235.8,246.4,236.1z M259.7,245.1c0.5,0.3,0.5,0.8,0,1.1c-0.5,0.3-1.2,0.3-1.7,0
		c-0.5-0.3-0.5-0.8,0-1.1C258.5,244.8,259.3,244.8,259.7,245.1z M113.6,129.1c0.5,0.3,0.5,0.8,0,1.1c-0.5,0.3-1.2,0.3-1.7,0
		c-0.5-0.3-0.5-0.8,0-1.1C112.4,128.8,113.2,128.8,113.6,129.1z M126.9,138.1c0.5,0.3,0.5,0.8,0,1.1c-0.5,0.3-1.2,0.3-1.7,0
		c-0.5-0.3-0.5-0.8,0-1.1C125.7,137.8,126.5,137.8,126.9,138.1z M140.2,147c0.5,0.3,0.5,0.8,0,1.1c-0.5,0.3-1.2,0.3-1.7,0
		c-0.5-0.3-0.5-0.8,0-1.1C139,146.7,139.8,146.7,140.2,147z M153.5,155.9c0.5,0.3,0.5,0.8,0,1.1c-0.5,0.3-1.2,0.3-1.7,0
		c-0.5-0.3-0.5-0.8,0-1.1C152.3,155.6,153,155.6,153.5,155.9z M166.8,164.8c0.5,0.3,0.5,0.8,0,1.1c-0.5,0.3-1.2,0.3-1.7,0
		c-0.5-0.3-0.5-0.8,0-1.1C165.6,164.5,166.3,164.5,166.8,164.8z M180.1,173.7c0.5,0.3,0.5,0.8,0,1.1c-0.5,0.3-1.2,0.3-1.7,0
		c-0.5-0.3-0.5-0.8,0-1.1C178.9,173.4,179.6,173.4,180.1,173.7z M193.3,182.7c0.5,0.3,0.5,0.8,0,1.1c-0.5,0.3-1.2,0.3-1.7,0
		c-0.5-0.3-0.5-0.8,0-1.1C192.1,182.4,192.9,182.4,193.3,182.7z M206.6,191.6c0.5,0.3,0.5,0.8,0,1.1c-0.5,0.3-1.2,0.3-1.7,0
		c-0.5-0.3-0.5-0.8,0-1.1C205.4,191.3,206.2,191.3,206.6,191.6z M219.9,200.5c0.5,0.3,0.5,0.8,0,1.1c-0.5,0.3-1.2,0.3-1.7,0
		c-0.5-0.3-0.5-0.8,0-1.1C218.7,200.2,219.4,200.2,219.9,200.5z M233.2,209.4c0.5,0.3,0.5,0.8,0,1.1c-0.5,0.3-1.2,0.3-1.7,0
		c-0.5-0.3-0.5-0.8,0-1.1C232,209.1,232.7,209.1,233.2,209.4z M246.5,218.3c0.5,0.3,0.5,0.8,0,1.1c-0.5,0.3-1.2,0.3-1.7,0
		c-0.5-0.3-0.5-0.8,0-1.1C245.3,218,246,218,246.5,218.3z M259.8,227.3c0.5,0.3,0.5,0.8,0,1.1c-0.5,0.3-1.2,0.3-1.7,0
		c-0.5-0.3-0.5-0.8,0-1.1C258.5,227,259.3,227,259.8,227.3z M273,236.2c0.5,0.3,0.5,0.8,0,1.1c-0.5,0.3-1.2,0.3-1.7,0
		c-0.5-0.3-0.5-0.8,0-1.1C271.8,235.9,272.6,235.9,273,236.2z M127,120.3c0.5,0.3,0.5,0.8,0,1.1c-0.5,0.3-1.2,0.3-1.7,0
		c-0.5-0.3-0.5-0.8,0-1.1C125.8,120,126.5,120,127,120.3z M140.2,129.2c0.5,0.3,0.5,0.8,0,1.1c-0.5,0.3-1.2,0.3-1.7,0
		c-0.5-0.3-0.5-0.8,0-1.1C139,128.9,139.8,128.9,140.2,129.2z M153.5,138.1c0.5,0.3,0.5,0.8,0,1.1c-0.5,0.3-1.2,0.3-1.7,0
		c-0.5-0.3-0.5-0.8,0-1.1C152.3,137.8,153.1,137.8,153.5,138.1z M166.8,147c0.5,0.3,0.5,0.8,0,1.1c-0.5,0.3-1.2,0.3-1.7,0
		c-0.5-0.3-0.5-0.8,0-1.1C165.6,146.7,166.3,146.7,166.8,147z M180.1,155.9c0.5,0.3,0.5,0.8,0,1.1c-0.5,0.3-1.2,0.3-1.7,0
		c-0.5-0.3-0.5-0.8,0-1.1C178.9,155.6,179.6,155.6,180.1,155.9z M193.4,164.9c0.5,0.3,0.5,0.8,0,1.1c-0.5,0.3-1.2,0.3-1.7,0
		c-0.5-0.3-0.5-0.8,0-1.1C192.2,164.6,192.9,164.6,193.4,164.9z M206.7,173.8c0.5,0.3,0.5,0.8,0,1.1c-0.5,0.3-1.2,0.3-1.7,0
		c-0.5-0.3-0.5-0.8,0-1.1C205.5,173.5,206.2,173.5,206.7,173.8z M219.9,182.7c0.5,0.3,0.5,0.8,0,1.1c-0.5,0.3-1.2,0.3-1.7,0
		c-0.5-0.3-0.5-0.8,0-1.1C218.7,182.4,219.5,182.4,219.9,182.7z M233.2,191.6c0.5,0.3,0.5,0.8,0,1.1c-0.5,0.3-1.2,0.3-1.7,0
		c-0.5-0.3-0.5-0.8,0-1.1C232,191.3,232.8,191.3,233.2,191.6z M246.5,200.6c0.5,0.3,0.5,0.8,0,1.1c-0.5,0.3-1.2,0.3-1.7,0
		c-0.5-0.3-0.5-0.8,0-1.1C245.3,200.2,246,200.2,246.5,200.6z M259.8,209.5c0.5,0.3,0.5,0.8,0,1.1c-0.5,0.3-1.2,0.3-1.7,0
		c-0.5-0.3-0.5-0.8,0-1.1C258.6,209.2,259.3,209.2,259.8,209.5z M273.1,218.4c0.5,0.3,0.5,0.8,0,1.1c-0.5,0.3-1.2,0.3-1.7,0
		c-0.5-0.3-0.5-0.8,0-1.1C271.9,218.1,272.6,218.1,273.1,218.4z M286.3,227.3c0.5,0.3,0.5,0.8,0,1.1c-0.5,0.3-1.2,0.3-1.7,0
		c-0.5-0.3-0.5-0.8,0-1.1C285.1,227,285.9,227,286.3,227.3z M140.3,111.4c0.5,0.3,0.5,0.8,0,1.1c-0.5,0.3-1.2,0.3-1.7,0
		c-0.5-0.3-0.5-0.8,0-1.1C139.1,111.1,139.8,111.1,140.3,111.4z M153.6,120.3c0.5,0.3,0.5,0.8,0,1.1c-0.5,0.3-1.2,0.3-1.7,0
		c-0.5-0.3-0.5-0.8,0-1.1C152.4,120,153.1,120,153.6,120.3z M166.8,129.2c0.5,0.3,0.5,0.8,0,1.1c-0.5,0.3-1.2,0.3-1.7,0
		c-0.5-0.3-0.5-0.8,0-1.1C165.6,128.9,166.4,128.9,166.8,129.2z M180.1,138.2c0.5,0.3,0.5,0.8,0,1.1c-0.5,0.3-1.2,0.3-1.7,0
		c-0.5-0.3-0.5-0.8,0-1.1C178.9,137.8,179.7,137.8,180.1,138.2z M193.4,147.1c0.5,0.3,0.5,0.8,0,1.1c-0.5,0.3-1.2,0.3-1.7,0
		c-0.5-0.3-0.5-0.8,0-1.1C192.2,146.8,192.9,146.8,193.4,147.1z M206.7,156c0.5,0.3,0.5,0.8,0,1.1c-0.5,0.3-1.2,0.3-1.7,0
		c-0.5-0.3-0.5-0.8,0-1.1C205.5,155.7,206.2,155.7,206.7,156z M220,164.9c0.5,0.3,0.5,0.8,0,1.1c-0.5,0.3-1.2,0.3-1.7,0
		c-0.5-0.3-0.5-0.8,0-1.1C218.8,164.6,219.5,164.6,220,164.9z M233.2,173.8c0.5,0.3,0.5,0.8,0,1.1c-0.5,0.3-1.2,0.3-1.7,0
		c-0.5-0.3-0.5-0.8,0-1.1C232,173.5,232.8,173.5,233.2,173.8z M246.5,182.8c0.5,0.3,0.5,0.8,0,1.1c-0.5,0.3-1.2,0.3-1.7,0
		c-0.5-0.3-0.5-0.8,0-1.1C245.3,182.4,246.1,182.4,246.5,182.8z M259.8,191.7c0.5,0.3,0.5,0.8,0,1.1c-0.5,0.3-1.2,0.3-1.7,0
		c-0.5-0.3-0.5-0.8,0-1.1C258.6,191.4,259.4,191.4,259.8,191.7z M273.1,200.6c0.5,0.3,0.5,0.8,0,1.1c-0.5,0.3-1.2,0.3-1.7,0
		c-0.5-0.3-0.5-0.8,0-1.1C271.9,200.3,272.6,200.3,273.1,200.6z M286.4,209.5c0.5,0.3,0.5,0.8,0,1.1c-0.5,0.3-1.2,0.3-1.7,0
		c-0.5-0.3-0.5-0.8,0-1.1C285.2,209.2,285.9,209.2,286.4,209.5z M299.7,218.4c0.5,0.3,0.5,0.8,0,1.1c-0.5,0.3-1.2,0.3-1.7,0
		c-0.5-0.3-0.5-0.8,0-1.1C298.5,218.1,299.2,218.1,299.7,218.4z M153.6,102.5c0.5,0.3,0.5,0.8,0,1.1c-0.5,0.3-1.2,0.3-1.7,0
		c-0.5-0.3-0.5-0.8,0-1.1C152.4,102.2,153.1,102.2,153.6,102.5z M166.9,111.4c0.5,0.3,0.5,0.8,0,1.1c-0.5,0.3-1.2,0.3-1.7,0
		c-0.5-0.3-0.5-0.8,0-1.1C165.7,111.1,166.4,111.1,166.9,111.4z M180.1,120.4c0.5,0.3,0.5,0.8,0,1.1c-0.5,0.3-1.2,0.3-1.7,0
		c-0.5-0.3-0.5-0.8,0-1.1C178.9,120,179.7,120,180.1,120.4z M193.4,129.3c0.5,0.3,0.5,0.8,0,1.1c-0.5,0.3-1.2,0.3-1.7,0
		c-0.5-0.3-0.5-0.8,0-1.1C192.2,129,193,129,193.4,129.3z M206.7,138.2c0.5,0.3,0.5,0.8,0,1.1c-0.5,0.3-1.2,0.3-1.7,0
		c-0.5-0.3-0.5-0.8,0-1.1C205.5,137.9,206.3,137.9,206.7,138.2z M220,147.1c0.5,0.3,0.5,0.8,0,1.1c-0.5,0.3-1.2,0.3-1.7,0
		c-0.5-0.3-0.5-0.8,0-1.1C218.8,146.8,219.5,146.8,220,147.1z M233.3,156c0.5,0.3,0.5,0.8,0,1.1c-0.5,0.3-1.2,0.3-1.7,0
		c-0.5-0.3-0.5-0.8,0-1.1C232.1,155.7,232.8,155.7,233.3,156z M246.6,165c0.5,0.3,0.5,0.8,0,1.1c-0.5,0.3-1.2,0.3-1.7,0
		c-0.5-0.3-0.5-0.8,0-1.1C245.4,164.7,246.1,164.7,246.6,165z M259.8,173.9c0.5,0.3,0.5,0.8,0,1.1c-0.5,0.3-1.2,0.3-1.7,0
		c-0.5-0.3-0.5-0.8,0-1.1C258.6,173.6,259.4,173.6,259.8,173.9z M273.1,182.8c0.5,0.3,0.5,0.8,0,1.1c-0.5,0.3-1.2,0.3-1.7,0
		c-0.5-0.3-0.5-0.8,0-1.1C271.9,182.5,272.7,182.5,273.1,182.8z M286.4,191.7c0.5,0.3,0.5,0.8,0,1.1c-0.5,0.3-1.2,0.3-1.7,0
		c-0.5-0.3-0.5-0.8,0-1.1C285.2,191.4,286,191.4,286.4,191.7z M299.7,200.6c0.5,0.3,0.5,0.8,0,1.1c-0.5,0.3-1.2,0.3-1.7,0
		c-0.5-0.3-0.5-0.8,0-1.1C298.5,200.3,299.2,200.3,299.7,200.6z M313,209.6c0.5,0.3,0.5,0.8,0,1.1c-0.5,0.3-1.2,0.3-1.7,0
		c-0.5-0.3-0.5-0.8,0-1.1C311.8,209.3,312.5,209.3,313,209.6z M166.9,93.6c0.5,0.3,0.5,0.8,0,1.1c-0.5,0.3-1.2,0.3-1.7,0
		c-0.5-0.3-0.5-0.8,0-1.1C165.7,93.3,166.4,93.3,166.9,93.6L166.9,93.6z M180.2,102.6c0.5,0.3,0.5,0.8,0,1.1c-0.5,0.3-1.2,0.3-1.7,0
		c-0.5-0.3-0.5-0.8,0-1.1C179,102.3,179.7,102.3,180.2,102.6z M193.5,111.5c0.5,0.3,0.5,0.8,0,1.1c-0.5,0.3-1.2,0.3-1.7,0
		c-0.5-0.3-0.5-0.8,0-1.1C192.3,111.2,193,111.2,193.5,111.5z M206.7,120.4c0.5,0.3,0.5,0.8,0,1.1c-0.5,0.3-1.2,0.3-1.7,0
		c-0.5-0.3-0.5-0.8,0-1.1C205.5,120.1,206.3,120.1,206.7,120.4z M220,129.3c0.5,0.3,0.5,0.8,0,1.1c-0.5,0.3-1.2,0.3-1.7,0
		c-0.5-0.3-0.5-0.8,0-1.1C218.8,129,219.6,129,220,129.3z M233.3,138.2c0.5,0.3,0.5,0.8,0,1.1c-0.5,0.3-1.2,0.3-1.7,0
		c-0.5-0.3-0.5-0.8,0-1.1C232.1,137.9,232.9,137.9,233.3,138.2z M246.6,147.2c0.5,0.3,0.5,0.8,0,1.1c-0.5,0.3-1.2,0.3-1.7,0
		c-0.5-0.3-0.5-0.8,0-1.1C245.4,146.9,246.1,146.9,246.6,147.2z M259.9,156.1c0.5,0.3,0.5,0.8,0,1.1c-0.5,0.3-1.2,0.3-1.7,0
		c-0.5-0.3-0.5-0.8,0-1.1C258.7,155.8,259.4,155.8,259.9,156.1z M273.2,165c0.5,0.3,0.5,0.8,0,1.1c-0.5,0.3-1.2,0.3-1.7,0
		c-0.5-0.3-0.5-0.8,0-1.1C272,164.7,272.7,164.7,273.2,165z M286.4,173.9c0.5,0.3,0.5,0.8,0,1.1c-0.5,0.3-1.2,0.3-1.7,0
		c-0.5-0.3-0.5-0.8,0-1.1C285.2,173.6,286,173.6,286.4,173.9z M299.7,182.8c0.5,0.3,0.5,0.8,0,1.1c-0.5,0.3-1.2,0.3-1.7,0
		c-0.5-0.3-0.5-0.8,0-1.1C298.5,182.5,299.3,182.5,299.7,182.8z M313,191.8c0.5,0.3,0.5,0.8,0,1.1c-0.5,0.3-1.2,0.3-1.7,0
		c-0.5-0.3-0.5-0.8,0-1.1C311.8,191.5,312.5,191.5,313,191.8z M326.3,200.7c0.5,0.3,0.5,0.8,0,1.1c-0.5,0.3-1.2,0.3-1.7,0
		c-0.5-0.3-0.5-0.8,0-1.1C325.1,200.4,325.8,200.4,326.3,200.7z M180.2,84.8c0.5,0.3,0.5,0.8,0,1.1c-0.5,0.3-1.2,0.3-1.7,0
		c-0.5-0.3-0.5-0.8,0-1.1C179,84.5,179.8,84.5,180.2,84.8z M193.5,93.7c0.5,0.3,0.5,0.8,0,1.1c-0.5,0.3-1.2,0.3-1.7,0
		c-0.5-0.3-0.5-0.8,0-1.1C192.3,93.4,193,93.4,193.5,93.7z M206.8,102.6c0.5,0.3,0.5,0.8,0,1.1c-0.5,0.3-1.2,0.3-1.7,0
		c-0.5-0.3-0.5-0.8,0-1.1C205.6,102.3,206.3,102.3,206.8,102.6z M220.1,111.5c0.5,0.3,0.5,0.8,0,1.1c-0.5,0.3-1.2,0.3-1.7,0
		c-0.5-0.3-0.5-0.8,0-1.1C218.9,111.2,219.6,111.2,220.1,111.5z M233.3,120.4c0.5,0.3,0.5,0.8,0,1.1c-0.5,0.3-1.2,0.3-1.7,0
		c-0.5-0.3-0.5-0.8,0-1.1C232.1,120.1,232.9,120.1,233.3,120.4z M246.6,129.4c0.5,0.3,0.5,0.8,0,1.1c-0.5,0.3-1.2,0.3-1.7,0
		c-0.5-0.3-0.5-0.8,0-1.1C245.4,129.1,246.2,129.1,246.6,129.4z M259.9,138.3c0.5,0.3,0.5,0.8,0,1.1c-0.5,0.3-1.2,0.3-1.7,0
		c-0.5-0.3-0.5-0.8,0-1.1C258.7,138,259.4,138,259.9,138.3z M273.2,147.2c0.5,0.3,0.5,0.8,0,1.1c-0.5,0.3-1.2,0.3-1.7,0
		c-0.5-0.3-0.5-0.8,0-1.1C272,146.9,272.7,146.9,273.2,147.2z M286.5,156.1c0.5,0.3,0.5,0.8,0,1.1c-0.5,0.3-1.2,0.3-1.7,0
		c-0.5-0.3-0.5-0.8,0-1.1C285.3,155.8,286,155.8,286.5,156.1z M299.8,165.1c0.5,0.3,0.5,0.8,0,1.1c-0.5,0.3-1.2,0.3-1.7,0
		c-0.5-0.3-0.5-0.8,0-1.1C298.5,164.7,299.3,164.7,299.8,165.1z M313,174c0.5,0.3,0.5,0.8,0,1.1c-0.5,0.3-1.2,0.3-1.7,0
		c-0.5-0.3-0.5-0.8,0-1.1C311.8,173.7,312.6,173.7,313,174z M326.3,182.9c0.5,0.3,0.5,0.8,0,1.1c-0.5,0.3-1.2,0.3-1.7,0
		c-0.5-0.3-0.5-0.8,0-1.1C325.1,182.6,325.9,182.6,326.3,182.9z M339.6,191.8c0.5,0.3,0.5,0.8,0,1.1c-0.5,0.3-1.2,0.3-1.7,0
		c-0.5-0.3-0.5-0.8,0-1.1C338.4,191.5,339.1,191.5,339.6,191.8z M193.5,75.9c0.5,0.3,0.5,0.8,0,1.1c-0.5,0.3-1.2,0.3-1.7,0
		c-0.5-0.3-0.5-0.8,0-1.1C192.3,75.6,193.1,75.6,193.5,75.9z M206.8,84.8c0.5,0.3,0.5,0.8,0,1.1c-0.5,0.3-1.2,0.3-1.7,0
		c-0.5-0.3-0.5-0.8,0-1.1C205.6,84.5,206.3,84.5,206.8,84.8z M220.1,93.7c0.5,0.3,0.5,0.8,0,1.1c-0.5,0.3-1.2,0.3-1.7,0
		c-0.5-0.3-0.5-0.8,0-1.1C218.9,93.4,219.6,93.4,220.1,93.7L220.1,93.7z M233.4,102.7c0.5,0.3,0.5,0.8,0,1.1c-0.5,0.3-1.2,0.3-1.7,0
		c-0.5-0.3-0.5-0.8,0-1.1C232.2,102.3,232.9,102.3,233.4,102.7z M246.7,111.6c0.5,0.3,0.5,0.8,0,1.1c-0.5,0.3-1.2,0.3-1.7,0
		c-0.5-0.3-0.5-0.8,0-1.1C245.5,111.3,246.2,111.3,246.7,111.6z M259.9,120.5c0.5,0.3,0.5,0.8,0,1.1c-0.5,0.3-1.2,0.3-1.7,0
		c-0.5-0.3-0.5-0.8,0-1.1C258.7,120.2,259.5,120.2,259.9,120.5z M273.2,129.4c0.5,0.3,0.5,0.8,0,1.1c-0.5,0.3-1.2,0.3-1.7,0
		c-0.5-0.3-0.5-0.8,0-1.1C272,129.1,272.8,129.1,273.2,129.4z M286.5,138.3c0.5,0.3,0.5,0.8,0,1.1c-0.5,0.3-1.2,0.3-1.7,0
		c-0.5-0.3-0.5-0.8,0-1.1C285.3,138,286,138,286.5,138.3z M299.8,147.3c0.5,0.3,0.5,0.8,0,1.1c-0.5,0.3-1.2,0.3-1.7,0
		c-0.5-0.3-0.5-0.8,0-1.1C298.6,146.9,299.3,146.9,299.8,147.3z M313.1,156.2c0.5,0.3,0.5,0.8,0,1.1c-0.5,0.3-1.2,0.3-1.7,0
		c-0.5-0.3-0.5-0.8,0-1.1C311.9,155.9,312.6,155.9,313.1,156.2z M326.3,165.1c0.5,0.3,0.5,0.8,0,1.1c-0.5,0.3-1.2,0.3-1.7,0
		c-0.5-0.3-0.5-0.8,0-1.1C325.1,164.8,325.9,164.8,326.3,165.1z M339.6,174c0.5,0.3,0.5,0.8,0,1.1c-0.5,0.3-1.2,0.3-1.7,0
		c-0.5-0.3-0.5-0.8,0-1.1C338.4,173.7,339.2,173.7,339.6,174z M352.9,182.9c0.5,0.3,0.5,0.8,0,1.1c-0.5,0.3-1.2,0.3-1.7,0
		c-0.5-0.3-0.5-0.8,0-1.1C351.7,182.6,352.5,182.6,352.9,182.9z M206.8,67c0.5,0.3,0.5,0.8,0,1.1c-0.5,0.3-1.2,0.3-1.7,0
		c-0.5-0.3-0.5-0.8,0-1.1C205.6,66.7,206.4,66.7,206.8,67z M220.1,75.9c0.5,0.3,0.5,0.8,0,1.1c-0.5,0.3-1.2,0.3-1.7,0
		c-0.5-0.3-0.5-0.8,0-1.1C218.9,75.6,219.7,75.6,220.1,75.9z M233.4,84.9c0.5,0.3,0.5,0.8,0,1.1c-0.5,0.3-1.2,0.3-1.7,0
		c-0.5-0.3-0.5-0.8,0-1.1C232.2,84.5,232.9,84.5,233.4,84.9z M246.7,93.8c0.5,0.3,0.5,0.8,0,1.1c-0.5,0.3-1.2,0.3-1.7,0
		c-0.5-0.3-0.5-0.8,0-1.1C245.5,93.5,246.2,93.5,246.7,93.8z M260,102.7c0.5,0.3,0.5,0.8,0,1.1c-0.5,0.3-1.2,0.3-1.7,0
		c-0.5-0.3-0.5-0.8,0-1.1C258.8,102.4,259.5,102.4,260,102.7z M273.2,111.6c0.5,0.3,0.5,0.8,0,1.1c-0.5,0.3-1.2,0.3-1.7,0
		c-0.5-0.3-0.5-0.8,0-1.1C272,111.3,272.8,111.3,273.2,111.6z M286.5,120.5c0.5,0.3,0.5,0.8,0,1.1c-0.5,0.3-1.2,0.3-1.7,0
		c-0.5-0.3-0.5-0.8,0-1.1C285.3,120.2,286.1,120.2,286.5,120.5z M299.8,129.5c0.5,0.3,0.5,0.8,0,1.1c-0.5,0.3-1.2,0.3-1.7,0
		c-0.5-0.3-0.5-0.8,0-1.1C298.6,129.2,299.4,129.2,299.8,129.5z M313.1,138.4c0.5,0.3,0.5,0.8,0,1.1c-0.5,0.3-1.2,0.3-1.7,0
		c-0.5-0.3-0.5-0.8,0-1.1C311.9,138.1,312.6,138.1,313.1,138.4z M326.4,147.3c0.5,0.3,0.5,0.8,0,1.1c-0.5,0.3-1.2,0.3-1.7,0
		c-0.5-0.3-0.5-0.8,0-1.1C325.2,147,325.9,147,326.4,147.3z M339.7,156.2c0.5,0.3,0.5,0.8,0,1.1c-0.5,0.3-1.2,0.3-1.7,0
		c-0.5-0.3-0.5-0.8,0-1.1C338.5,155.9,339.2,155.9,339.7,156.2z M352.9,165.1c0.5,0.3,0.5,0.8,0,1.1c-0.5,0.3-1.2,0.3-1.7,0
		c-0.5-0.3-0.5-0.8,0-1.1C351.7,164.8,352.5,164.8,352.9,165.1z M366.2,174.1c0.5,0.3,0.5,0.8,0,1.1c-0.5,0.3-1.2,0.3-1.7,0
		c-0.5-0.3-0.5-0.8,0-1.1C365,173.8,365.8,173.8,366.2,174.1z M220.1,58.1c0.5,0.3,0.5,0.8,0,1.1c-0.5,0.3-1.2,0.3-1.7,0
		c-0.5-0.3-0.5-0.8,0-1.1C218.9,57.8,219.7,57.8,220.1,58.1L220.1,58.1z M233.4,67.1c0.5,0.3,0.5,0.8,0,1.1c-0.5,0.3-1.2,0.3-1.7,0
		c-0.5-0.3-0.5-0.8,0-1.1C232.2,66.8,233,66.8,233.4,67.1L233.4,67.1z M246.7,76c0.5,0.3,0.5,0.8,0,1.1c-0.5,0.3-1.2,0.3-1.7,0
		c-0.5-0.3-0.5-0.8,0-1.1C245.5,75.7,246.3,75.7,246.7,76z M260,84.9c0.5,0.3,0.5,0.8,0,1.1c-0.5,0.3-1.2,0.3-1.7,0
		c-0.5-0.3-0.5-0.8,0-1.1C258.8,84.6,259.5,84.6,260,84.9z M273.3,93.8c0.5,0.3,0.5,0.8,0,1.1c-0.5,0.3-1.2,0.3-1.7,0
		c-0.5-0.3-0.5-0.8,0-1.1C272.1,93.5,272.8,93.5,273.3,93.8z M286.6,102.7c0.5,0.3,0.5,0.8,0,1.1c-0.5,0.3-1.2,0.3-1.7,0
		c-0.5-0.3-0.5-0.8,0-1.1C285.4,102.4,286.1,102.4,286.6,102.7z M299.8,111.7c0.5,0.3,0.5,0.8,0,1.1c-0.5,0.3-1.2,0.3-1.7,0
		c-0.5-0.3-0.5-0.8,0-1.1C298.6,111.4,299.4,111.4,299.8,111.7z M313.1,120.6c0.5,0.3,0.5,0.8,0,1.1c-0.5,0.3-1.2,0.3-1.7,0
		c-0.5-0.3-0.5-0.8,0-1.1C311.9,120.3,312.7,120.3,313.1,120.6z M326.4,129.5c0.5,0.3,0.5,0.8,0,1.1c-0.5,0.3-1.2,0.3-1.7,0
		c-0.5-0.3-0.5-0.8,0-1.1C325.2,129.2,325.9,129.2,326.4,129.5z M339.7,138.4c0.5,0.3,0.5,0.8,0,1.1c-0.5,0.3-1.2,0.3-1.7,0
		c-0.5-0.3-0.5-0.8,0-1.1C338.5,138.1,339.2,138.1,339.7,138.4z M353,147.3c0.5,0.3,0.5,0.8,0,1.1c-0.5,0.3-1.2,0.3-1.7,0
		c-0.5-0.3-0.5-0.8,0-1.1C351.8,147,352.5,147,353,147.3z M366.3,156.3c0.5,0.3,0.5,0.8,0,1.1c-0.5,0.3-1.2,0.3-1.7,0
		c-0.5-0.3-0.5-0.8,0-1.1C365.1,156,365.8,156,366.3,156.3z M379.5,165.2c0.5,0.3,0.5,0.8,0,1.1c-0.5,0.3-1.2,0.3-1.7,0
		c-0.5-0.3-0.5-0.8,0-1.1C378.3,164.9,379.1,164.9,379.5,165.2z"/>
</g>
<path class="st1" d="M103.2,172.9L103.2,172.9l0-6.6l0-0.1c-0.1-0.4-0.1-0.8,0-1.2l0-0.1v-0.1h0l0.1-0.2c0.2-0.4,0.5-0.8,1-1.1
	l57.5-38.3c0.9-0.6,2.1-0.9,3.3-0.9c1.2,0,2.4,0.3,3.3,0.9l33.3,22.3c1,0.7,1.4,1.5,1.2,2.3l-0.1,0.4h0.2v6.9h-0.1l0,0.3
	c0,0.7-0.4,1.4-1.3,1.9l-57.5,38.3c-0.9,0.6-2.1,0.9-3.3,0.9c-1.2,0-2.4-0.3-3.3-0.9l-33.3-22.3c-0.3-0.2-0.6-0.5-0.9-0.8l-0.1-0.1
	h-0.2v-0.4l0-0.1C103,173.8,103,173.3,103.2,172.9L103.2,172.9z"/>
<path class="st6" d="M103.2,172.9L103.2,172.9l0-6.6l0-0.1c-0.1-0.4-0.1-0.8,0-1.2l0-0.1v-0.1h0l0.1-0.2c0.2-0.4,0.5-0.8,1-1.1
	l57.5-38.3c0.9-0.6,2.1-0.9,3.3-0.9c1.2,0,2.4,0.3,3.3,0.9l33.3,22.3c1,0.7,1.4,1.5,1.2,2.3l-0.1,0.4h0.2v6.9h-0.1l0,0.3
	c0,0.7-0.4,1.4-1.3,1.9l-57.5,38.3c-0.9,0.6-2.1,0.9-3.3,0.9c-1.2,0-2.4-0.3-3.3-0.9l-33.3-22.3c-0.3-0.2-0.6-0.5-0.9-0.8l-0.1-0.1
	h-0.2v-0.4l0-0.1C103,173.8,103,173.3,103.2,172.9L103.2,172.9z"/>
<path class="st7" d="M103.2,172.9L103.2,172.9l0-6.6l0-0.1c-0.1-0.4-0.1-0.8,0-1.2l0-0.1v-0.1h0l0.1-0.2c0.2-0.4,0.5-0.8,1-1.1
	l57.5-38.3c0.9-0.6,2.1-0.9,3.3-0.9c1.2,0,2.4,0.3,3.3,0.9l33.3,22.3c1,0.7,1.4,1.5,1.2,2.3l-0.1,0.4h0.2v6.9h-0.1l0,0.3
	c0,0.7-0.4,1.4-1.3,1.9l-57.5,38.3c-0.9,0.6-2.1,0.9-3.3,0.9c-1.2,0-2.4-0.3-3.3-0.9l-33.3-22.3c-0.3-0.2-0.6-0.5-0.9-0.8l-0.1-0.1
	h-0.2v-0.4l0-0.1C103,173.8,103,173.3,103.2,172.9L103.2,172.9z"/>
<path class="st8" d="M104.6,160.6l57.5-38.3c1.9-1.3,5-1.3,6.9,0l33.3,22.3c1.9,1.3,1.9,3.3,0,4.6l-57.5,38.3c-1.9,1.3-5,1.3-6.9,0
	l-33.3-22.3C102.7,164,102.7,161.9,104.6,160.6z"/>
<path class="st4" d="M105.1,160.9l57.5-38.3c1.7-1.1,4.4-1.1,6.1,0l33.3,22.3c1.7,1.1,1.7,2.9,0,4.1l-57.5,38.3
	c-1.7,1.1-4.4,1.1-6.1,0L105,164.9C103.4,163.8,103.4,162,105.1,160.9z"/>
<path class="st9" d="M105.1,160.9l57.5-38.3c1.7-1.1,4.4-1.1,6.1,0l33.3,22.3c1.7,1.1,1.7,2.9,0,4.1l-57.5,38.3
	c-1.7,1.1-4.4,1.1-6.1,0L105,164.9C103.4,163.8,103.4,162,105.1,160.9z"/>
<path class="st10" d="M129.3,154.9l22.8-15.2c0.9-0.6,2.4-0.6,3.3,0l0.7,0.5c0.9,0.6,0.9,1.6,0,2.2l-22.8,15.2
	c-0.9,0.6-2.4,0.6-3.3,0l-0.7-0.5C128.4,156.5,128.4,155.5,129.3,154.9z"/>
<path class="st11" d="M149.5,171.6l29.6-19.8c0.7-0.5,1.8-0.5,2.5,0l0,0c0.7,0.5,0.7,1.2,0,1.7L152,173.3c-0.7,0.5-1.8,0.5-2.5,0
	l0,0C148.8,172.8,148.8,172,149.5,171.6z"/>
<path class="st12" d="M143,176.6l0.1,0.1c0.3,0.2,0.5,0.5,0.6,0.8c0.1,0.3,0,0.6-0.2,0.9c-0.2,0.3-0.6,0.5-1,0.6
	c-0.4,0.1-0.9,0.2-1.3,0.1c-0.4-0.1-0.8-0.2-1.1-0.4c-0.3-0.2-0.5-0.5-0.5-0.8c0-0.3,0.1-0.6,0.3-0.9c0.2-0.3,0.6-0.4,1-0.6"/>
<path class="st12" d="M142,175.9l0,2l-0.9,0"/>
<path class="st13" d="M192.2,199.9L192.2,199.9l0-6.6l0-0.1c-0.1-0.4-0.1-0.8,0-1.2l0-0.1v-0.1h0l0.1-0.2c0.2-0.4,0.5-0.8,1-1.1
	l57.5-38.3c0.9-0.6,2.1-0.9,3.3-0.9c1.2,0,2.4,0.3,3.3,0.9l33.3,22.3c1,0.7,1.4,1.5,1.2,2.3l-0.1,0.4h0.2v6.9h-0.1l0,0.3
	c0,0.7-0.4,1.4-1.3,1.9l-57.5,38.3c-0.9,0.6-2.1,0.9-3.3,0.9c-1.2,0-2.4-0.3-3.3-0.9l-33.3-22.3c-0.3-0.2-0.6-0.5-0.9-0.8l-0.1-0.1
	h-0.2v-0.4l0-0.1C192,200.8,192,200.3,192.2,199.9L192.2,199.9z"/>
<path class="st14" d="M194.1,187.9l57.5-38.3c1.7-1.1,4.4-1.1,6.1,0l33.3,22.3c1.7,1.1,1.7,2.9,0,4.1l-57.5,38.3
	c-1.7,1.1-4.4,1.1-6.1,0L194,191.9C192.4,190.8,192.4,189,194.1,187.9z"/>
<path class="st10" d="M218.3,181.9l23.2-15.5c0.9-0.6,2.4-0.6,3.3,0l0.7,0.5c0.9,0.6,0.9,1.6,0,2.2l-23.2,15.5
	c-0.9,0.6-2.4,0.6-3.3,0l-0.7-0.5C217.4,183.5,217.4,182.5,218.3,181.9z"/>
<path class="st11" d="M238.5,198.6l18.9-12.6c0.7-0.5,1.8-0.5,2.5,0l0,0c0.7,0.5,0.7,1.2,0,1.7L241,200.3c-0.7,0.5-1.8,0.5-2.5,0
	l0,0C237.8,199.8,237.8,199,238.5,198.6z"/>
<path class="st12" d="M232,203.6l0.1,0.1c0.3,0.2,0.5,0.5,0.6,0.8c0.1,0.3,0,0.6-0.2,0.9c-0.2,0.3-0.6,0.5-1,0.6
	c-0.4,0.1-0.9,0.2-1.3,0.1c-0.4-0.1-0.8-0.2-1.1-0.4c-0.3-0.2-0.5-0.5-0.5-0.8c0-0.3,0.1-0.6,0.3-0.9c0.2-0.3,0.6-0.4,1-0.6"/>
<path class="st12" d="M231,202.9l0,2l-0.9,0"/>
<g class="st15">
	<path class="st16" d="M7.5,109.5c0-0.4,0.3-0.8,0.8-0.8c0.2,0,0.3,0,0.4,0.1L39.2,130c0.2,0.1,0.3,0.4,0.3,0.6v25.1
		c0,0.4-0.3,0.8-0.8,0.8c-0.2,0-0.3,0-0.4-0.1L7.8,135.3c-0.2-0.1-0.3-0.4-0.3-0.6V109.5L7.5,109.5z"/>
	<path class="st16" d="M71.5,109.5c0-0.4-0.3-0.8-0.8-0.8c-0.2,0-0.3,0-0.4,0.1L39.8,130c-0.2,0.1-0.3,0.4-0.3,0.6v25.1
		c0,0.6,0.7,1,1.2,0.6l30.5-21.1c0.2-0.1,0.3-0.4,0.3-0.6V109.5L71.5,109.5z"/>
	<path class="st16" d="M44.4,88.9l26.2,18.4c0.4,0.3,0.4,0.9,0,1.2l-30.5,21.4c-0.3,0.2-0.6,0.2-0.9,0L8.4,108.5
		c-0.3-0.2-0.4-0.7-0.2-1c0.1-0.1,0.1-0.1,0.2-0.2l26.6-18.4C37.8,86.9,41.6,86.9,44.4,88.9L44.4,88.9z"/>
	<g>
		<defs>
			<polygon id="SVGID_1_" points="23.7,107.7 38.9,97.6 54,107.8 38.8,117.9 			"/>
		</defs>
		<clipPath id="SVGID_00000091721323934528865290000005993842438779869585_">
			<use xlink:href="#SVGID_1_"  style="overflow:visible;"/>
		</clipPath>
		<g style="clip-path:url(#SVGID_00000091721323934528865290000005993842438779869585_);">
			<path class="st18" d="M40.1,101c1,0.7-0.7,3-3.8,5.1c-3.1,2.1-6.5,3.2-7.6,2.5 M40.1,101c-1-0.7-4.4,0.4-7.6,2.5
				c-3.1,2.1-4.8,4.4-3.8,5.1 M40.1,101l8.8,5.9c1,0.7-0.6,2.9-3.8,5.1c-3.2,2.1-6.5,3.2-7.6,2.5l-8.8-5.9 M44.5,104
				c1,0.7-0.6,2.9-3.8,5.1c-3.2,2.1-6.5,3.2-7.6,2.5"/>
		</g>
	</g>
</g>
<g class="st19">
	<path class="st16" d="M303,239.9c0-0.4,0.3-0.8,0.8-0.8c0.2,0,0.3,0,0.4,0.1l30.5,21.1c0.2,0.1,0.3,0.4,0.3,0.6v25.1
		c0,0.4-0.3,0.8-0.8,0.8c-0.2,0-0.3,0-0.4-0.1l-30.5-21.1c-0.2-0.1-0.3-0.4-0.3-0.6V239.9L303,239.9z"/>
	<path class="st16" d="M367,239.9c0-0.4-0.3-0.8-0.8-0.8c-0.2,0-0.3,0-0.4,0.1l-30.5,21.1c-0.2,0.1-0.3,0.4-0.3,0.6v25.1
		c0,0.6,0.7,1,1.2,0.6l30.5-21.1c0.2-0.1,0.3-0.4,0.3-0.6V239.9L367,239.9z"/>
	<path class="st16" d="M339.9,219.3l26.2,18.4c0.4,0.3,0.4,0.9,0,1.2l-30.5,21.4c-0.3,0.2-0.6,0.2-0.9,0l-30.9-21.4
		c-0.3-0.2-0.4-0.7-0.2-1c0.1-0.1,0.1-0.1,0.2-0.2l26.6-18.4C333.3,217.2,337.1,217.3,339.9,219.3z"/>
	<g>
		<defs>
			<polygon id="SVGID_00000078042874431880535060000007630561074275456922_" points="319.2,238.1 334.4,228 349.5,238.2 
				334.3,248.2 			"/>
		</defs>
		<clipPath id="SVGID_00000013187264585932646240000014714101238509333382_">
			<use xlink:href="#SVGID_00000078042874431880535060000007630561074275456922_"  style="overflow:visible;"/>
		</clipPath>
		<g style="clip-path:url(#SVGID_00000013187264585932646240000014714101238509333382_);">
			<path class="st18" d="M340.7,233.9l-12.6,8.4 M340.7,233.9l3.8,2.5c0.3,0.2,0.5,0.5,0.5,0.8c0,0.3-0.2,0.6-0.5,0.8l-10.1,6.7
				c-0.3,0.2-0.8,0.3-1.3,0.3c-0.5,0-0.9-0.1-1.3-0.4l-3.8-2.5 M340.7,233.9l-6.5-1.5c-0.3-0.1-0.7-0.1-1,0c-0.3,0-0.6,0.2-0.9,0.3
				l-6,4c-0.2,0.2-0.4,0.4-0.5,0.6c-0.1,0.2-0.1,0.4,0,0.7l2.2,4.4 M333.1,242.3L333.1,242.3 M335.6,240.7L335.6,240.7"/>
		</g>
	</g>
</g>
<linearGradient id="SVGID_00000092431266459432561570000009927376826745025432_" gradientUnits="userSpaceOnUse" x1="152" y1="247" x2="152" y2="172" gradientTransform="matrix(1 0 0 -1 0 322)">
	<stop  offset="0" style="stop-color:#C91396;stop-opacity:0"/>
	<stop  offset="1" style="stop-color:#C91396"/>
</linearGradient>
<path style="opacity:0.8;fill:none;stroke:url(#SVGID_00000092431266459432561570000009927376826745025432_);stroke-width:2.5;stroke-linecap:round;enable-background:new    ;" d="
	M152,75v75 M152,150l-3-3 M152,150l3-3"/>
<linearGradient id="SVGID_00000051380778771662837080000011934006848784987531_" gradientUnits="userSpaceOnUse" x1="241" y1="213" x2="241" y2="138" gradientTransform="matrix(1 0 0 -1 0 322)">
	<stop  offset="0" style="stop-color:#C91380;stop-opacity:0"/>
	<stop  offset="1" style="stop-color:#C91380"/>
</linearGradient>
<path style="opacity:0.8;fill:none;stroke:url(#SVGID_00000051380778771662837080000011934006848784987531_);stroke-width:2.5;stroke-linecap:round;enable-background:new    ;" d="
	M241,109v75 M241,184l-3-3 M241,184l3-3"/>
<path class="st23" d="M120,26c0-0.4,0.3-0.8,0.8-0.8c0.2,0,0.3,0,0.4,0.1l30.5,21.1c0.2,0.1,0.3,0.4,0.3,0.6v25.1
	c0,0.4-0.3,0.8-0.8,0.8c-0.2,0-0.3,0-0.4-0.1l-30.5-21.1c-0.2-0.1-0.3-0.4-0.3-0.6C120,51.1,120,26,120,26z"/>
<path class="st23" d="M184,26c0-0.4-0.3-0.8-0.8-0.8c-0.2,0-0.3,0-0.4,0.1l-30.5,21.1c-0.2,0.1-0.3,0.4-0.3,0.6v25.1
	c0,0.6,0.7,1,1.2,0.6l30.5-21.1c0.2-0.1,0.3-0.4,0.3-0.6C184,51.1,184,26,184,26z"/>
<path class="st23" d="M156.9,5.3l26.2,18.4c0.4,0.3,0.4,0.9,0,1.2l-30.5,21.4c-0.3,0.2-0.6,0.2-0.9,0l-30.9-21.4
	c-0.3-0.2-0.4-0.7-0.2-1c0.1-0.1,0.1-0.1,0.2-0.2l26.6-18.4C150.3,3.3,154.1,3.3,156.9,5.3z"/>
<path class="st24" d="M209,70c0-0.4,0.3-0.8,0.8-0.8c0.2,0,0.3,0,0.4,0.1l30.5,21.1c0.2,0.1,0.3,0.4,0.3,0.6v25.1
	c0,0.4-0.3,0.8-0.8,0.8c-0.2,0-0.3,0-0.4-0.1l-30.5-21.1c-0.2-0.1-0.3-0.4-0.3-0.6V70z"/>
<path class="st24" d="M273,70c0-0.4-0.3-0.8-0.8-0.8c-0.2,0-0.3,0-0.4,0.1l-30.5,21.1c-0.2,0.1-0.3,0.4-0.3,0.6v25.1
	c0,0.6,0.7,1,1.2,0.6l30.5-21.1c0.2-0.1,0.3-0.4,0.3-0.6V70z"/>
<path class="st24" d="M245.9,49.3l26.2,18.4c0.4,0.3,0.4,0.9,0,1.2l-30.5,21.4c-0.3,0.2-0.6,0.2-0.9,0l-30.9-21.4
	c-0.3-0.2-0.4-0.7-0.2-1c0.1-0.1,0.1-0.1,0.2-0.2l26.6-18.4C239.3,47.3,243.1,47.3,245.9,49.3L245.9,49.3z"/>
<path class="st24" d="M245.9,49.3l26.2,18.4c0.4,0.3,0.4,0.9,0,1.2l-30.5,21.4c-0.3,0.2-0.6,0.2-0.9,0l-30.9-21.4
	c-0.3-0.2-0.4-0.7-0.2-1c0.1-0.1,0.1-0.1,0.2-0.2l26.6-18.4C239.3,47.3,243.1,47.3,245.9,49.3L245.9,49.3z"/>
<g>
	<defs>
		<polygon id="SVGID_00000178183302092652232880000005059902993277198513_" points="225.2,68.2 240.4,58.1 255.5,68.2 240.3,78.3 		
			"/>
	</defs>
	<clipPath id="SVGID_00000122716415178222012100000006809280059986160030_">
		<use xlink:href="#SVGID_00000178183302092652232880000005059902993277198513_"  style="overflow:visible;"/>
	</clipPath>
	<g style="clip-path:url(#SVGID_00000122716415178222012100000006809280059986160030_);">
		<path d="M249.1,64.3c-0.4-0.1-0.8-0.1-1.1,0.1c-0.2,0.1-0.3,0.2-0.5,0.3c-0.2,0.2-0.4,0.4-0.7,0.6c-0.5-1.3-1.2-2.5-2.1-3.5
			c-1.5-1.7-2.6-2.1-3.4-2.2c-1.9-0.2-3.8,0.3-5.3,1.3c-0.8,0.5-1.4,1.1-1.6,1.4c-0.4,0.2-0.8,0.4-1.2,0.7c-0.7,0.5-1.2,1-1.4,1.6
			c-0.6,0.2-1.1,0.4-1.7,0.7c-1.5,0.7-2.4,1.5-2.6,2.4c-0.3,1.1,0.4,2.1,2.1,3.1c0.5,0.3,2.4,1.2,4.3,1.9c1.1,0.4,2.1,0.7,2.9,0.9
			c1.2,0.2,2,0.3,2.7,0c0.4-0.1,0.9-0.4,1-1c0.1,0,0.3,0,0.5,0c0.2,0,0.5-0.1,0.7-0.2c0.8-0.3,1.4-0.8,1.7-1.3l0.3,0.2
			c0.1,0.1,0.3,0.2,0.4,0.2c0.8,0.5,1.4,0.9,2,1l0.1,0c0.3,0.1,0.8,0.3,1.5,0.3c0.8,0,1.5-0.3,2-0.9c0.4-0.5,0.9-1,0.7-1.8
			c-0.2-0.7-0.9-1.5-2.3-2.5c0,0-0.1-0.1-0.1-0.1l-0.1-0.1l0.1-0.1l0,0c0.6-0.4,1.2-0.9,1.4-1.3C249.7,65.8,250.2,64.7,249.1,64.3"
			/>
		<path class="st26" d="M248.3,65.1c-1.4,1.4-2,1.1-2,1.1c-0.9-3-3.5-5.8-5-5.9c-4-0.3-6,2.4-6.1,2.5l0,0c-0.4,0.2-0.9,0.4-1.3,0.7
			c-0.8,0.5-1.2,1-1.3,1.6c0,0-7.7,2.1-2.4,5.4c1.1,0.7,9.7,4.5,9.4,1.8c-0.1-1-0.2-1.8-0.2-1.8c0.5-0.1,1-0.2,1.4-0.5l0,0
			c0.1,0.1,0.2,0.1,0.3,0.2c0.1,0.7,0.3,0.6-0.5,1.4c-0.7,0.8,0.1,0.6,0.6,0.4c0.5-0.2,1.7-0.8,1.4-1.9l0.1,0.1
			c0.3,0,1.2,0.4,1.9,0.9c0.7,0.5,1.2,0.8,1.7,1c0.5,0.2,1.5,0.7,2.5-0.3c0.8-0.8,0.8-1.5-0.1-2.2c-0.6-0.5-0.4-0.5-1-0.9l-0.2-0.3
			c-0.8-0.7-1.2-0.8-0.4-1.1l0.2-0.1c0.5-0.3,1-0.8,1.2-1.1C249,65.2,248.9,64.5,248.3,65.1"/>
		<path class="st27" d="M236.3,67c-0.2,0.1-0.3,0.2-0.3,0.3c0,0,0,0.1,0,0.1c0.1,0,0.2,0.1,0.2,0.1c0.2,0,0.3,0,0.5-0.1
			c0,0,0,0,0.1,0c0.2-0.1,0.2-0.3,0.1-0.4C236.8,66.8,236.5,66.9,236.3,67z M241.4,63.6c-0.1-0.1-0.3,0-0.5,0.2
			c-0.2,0.1-0.2,0.3-0.1,0.4c0.1,0,0.4,0,0.6-0.1c0.1-0.1,0.2-0.2,0.2-0.3C241.5,63.7,241.5,63.6,241.4,63.6"/>
		<path class="st27" d="M248.8,64.7c-0.3-0.1-0.5,0-0.8,0.3c-0.8,0.8-1.3,1-1.5,1c-0.4-1.4-1.2-2.8-2.3-3.9c-0.5-0.5-1-1-1.5-1.4
			c-0.5-0.4-1-0.6-1.5-0.6c-1.7-0.1-3.4,0.3-4.8,1.2c-0.9,0.6-1.5,1.3-1.6,1.5c-0.4,0.2-0.8,0.4-1.2,0.6c-0.7,0.5-1.2,1-1.3,1.5
			c-0.3,0.1-1.1,0.3-1.9,0.7c-1.4,0.7-2.2,1.4-2.4,2.2c-0.2,0.9,0.4,1.9,1.9,2.8c0.5,0.3,2.3,1.1,4.2,1.8c2.5,0.9,4.2,1.2,5,0.9
			c0.1,0,0.2-0.1,0.3-0.1c0.2-0.2,0.4-0.4,0.4-0.9c-0.1-0.5-0.1-1.1-0.1-1.7c0.4-0.1,0.8-0.2,1.1-0.4l0,0c0,0.1,0,0.1,0,0.2
			c0.1,0.3,0.1,0.4-0.5,0.9c-0.1,0.1-0.5,0.5-0.2,0.8c0.4,0.3,1.1,0,1.2-0.1c0.3-0.1,0.5-0.2,0.8-0.4c0.5-0.3,0.8-0.8,0.8-1.2
			c1.3,0.9,2.7,1.8,3.3,1.9c0.5,0.1,1.6,0.5,2.6-0.2c0.1-0.1,0.3-0.2,0.4-0.4c0.8-0.9,0.8-1.5,0-2.3c-0.5-0.4-1.6-1.4-2.2-2
			c0.2-0.1,0.4-0.2,0.7-0.3c0.5-0.3,0.9-0.7,1.1-1.1C249.1,65.6,249.3,64.9,248.8,64.7L248.8,64.7z M241.5,63.2
			c0.2,0.1,0.4,0.3,0.5,0.4c0.2,0.2,0.4,0.3,0.6,0.5c0.3,0.2,0.6,0.3,0.8,0.5c0.6,0.3,1.2,0.6,1.5,1.2c-0.1,0-0.2,0-0.3-0.1
			c-0.2,0-0.4-0.1-0.6-0.1c-1-0.2-3.4-0.7-3.6-1.4C240.5,64,240.6,63.7,241.5,63.2L241.5,63.2z M237,61.5c1.2-0.8,2.7-1.1,4.2-1
			c1.2,0.1,3.7,2.5,4.6,5.4c0,0-0.1,0-0.1,0l0,0c-0.3-0.8-1.1-1.2-1.8-1.6c-0.3-0.2-0.6-0.3-0.8-0.5c-0.2-0.1-0.4-0.3-0.6-0.5
			c-0.2-0.2-0.5-0.4-0.7-0.6c0,0-0.1-0.1-0.1-0.1c-0.3-0.2-1.5-0.5-3-0.6c-1-0.1-1.9,0-2.9,0.3C236.1,62.1,236.5,61.8,237,61.5
			L237,61.5z M239.4,72.2c0.1,0.5-0.2,0.6-0.3,0.6c-0.7,0.2-2.3-0.1-4.5-0.9c-1.9-0.7-3.6-1.5-4-1.7c-1.4-0.8-1.9-1.6-1.7-2.4
			c0.3-1.3,2.6-2.2,3.6-2.5l0,0c0,1.6,2.1,3,2.2,3.1c0,0,0.1,0.1,0.2,0.1c0.4,0.2,1.1,0.6,1.7,1.2c0.6,0.5,1.5,0.8,2.4,0.8
			c0.1,0,0.2,0,0.3,0C239.2,70.9,239.3,71.5,239.4,72.2L239.4,72.2z M238.9,70.2c-0.8,0-1.5-0.3-2-0.7c-0.7-0.6-1.4-1-1.8-1.3
			c-0.1,0-0.1-0.1-0.1-0.1c0-0.2,0.4-1.1,1.1-1.4c0.3-0.1,0.7-0.1,1,0c2,0.8,2.3,1.5,2.6,2c0.1,0.1,0.1,0.2,0.2,0.3l0.1,0.1
			c0.1,0.2,0.3,0.4,0.4,0.5C240.1,70.1,239.5,70.2,238.9,70.2L238.9,70.2z M241.2,71.6c-0.1,0.1-0.3,0.1-0.4,0.1
			c0-0.1,0.1-0.1,0.2-0.3c0.6-0.6,0.6-0.8,0.5-1.2c0-0.1,0-0.2,0-0.3c0-0.2,0.1-0.2,0.2-0.3c0.2,0,0.3,0,0.5,0
			c0.1,0,0.2,0.1,0.2,0.2C242.7,70.8,241.9,71.3,241.2,71.6z M248.9,71.4c-0.7,0.8-1.5,0.7-2.3,0.4c-0.5-0.1-2.1-1.2-3.8-2.4
			c0,0,0,0-0.1,0c-0.4-0.2-0.8-0.2-1.2-0.1c-0.1,0-0.3,0.1-0.5,0.3c-0.1-0.1-0.2-0.3-0.4-0.5l-0.1-0.1c-0.1-0.1-0.1-0.2-0.2-0.3
			c-0.3-0.5-0.7-1.3-2.9-2.2c-0.8-0.3-1.6-0.2-2.2,0.3c-0.3,0.3-0.6,0.6-0.8,1c-0.6-0.5-1.6-1.4-1.6-2.5c0-0.7,0.4-1.2,1.2-1.8
			c1.6-1,3.4-1.2,4.6-1.1c1.1,0.1,1.9,0.3,2.3,0.4c-0.9,0.5-1.2,0.9-1.1,1.4c0.3,1,2.8,1.5,4,1.7c0.2,0,0.4,0.1,0.5,0.1
			c0.5,0.1,0.9,0.2,1.2,0.2c0.1,0,0.2,0,0.3,0c-0.2,0.2-0.4,0.6,0.4,1.1c0.4,0.3,2,1.7,2.6,2.2C249.6,70.3,249.6,70.7,248.9,71.4
			L248.9,71.4z M248.3,65.9c-0.1,0.2-0.5,0.6-0.8,0.8c-0.4,0.3-0.7,0.4-0.8,0.4c-0.5-0.3-0.4-0.5-0.2-0.6c0,0,0-0.1,0.1-0.1
			c0,0,0.1,0,0.1,0c0.6-0.1,1.2-0.5,1.9-1.2l0,0C248.5,65.4,248.4,65.6,248.3,65.9z"/>
	</g>
</g>
<g class="st19">
	<path class="st16" d="M262,266.9c0-0.4,0.3-0.8,0.8-0.8c0.2,0,0.3,0,0.4,0.1l30.5,21.1c0.2,0.1,0.3,0.4,0.3,0.6v25.1
		c0,0.4-0.3,0.8-0.8,0.8c-0.2,0-0.3,0-0.4-0.1l-30.5-21.1c-0.2-0.1-0.3-0.4-0.3-0.6V266.9z"/>
	<path class="st16" d="M326,266.9c0-0.4-0.3-0.8-0.8-0.8c-0.2,0-0.3,0-0.4,0.1l-30.5,21.1c-0.2,0.1-0.3,0.4-0.3,0.6v25.1
		c0,0.6,0.7,1,1.2,0.6l30.5-21.1c0.2-0.1,0.3-0.4,0.3-0.6V266.9L326,266.9z"/>
	<path class="st16" d="M298.9,246.3l26.2,18.4c0.3,0.2,0.4,0.7,0.2,1c-0.1,0.1-0.1,0.1-0.2,0.2l-30.5,21.4c-0.3,0.2-0.6,0.2-0.9,0
		l-30.9-21.4c-0.3-0.2-0.4-0.7-0.2-1c0.1-0.1,0.1-0.1,0.2-0.2l26.6-18.4C292.3,244.3,296.1,244.3,298.9,246.3z"/>
	<path class="st28" d="M291.4,266.3l-2.4-1.6 M291.4,266.3c0,0,0,0.1,0,0.1l-3,2c0,0-0.1,0-0.2,0l-2.4-1.6c0,0,0-0.1,0-0.1l3-2
		c0,0,0.1,0,0.2,0 M291.4,266.3c0,0,0.1,0,0.2,0l3-2c0,0,0-0.1,0-0.1l-2.4-1.6c0,0-0.1,0-0.2,0l-3,2c0,0,0,0.1,0,0.1 M297,260.6
		c0.2-0.1,1.7-0.1,2.5-0.2c0.4,0.7,0.6,1.8-0.2,2.1c1.6,3,1.1,4.7-1.5,6.5c-2.6,1.7-6.6,3.1-10.3,0.2c0,0,0-0.1,0-0.1l7.8-5.2
		c0.5-0.3,1.1-0.8,0.9-1c-1.2-0.2-1.6-0.9-2.1-1.9C294.7,260.9,296.7,260.4,297,260.6z M287.5,265.7l3-2c0,0,0-0.1,0-0.1l-2.4-1.6
		c0,0-0.1,0-0.2,0l-3,2c0,0,0,0.1,0,0.1l2.4,1.6C287.3,265.7,287.4,265.7,287.5,265.7z"/>
</g>
<g>
	<path class="st27" d="M212.2,190.9l-1.2,2.8l1.8-0.8L212.2,190.9z"/>
	<path class="st27" d="M211.2,189.9l-1.4,3.4l-3.2-1.3L211.2,189.9z"/>
	<path class="st27" d="M205.6,191.6l-0.2-3l6.3,0.3L205.6,191.6z"/>
	<path class="st27" d="M204,188.9l0.1,2.2l-4.1,0.5L204,188.9z"/>
	<path class="st27" d="M202.8,188.6l-3.2,0.3l-0.5,2.2L202.8,188.6z"/>
</g>
<g>
	<path class="st27" d="M121.9,163.2l-1.2,2.8l1.8-0.8L121.9,163.2z"/>
	<path class="st27" d="M120.9,162.2l-1.4,3.4l-3.2-1.3L120.9,162.2z"/>
	<path class="st27" d="M115.3,163.8l-0.2-3l6.3,0.3L115.3,163.8z"/>
	<path class="st27" d="M113.8,161.1l0.1,2.2l-4.1,0.5L113.8,161.1z"/>
	<path class="st27" d="M112.6,160.9l-3.2,0.3l-0.5,2.2L112.6,160.9z"/>
</g>
</svg>
