<?xml version="1.0" encoding="utf-8"?>
<!-- Generator: Adobe Illustrator 26.2.1, SVG Export Plug-In . SVG Version: 6.00 Build 0)  -->
<svg version="1.1" id="Layer_1" xmlns="http://www.w3.org/2000/svg" xmlns:xlink="http://www.w3.org/1999/xlink" x="0px" y="0px"
	 viewBox="0 0 413 402" style="enable-background:new 0 0 413 402;" xml:space="preserve">
<style type="text/css">
	.st0{opacity:0.5;}
	.st1{fill:#09080D;}
	.st2{fill:none;stroke:#FFFFFF;stroke-opacity:0.1;}
	.st3{fill:#0B0A0F;}
	.st4{fill:none;stroke:#FFFFFF;stroke-opacity:0.25;}
	.st5{fill:#33323E;}
	.st6{fill:none;stroke:#FFFFFF;stroke-width:0.691;stroke-opacity:0.25;}
	.st7{fill:#131217;}
	.st8{opacity:0.2;fill:#D9D9D9;enable-background:new    ;}
	.st9{opacity:0.1;fill:#D9D9D9;enable-background:new    ;}
	.st10{fill:none;stroke:#42946E;stroke-linecap:round;stroke-linejoin:round;}
	.st11{fill-rule:evenodd;clip-rule:evenodd;fill:#09080D;}
	.st12{fill-rule:evenodd;clip-rule:evenodd;fill:#FFFFFF;filter:url(#Adobe_OpacityMaskFilter);}
	
		.st13{mask:url(#path-6-inside-1_1979_204924_00000037679948006859815950000000070431724245229713_);fill:#FFFFFF;fill-opacity:0.25;}
	
		.st14{fill-rule:evenodd;clip-rule:evenodd;fill:#FFFFFF;filter:url(#Adobe_OpacityMaskFilter_00000138548221279476685540000008179647039920339083_);}
	
		.st15{mask:url(#path-6-inside-1_1979_204924_00000001663874825115793470000010948580432935059119_);fill:#FFFFFF;fill-opacity:0.25;}
	.st16{opacity:0.5;clip-path:url(#SVGID_00000134210595687832099500000012271147951680841351_);}
	.st17{fill-rule:evenodd;clip-rule:evenodd;fill:#F7F7F8;}
	
		.st18{fill-rule:evenodd;clip-rule:evenodd;fill:#FFFFFF;filter:url(#Adobe_OpacityMaskFilter_00000168837431260955178190000016433888948980001201_);}
	
		.st19{mask:url(#path-24-inside-2_1979_204924_00000044166566084920626870000014000817325188672931_);fill:#FFFFFF;fill-opacity:0.25;}
	.st20{opacity:0.5;clip-path:url(#SVGID_00000010276474772091605180000017549491015708508342_);}
	.st21{fill:url(#SVGID_00000020391409446973709790000011987281373709155768_);}
	.st22{fill:url(#SVGID_00000011750728242047393680000015926299341718966179_);}
	.st23{opacity:0.5;fill:none;stroke:#00E6D6;stroke-dasharray:3,3;enable-background:new    ;}
	.st24{fill:none;stroke:#00E6D6;stroke-dasharray:3,3;}
	.st25{fill:none;stroke:url(#SVGID_00000052087877332729852500000008833718544586983102_);stroke-width:3;stroke-linecap:round;}
	.st26{fill:none;stroke:url(#SVGID_00000114790142265279877490000006897489254042384768_);stroke-width:3;stroke-linecap:round;}
	.st27{fill:none;stroke:url(#SVGID_00000038388060052942447440000006256518463633792396_);stroke-width:3;stroke-linecap:round;}
	.st28{fill:none;stroke:url(#SVGID_00000154406461675113279780000003576015805328723848_);stroke-width:3;stroke-linecap:round;}
</style>
<g class="st0">
	<path class="st1" d="M29.6,206.1L238.8,66.6c1.9-1.3,5-1.3,6.9,0l159.4,107.1c1.9,1.3,1.9,3.3,0,4.6L195.9,317.7
		c-1.9,1.3-5,1.3-6.9,0L29.6,210.7C27.7,209.4,27.7,207.3,29.6,206.1z"/>
	<path class="st2" d="M30,206.3L239.2,66.9c1.7-1.1,4.4-1.1,6.1,0l159.4,107.1c1.7,1.1,1.7,2.9,0,4.1L195.5,317.5
		c-1.7,1.1-4.4,1.1-6.1,0L30,210.4C28.3,209.3,28.3,207.4,30,206.3z"/>
	<path class="st3" d="M29.6,198.5L238.8,59c1.9-1.3,5-1.3,6.9,0l159.4,107.1c1.9,1.3,1.9,3.3,0,4.6L195.9,310.1
		c-1.9,1.3-5,1.3-6.9,0L29.6,203.1C27.7,201.8,27.7,199.7,29.6,198.5z"/>
	<path class="st4" d="M30,198.7L239.2,59.3c1.7-1.1,4.4-1.1,6.1,0l159.4,107.1c1.7,1.1,1.7,2.9,0,4.1L195.5,309.9
		c-1.7,1.1-4.4,1.1-6.1,0L30,202.8C28.3,201.7,28.3,199.8,30,198.7z"/>
	<path class="st5" d="M32.3,202.3c0.5,0.3,0.5,0.8,0,1.1c-0.5,0.3-1.2,0.3-1.7,0c-0.5-0.3-0.5-0.8,0-1.1
		C31.1,202,31.8,202,32.3,202.3z M45.6,211.2c0.5,0.3,0.5,0.8,0,1.1c-0.5,0.3-1.2,0.3-1.7,0c-0.5-0.3-0.5-0.8,0-1.1
		C44.4,210.9,45.1,210.9,45.6,211.2z M58.8,220.2c0.5,0.3,0.5,0.8,0,1.1c-0.5,0.3-1.2,0.3-1.7,0c-0.5-0.3-0.5-0.8,0-1.1
		C57.6,219.8,58.4,219.9,58.8,220.2z M72.1,229.1c0.5,0.3,0.5,0.8,0,1.1c-0.5,0.3-1.2,0.3-1.7,0c-0.5-0.3-0.5-0.8,0-1.1
		S71.7,228.8,72.1,229.1z M85.4,238c0.5,0.3,0.5,0.8,0,1.1s-1.2,0.3-1.7,0c-0.5-0.3-0.5-0.8,0-1.1C84.2,237.7,85,237.7,85.4,238z
		 M98.7,246.9c0.5,0.3,0.5,0.8,0,1.1c-0.5,0.3-1.2,0.3-1.7,0c-0.5-0.3-0.5-0.8,0-1.1C97.5,246.6,98.2,246.6,98.7,246.9z M112,255.8
		c0.5,0.3,0.5,0.8,0,1.1c-0.5,0.3-1.2,0.3-1.7,0c-0.5-0.3-0.5-0.8,0-1.1C110.8,255.5,111.5,255.5,112,255.8L112,255.8z M125.3,264.8
		c0.5,0.3,0.5,0.8,0,1.1c-0.5,0.3-1.2,0.3-1.7,0c-0.5-0.3-0.5-0.8,0-1.1C124.1,264.5,124.8,264.5,125.3,264.8L125.3,264.8z
		 M138.5,273.7c0.5,0.3,0.5,0.8,0,1.1c-0.5,0.3-1.2,0.3-1.7,0c-0.5-0.3-0.5-0.8,0-1.1C137.3,273.4,138.1,273.4,138.5,273.7z
		 M151.8,282.6c0.5,0.3,0.5,0.8,0,1.1c-0.5,0.3-1.2,0.3-1.7,0c-0.5-0.3-0.5-0.8,0-1.1C150.6,282.3,151.4,282.3,151.8,282.6
		L151.8,282.6z M165.1,291.5c0.5,0.3,0.5,0.8,0,1.1c-0.5,0.3-1.2,0.3-1.7,0c-0.5-0.3-0.5-0.8,0-1.1
		C163.9,291.2,164.6,291.2,165.1,291.5z M178.4,300.4c0.5,0.3,0.5,0.8,0,1.1c-0.5,0.3-1.2,0.3-1.7,0c-0.5-0.3-0.5-0.8,0-1.1
		C177.2,300.1,177.9,300.1,178.4,300.4z M191.7,309.4c0.5,0.3,0.5,0.8,0,1.1c-0.5,0.3-1.2,0.3-1.7,0c-0.5-0.3-0.5-0.8,0-1.1
		C190.5,309.1,191.2,309.1,191.7,309.4z M45.6,193.4c0.5,0.3,0.5,0.8,0,1.1c-0.5,0.3-1.2,0.3-1.7,0c-0.5-0.3-0.5-0.8,0-1.1
		S45.1,193.1,45.6,193.4z M58.9,202.4c0.5,0.3,0.5,0.8,0,1.1s-1.2,0.3-1.7,0c-0.5-0.3-0.5-0.8,0-1.1S58.4,202.1,58.9,202.4z
		 M72.2,211.3c0.5,0.3,0.5,0.8,0,1.1s-1.2,0.3-1.7,0c-0.5-0.3-0.5-0.8,0-1.1C71,211,71.7,211,72.2,211.3z M85.4,220.2
		c0.5,0.3,0.5,0.8,0,1.1c-0.5,0.3-1.2,0.3-1.7,0c-0.5-0.3-0.5-0.8,0-1.1C84.2,219.9,85,219.9,85.4,220.2z M98.7,229.1
		c0.5,0.3,0.5,0.8,0,1.1c-0.5,0.3-1.2,0.3-1.7,0c-0.5-0.3-0.5-0.8,0-1.1C97.5,228.8,98.3,228.8,98.7,229.1z M112,238
		c0.5,0.3,0.5,0.8,0,1.1c-0.5,0.3-1.2,0.3-1.7,0c-0.5-0.3-0.5-0.8,0-1.1C110.8,237.7,111.5,237.7,112,238L112,238z M125.3,247
		c0.5,0.3,0.5,0.8,0,1.1c-0.5,0.3-1.2,0.3-1.7,0c-0.5-0.3-0.5-0.8,0-1.1C124.1,246.7,124.8,246.7,125.3,247z M138.6,255.9
		c0.5,0.3,0.5,0.8,0,1.1c-0.5,0.3-1.2,0.3-1.7,0c-0.5-0.3-0.5-0.8,0-1.1C137.4,255.6,138.1,255.6,138.6,255.9L138.6,255.9z
		 M151.9,264.8c0.5,0.3,0.5,0.8,0,1.1c-0.5,0.3-1.2,0.3-1.7,0c-0.5-0.3-0.5-0.8,0-1.1C150.7,264.5,151.4,264.5,151.9,264.8z
		 M165.1,273.7c0.5,0.3,0.5,0.8,0,1.1c-0.5,0.3-1.2,0.3-1.7,0c-0.5-0.3-0.5-0.8,0-1.1C163.9,273.4,164.7,273.4,165.1,273.7z
		 M178.4,282.6c0.5,0.3,0.5,0.8,0,1.1c-0.5,0.3-1.2,0.3-1.7,0c-0.5-0.3-0.5-0.8,0-1.1C177.2,282.3,178,282.3,178.4,282.6z
		 M191.7,291.6c0.5,0.3,0.5,0.8,0,1.1c-0.5,0.3-1.2,0.3-1.7,0c-0.5-0.3-0.5-0.8,0-1.1C190.5,291.3,191.2,291.3,191.7,291.6z
		 M205,300.5c0.5,0.3,0.5,0.8,0,1.1c-0.5,0.3-1.2,0.3-1.7,0c-0.5-0.3-0.5-0.8,0-1.1C203.8,300.2,204.5,300.2,205,300.5z M58.9,184.6
		c0.5,0.3,0.5,0.8,0,1.1c-0.5,0.3-1.2,0.3-1.7,0c-0.5-0.3-0.5-0.8,0-1.1C57.7,184.3,58.4,184.3,58.9,184.6L58.9,184.6z M72.2,193.5
		c0.5,0.3,0.5,0.8,0,1.1c-0.5,0.3-1.2,0.3-1.7,0c-0.5-0.3-0.5-0.8,0-1.1C71,193.2,71.7,193.2,72.2,193.5z M85.5,202.4
		c0.5,0.3,0.5,0.8,0,1.1c-0.5,0.3-1.2,0.3-1.7,0c-0.5-0.3-0.5-0.8,0-1.1C84.3,202.1,85,202.1,85.5,202.4z M98.8,211.3
		c0.5,0.3,0.5,0.8,0,1.1c-0.5,0.3-1.2,0.3-1.7,0c-0.5-0.3-0.5-0.8,0-1.1C97.6,211,98.3,211,98.8,211.3z M112,220.2
		c0.5,0.3,0.5,0.8,0,1.1c-0.5,0.3-1.2,0.3-1.7,0c-0.5-0.3-0.5-0.8,0-1.1C110.8,219.9,111.6,219.9,112,220.2z M125.3,229.2
		c0.5,0.3,0.5,0.8,0,1.1c-0.5,0.3-1.2,0.3-1.7,0c-0.5-0.3-0.5-0.8,0-1.1C124.1,228.9,124.9,228.9,125.3,229.2z M138.6,238.1
		c0.5,0.3,0.5,0.8,0,1.1c-0.5,0.3-1.2,0.3-1.7,0c-0.5-0.3-0.5-0.8,0-1.1C137.4,237.8,138.1,237.8,138.6,238.1z M151.9,247
		c0.5,0.3,0.5,0.8,0,1.1c-0.5,0.3-1.2,0.3-1.7,0c-0.5-0.3-0.5-0.8,0-1.1C150.7,246.7,151.4,246.7,151.9,247z M165.2,255.9
		c0.5,0.3,0.5,0.8,0,1.1c-0.5,0.3-1.2,0.3-1.7,0c-0.5-0.3-0.5-0.8,0-1.1C164,255.6,164.7,255.6,165.2,255.9L165.2,255.9z
		 M178.4,264.9c0.5,0.3,0.5,0.8,0,1.1c-0.5,0.3-1.2,0.3-1.7,0c-0.5-0.3-0.5-0.8,0-1.1C177.2,264.5,178,264.5,178.4,264.9z
		 M191.7,273.8c0.5,0.3,0.5,0.8,0,1.1c-0.5,0.3-1.2,0.3-1.7,0c-0.5-0.3-0.5-0.8,0-1.1C190.5,273.5,191.3,273.5,191.7,273.8z
		 M205,282.7c0.5,0.3,0.5,0.8,0,1.1c-0.5,0.3-1.2,0.3-1.7,0c-0.5-0.3-0.5-0.8,0-1.1C203.8,282.4,204.6,282.4,205,282.7z
		 M218.3,291.6c0.5,0.3,0.5,0.8,0,1.1c-0.5,0.3-1.2,0.3-1.7,0c-0.5-0.3-0.5-0.8,0-1.1C217.1,291.3,217.8,291.3,218.3,291.6
		L218.3,291.6z M72.2,175.7c0.5,0.3,0.5,0.8,0,1.1c-0.5,0.3-1.2,0.3-1.7,0c-0.5-0.3-0.5-0.8,0-1.1C71,175.4,71.8,175.4,72.2,175.7z
		 M85.5,184.6c0.5,0.3,0.5,0.8,0,1.1c-0.5,0.3-1.2,0.3-1.7,0c-0.5-0.3-0.5-0.8,0-1.1C84.3,184.3,85,184.3,85.5,184.6z M98.8,193.5
		c0.5,0.3,0.5,0.8,0,1.1c-0.5,0.3-1.2,0.3-1.7,0c-0.5-0.3-0.5-0.8,0-1.1C97.6,193.2,98.3,193.2,98.8,193.5z M112.1,202.5
		c0.5,0.3,0.5,0.8,0,1.1c-0.5,0.3-1.2,0.3-1.7,0c-0.5-0.3-0.5-0.8,0-1.1C110.9,202.1,111.6,202.1,112.1,202.5z M125.3,211.4
		c0.5,0.3,0.5,0.8,0,1.1c-0.5,0.3-1.2,0.3-1.7,0c-0.5-0.3-0.5-0.8,0-1.1C124.1,211.1,124.9,211.1,125.3,211.4z M138.6,220.3
		c0.5,0.3,0.5,0.8,0,1.1c-0.5,0.3-1.2,0.3-1.7,0c-0.5-0.3-0.5-0.8,0-1.1C137.4,220,138.2,220,138.6,220.3z M151.9,229.2
		c0.5,0.3,0.5,0.8,0,1.1c-0.5,0.3-1.2,0.3-1.7,0c-0.5-0.3-0.5-0.8,0-1.1C150.7,228.9,151.5,228.9,151.9,229.2z M165.2,238.1
		c0.5,0.3,0.5,0.8,0,1.1c-0.5,0.3-1.2,0.3-1.7,0c-0.5-0.3-0.5-0.8,0-1.1C164,237.8,164.7,237.8,165.2,238.1z M178.5,247.1
		c0.5,0.3,0.5,0.8,0,1.1c-0.5,0.3-1.2,0.3-1.7,0c-0.5-0.3-0.5-0.8,0-1.1C177.3,246.7,178,246.8,178.5,247.1z M191.8,256
		c0.5,0.3,0.5,0.8,0,1.1c-0.5,0.3-1.2,0.3-1.7,0c-0.5-0.3-0.5-0.8,0-1.1C190.6,255.7,191.3,255.7,191.8,256L191.8,256z M205,264.9
		c0.5,0.3,0.5,0.8,0,1.1c-0.5,0.3-1.2,0.3-1.7,0c-0.5-0.3-0.5-0.8,0-1.1C203.8,264.6,204.6,264.6,205,264.9L205,264.9z M218.3,273.8
		c0.5,0.3,0.5,0.8,0,1.1c-0.5,0.3-1.2,0.3-1.7,0c-0.5-0.3-0.5-0.8,0-1.1C217.1,273.5,217.9,273.5,218.3,273.8L218.3,273.8z
		 M231.6,282.7c0.5,0.3,0.5,0.8,0,1.1c-0.5,0.3-1.2,0.3-1.7,0c-0.5-0.3-0.5-0.8,0-1.1C230.4,282.4,231.1,282.4,231.6,282.7z
		 M85.5,166.8c0.5,0.3,0.5,0.8,0,1.1c-0.5,0.3-1.2,0.3-1.7,0c-0.5-0.3-0.5-0.8,0-1.1C84.3,166.5,85.1,166.5,85.5,166.8z M98.8,175.7
		c0.5,0.3,0.5,0.8,0,1.1c-0.5,0.3-1.2,0.3-1.7,0c-0.5-0.3-0.5-0.8,0-1.1C97.6,175.4,98.4,175.4,98.8,175.7z M112.1,184.7
		c0.5,0.3,0.5,0.8,0,1.1c-0.5,0.3-1.2,0.3-1.7,0c-0.5-0.3-0.5-0.8,0-1.1C110.9,184.3,111.6,184.3,112.1,184.7L112.1,184.7z
		 M125.4,193.6c0.5,0.3,0.5,0.8,0,1.1c-0.5,0.3-1.2,0.3-1.7,0c-0.5-0.3-0.5-0.8,0-1.1S124.9,193.3,125.4,193.6z M138.7,202.5
		c0.5,0.3,0.5,0.8,0,1.1c-0.5,0.3-1.2,0.3-1.7,0c-0.5-0.3-0.5-0.8,0-1.1C137.5,202.2,138.2,202.2,138.7,202.5z M151.9,211.4
		c0.5,0.3,0.5,0.8,0,1.1c-0.5,0.3-1.2,0.3-1.7,0c-0.5-0.3-0.5-0.8,0-1.1C150.7,211.1,151.5,211.1,151.9,211.4z M165.2,220.3
		c0.5,0.3,0.5,0.8,0,1.1c-0.5,0.3-1.2,0.3-1.7,0c-0.5-0.3-0.5-0.8,0-1.1C164,220,164.8,220,165.2,220.3z M178.5,229.3
		c0.5,0.3,0.5,0.8,0,1.1c-0.5,0.3-1.2,0.3-1.7,0c-0.5-0.3-0.5-0.8,0-1.1C177.3,229,178.1,229,178.5,229.3z M191.8,238.2
		c0.5,0.3,0.5,0.8,0,1.1c-0.5,0.3-1.2,0.3-1.7,0c-0.5-0.3-0.5-0.8,0-1.1C190.6,237.9,191.3,237.9,191.8,238.2z M205.1,247.1
		c0.5,0.3,0.5,0.8,0,1.1c-0.5,0.3-1.2,0.3-1.7,0c-0.5-0.3-0.5-0.8,0-1.1C203.9,246.8,204.6,246.8,205.1,247.1z M218.4,256
		c0.5,0.3,0.5,0.8,0,1.1c-0.5,0.3-1.2,0.3-1.7,0c-0.5-0.3-0.5-0.8,0-1.1C217.2,255.7,217.9,255.7,218.4,256z M231.6,264.9
		c0.5,0.3,0.5,0.8,0,1.1c-0.5,0.3-1.2,0.3-1.7,0c-0.5-0.3-0.5-0.8,0-1.1C230.4,264.6,231.2,264.6,231.6,264.9L231.6,264.9z
		 M244.9,273.9c0.5,0.3,0.5,0.8,0,1.1c-0.5,0.3-1.2,0.3-1.7,0c-0.5-0.3-0.5-0.8,0-1.1C243.7,273.6,244.5,273.6,244.9,273.9z
		 M98.8,157.9c0.5,0.3,0.5,0.8,0,1.1c-0.5,0.3-1.2,0.3-1.7,0c-0.5-0.3-0.5-0.8,0-1.1C97.6,157.6,98.4,157.6,98.8,157.9L98.8,157.9z
		 M112.1,166.9c0.5,0.3,0.5,0.8,0,1.1c-0.5,0.3-1.2,0.3-1.7,0c-0.5-0.3-0.5-0.8,0-1.1C110.9,166.6,111.7,166.6,112.1,166.9z
		 M125.4,175.8c0.5,0.3,0.5,0.8,0,1.1c-0.5,0.3-1.2,0.3-1.7,0c-0.5-0.3-0.5-0.8,0-1.1C124.2,175.5,125,175.5,125.4,175.8z
		 M138.7,184.7c0.5,0.3,0.5,0.8,0,1.1c-0.5,0.3-1.2,0.3-1.7,0c-0.5-0.3-0.5-0.8,0-1.1C137.5,184.4,138.2,184.4,138.7,184.7z
		 M152,193.6c0.5,0.3,0.5,0.8,0,1.1c-0.5,0.3-1.2,0.3-1.7,0c-0.5-0.3-0.5-0.8,0-1.1C150.8,193.3,151.5,193.3,152,193.6z
		 M165.3,202.5c0.5,0.3,0.5,0.8,0,1.1c-0.5,0.3-1.2,0.3-1.7,0c-0.5-0.3-0.5-0.8,0-1.1C164.1,202.2,164.8,202.2,165.3,202.5z
		 M178.5,211.5c0.5,0.3,0.5,0.8,0,1.1c-0.5,0.3-1.2,0.3-1.7,0c-0.5-0.3-0.5-0.8,0-1.1C177.3,211.2,178.1,211.2,178.5,211.5z
		 M191.8,220.4c0.5,0.3,0.5,0.8,0,1.1c-0.5,0.3-1.2,0.3-1.7,0c-0.5-0.3-0.5-0.8,0-1.1C190.6,220.1,191.4,220.1,191.8,220.4z
		 M205.1,229.3c0.5,0.3,0.5,0.8,0,1.1c-0.5,0.3-1.2,0.3-1.7,0c-0.5-0.3-0.5-0.8,0-1.1C203.9,229,204.6,229,205.1,229.3z
		 M218.4,238.2c0.5,0.3,0.5,0.8,0,1.1c-0.5,0.3-1.2,0.3-1.7,0c-0.5-0.3-0.5-0.8,0-1.1C217.2,237.9,217.9,237.9,218.4,238.2z
		 M231.7,247.1c0.5,0.3,0.5,0.8,0,1.1c-0.5,0.3-1.2,0.3-1.7,0c-0.5-0.3-0.5-0.8,0-1.1C230.5,246.8,231.2,246.8,231.7,247.1z
		 M245,256.1c0.5,0.3,0.5,0.8,0,1.1c-0.5,0.3-1.2,0.3-1.7,0c-0.5-0.3-0.5-0.8,0-1.1C243.7,255.8,244.5,255.8,245,256.1z M258.2,265
		c0.5,0.3,0.5,0.8,0,1.1c-0.5,0.3-1.2,0.3-1.7,0c-0.5-0.3-0.5-0.8,0-1.1C257,264.7,257.8,264.7,258.2,265z M112.2,149.1
		c0.5,0.3,0.5,0.8,0,1.1s-1.2,0.3-1.7,0c-0.5-0.3-0.5-0.8,0-1.1S111.7,148.8,112.2,149.1z M125.4,158c0.5,0.3,0.5,0.8,0,1.1
		s-1.2,0.3-1.7,0s-0.5-0.8,0-1.1C124.2,157.7,125,157.7,125.4,158z M138.7,166.9c0.5,0.3,0.5,0.8,0,1.1c-0.5,0.3-1.2,0.3-1.7,0
		c-0.5-0.3-0.5-0.8,0-1.1C137.5,166.6,138.3,166.6,138.7,166.9z M152,175.8c0.5,0.3,0.5,0.8,0,1.1c-0.5,0.3-1.2,0.3-1.7,0
		c-0.5-0.3-0.5-0.8,0-1.1C150.8,175.5,151.5,175.5,152,175.8z M165.3,184.7c0.5,0.3,0.5,0.8,0,1.1c-0.5,0.3-1.2,0.3-1.7,0
		c-0.5-0.3-0.5-0.8,0-1.1C164.1,184.4,164.8,184.4,165.3,184.7z M178.6,193.7c0.5,0.3,0.5,0.8,0,1.1c-0.5,0.3-1.2,0.3-1.7,0
		c-0.5-0.3-0.5-0.8,0-1.1C177.4,193.4,178.1,193.4,178.6,193.7z M191.9,202.6c0.5,0.3,0.5,0.8,0,1.1c-0.5,0.3-1.2,0.3-1.7,0
		c-0.5-0.3-0.5-0.8,0-1.1C190.7,202.3,191.4,202.3,191.9,202.6z M205.1,211.5c0.5,0.3,0.5,0.8,0,1.1c-0.5,0.3-1.2,0.3-1.7,0
		c-0.5-0.3-0.5-0.8,0-1.1C203.9,211.2,204.7,211.2,205.1,211.5z M218.4,220.4c0.5,0.3,0.5,0.8,0,1.1c-0.5,0.3-1.2,0.3-1.7,0
		c-0.5-0.3-0.5-0.8,0-1.1C217.2,220.1,218,220.1,218.4,220.4z M231.7,229.4c0.5,0.3,0.5,0.8,0,1.1c-0.5,0.3-1.2,0.3-1.7,0
		c-0.5-0.3-0.5-0.8,0-1.1C230.5,229,231.2,229,231.7,229.4z M245,238.3c0.5,0.3,0.5,0.8,0,1.1c-0.5,0.3-1.2,0.3-1.7,0
		c-0.5-0.3-0.5-0.8,0-1.1C243.8,238,244.5,238,245,238.3z M258.3,247.2c0.5,0.3,0.5,0.8,0,1.1c-0.5,0.3-1.2,0.3-1.7,0
		c-0.5-0.3-0.5-0.8,0-1.1C257.1,246.9,257.8,246.9,258.3,247.2z M271.5,256.1c0.5,0.3,0.5,0.8,0,1.1c-0.5,0.3-1.2,0.3-1.7,0
		c-0.5-0.3-0.5-0.8,0-1.1C270.3,255.8,271.1,255.8,271.5,256.1z M125.5,140.2c0.5,0.3,0.5,0.8,0,1.1c-0.5,0.3-1.2,0.3-1.7,0
		c-0.5-0.3-0.5-0.8,0-1.1C124.3,139.9,125,139.9,125.5,140.2z M138.8,149.1c0.5,0.3,0.5,0.8,0,1.1c-0.5,0.3-1.2,0.3-1.7,0
		c-0.5-0.3-0.5-0.8,0-1.1C137.6,148.8,138.3,148.8,138.8,149.1z M152,158c0.5,0.3,0.5,0.8,0,1.1c-0.5,0.3-1.2,0.3-1.7,0
		c-0.5-0.3-0.5-0.8,0-1.1C150.8,157.7,151.6,157.7,152,158z M165.3,167c0.5,0.3,0.5,0.8,0,1.1c-0.5,0.3-1.2,0.3-1.7,0
		c-0.5-0.3-0.5-0.8,0-1.1C164.1,166.6,164.9,166.6,165.3,167z M178.6,175.9c0.5,0.3,0.5,0.8,0,1.1c-0.5,0.3-1.2,0.3-1.7,0
		c-0.5-0.3-0.5-0.8,0-1.1C177.4,175.6,178.1,175.6,178.6,175.9z M191.9,184.8c0.5,0.3,0.5,0.8,0,1.1c-0.5,0.3-1.2,0.3-1.7,0
		c-0.5-0.3-0.5-0.8,0-1.1C190.7,184.5,191.4,184.5,191.9,184.8z M205.2,193.7c0.5,0.3,0.5,0.8,0,1.1c-0.5,0.3-1.2,0.3-1.7,0
		c-0.5-0.3-0.5-0.8,0-1.1C204,193.4,204.7,193.4,205.2,193.7z M218.4,202.6c0.5,0.3,0.5,0.8,0,1.1c-0.5,0.3-1.2,0.3-1.7,0
		c-0.5-0.3-0.5-0.8,0-1.1C217.2,202.3,218,202.3,218.4,202.6z M231.7,211.6c0.5,0.3,0.5,0.8,0,1.1c-0.5,0.3-1.2,0.3-1.7,0
		c-0.5-0.3-0.5-0.8,0-1.1C230.5,211.2,231.3,211.2,231.7,211.6z M245,220.5c0.5,0.3,0.5,0.8,0,1.1c-0.5,0.3-1.2,0.3-1.7,0
		c-0.5-0.3-0.5-0.8,0-1.1C243.8,220.2,244.6,220.2,245,220.5z M258.3,229.4c0.5,0.3,0.5,0.8,0,1.1c-0.5,0.3-1.2,0.3-1.7,0
		c-0.5-0.3-0.5-0.8,0-1.1C257.1,229.1,257.8,229.1,258.3,229.4z M271.6,238.3c0.5,0.3,0.5,0.8,0,1.1c-0.5,0.3-1.2,0.3-1.7,0
		c-0.5-0.3-0.5-0.8,0-1.1C270.4,238,271.1,238,271.6,238.3z M284.9,247.2c0.5,0.3,0.5,0.8,0,1.1c-0.5,0.3-1.2,0.3-1.7,0
		c-0.5-0.3-0.5-0.8,0-1.1C283.7,246.9,284.4,246.9,284.9,247.2z M138.8,131.3c0.5,0.3,0.5,0.8,0,1.1c-0.5,0.3-1.2,0.3-1.7,0
		c-0.5-0.3-0.5-0.8,0-1.1C137.6,131,138.3,131,138.8,131.3z M152.1,140.2c0.5,0.3,0.5,0.8,0,1.1c-0.5,0.3-1.2,0.3-1.7,0
		c-0.5-0.3-0.5-0.8,0-1.1C150.9,139.9,151.6,139.9,152.1,140.2z M165.3,149.2c0.5,0.3,0.5,0.8,0,1.1c-0.5,0.3-1.2,0.3-1.7,0
		c-0.5-0.3-0.5-0.8,0-1.1C164.1,148.8,164.9,148.8,165.3,149.2z M178.6,158.1c0.5,0.3,0.5,0.8,0,1.1c-0.5,0.3-1.2,0.3-1.7,0
		c-0.5-0.3-0.5-0.8,0-1.1C177.4,157.8,178.2,157.8,178.6,158.1z M191.9,167c0.5,0.3,0.5,0.8,0,1.1c-0.5,0.3-1.2,0.3-1.7,0
		c-0.5-0.3-0.5-0.8,0-1.1C190.7,166.7,191.5,166.7,191.9,167z M205.2,175.9c0.5,0.3,0.5,0.8,0,1.1c-0.5,0.3-1.2,0.3-1.7,0
		c-0.5-0.3-0.5-0.8,0-1.1C204,175.6,204.7,175.6,205.2,175.9z M218.5,184.8c0.5,0.3,0.5,0.8,0,1.1c-0.5,0.3-1.2,0.3-1.7,0
		c-0.5-0.3-0.5-0.8,0-1.1C217.3,184.5,218,184.5,218.5,184.8z M231.8,193.8c0.5,0.3,0.5,0.8,0,1.1c-0.5,0.3-1.2,0.3-1.7,0
		c-0.5-0.3-0.5-0.8,0-1.1C230.6,193.5,231.3,193.5,231.8,193.8z M245,202.7c0.5,0.3,0.5,0.8,0,1.1c-0.5,0.3-1.2,0.3-1.7,0
		c-0.5-0.3-0.5-0.8,0-1.1C243.8,202.4,244.6,202.4,245,202.7z M258.3,211.6c0.5,0.3,0.5,0.8,0,1.1c-0.5,0.3-1.2,0.3-1.7,0
		c-0.5-0.3-0.5-0.8,0-1.1C257.1,211.3,257.9,211.3,258.3,211.6z M271.6,220.5c0.5,0.3,0.5,0.8,0,1.1c-0.5,0.3-1.2,0.3-1.7,0
		c-0.5-0.3-0.5-0.8,0-1.1C270.4,220.2,271.1,220.2,271.6,220.5z M284.9,229.4c0.5,0.3,0.5,0.8,0,1.1c-0.5,0.3-1.2,0.3-1.7,0
		c-0.5-0.3-0.5-0.8,0-1.1C283.7,229.1,284.4,229.1,284.9,229.4z M298.2,238.4c0.5,0.3,0.5,0.8,0,1.1c-0.5,0.3-1.2,0.3-1.7,0
		c-0.5-0.3-0.5-0.8,0-1.1C297,238.1,297.7,238.1,298.2,238.4z M152.1,122.4c0.5,0.3,0.5,0.8,0,1.1c-0.5,0.3-1.2,0.3-1.7,0
		c-0.5-0.3-0.5-0.8,0-1.1C150.9,122.1,151.6,122.1,152.1,122.4z M165.4,131.4c0.5,0.3,0.5,0.8,0,1.1c-0.5,0.3-1.2,0.3-1.7,0
		c-0.5-0.3-0.5-0.8,0-1.1C164.2,131.1,164.9,131.1,165.4,131.4z M178.7,140.3c0.5,0.3,0.5,0.8,0,1.1c-0.5,0.3-1.2,0.3-1.7,0
		c-0.5-0.3-0.5-0.8,0-1.1C177.5,140,178.2,140,178.7,140.3z M191.9,149.2c0.5,0.3,0.5,0.8,0,1.1c-0.5,0.3-1.2,0.3-1.7,0
		c-0.5-0.3-0.5-0.8,0-1.1C190.7,148.9,191.5,148.9,191.9,149.2z M205.2,158.1c0.5,0.3,0.5,0.8,0,1.1c-0.5,0.3-1.2,0.3-1.7,0
		c-0.5-0.3-0.5-0.8,0-1.1C204,157.8,204.8,157.8,205.2,158.1z M218.5,167c0.5,0.3,0.5,0.8,0,1.1c-0.5,0.3-1.2,0.3-1.7,0
		c-0.5-0.3-0.5-0.8,0-1.1C217.3,166.7,218.1,166.7,218.5,167z M231.8,176c0.5,0.3,0.5,0.8,0,1.1c-0.5,0.3-1.2,0.3-1.7,0
		c-0.5-0.3-0.5-0.8,0-1.1C230.6,175.7,231.3,175.7,231.8,176z M245.1,184.9c0.5,0.3,0.5,0.8,0,1.1c-0.5,0.3-1.2,0.3-1.7,0
		c-0.5-0.3-0.5-0.8,0-1.1C243.9,184.6,244.6,184.6,245.1,184.9z M258.4,193.8c0.5,0.3,0.5,0.8,0,1.1c-0.5,0.3-1.2,0.3-1.7,0
		c-0.5-0.3-0.5-0.8,0-1.1C257.2,193.5,257.9,193.5,258.4,193.8z M271.6,202.7c0.5,0.3,0.5,0.8,0,1.1c-0.5,0.3-1.2,0.3-1.7,0
		c-0.5-0.3-0.5-0.8,0-1.1C270.4,202.4,271.2,202.4,271.6,202.7z M284.9,211.6c0.5,0.3,0.5,0.8,0,1.1c-0.5,0.3-1.2,0.3-1.7,0
		c-0.5-0.3-0.5-0.8,0-1.1C283.7,211.3,284.5,211.3,284.9,211.6z M298.2,220.6c0.5,0.3,0.5,0.8,0,1.1c-0.5,0.3-1.2,0.3-1.7,0
		c-0.5-0.3-0.5-0.8,0-1.1C297,220.3,297.7,220.3,298.2,220.6z M311.5,229.5c0.5,0.3,0.5,0.8,0,1.1c-0.5,0.3-1.2,0.3-1.7,0
		c-0.5-0.3-0.5-0.8,0-1.1C310.3,229.2,311,229.2,311.5,229.5z M165.4,113.6c0.5,0.3,0.5,0.8,0,1.1c-0.5,0.3-1.2,0.3-1.7,0
		c-0.5-0.3-0.5-0.8,0-1.1C164.2,113.3,165,113.3,165.4,113.6z M178.7,122.5c0.5,0.3,0.5,0.8,0,1.1c-0.5,0.3-1.2,0.3-1.7,0
		c-0.5-0.3-0.5-0.8,0-1.1C177.5,122.2,178.2,122.2,178.7,122.5z M192,131.4c0.5,0.3,0.5,0.8,0,1.1c-0.5,0.3-1.2,0.3-1.7,0
		c-0.5-0.3-0.5-0.8,0-1.1C190.8,131.1,191.5,131.1,192,131.4z M205.3,140.3c0.5,0.3,0.5,0.8,0,1.1c-0.5,0.3-1.2,0.3-1.7,0
		c-0.5-0.3-0.5-0.8,0-1.1C204.1,140,204.8,140,205.3,140.3z M218.5,149.2c0.5,0.3,0.5,0.8,0,1.1c-0.5,0.3-1.2,0.3-1.7,0
		c-0.5-0.3-0.5-0.8,0-1.1C217.3,148.9,218.1,148.9,218.5,149.2z M231.8,158.2c0.5,0.3,0.5,0.8,0,1.1c-0.5,0.3-1.2,0.3-1.7,0
		c-0.5-0.3-0.5-0.8,0-1.1C230.6,157.9,231.4,157.9,231.8,158.2z M245.1,167.1c0.5,0.3,0.5,0.8,0,1.1c-0.5,0.3-1.2,0.3-1.7,0
		c-0.5-0.3-0.5-0.8,0-1.1C243.9,166.8,244.6,166.8,245.1,167.1z M258.4,176c0.5,0.3,0.5,0.8,0,1.1c-0.5,0.3-1.2,0.3-1.7,0
		c-0.5-0.3-0.5-0.8,0-1.1C257.2,175.7,257.9,175.7,258.4,176z M271.7,184.9c0.5,0.3,0.5,0.8,0,1.1c-0.5,0.3-1.2,0.3-1.7,0
		c-0.5-0.3-0.5-0.8,0-1.1C270.5,184.6,271.2,184.6,271.7,184.9z M285,193.9c0.5,0.3,0.5,0.8,0,1.1c-0.5,0.3-1.2,0.3-1.7,0
		c-0.5-0.3-0.5-0.8,0-1.1C283.7,193.5,284.5,193.5,285,193.9z M298.2,202.8c0.5,0.3,0.5,0.8,0,1.1c-0.5,0.3-1.2,0.3-1.7,0
		c-0.5-0.3-0.5-0.8,0-1.1C297,202.5,297.8,202.5,298.2,202.8z M311.5,211.7c0.5,0.3,0.5,0.8,0,1.1c-0.5,0.3-1.2,0.3-1.7,0
		c-0.5-0.3-0.5-0.8,0-1.1C310.3,211.4,311.1,211.4,311.5,211.7z M324.8,220.6c0.5,0.3,0.5,0.8,0,1.1c-0.5,0.3-1.2,0.3-1.7,0
		c-0.5-0.3-0.5-0.8,0-1.1C323.6,220.3,324.3,220.3,324.8,220.6z M178.7,104.7c0.5,0.3,0.5,0.8,0,1.1c-0.5,0.3-1.2,0.3-1.7,0
		c-0.5-0.3-0.5-0.8,0-1.1C177.5,104.4,178.3,104.4,178.7,104.7z M192,113.6c0.5,0.3,0.5,0.8,0,1.1c-0.5,0.3-1.2,0.3-1.7,0
		c-0.5-0.3-0.5-0.8,0-1.1C190.8,113.3,191.5,113.3,192,113.6z M205.3,122.5c0.5,0.3,0.5,0.8,0,1.1c-0.5,0.3-1.2,0.3-1.7,0
		c-0.5-0.3-0.5-0.8,0-1.1C204.1,122.2,204.8,122.2,205.3,122.5z M218.6,131.5c0.5,0.3,0.5,0.8,0,1.1c-0.5,0.3-1.2,0.3-1.7,0
		c-0.5-0.3-0.5-0.8,0-1.1C217.4,131.1,218.1,131.1,218.6,131.5z M231.9,140.4c0.5,0.3,0.5,0.8,0,1.1c-0.5,0.3-1.2,0.3-1.7,0
		c-0.5-0.3-0.5-0.8,0-1.1C230.6,140.1,231.4,140.1,231.9,140.4z M245.1,149.3c0.5,0.3,0.5,0.8,0,1.1c-0.5,0.3-1.2,0.3-1.7,0
		c-0.5-0.3-0.5-0.8,0-1.1C243.9,149,244.7,149,245.1,149.3z M258.4,158.2c0.5,0.3,0.5,0.8,0,1.1c-0.5,0.3-1.2,0.3-1.7,0
		c-0.5-0.3-0.5-0.8,0-1.1C257.2,157.9,258,157.9,258.4,158.2z M271.7,167.1c0.5,0.3,0.5,0.8,0,1.1c-0.5,0.3-1.2,0.3-1.7,0
		c-0.5-0.3-0.5-0.8,0-1.1C270.5,166.8,271.2,166.8,271.7,167.1z M285,176.1c0.5,0.3,0.5,0.8,0,1.1c-0.5,0.3-1.2,0.3-1.7,0
		c-0.5-0.3-0.5-0.8,0-1.1C283.8,175.7,284.5,175.7,285,176.1z M298.3,185c0.5,0.3,0.5,0.8,0,1.1c-0.5,0.3-1.2,0.3-1.7,0
		c-0.5-0.3-0.5-0.8,0-1.1C297.1,184.7,297.8,184.7,298.3,185z M311.5,193.9c0.5,0.3,0.5,0.8,0,1.1c-0.5,0.3-1.2,0.3-1.7,0
		c-0.5-0.3-0.5-0.8,0-1.1C310.3,193.6,311.1,193.6,311.5,193.9z M324.8,202.8c0.5,0.3,0.5,0.8,0,1.1c-0.5,0.3-1.2,0.3-1.7,0
		c-0.5-0.3-0.5-0.8,0-1.1C323.6,202.5,324.4,202.5,324.8,202.8z M338.1,211.7c0.5,0.3,0.5,0.8,0,1.1c-0.5,0.3-1.2,0.3-1.7,0
		c-0.5-0.3-0.5-0.8,0-1.1C336.9,211.4,337.7,211.4,338.1,211.7z M192,95.8c0.5,0.3,0.5,0.8,0,1.1c-0.5,0.3-1.2,0.3-1.7,0
		c-0.5-0.3-0.5-0.8,0-1.1C190.8,95.5,191.6,95.5,192,95.8z M205.3,104.7c0.5,0.3,0.5,0.8,0,1.1c-0.5,0.3-1.2,0.3-1.7,0
		c-0.5-0.3-0.5-0.8,0-1.1C204.1,104.4,204.9,104.4,205.3,104.7z M218.6,113.7c0.5,0.3,0.5,0.8,0,1.1c-0.5,0.3-1.2,0.3-1.7,0
		c-0.5-0.3-0.5-0.8,0-1.1C217.4,113.3,218.1,113.3,218.6,113.7z M231.9,122.6c0.5,0.3,0.5,0.8,0,1.1c-0.5,0.3-1.2,0.3-1.7,0
		c-0.5-0.3-0.5-0.8,0-1.1C230.7,122.3,231.4,122.3,231.9,122.6z M245.2,131.5c0.5,0.3,0.5,0.8,0,1.1c-0.5,0.3-1.2,0.3-1.7,0
		c-0.5-0.3-0.5-0.8,0-1.1C244,131.2,244.7,131.2,245.2,131.5z M258.4,140.4c0.5,0.3,0.5,0.8,0,1.1c-0.5,0.3-1.2,0.3-1.7,0
		c-0.5-0.3-0.5-0.8,0-1.1C257.2,140.1,258,140.1,258.4,140.4z M271.7,149.3c0.5,0.3,0.5,0.8,0,1.1c-0.5,0.3-1.2,0.3-1.7,0
		c-0.5-0.3-0.5-0.8,0-1.1C270.5,149,271.3,149,271.7,149.3z M285,158.3c0.5,0.3,0.5,0.8,0,1.1c-0.5,0.3-1.2,0.3-1.7,0
		c-0.5-0.3-0.5-0.8,0-1.1C283.8,158,284.6,158,285,158.3z M298.3,167.2c0.5,0.3,0.5,0.8,0,1.1c-0.5,0.3-1.2,0.3-1.7,0
		c-0.5-0.3-0.5-0.8,0-1.1C297.1,166.9,297.8,166.9,298.3,167.2z M311.6,176.1c0.5,0.3,0.5,0.8,0,1.1c-0.5,0.3-1.2,0.3-1.7,0
		c-0.5-0.3-0.5-0.8,0-1.1C310.4,175.8,311.1,175.8,311.6,176.1z M324.9,185c0.5,0.3,0.5,0.8,0,1.1c-0.5,0.3-1.2,0.3-1.7,0
		c-0.5-0.3-0.5-0.8,0-1.1C323.7,184.7,324.4,184.7,324.9,185z M338.1,193.9c0.5,0.3,0.5,0.8,0,1.1c-0.5,0.3-1.2,0.3-1.7,0
		c-0.5-0.3-0.5-0.8,0-1.1C336.9,193.6,337.7,193.6,338.1,193.9z M351.4,202.9c0.5,0.3,0.5,0.8,0,1.1c-0.5,0.3-1.2,0.3-1.7,0
		c-0.5-0.3-0.5-0.8,0-1.1C350.2,202.6,351,202.6,351.4,202.9z M205.3,86.9c0.5,0.3,0.5,0.8,0,1.1c-0.5,0.3-1.2,0.3-1.7,0
		c-0.5-0.3-0.5-0.8,0-1.1C204.1,86.6,204.9,86.6,205.3,86.9z M218.6,95.9c0.5,0.3,0.5,0.8,0,1.1c-0.5,0.3-1.2,0.3-1.7,0
		c-0.5-0.3-0.5-0.8,0-1.1C217.4,95.6,218.2,95.6,218.6,95.9L218.6,95.9z M231.9,104.8c0.5,0.3,0.5,0.8,0,1.1c-0.5,0.3-1.2,0.3-1.7,0
		c-0.5-0.3-0.5-0.8,0-1.1C230.7,104.5,231.5,104.5,231.9,104.8z M245.2,113.7c0.5,0.3,0.5,0.8,0,1.1c-0.5,0.3-1.2,0.3-1.7,0
		c-0.5-0.3-0.5-0.8,0-1.1C244,113.4,244.7,113.4,245.2,113.7z M258.5,122.6c0.5,0.3,0.5,0.8,0,1.1c-0.5,0.3-1.2,0.3-1.7,0
		c-0.5-0.3-0.5-0.8,0-1.1C257.3,122.3,258,122.3,258.5,122.6z M271.8,131.5c0.5,0.3,0.5,0.8,0,1.1c-0.5,0.3-1.2,0.3-1.7,0
		c-0.5-0.3-0.5-0.8,0-1.1C270.6,131.2,271.3,131.2,271.8,131.5z M285,140.5c0.5,0.3,0.5,0.8,0,1.1c-0.5,0.3-1.2,0.3-1.7,0
		c-0.5-0.3-0.5-0.8,0-1.1C283.8,140.2,284.6,140.2,285,140.5z M298.3,149.4c0.5,0.3,0.5,0.8,0,1.1c-0.5,0.3-1.2,0.3-1.7,0
		c-0.5-0.3-0.5-0.8,0-1.1C297.1,149.1,297.9,149.1,298.3,149.4z M311.6,158.3c0.5,0.3,0.5,0.8,0,1.1c-0.5,0.3-1.2,0.3-1.7,0
		c-0.5-0.3-0.5-0.8,0-1.1C310.4,158,311.1,158,311.6,158.3z M324.9,167.2c0.5,0.3,0.5,0.8,0,1.1c-0.5,0.3-1.2,0.3-1.7,0
		c-0.5-0.3-0.5-0.8,0-1.1C323.7,166.9,324.4,166.9,324.9,167.2z M338.2,176.1c0.5,0.3,0.5,0.8,0,1.1c-0.5,0.3-1.2,0.3-1.7,0
		c-0.5-0.3-0.5-0.8,0-1.1C337,175.8,337.7,175.8,338.2,176.1z M351.5,185.1c0.5,0.3,0.5,0.8,0,1.1c-0.5,0.3-1.2,0.3-1.7,0
		c-0.5-0.3-0.5-0.8,0-1.1C350.3,184.8,351,184.8,351.5,185.1z M364.7,194c0.5,0.3,0.5,0.8,0,1.1c-0.5,0.3-1.2,0.3-1.7,0
		c-0.5-0.3-0.5-0.8,0-1.1C363.5,193.7,364.3,193.7,364.7,194z M218.7,78.1c0.5,0.3,0.5,0.8,0,1.1c-0.5,0.3-1.2,0.3-1.7,0
		c-0.5-0.3-0.5-0.8,0-1.1C217.5,77.8,218.2,77.8,218.7,78.1z M231.9,87c0.5,0.3,0.5,0.8,0,1.1c-0.5,0.3-1.2,0.3-1.7,0
		c-0.5-0.3-0.5-0.8,0-1.1C230.7,86.7,231.5,86.7,231.9,87z M245.2,95.9c0.5,0.3,0.5,0.8,0,1.1c-0.5,0.3-1.2,0.3-1.7,0
		c-0.5-0.3-0.5-0.8,0-1.1C244,95.6,244.8,95.6,245.2,95.9z M258.5,104.8c0.5,0.3,0.5,0.8,0,1.1c-0.5,0.3-1.2,0.3-1.7,0
		c-0.5-0.3-0.5-0.8,0-1.1C257.3,104.5,258.1,104.5,258.5,104.8z M271.8,113.7c0.5,0.3,0.5,0.8,0,1.1c-0.5,0.3-1.2,0.3-1.7,0
		c-0.5-0.3-0.5-0.8,0-1.1C270.6,113.4,271.3,113.4,271.8,113.7z M285.1,122.7c0.5,0.3,0.5,0.8,0,1.1c-0.5,0.3-1.2,0.3-1.7,0
		c-0.5-0.3-0.5-0.8,0-1.1C283.9,122.4,284.6,122.4,285.1,122.7z M298.4,131.6c0.5,0.3,0.5,0.8,0,1.1c-0.5,0.3-1.2,0.3-1.7,0
		c-0.5-0.3-0.5-0.8,0-1.1C297.2,131.3,297.9,131.3,298.4,131.6z M311.6,140.5c0.5,0.3,0.5,0.8,0,1.1c-0.5,0.3-1.2,0.3-1.7,0
		c-0.5-0.3-0.5-0.8,0-1.1C310.4,140.2,311.2,140.2,311.6,140.5z M324.9,149.4c0.5,0.3,0.5,0.8,0,1.1c-0.5,0.3-1.2,0.3-1.7,0
		c-0.5-0.3-0.5-0.8,0-1.1C323.7,149.1,324.5,149.1,324.9,149.4z M338.2,158.4c0.5,0.3,0.5,0.8,0,1.1c-0.5,0.3-1.2,0.3-1.7,0
		c-0.5-0.3-0.5-0.8,0-1.1C337,158,337.7,158,338.2,158.4z M351.5,167.3c0.5,0.3,0.5,0.8,0,1.1c-0.5,0.3-1.2,0.3-1.7,0
		c-0.5-0.3-0.5-0.8,0-1.1C350.3,167,351,167,351.5,167.3z M364.8,176.2c0.5,0.3,0.5,0.8,0,1.1c-0.5,0.3-1.2,0.3-1.7,0
		c-0.5-0.3-0.5-0.8,0-1.1C363.6,175.9,364.3,175.9,364.8,176.2z M378,185.1c0.5,0.3,0.5,0.8,0,1.1c-0.5,0.3-1.2,0.3-1.7,0
		c-0.5-0.3-0.5-0.8,0-1.1C376.8,184.8,377.6,184.8,378,185.1z M232,69.2c0.5,0.3,0.5,0.8,0,1.1c-0.5,0.3-1.2,0.3-1.7,0
		c-0.5-0.3-0.5-0.8,0-1.1C230.8,68.9,231.5,68.9,232,69.2z M245.3,78.1c0.5,0.3,0.5,0.8,0,1.1c-0.5,0.3-1.2,0.3-1.7,0
		c-0.5-0.3-0.5-0.8,0-1.1C244.1,77.8,244.8,77.8,245.3,78.1z M258.5,87c0.5,0.3,0.5,0.8,0,1.1c-0.5,0.3-1.2,0.3-1.7,0
		c-0.5-0.3-0.5-0.8,0-1.1C257.3,86.7,258.1,86.7,258.5,87z M271.8,95.9c0.5,0.3,0.5,0.8,0,1.1c-0.5,0.3-1.2,0.3-1.7,0
		c-0.5-0.3-0.5-0.8,0-1.1C270.6,95.6,271.4,95.6,271.8,95.9L271.8,95.9z M285.1,104.9c0.5,0.3,0.5,0.8,0,1.1c-0.5,0.3-1.2,0.3-1.7,0
		c-0.5-0.3-0.5-0.8,0-1.1C283.9,104.6,284.6,104.6,285.1,104.9z M298.4,113.8c0.5,0.3,0.5,0.8,0,1.1c-0.5,0.3-1.2,0.3-1.7,0
		c-0.5-0.3-0.5-0.8,0-1.1C297.2,113.5,297.9,113.5,298.4,113.8z M311.7,122.7c0.5,0.3,0.5,0.8,0,1.1c-0.5,0.3-1.2,0.3-1.7,0
		c-0.5-0.3-0.5-0.8,0-1.1C310.5,122.4,311.2,122.4,311.7,122.7z M325,131.6c0.5,0.3,0.5,0.8,0,1.1c-0.5,0.3-1.2,0.3-1.7,0
		c-0.5-0.3-0.5-0.8,0-1.1C323.7,131.3,324.5,131.3,325,131.6z M338.2,140.6c0.5,0.3,0.5,0.8,0,1.1c-0.5,0.3-1.2,0.3-1.7,0
		c-0.5-0.3-0.5-0.8,0-1.1C337,140.2,337.8,140.2,338.2,140.6z M351.5,149.5c0.5,0.3,0.5,0.8,0,1.1c-0.5,0.3-1.2,0.3-1.7,0
		c-0.5-0.3-0.5-0.8,0-1.1C350.3,149.2,351.1,149.2,351.5,149.5z M364.8,158.4c0.5,0.3,0.5,0.8,0,1.1c-0.5,0.3-1.2,0.3-1.7,0
		c-0.5-0.3-0.5-0.8,0-1.1C363.6,158.1,364.3,158.1,364.8,158.4z M378.1,167.3c0.5,0.3,0.5,0.8,0,1.1c-0.5,0.3-1.2,0.3-1.7,0
		c-0.5-0.3-0.5-0.8,0-1.1C376.9,167,377.6,167,378.1,167.3z M391.4,176.2c0.5,0.3,0.5,0.8,0,1.1c-0.5,0.3-1.2,0.3-1.7,0
		c-0.5-0.3-0.5-0.8,0-1.1C390.2,175.9,390.9,175.9,391.4,176.2z M245.3,60.3c0.5,0.3,0.5,0.8,0,1.1c-0.5,0.3-1.2,0.3-1.7,0
		c-0.5-0.3-0.5-0.8,0-1.1C244.1,60,244.8,60,245.3,60.3z M258.6,69.2c0.5,0.3,0.5,0.8,0,1.1c-0.5,0.3-1.2,0.3-1.7,0
		c-0.5-0.3-0.5-0.8,0-1.1C257.4,68.9,258.1,68.9,258.6,69.2z M271.9,78.2c0.5,0.3,0.5,0.8,0,1.1c-0.5,0.3-1.2,0.3-1.7,0
		c-0.5-0.3-0.5-0.8,0-1.1C270.6,77.8,271.4,77.8,271.9,78.2z M285.1,87.1c0.5,0.3,0.5,0.8,0,1.1c-0.5,0.3-1.2,0.3-1.7,0
		c-0.5-0.3-0.5-0.8,0-1.1C283.9,86.8,284.7,86.8,285.1,87.1z M298.4,96c0.5,0.3,0.5,0.8,0,1.1c-0.5,0.3-1.2,0.3-1.7,0
		c-0.5-0.3-0.5-0.8,0-1.1C297.2,95.7,298,95.7,298.4,96z M311.7,104.9c0.5,0.3,0.5,0.8,0,1.1c-0.5,0.3-1.2,0.3-1.7,0
		c-0.5-0.3-0.5-0.8,0-1.1C310.5,104.6,311.2,104.6,311.7,104.9z M325,113.8c0.5,0.3,0.5,0.8,0,1.1c-0.5,0.3-1.2,0.3-1.7,0
		c-0.5-0.3-0.5-0.8,0-1.1C323.8,113.5,324.5,113.5,325,113.8z M338.3,122.8c0.5,0.3,0.5,0.8,0,1.1c-0.5,0.3-1.2,0.3-1.7,0
		c-0.5-0.3-0.5-0.8,0-1.1C337.1,122.5,337.8,122.5,338.3,122.8z M351.5,131.7c0.5,0.3,0.5,0.8,0,1.1c-0.5,0.3-1.2,0.3-1.7,0
		c-0.5-0.3-0.5-0.8,0-1.1C350.3,131.4,351.1,131.4,351.5,131.7z M364.8,140.6c0.5,0.3,0.5,0.8,0,1.1c-0.5,0.3-1.2,0.3-1.7,0
		c-0.5-0.3-0.5-0.8,0-1.1C363.6,140.3,364.4,140.3,364.8,140.6z M378.1,149.5c0.5,0.3,0.5,0.8,0,1.1c-0.5,0.3-1.2,0.3-1.7,0
		c-0.5-0.3-0.5-0.8,0-1.1C376.9,149.2,377.7,149.2,378.1,149.5z M391.4,158.4c0.5,0.3,0.5,0.8,0,1.1c-0.5,0.3-1.2,0.3-1.7,0
		c-0.5-0.3-0.5-0.8,0-1.1C390.2,158.1,390.9,158.1,391.4,158.4z M404.7,167.4c0.5,0.3,0.5,0.8,0,1.1c-0.5,0.3-1.2,0.3-1.7,0
		c-0.5-0.3-0.5-0.8,0-1.1C403.5,167.1,404.2,167.1,404.7,167.4z"/>
</g>
<g>
	<path class="st1" d="M85.9,108.2v-6.4c-0.2-0.5-0.2-1,0-1.5V100H86c0.2-0.4,0.6-0.9,1.1-1.2l57.5-38.3c1.9-1.3,5-1.3,6.9,0
		l33.3,22.3c1.1,0.7,1.6,1.7,1.4,2.7h0.1v7.6h-0.1c0,0.8-0.5,1.6-1.4,2.2l-57.5,38.3c-1.9,1.3-5,1.3-6.9,0l-33.3-22.3
		c-0.4-0.2-0.7-0.6-1-0.9h-0.3v-0.7C85.7,109.2,85.7,108.7,85.9,108.2L85.9,108.2z"/>
	<path class="st6" d="M86.2,108.4L86.2,108.4l0-6.6l0-0.1c-0.1-0.4-0.1-0.8,0-1.2l0-0.1v-0.1h0l0.1-0.2c0.2-0.4,0.5-0.8,1-1.1
		l57.5-38.3c0.9-0.6,2.1-0.9,3.3-0.9c1.2,0,2.4,0.3,3.3,0.9l33.3,22.3c1,0.7,1.4,1.5,1.2,2.3l-0.1,0.4h0.2v6.9h-0.1l0,0.3
		c0,0.7-0.4,1.4-1.3,1.9l-57.5,38.3c-0.9,0.6-2.1,0.9-3.3,0.9c-1.2,0-2.4-0.3-3.3-0.9L87.4,111c-0.3-0.2-0.6-0.5-0.9-0.8l-0.1-0.1
		h-0.2v-0.4l0-0.1C86.1,109.2,86.1,108.8,86.2,108.4L86.2,108.4z"/>
	<path class="st7" d="M87.7,96l57.5-38.3c1.9-1.3,5-1.3,6.9,0l33.3,22.3c1.9,1.3,1.9,3.3,0,4.6L127.8,123c-1.9,1.3-5,1.3-6.9,0
		l-33.3-22.3C85.8,99.4,85.8,97.3,87.7,96z"/>
	<path class="st4" d="M88.1,96.3L145.6,58c1.7-1.1,4.4-1.1,6.1,0l33.3,22.3c1.7,1.1,1.7,2.9,0,4.1l-57.5,38.3
		c-1.7,1.1-4.4,1.1-6.1,0l-33.3-22.3C86.4,99.2,86.4,97.4,88.1,96.3z"/>
	<path class="st8" d="M112.4,90.3l23.2-15.5c0.9-0.6,2.4-0.6,3.3,0l0.7,0.5c0.9,0.6,0.9,1.6,0,2.2L116.4,93c-0.9,0.6-2.4,0.6-3.3,0
		l-0.7-0.5C111.4,91.9,111.5,90.9,112.4,90.3z"/>
	<path class="st9" d="M132.5,107l18.9-12.6c0.7-0.5,1.8-0.5,2.5,0l0,0c0.7,0.5,0.7,1.2,0,1.7L135,108.7c-0.7,0.5-1.8,0.5-2.5,0l0,0
		C131.8,108.2,131.8,107.5,132.5,107z"/>
	<path class="st10" d="M126.1,112.1l0.1,0.1c0.3,0.2,0.5,0.5,0.6,0.8c0.1,0.3,0,0.6-0.2,0.9c-0.2,0.3-0.6,0.5-1,0.6
		c-0.4,0.1-0.9,0.2-1.3,0.1c-0.4-0.1-0.8-0.2-1.1-0.4c-0.3-0.2-0.5-0.5-0.5-0.8c0-0.3,0.1-0.6,0.3-0.9c0.2-0.3,0.6-0.4,1-0.6"/>
	<path class="st10" d="M125,111.4l0,2l-0.9,0"/>
</g>
<g>
	<path class="st11" d="M250.3,108.1v-6.4c-0.2-0.5-0.2-1,0-1.5v-0.4h0.2c0.2-0.4,0.6-0.9,1.1-1.2l57.5-38.3c1.9-1.3,5-1.3,6.9,0
		l33.3,22.3c1.1,0.7,1.6,1.7,1.4,2.7h0.1v7.6h-0.1c0,0.8-0.5,1.6-1.4,2.2l-57.5,38.3c-1.9,1.3-5,1.3-6.9,0l-33.3-22.3
		c-0.4-0.2-0.7-0.6-1-0.9h-0.3v-0.7C250.2,109.1,250.2,108.5,250.3,108.1L250.3,108.1z"/>
	<defs>
		<filter id="Adobe_OpacityMaskFilter" filterUnits="userSpaceOnUse" x="249.4" y="58.8" width="102.2" height="76.1">
			<feColorMatrix  type="matrix" values="1 0 0 0 0  0 1 0 0 0  0 0 1 0 0  0 0 0 1 0"/>
		</filter>
	</defs>
	
		<mask maskUnits="userSpaceOnUse" x="249.4" y="58.8" width="102.2" height="76.1" id="path-6-inside-1_1979_204924_00000037679948006859815950000000070431724245229713_">
		<path class="st12" d="M250.3,108.1v-6.4c-0.2-0.5-0.2-1,0-1.5v-0.4h0.2c0.2-0.4,0.6-0.9,1.1-1.2l57.5-38.3c1.9-1.3,5-1.3,6.9,0
			l33.3,22.3c1.1,0.7,1.6,1.7,1.4,2.7h0.1v7.6h-0.1c0,0.8-0.5,1.6-1.4,2.2l-57.5,38.3c-1.9,1.3-5,1.3-6.9,0l-33.3-22.3
			c-0.4-0.2-0.7-0.6-1-0.9h-0.3v-0.7C250.2,109.1,250.2,108.5,250.3,108.1L250.3,108.1z"/>
	</mask>
	<path class="st13" d="M250.3,108.1l0.8,0.1l0-0.1v-0.1L250.3,108.1L250.3,108.1z M250.3,101.7l0.8,0v-0.1l0-0.1
		C251.1,101.5,250.3,101.7,250.3,101.7z M250.3,100.2l0.8,0.1l0-0.1v-0.1L250.3,100.2L250.3,100.2z M250.3,99.8l0-0.5h-0.8v0.5
		H250.3z M250.5,99.8l0,0.5h0.6l0.2-0.4L250.5,99.8L250.5,99.8z M251.6,98.6l-0.6-0.4L251.6,98.6L251.6,98.6z M309.1,60.3l0.6,0.4
		L309.1,60.3L309.1,60.3z M316,60.3l-0.6,0.4L316,60.3z M349.3,82.7l0.6-0.4L349.3,82.7z M350.6,85.3l-0.8-0.1l-0.1,0.6h0.9
		C350.6,85.9,350.6,85.3,350.6,85.3z M350.8,85.3h0.8v-0.5h-0.8L350.8,85.3L350.8,85.3z M350.8,92.9l0,0.5h0.8v-0.5L350.8,92.9
		L350.8,92.9z M350.7,92.9l0-0.5h-0.8l0,0.5L350.7,92.9z M284.9,133.4l0.6-0.4L284.9,133.4z M251.6,111.1l-0.6,0.4L251.6,111.1
		L251.6,111.1z M250.7,110.2l0.7-0.2l-0.2-0.3h-0.5L250.7,110.2z M250.3,110.2h-0.8v0.5h0.8L250.3,110.2z M250.3,109.5h0.8v-0.1
		l0-0.1C251.1,109.4,250.3,109.5,250.3,109.5z M251.1,108.1v-6.4l-1.6,0v6.4L251.1,108.1z M251.1,101.5c-0.1-0.4-0.1-0.8,0-1.2
		l-1.6-0.2c-0.2,0.6-0.2,1.2,0,1.7L251.1,101.5z M251.1,100.2v-0.4l-1.6,0v0.4L251.1,100.2z M250.3,100.4h0.2l0-1.1h-0.2
		L250.3,100.4L250.3,100.4z M251.2,100c0.2-0.4,0.5-0.7,1-1l-1.1-0.8c-0.6,0.4-1.1,0.9-1.3,1.4L251.2,100L251.2,100z M252.2,99
		l57.5-38.3l-1.1-0.8l-57.5,38.3C251.1,98.2,252.2,99,252.2,99z M309.7,60.7c1.6-1.1,4.2-1.1,5.7,0l1.1-0.8c-2.2-1.5-5.8-1.5-8,0
		L309.7,60.7z M315.4,60.7L348.7,83l1.1-0.8l-33.3-22.3L315.4,60.7L315.4,60.7z M348.7,83c0.9,0.6,1.3,1.4,1.2,2.2l1.6,0.1
		c0.2-1.1-0.4-2.3-1.6-3.1L348.7,83L348.7,83z M350.6,85.9h0.1l0-1.1h-0.1L350.6,85.9z M349.9,85.3v7.6l1.6,0v-7.6L349.9,85.3
		L349.9,85.3z M350.8,92.4L350.8,92.4l-0.1,1.1h0.1L350.8,92.4z M349.9,92.9c0,0.7-0.4,1.3-1.2,1.8l1.1,0.8c1.1-0.7,1.6-1.6,1.7-2.6
		L349.9,92.9z M348.7,94.7l-57.5,38.3l1.1,0.8l57.5-38.3L348.7,94.7z M291.2,133.1c-1.6,1.1-4.2,1.1-5.7,0l-1.1,0.8
		c2.2,1.5,5.8,1.5,8,0L291.2,133.1z M285.5,133.1l-33.3-22.3l-1.1,0.8l33.3,22.3C284.3,133.8,285.5,133.1,285.5,133.1z M252.2,110.7
		c-0.3-0.2-0.6-0.5-0.8-0.8l-1.5,0.5c0.3,0.4,0.7,0.8,1.1,1.1L252.2,110.7L252.2,110.7z M250.7,109.6h-0.3l0,1.1h0.3L250.7,109.6
		L250.7,109.6z M251.1,110.2v-0.7l-1.6,0v0.7L251.1,110.2z M251.1,109.4c-0.1-0.4-0.1-0.8,0-1.2l-1.6-0.2c-0.2,0.6-0.2,1.2,0,1.7
		L251.1,109.4z"/>
	<path class="st7" d="M252.1,95.9l57.5-38.3c1.9-1.3,5-1.3,6.9,0l33.3,22.3c1.9,1.3,1.9,3.3,0,4.6l-57.5,38.3c-1.9,1.3-5,1.3-6.9,0
		l-33.3-22.3C250.2,99.2,250.2,97.1,252.1,95.9z"/>
	<path class="st4" d="M252.5,96.1L310,57.8c1.7-1.1,4.4-1.1,6.1,0l33.3,22.3c1.7,1.1,1.7,2.9,0,4.1l-57.5,38.3
		c-1.7,1.1-4.4,1.1-6.1,0l-33.3-22.3C250.9,99.1,250.9,97.2,252.5,96.1z"/>
	<path class="st8" d="M278.8,88.9l23.2-15.5c0.9-0.6,2.4-0.6,3.3,0l0.7,0.5c0.9,0.6,0.9,1.6,0,2.2l-23.2,15.5
		c-0.9,0.6-2.4,0.6-3.3,0l-0.7-0.5C277.9,90.5,277.9,89.5,278.8,88.9z"/>
	<path class="st9" d="M298.9,105.5l18.9-12.6c0.7-0.5,1.8-0.5,2.5,0l0,0c0.7,0.5,0.7,1.2,0,1.7l-18.9,12.6c-0.7,0.5-1.8,0.5-2.5,0
		l0,0C298.2,106.8,298.2,106,298.9,105.5z"/>
	<path class="st10" d="M292.5,110.6l0.1,0.1c0.3,0.2,0.5,0.5,0.6,0.8c0.1,0.3,0,0.6-0.2,0.9s-0.6,0.5-1,0.6
		c-0.4,0.1-0.9,0.2-1.3,0.1c-0.4-0.1-0.8-0.2-1.1-0.4c-0.3-0.2-0.5-0.5-0.5-0.8c0-0.3,0.1-0.6,0.3-0.9c0.2-0.3,0.6-0.4,1-0.6"/>
	<path class="st10" d="M291.5,109.9l0,2l-0.9,0"/>
</g>
<g>
	<path class="st11" d="M250.3,87.6v-6.4c-0.2-0.5-0.2-1,0-1.5v-0.4h0.2c0.2-0.4,0.6-0.9,1.1-1.2l57.5-38.3c1.9-1.3,5-1.3,6.9,0
		l33.3,22.3c1.1,0.7,1.6,1.7,1.4,2.7h0.1v7.6h-0.1c0,0.8-0.5,1.6-1.4,2.2L291.8,113c-1.9,1.3-5,1.3-6.9,0l-33.3-22.3
		c-0.4-0.2-0.7-0.6-1-0.9h-0.3v-0.7C250.2,88.6,250.2,88.1,250.3,87.6L250.3,87.6z"/>
	<defs>
		
			<filter id="Adobe_OpacityMaskFilter_00000103249038067236506900000012218153157330317718_" filterUnits="userSpaceOnUse" x="249.4" y="38.4" width="102.2" height="76.1">
			<feColorMatrix  type="matrix" values="1 0 0 0 0  0 1 0 0 0  0 0 1 0 0  0 0 0 1 0"/>
		</filter>
	</defs>
	
		<mask maskUnits="userSpaceOnUse" x="249.4" y="38.4" width="102.2" height="76.1" id="path-6-inside-1_1979_204924_00000001663874825115793470000010948580432935059119_">
		
			<path style="fill-rule:evenodd;clip-rule:evenodd;fill:#FFFFFF;filter:url(#Adobe_OpacityMaskFilter_00000103249038067236506900000012218153157330317718_);" d="
			M250.3,87.6v-6.4c-0.2-0.5-0.2-1,0-1.5v-0.4h0.2c0.2-0.4,0.6-0.9,1.1-1.2l57.5-38.3c1.9-1.3,5-1.3,6.9,0l33.3,22.3
			c1.1,0.7,1.6,1.7,1.4,2.7h0.1v7.6h-0.1c0,0.8-0.5,1.6-1.4,2.2L291.8,113c-1.9,1.3-5,1.3-6.9,0l-33.3-22.3c-0.4-0.2-0.7-0.6-1-0.9
			h-0.3v-0.7C250.2,88.6,250.2,88.1,250.3,87.6L250.3,87.6z"/>
	</mask>
	<path class="st15" d="M250.3,87.6l0.8,0.1l0-0.1v-0.1L250.3,87.6L250.3,87.6z M250.3,81.2l0.8,0v-0.1l0-0.1
		C251.1,81.1,250.3,81.2,250.3,81.2z M250.3,79.8l0.8,0.1l0-0.1v-0.1L250.3,79.8L250.3,79.8z M250.3,79.4l0-0.5h-0.8v0.5H250.3z
		 M250.5,79.4l0,0.5h0.6l0.2-0.4L250.5,79.4L250.5,79.4z M251.6,78.2l-0.6-0.4L251.6,78.2L251.6,78.2z M309.1,39.9l0.6,0.4
		L309.1,39.9L309.1,39.9z M316,39.9l-0.6,0.4L316,39.9z M349.3,62.2l0.6-0.4L349.3,62.2z M350.6,64.9l-0.8-0.1l-0.1,0.6h0.9
		C350.6,65.4,350.6,64.9,350.6,64.9z M350.8,64.9h0.8v-0.5h-0.8L350.8,64.9L350.8,64.9z M350.8,72.5l0,0.5h0.8v-0.5L350.8,72.5
		L350.8,72.5z M350.7,72.5l0-0.5h-0.8l0,0.5L350.7,72.5z M284.9,113l0.6-0.4L284.9,113z M251.6,90.7l-0.6,0.4L251.6,90.7L251.6,90.7
		z M250.7,89.8l0.7-0.2l-0.2-0.3h-0.5L250.7,89.8z M250.3,89.8h-0.8v0.5h0.8L250.3,89.8z M250.3,89.1h0.8V89l0-0.1
		C251.1,89,250.3,89.1,250.3,89.1z M251.1,87.6v-6.4l-1.6,0v6.4L251.1,87.6z M251.1,81.1c-0.1-0.4-0.1-0.8,0-1.2l-1.6-0.2
		c-0.2,0.6-0.2,1.2,0,1.7L251.1,81.1z M251.1,79.8v-0.4l-1.6,0v0.4L251.1,79.8z M250.3,80h0.2l0-1.1h-0.2L250.3,80L250.3,80z
		 M251.2,79.6c0.2-0.4,0.5-0.7,1-1l-1.1-0.8c-0.6,0.4-1.1,0.9-1.3,1.4L251.2,79.6L251.2,79.6z M252.2,78.6l57.5-38.3l-1.1-0.8
		l-57.5,38.3C251.1,77.8,252.2,78.6,252.2,78.6z M309.7,40.3c1.6-1.1,4.2-1.1,5.7,0l1.1-0.8c-2.2-1.5-5.8-1.5-8,0L309.7,40.3z
		 M315.4,40.3l33.3,22.3l1.1-0.8l-33.3-22.3L315.4,40.3L315.4,40.3z M348.7,62.6c0.9,0.6,1.3,1.4,1.2,2.2l1.6,0.1
		c0.2-1.1-0.4-2.3-1.6-3.1L348.7,62.6L348.7,62.6z M350.6,65.4h0.1l0-1.1h-0.1L350.6,65.4z M349.9,64.9v7.6l1.6,0v-7.6L349.9,64.9
		L349.9,64.9z M350.8,72L350.8,72l-0.1,1.1h0.1L350.8,72z M349.9,72.5c0,0.7-0.4,1.3-1.2,1.8l1.1,0.8c1.1-0.7,1.6-1.6,1.7-2.6
		L349.9,72.5z M348.7,74.3l-57.5,38.3l1.1,0.8l57.5-38.3L348.7,74.3z M291.2,112.6c-1.6,1.1-4.2,1.1-5.7,0l-1.1,0.8
		c2.2,1.5,5.8,1.5,8,0L291.2,112.6z M285.5,112.6l-33.3-22.3l-1.1,0.8l33.3,22.3C284.3,113.4,285.5,112.6,285.5,112.6z M252.2,90.3
		c-0.3-0.2-0.6-0.5-0.8-0.8l-1.5,0.5c0.3,0.4,0.7,0.8,1.1,1.1L252.2,90.3L252.2,90.3z M250.7,89.2h-0.3l0,1.1h0.3L250.7,89.2
		L250.7,89.2z M251.1,89.8v-0.7l-1.6,0v0.7L251.1,89.8z M251.1,89c-0.1-0.4-0.1-0.8,0-1.2l-1.6-0.2c-0.2,0.6-0.2,1.2,0,1.7L251.1,89
		z"/>
	<path class="st7" d="M252.1,75.4l57.5-38.3c1.9-1.3,5-1.3,6.9,0l33.3,22.3c1.9,1.3,1.9,3.3,0,4.6l-57.5,38.3c-1.9,1.3-5,1.3-6.9,0
		L252.1,80C250.2,78.8,250.2,76.7,252.1,75.4z"/>
	<path class="st4" d="M252.5,75.7L310,37.4c1.7-1.1,4.4-1.1,6.1,0l33.3,22.3c1.7,1.1,1.7,2.9,0,4.1l-57.5,38.3
		c-1.7,1.1-4.4,1.1-6.1,0l-33.3-22.3C250.9,78.6,250.9,76.8,252.5,75.7z"/>
	<path class="st8" d="M278.8,68.4l23.2-15.5c0.9-0.6,2.4-0.6,3.3,0l0.7,0.5c0.9,0.6,0.9,1.6,0,2.2l-23.2,15.5
		c-0.9,0.6-2.4,0.6-3.3,0l-0.7-0.5C277.9,70,277.9,69.1,278.8,68.4z"/>
	<path class="st9" d="M298.9,85.1l18.9-12.6c0.7-0.5,1.8-0.5,2.5,0l0,0c0.7,0.5,0.7,1.2,0,1.7l-18.9,12.6c-0.7,0.5-1.8,0.5-2.5,0
		l0,0C298.2,86.3,298.2,85.6,298.9,85.1z"/>
	<path class="st10" d="M292.5,90.2l0.1,0.1c0.3,0.2,0.5,0.5,0.6,0.8c0.1,0.3,0,0.6-0.2,0.9s-0.6,0.5-1,0.6c-0.4,0.1-0.9,0.2-1.3,0.1
		c-0.4-0.1-0.8-0.2-1.1-0.4c-0.3-0.2-0.5-0.5-0.5-0.8c0-0.3,0.1-0.6,0.3-0.9c0.2-0.3,0.6-0.4,1-0.6"/>
	<path class="st10" d="M291.5,89.5l0,2l-0.9,0"/>
</g>
<path class="st1" d="M86.3,82.4V76c-0.2-0.5-0.2-1,0-1.5v-0.4h0.2c0.2-0.4,0.6-0.9,1.1-1.2l57.5-38.3c1.9-1.3,5-1.3,6.9,0l33.3,22.3
	c1.1,0.7,1.6,1.7,1.4,2.7h0.1v7.6h-0.1c0,0.8-0.5,1.6-1.4,2.2l-57.5,38.3c-1.9,1.3-5,1.3-6.9,0L87.6,85.4c-0.4-0.2-0.7-0.6-1-0.9
	h-0.3v-0.7C86.2,83.4,86.2,82.8,86.3,82.4L86.3,82.4z"/>
<path class="st6" d="M86.6,82.5L86.6,82.5l0-6.6l0-0.1c-0.1-0.4-0.1-0.8,0-1.2l0-0.1v-0.1h0l0.1-0.2c0.2-0.4,0.5-0.8,1-1.1
	l57.5-38.3c0.9-0.6,2.1-0.9,3.3-0.9c1.2,0,2.4,0.3,3.3,0.9l33.3,22.3c1,0.7,1.4,1.5,1.2,2.3l-0.1,0.4h0.2v6.9h-0.1l0,0.3
	c0,0.7-0.4,1.4-1.3,1.9l-57.5,38.3c-0.9,0.6-2.1,0.9-3.3,0.9c-1.2,0-2.4-0.3-3.3-0.9L87.8,85.1c-0.3-0.2-0.6-0.5-0.9-0.8l-0.1-0.1
	h-0.2v-0.4l0-0.1C86.5,83.3,86.5,82.9,86.6,82.5L86.6,82.5z"/>
<path class="st7" d="M88.1,70.2l57.5-38.3c1.9-1.3,5-1.3,6.9,0l33.3,22.3c1.9,1.3,1.9,3.3,0,4.6l-57.5,38.3c-1.9,1.3-5,1.3-6.9,0
	L88.1,74.8C86.2,73.5,86.2,71.4,88.1,70.2z"/>
<path class="st4" d="M88.5,70.4L146,32.1c1.7-1.1,4.4-1.1,6.1,0l33.3,22.3c1.7,1.1,1.7,2.9,0,4.1l-57.5,38.3c-1.7,1.1-4.4,1.1-6.1,0
	L88.5,74.5C86.9,73.4,86.9,71.5,88.5,70.4z"/>
<path class="st8" d="M112.8,64.4l23.2-15.5c0.9-0.6,2.4-0.6,3.3,0l0.7,0.5c0.9,0.6,0.9,1.6,0,2.2l-23.2,15.5c-0.9,0.6-2.4,0.6-3.3,0
	l-0.7-0.5C111.9,66,111.9,65.1,112.8,64.4z"/>
<path class="st9" d="M132.9,81.1l18.9-12.6c0.7-0.5,1.8-0.5,2.5,0l0,0c0.7,0.5,0.7,1.2,0,1.7l-18.9,12.6c-0.7,0.5-1.8,0.5-2.5,0l0,0
	C132.2,82.3,132.2,81.6,132.9,81.1z"/>
<path class="st10" d="M126.5,86.2l0.1,0.1c0.3,0.2,0.5,0.5,0.6,0.8c0.1,0.3,0,0.6-0.2,0.9c-0.2,0.3-0.6,0.5-1,0.6
	c-0.4,0.1-0.9,0.2-1.3,0.1c-0.4-0.1-0.8-0.2-1.1-0.4c-0.3-0.2-0.5-0.5-0.5-0.8c0-0.3,0.1-0.6,0.3-0.9c0.2-0.3,0.6-0.4,1-0.6"/>
<path class="st10" d="M125.5,85.5l0,2l-0.9,0"/>
<path class="st1" d="M22.1,313.6v-6.4c-0.2-0.5-0.2-1,0-1.5v-0.4h0.2c0.2-0.4,0.6-0.9,1.1-1.2l57.5-38.3c1.9-1.3,5-1.3,6.9,0
	l33.3,22.3c1.1,0.7,1.6,1.7,1.4,2.7h0.1v7.6h-0.1c0,0.8-0.5,1.6-1.4,2.2L63.6,339c-1.9,1.3-5,1.3-6.9,0l-33.3-22.3
	c-0.4-0.2-0.7-0.6-1-0.9h-0.3v-0.7C21.9,314.6,21.9,314.1,22.1,313.6L22.1,313.6z"/>
<path class="st6" d="M22.4,313.7L22.4,313.7l0-6.6l0-0.1c-0.1-0.4-0.1-0.8,0-1.2l0-0.1v-0.1h0l0.1-0.2c0.2-0.4,0.5-0.8,1-1.1
	l57.5-38.3c0.9-0.6,2.1-0.9,3.3-0.9c1.2,0,2.4,0.3,3.3,0.9l33.3,22.3c1,0.7,1.4,1.5,1.2,2.3l-0.1,0.4h0.2v6.9h-0.1l0,0.3
	c0,0.7-0.4,1.4-1.3,1.9l-57.5,38.3c-0.9,0.6-2.1,0.9-3.3,0.9c-1.2,0-2.4-0.3-3.3-0.9l-33.3-22.3c-0.3-0.2-0.6-0.5-0.9-0.8l-0.1-0.1
	h-0.2V315l0-0.1C22.3,314.6,22.3,314.1,22.4,313.7L22.4,313.7z"/>
<path class="st7" d="M23.9,301.4l57.5-38.3c1.9-1.3,5-1.3,6.9,0l33.3,22.3c1.9,1.3,1.9,3.3,0,4.6L64,328.4c-1.9,1.3-5,1.3-6.9,0
	L23.9,306C22,304.7,22,302.7,23.9,301.4z"/>
<path class="st4" d="M24.3,301.7l57.5-38.3c1.7-1.1,4.4-1.1,6.1,0l33.3,22.3c1.7,1.1,1.7,2.9,0,4.1l-57.5,38.3
	c-1.7,1.1-4.4,1.1-6.1,0l-33.3-22.3C22.6,304.6,22.6,302.8,24.3,301.7z"/>
<path class="st8" d="M48.6,295.7l23.2-15.5c0.9-0.6,2.4-0.6,3.3,0l0.7,0.5c0.9,0.6,0.9,1.6,0,2.2l-23.2,15.5c-0.9,0.6-2.4,0.6-3.3,0
	l-0.7-0.5C47.7,297.3,47.7,296.3,48.6,295.7z"/>
<path class="st9" d="M68.7,312.4l18.9-12.6c0.7-0.5,1.8-0.5,2.5,0l0,0c0.7,0.5,0.7,1.2,0,1.7l-18.9,12.6c-0.7,0.5-1.8,0.5-2.5,0l0,0
	C68,313.6,68,312.8,68.7,312.4z"/>
<g>
	<defs>
		<polygon id="SVGID_1_" points="33.5,303.5 41,298.5 48.5,303.5 41,308.5 		"/>
	</defs>
	<clipPath id="SVGID_00000051364545507132682200000013839056420584847252_">
		<use xlink:href="#SVGID_1_"  style="overflow:visible;"/>
	</clipPath>
	<g style="opacity:0.5;clip-path:url(#SVGID_00000051364545507132682200000013839056420584847252_);">
		<path class="st17" d="M37.2,301c-2.1,1.4-2.1,3.6,0,5c1.7,1.1,4.1,1.3,6.1,0.7c0.2-0.1,0.2-0.2,0.1-0.3c-0.1-0.1-0.4-0.3-0.7-0.5
			c-0.8,0.7-1.4,0.6-1.7,0.5c-0.2,0-0.7-0.1-0.9-0.1c-0.2,0-0.6,0.1-0.3-0.2c0.3-0.2,0.8-0.2,1-0.1c0.9,0.2,1.3-0.3,1.4-0.5
			c-0.2-0.2-0.3-0.4-0.3-0.5c-0.9,0.5-2.1,0.9-3.6-0.1c-0.4-0.3-0.6-0.6-0.6-0.9c-0.1,0-0.6-0.2-1-0.7c0,0,0.2-0.3,1.4-0.4
			c0.2-0.3,0.5-0.5,0.8-0.7c0.3-0.2,0.7-0.4,1.1-0.5c0.2-0.8,0.7-0.9,0.7-0.9c0.7,0.2,1,0.6,1,0.6c0.5,0,1,0.1,1.4,0.4
			c1.4,1,0.9,1.8,0.1,2.4c0.3,0,0.6,0.1,0.9,0.3c0.5,0.3,0.9,0.6,1,0.7c0.1,0.1,0.3,0.1,0.4-0.1c1-1.3,0.7-3-1-4.1
			C42.7,299.6,39.3,299.6,37.2,301L37.2,301z"/>
	</g>
</g>
<path class="st10" d="M62.3,317.4l0.1,0.1c0.3,0.2,0.5,0.5,0.6,0.8c0.1,0.3,0,0.6-0.2,0.9c-0.2,0.3-0.6,0.5-1,0.6
	c-0.4,0.1-0.9,0.2-1.3,0.1c-0.4-0.1-0.8-0.2-1.1-0.4c-0.3-0.2-0.5-0.5-0.5-0.8c0-0.3,0.1-0.6,0.3-0.9c0.2-0.3,0.6-0.4,1-0.6"/>
<path class="st10" d="M61.3,316.7l0,2l-0.9,0"/>
<path class="st11" d="M173.4,209.3v-6.4c-0.2-0.5-0.2-1,0-1.5v-0.4h0.2c0.2-0.4,0.6-0.9,1.1-1.2l57.5-38.3c1.9-1.3,5-1.3,6.9,0
	l33.3,22.3c1.1,0.7,1.6,1.7,1.4,2.7h0.1v7.6h-0.1c0,0.8-0.5,1.6-1.4,2.2l-57.5,38.3c-1.9,1.3-5,1.3-6.9,0l-33.3-22.3
	c-0.4-0.2-0.7-0.6-1-0.9h-0.3v-0.7C173.3,210.3,173.3,209.8,173.4,209.3L173.4,209.3z"/>
<defs>
	
		<filter id="Adobe_OpacityMaskFilter_00000089550105877401355560000011347045675975039138_" filterUnits="userSpaceOnUse" x="172.5" y="160.1" width="102.2" height="76.1">
		<feColorMatrix  type="matrix" values="1 0 0 0 0  0 1 0 0 0  0 0 1 0 0  0 0 0 1 0"/>
	</filter>
</defs>
<mask maskUnits="userSpaceOnUse" x="172.5" y="160.1" width="102.2" height="76.1" id="path-24-inside-2_1979_204924_00000044166566084920626870000014000817325188672931_">
	
		<path style="fill-rule:evenodd;clip-rule:evenodd;fill:#FFFFFF;filter:url(#Adobe_OpacityMaskFilter_00000089550105877401355560000011347045675975039138_);" d="
		M173.4,209.3v-6.4c-0.2-0.5-0.2-1,0-1.5v-0.4h0.2c0.2-0.4,0.6-0.9,1.1-1.2l57.5-38.3c1.9-1.3,5-1.3,6.9,0l33.3,22.3
		c1.1,0.7,1.6,1.7,1.4,2.7h0.1v7.6h-0.1c0,0.8-0.5,1.6-1.4,2.2l-57.5,38.3c-1.9,1.3-5,1.3-6.9,0l-33.3-22.3c-0.4-0.2-0.7-0.6-1-0.9
		h-0.3v-0.7C173.3,210.3,173.3,209.8,173.4,209.3L173.4,209.3z"/>
</mask>
<path class="st19" d="M173.4,209.3l0.8,0.1l0-0.1v-0.1H173.4L173.4,209.3z M173.4,202.9l0.8,0v-0.1l0-0.1L173.4,202.9L173.4,202.9z
	 M173.4,201.5l0.8,0.1l0-0.1v-0.1L173.4,201.5L173.4,201.5z M173.4,201.1l0-0.5h-0.8v0.5L173.4,201.1L173.4,201.1z M173.6,201.1
	l0,0.5h0.6l0.2-0.4L173.6,201.1L173.6,201.1z M174.7,199.9l-0.6-0.4L174.7,199.9z M232.2,161.6l0.6,0.4L232.2,161.6z M239.1,161.6
	l-0.6,0.4L239.1,161.6z M272.4,183.9l0.6-0.4L272.4,183.9z M273.8,186.6l-0.8-0.1l-0.1,0.6h0.9L273.8,186.6L273.8,186.6z
	 M273.9,186.6l0.8,0V186h-0.8L273.9,186.6z M273.9,194.2l0,0.5h0.8v-0.5H273.9L273.9,194.2z M273.8,194.2l0-0.5H273l0,0.5
	L273.8,194.2L273.8,194.2z M208,234.7l0.6-0.4L208,234.7z M174.7,212.4l-0.6,0.4L174.7,212.4z M173.8,211.5l0.7-0.2l-0.2-0.3h-0.5
	L173.8,211.5L173.8,211.5z M173.4,211.5l-0.8,0v0.5h0.8L173.4,211.5z M173.4,210.8l0.8,0v-0.1l0-0.1L173.4,210.8L173.4,210.8z
	 M174.2,209.3v-6.4l-1.6,0v6.4L174.2,209.3z M174.2,202.8c-0.1-0.4-0.1-0.8,0-1.2l-1.6-0.2c-0.2,0.6-0.2,1.2,0,1.7L174.2,202.8z
	 M174.2,201.5v-0.4l-1.6,0v0.4L174.2,201.5z M173.4,201.6h0.2l0-1.1h-0.2L173.4,201.6z M174.3,201.3c0.2-0.4,0.5-0.7,1-1l-1.1-0.8
	c-0.6,0.4-1.1,0.9-1.3,1.4L174.3,201.3L174.3,201.3z M175.3,200.3l57.5-38.3l-1.1-0.8l-57.5,38.3L175.3,200.3z M232.8,162
	c1.6-1.1,4.2-1.1,5.7,0l1.1-0.8c-2.2-1.5-5.8-1.5-8,0L232.8,162L232.8,162z M238.5,162l33.3,22.3l1.1-0.8l-33.3-22.3L238.5,162z
	 M271.8,184.3c0.9,0.6,1.3,1.4,1.2,2.2l1.6,0.1c0.2-1.1-0.4-2.3-1.6-3.1L271.8,184.3z M273.8,187.1h0.1l0-1.1h-0.1L273.8,187.1z
	 M273.1,186.6v7.6l1.6,0v-7.6L273.1,186.6z M273.9,193.6L273.9,193.6l-0.1,1.1h0.1L273.9,193.6z M273,194.2c0,0.7-0.4,1.3-1.2,1.8
	l1.1,0.8c1.1-0.7,1.6-1.6,1.7-2.6L273,194.2L273,194.2z M271.8,196l-57.5,38.3l1.1,0.8l57.5-38.3L271.8,196L271.8,196z M214.3,234.3
	c-1.6,1.1-4.2,1.1-5.7,0l-1.1,0.8c2.2,1.5,5.8,1.5,8,0L214.3,234.3z M208.6,234.3L175.3,212l-1.1,0.8l33.3,22.3L208.6,234.3
	L208.6,234.3z M175.3,212c-0.3-0.2-0.6-0.5-0.8-0.8l-1.5,0.5c0.3,0.4,0.6,0.7,1.1,1.1L175.3,212z M173.8,210.9h-0.3l0,1.1h0.3
	L173.8,210.9z M174.2,211.5v-0.7l-1.6,0v0.7L174.2,211.5z M174.2,210.7c-0.1-0.4-0.1-0.8,0-1.2l-1.6-0.2c-0.2,0.6-0.2,1.2,0,1.7
	L174.2,210.7z"/>
<path class="st7" d="M175.2,197.1l57.5-38.3c1.9-1.3,5-1.3,6.9,0l33.3,22.3c1.9,1.3,1.9,3.3,0,4.6l-57.5,38.3c-1.9,1.3-5,1.3-6.9,0
	l-33.3-22.3C173.3,200.5,173.3,198.4,175.2,197.1z"/>
<path class="st4" d="M175.6,197.4l57.5-38.3c1.7-1.1,4.4-1.1,6.1,0l33.3,22.3c1.7,1.1,1.7,2.9,0,4.1l-57.5,38.3
	c-1.7,1.1-4.4,1.1-6.1,0l-33.3-22.3C174,200.3,174,198.5,175.6,197.4z"/>
<path class="st8" d="M200.8,190.4l23.2-15.5c0.9-0.6,2.4-0.6,3.3,0l0.7,0.5c0.9,0.6,0.9,1.6,0,2.2l-23.2,15.5
	c-0.9,0.6-2.4,0.6-3.3,0l-0.7-0.5C199.9,192.1,199.9,191.1,200.8,190.4z"/>
<path class="st9" d="M220.9,206.1l18.9-12.6c0.7-0.5,1.8-0.5,2.5,0l0,0c0.7,0.5,0.7,1.2,0,1.7l-18.9,12.6c-0.7,0.5-1.8,0.5-2.5,0
	l0,0C220.2,207.3,220.2,206.6,220.9,206.1z"/>
<g>
	<defs>
		<polygon id="SVGID_00000110464827853490570240000013285004958476919684_" points="184.7,198.2 192.2,193.2 199.7,198.3 
			192.2,203.3 		"/>
	</defs>
	<clipPath id="SVGID_00000109001721948797207540000017382201923099562653_">
		<use xlink:href="#SVGID_00000110464827853490570240000013285004958476919684_"  style="overflow:visible;"/>
	</clipPath>
	<g style="opacity:0.5;clip-path:url(#SVGID_00000109001721948797207540000017382201923099562653_);">
		
			<linearGradient id="SVGID_00000065764859072444319890000017915209949560407947_" gradientUnits="userSpaceOnUse" x1="184.8114" y1="123.148" x2="192.4084" y2="124.037" gradientTransform="matrix(1 0 0 -1 1.037417e-05 322)">
			<stop  offset="0" style="stop-color:#5A9FD4"/>
			<stop  offset="1" style="stop-color:#306998"/>
		</linearGradient>
		<path style="fill:url(#SVGID_00000065764859072444319890000017915209949560407947_);" d="M188.4,195.7c-0.3,0.2-0.5,0.4-0.8,0.6
			c-0.6,0.6-0.5,0.9,0,1.2l0.7,0.5l1.8-1.2l0.2,0.2l-2.5,1.6c-0.5,0.3-0.7,0.9-0.2,1.4c0.5,0.6,0.9,0.9,1.8,1.2
			c0.7,0.3,1.3,0.3,1.9,0l0.6-0.4l-0.8-0.5c-0.6-0.4-0.6-1.1,0-1.5l1.8-1.2c0.5-0.3,0.5-0.9,0-1.2l-1.7-1.1c-0.5-0.3-1.3-0.3-1.8,0
			C189.1,195.3,188.7,195.5,188.4,195.7L188.4,195.7z M188,196.8c0.2-0.1,0.5-0.1,0.7,0c0.2,0.1,0.2,0.3,0,0.5
			c-0.2,0.1-0.5,0.1-0.7,0C187.8,197.1,187.8,196.9,188,196.8L188,196.8z"/>
		
			<linearGradient id="SVGID_00000072983941480631564800000018082876919334860420_" gradientUnits="userSpaceOnUse" x1="196.0898" y1="123.2233" x2="192.6478" y2="124.0903" gradientTransform="matrix(1 0 0 -1 1.037417e-05 322)">
			<stop  offset="0" style="stop-color:#FFD43B"/>
			<stop  offset="1" style="stop-color:#FFE873"/>
		</linearGradient>
		<path style="fill:url(#SVGID_00000072983941480631564800000018082876919334860420_);" d="M192.4,195.7l0.8,0.5
			c0.6,0.4,0.6,1.1,0,1.5l-1.8,1.2c-0.5,0.3-0.5,0.9,0,1.2l1.7,1.1c0.5,0.3,1.2,0.2,1.8,0c0.7-0.3,1.3-0.6,1.8-1.2
			c0.3-0.4,0.5-0.9,0-1.2l-0.7-0.5l-1.8,1.2l-0.2-0.2l2.7-1.8c0.5-0.3,0.4-0.7,0-1.2c-0.4-0.5-0.9-0.9-1.8-1.2
			c-0.6-0.3-1.3-0.4-1.8,0L192.4,195.7L192.4,195.7z M195.7,199.2c0.2-0.1,0.5-0.1,0.7,0c0.2,0.1,0.2,0.3,0,0.5
			c-0.2,0.1-0.5,0.1-0.7,0C195.5,199.5,195.5,199.3,195.7,199.2z"/>
	</g>
</g>
<path class="st10" d="M215.5,213.2l0.1,0.1c0.3,0.2,0.5,0.5,0.6,0.8c0.1,0.3,0,0.6-0.2,0.9s-0.6,0.5-1,0.6c-0.4,0.1-0.9,0.2-1.3,0.1
	c-0.4-0.1-0.8-0.2-1.1-0.4c-0.3-0.2-0.5-0.5-0.5-0.8c0-0.3,0.1-0.6,0.3-0.9c0.2-0.3,0.6-0.4,1-0.6"/>
<path class="st10" d="M214.5,212.5l0,2l-0.9,0"/>
<path class="st23" d="M269.6,96.2l-8.3,6.7c-1.4,1.1-2.2,2.9-2.2,4.7v49.9c0,2-1,3.9-2.7,5l-6.3,4.1"/>
<path class="st24" d="M154.6,80.7l21.9,15.2c1.6,1.1,2.6,3,2.6,4.9v57.7c0,2,1,3.8,2.6,5l20.9,14.2"/>
<path class="st24" d="M256.4,220.6l21.9,15.2c1.6,1.1,2.6,3,2.6,4.9v57.7c0,2,1,3.8,2.6,5l20.9,14.2"/>
<linearGradient id="SVGID_00000148654621753309258750000005902305035569815961_" gradientUnits="userSpaceOnUse" x1="187.7564" y1="205.8047" x2="169.2764" y2="214.2517" gradientTransform="matrix(1 0 0 -1 0 322)">
	<stop  offset="0" style="stop-color:#AAFFDA;stop-opacity:0"/>
	<stop  offset="1" style="stop-color:#00E6D6"/>
</linearGradient>
<path style="fill:none;stroke:url(#SVGID_00000148654621753309258750000005902305035569815961_);stroke-width:3;stroke-linecap:round;" d="
	M166.8,89.2l9.7,6.7c1.6,1.1,2.6,3,2.6,4.9v28.9"/>
<path class="st23" d="M278.6,58.2l-64.1-42.8c-2-1.4-4.7-1.3-6.7,0l-39.7,27.1"/>
<linearGradient id="SVGID_00000101073933116895309010000008042560107533907840_" gradientUnits="userSpaceOnUse" x1="233.3374" y1="271.1349" x2="188.8374" y2="294.6349" gradientTransform="matrix(1 0 0 -1 0 322)">
	<stop  offset="0" style="stop-color:#00E6D6"/>
	<stop  offset="1" style="stop-color:#94FFC2;stop-opacity:0"/>
</linearGradient>
<path style="fill:none;stroke:url(#SVGID_00000101073933116895309010000008042560107533907840_);stroke-width:3;stroke-linecap:round;" d="
	M246.6,36.7l-32.1-21.3c-2-1.3-4.7-1.3-6.7,0l-23.4,16l-15.8,10.8"/>
<linearGradient id="SVGID_00000145737190059653808910000000582873192469832106_" gradientUnits="userSpaceOnUse" x1="116.6934" y1="280.1391" x2="72.1924" y2="303.6391" gradientTransform="matrix(1 0 0 -1 0 322)">
	<stop  offset="0" style="stop-color:#00E6D6"/>
	<stop  offset="1" style="stop-color:#AAFFE3;stop-opacity:0"/>
</linearGradient>
<path style="fill:none;stroke:url(#SVGID_00000145737190059653808910000000582873192469832106_);stroke-width:3;stroke-linecap:round;" d="
	M52.6,1.7l30.5,24l35.5,23.5"/>
<linearGradient id="SVGID_00000164510200912382606910000007925678704800067713_" gradientUnits="userSpaceOnUse" x1="147.9878" y1="49.5425" x2="103.4868" y2="73.0425" gradientTransform="matrix(0.3854 -0.9228 -0.9228 -0.3854 163.7954 382.4319)">
	<stop  offset="0" style="stop-color:#00E6D6"/>
	<stop  offset="1" style="stop-color:#2AFFA3;stop-opacity:0"/>
</linearGradient>
<path style="fill:none;stroke:url(#SVGID_00000164510200912382606910000007925678704800067713_);stroke-width:3;stroke-linecap:round;" d="
	M113.3,270.5l33.9-18.9l35.4-23.7"/>
</svg>
