<svg width="384" height="404" fill="none" xmlns="http://www.w3.org/2000/svg"><g opacity=".75"><rect width="259.74" height="200.332" rx="4.145" transform="matrix(.83205 -.5547 .83014 .55756 .357 292.711)" fill="#09080D"/><rect x=".831" y=".001" width="258.74" height="199.332" rx="3.645" transform="matrix(.83205 -.5547 .83014 .55756 .495 293.172)" stroke="#fff" stroke-opacity=".1"/><rect x=".831" y=".001" width="258.74" height="199.332" rx="3.645" transform="matrix(.83205 -.5547 .83014 .55756 .495 285.573)" fill="#0A1A16" fill-opacity=".4" stroke="#26543F"/><g opacity=".5" fill="#33323E"><path d="M6.502 286.675c.458.308.457.806-.002 1.113-.46.306-1.204.305-1.662-.003-.459-.308-.458-.806.002-1.112.46-.307 1.203-.305 1.662.002ZM19.784 295.596c.459.308.458.806-.002 1.113-.46.306-1.204.305-1.662-.003-.459-.308-.458-.806.002-1.113.46-.306 1.204-.305 1.662.003ZM33.066 304.517c.459.308.458.806-.002 1.113-.46.306-1.203.305-1.662-.003-.458-.308-.457-.806.002-1.113.46-.306 1.204-.305 1.662.003ZM46.349 313.438c.458.308.457.806-.002 1.112-.46.307-1.204.305-1.663-.002-.458-.308-.457-.806.002-1.113.46-.306 1.204-.305 1.663.003ZM59.63 322.359c.46.308.458.806-.001 1.112-.46.307-1.204.305-1.662-.003-.459-.307-.458-.805.002-1.112.46-.306 1.203-.305 1.662.003ZM72.913 331.28c.458.308.458.806-.002 1.112-.46.307-1.204.305-1.662-.003-.459-.308-.458-.806.002-1.112.46-.306 1.203-.305 1.662.003ZM86.195 340.201c.459.308.458.806-.002 1.112-.46.306-1.203.305-1.662-.003-.458-.308-.458-.806.002-1.112.46-.306 1.204-.305 1.662.003ZM99.477 349.122c.459.308.458.806-.002 1.112-.459.306-1.203.305-1.662-.003-.458-.308-.457-.806.002-1.112.46-.306 1.204-.305 1.662.003ZM112.76 358.043c.458.308.457.806-.002 1.112-.46.306-1.204.305-1.662-.003-.459-.308-.458-.806.001-1.112.46-.307 1.204-.305 1.663.003ZM126.042 366.964c.458.307.457.805-.002 1.112-.46.306-1.204.305-1.662-.003-.459-.308-.458-.806.002-1.112.459-.307 1.203-.305 1.662.003ZM139.324 375.884c.459.308.458.806-.002 1.113-.459.306-1.204.305-1.662-.003-.458-.308-.458-.806.002-1.112.459-.307 1.204-.305 1.662.002ZM152.606 384.805c.459.308.458.806-.002 1.113-.459.306-1.203.305-1.662-.003-.458-.308-.457-.806.002-1.113.46-.306 1.204-.305 1.662.003ZM165.889 393.726c.458.308.457.806-.002 1.112-.46.307-1.204.306-1.663-.002-.458-.308-.457-.806.002-1.113.46-.306 1.204-.305 1.663.003ZM19.815 277.8c.458.308.457.806-.002 1.113-.46.306-1.204.305-1.662-.003-.459-.308-.458-.806.001-1.113.46-.306 1.204-.305 1.663.003ZM33.097 286.721c.458.308.457.806-.002 1.112-.46.307-1.204.305-1.662-.002-.459-.308-.458-.806.002-1.113.46-.306 1.203-.305 1.662.003ZM46.38 295.642c.457.308.457.806-.003 1.112-.46.307-1.204.305-1.662-.003-.459-.307-.458-.805.002-1.112.46-.306 1.204-.305 1.662.003ZM59.661 304.563c.459.308.458.806-.002 1.112-.46.307-1.203.305-1.662-.003-.458-.308-.457-.806.002-1.112.46-.306 1.204-.305 1.662.003ZM72.944 313.484c.458.308.457.806-.002 1.112-.46.306-1.204.305-1.663-.003-.458-.308-.457-.806.002-1.112.46-.306 1.204-.305 1.662.003ZM86.226 322.405c.458.308.457.806-.002 1.112-.46.306-1.204.305-1.662-.003-.459-.308-.458-.806.002-1.112.46-.306 1.203-.305 1.662.003ZM99.508 331.326c.459.308.458.806-.002 1.112-.46.306-1.204.305-1.662-.003-.459-.308-.458-.806.002-1.112.46-.307 1.203-.305 1.662.003ZM112.79 340.247c.459.307.458.805-.002 1.112-.459.306-1.203.305-1.662-.003-.458-.308-.458-.806.002-1.112.46-.307 1.204-.305 1.662.003ZM126.072 349.167c.459.308.458.806-.001 1.113-.46.306-1.204.305-1.663-.003-.458-.308-.457-.806.002-1.112.46-.307 1.204-.305 1.662.002ZM139.355 358.088c.458.308.457.806-.002 1.113-.46.306-1.204.305-1.662-.003-.459-.308-.458-.806.001-1.113.46-.306 1.204-.305 1.663.003ZM152.637 367.009c.458.308.458.806-.002 1.112-.46.307-1.204.306-1.662-.002-.459-.308-.458-.806.002-1.113.459-.306 1.203-.305 1.662.003ZM165.919 375.93c.459.308.458.806-.002 1.112-.459.307-1.204.305-1.662-.002-.458-.308-.458-.806.002-1.113.459-.306 1.204-.305 1.662.003ZM179.201 384.851c.459.308.458.806-.002 1.112-.459.307-1.203.305-1.662-.003-.458-.307-.457-.805.002-1.112.46-.306 1.204-.305 1.662.003ZM33.127 268.925c.459.308.458.806-.002 1.112-.459.307-1.203.305-1.662-.003-.458-.307-.457-.805.002-1.112.46-.306 1.204-.305 1.662.003ZM46.41 277.846c.458.308.457.806-.002 1.112-.46.307-1.204.305-1.663-.003-.458-.308-.457-.806.003-1.112.459-.306 1.203-.305 1.662.003ZM59.692 286.767c.458.308.458.806-.002 1.112-.46.306-1.204.305-1.662-.003-.459-.308-.458-.806.002-1.112.46-.306 1.203-.305 1.662.003ZM72.974 295.688c.459.308.458.806-.002 1.112-.46.306-1.203.305-1.662-.003-.459-.308-.458-.806.002-1.112.46-.306 1.204-.305 1.662.003ZM86.256 304.609c.459.308.458.806-.002 1.112-.46.306-1.203.305-1.662-.003-.458-.308-.457-.806.002-1.112.46-.307 1.204-.305 1.662.003ZM99.539 313.53c.458.307.457.805-.002 1.112-.46.306-1.204.305-1.663-.003-.458-.308-.457-.806.002-1.112.46-.307 1.204-.305 1.663.003ZM112.821 322.45c.458.308.457.806-.002 1.113-.46.306-1.204.305-1.662-.003-.459-.308-.458-.806.002-1.112.459-.307 1.203-.305 1.662.002ZM126.103 331.371c.458.308.458.806-.002 1.113-.459.306-1.204.305-1.662-.003-.459-.308-.458-.806.002-1.113.459-.306 1.204-.305 1.662.003ZM139.385 340.292c.459.308.458.806-.002 1.112-.459.307-1.203.306-1.662-.002-.458-.308-.457-.806.002-1.113.46-.306 1.204-.305 1.662.003ZM152.667 349.213c.459.308.458.806-.001 1.112-.46.307-1.204.305-1.663-.002-.458-.308-.457-.806.002-1.113.46-.306 1.204-.305 1.662.003ZM165.95 358.134c.458.308.457.806-.002 1.112-.46.307-1.204.305-1.662-.003-.459-.307-.458-.805.002-1.112.459-.306 1.203-.305 1.662.003ZM179.232 367.055c.458.308.458.806-.002 1.112-.46.307-1.204.305-1.662-.003-.459-.308-.458-.806.002-1.112.459-.306 1.203-.305 1.662.003ZM192.514 375.976c.459.308.458.806-.002 1.112-.459.306-1.203.305-1.662-.003-.458-.308-.458-.806.002-1.112.459-.306 1.204-.305 1.662.003ZM46.44 260.05c.459.308.458.806-.002 1.112-.46.306-1.203.305-1.662-.003-.458-.308-.458-.806.002-1.112.46-.306 1.204-.305 1.662.003ZM59.722 268.971c.459.308.458.806-.002 1.112-.459.306-1.203.305-1.662-.003-.458-.308-.457-.806.002-1.112.46-.306 1.204-.305 1.662.003ZM73.005 277.892c.458.308.457.806-.002 1.112-.46.306-1.204.305-1.662-.003-.459-.308-.458-.806.002-1.112.459-.307 1.203-.305 1.662.003ZM86.287 286.813c.458.307.457.805-.002 1.112-.46.306-1.204.305-1.662-.003-.459-.308-.458-.806.002-1.112.46-.307 1.203-.305 1.662.003ZM99.57 295.733c.458.308.457.806-.003 1.113-.46.306-1.203.305-1.662-.003-.458-.308-.458-.806.002-1.112.46-.307 1.204-.305 1.662.002ZM112.851 304.654c.459.308.458.806-.002 1.113-.459.306-1.203.305-1.662-.003-.458-.308-.457-.806.002-1.113.46-.306 1.204-.305 1.662.003ZM126.134 313.575c.458.308.457.806-.002 1.112-.46.307-1.204.306-1.663-.002-.458-.308-.457-.806.002-1.113.46-.306 1.204-.305 1.663.003ZM139.416 322.496c.458.308.457.806-.002 1.112-.46.307-1.204.305-1.662-.002-.459-.308-.458-.806.002-1.113.459-.306 1.203-.305 1.662.003ZM152.698 331.417c.459.308.458.806-.002 1.112-.459.307-1.204.305-1.662-.003-.459-.307-.458-.805.002-1.112.459-.306 1.204-.305 1.662.003ZM165.98 340.338c.459.308.458.806-.002 1.112-.459.307-1.203.305-1.662-.003-.458-.308-.457-.806.002-1.112.46-.306 1.204-.305 1.662.003ZM179.262 349.259c.459.308.458.806-.001 1.112-.46.306-1.204.305-1.663-.003-.458-.308-.457-.806.002-1.112.46-.306 1.204-.305 1.662.003ZM192.545 358.18c.458.308.457.806-.002 1.112-.46.306-1.204.305-1.662-.003-.459-.308-.458-.806.002-1.112.459-.306 1.203-.305 1.662.003ZM205.827 367.101c.458.308.458.806-.002 1.112-.459.306-1.204.305-1.662-.003-.459-.308-.458-.806.002-1.112.459-.307 1.203-.305 1.662.003ZM59.753 251.175c.459.308.458.806-.002 1.112-.46.306-1.204.305-1.662-.003-.459-.308-.458-.806.002-1.112.46-.307 1.204-.305 1.662.003ZM73.035 260.096c.459.307.458.805-.002 1.112-.46.306-1.203.305-1.662-.003-.458-.308-.457-.806.002-1.112.46-.307 1.204-.305 1.662.003ZM86.317 269.016c.459.308.458.806-.001 1.113-.46.306-1.204.305-1.663-.003-.458-.308-.457-.806.002-1.112.46-.307 1.204-.305 1.662.002ZM99.6 277.937c.458.308.457.806-.002 1.113-.46.306-1.204.305-1.662-.003-.459-.308-.458-.806.001-1.113.46-.306 1.204-.305 1.663.003ZM112.882 286.858c.458.308.458.806-.002 1.112-.46.307-1.204.306-1.662-.002-.459-.308-.458-.806.002-1.113.459-.306 1.203-.305 1.662.003ZM126.164 295.779c.459.308.458.806-.002 1.112-.459.307-1.203.305-1.662-.002-.458-.308-.458-.806.002-1.113.46-.306 1.204-.305 1.662.003ZM139.446 304.7c.459.308.458.806-.002 1.112-.459.307-1.203.305-1.662-.003-.458-.307-.457-.805.002-1.112.46-.306 1.204-.305 1.662.003ZM152.729 313.621c.458.308.457.806-.002 1.112-.46.307-1.204.305-1.662-.003-.459-.308-.458-.806.001-1.112.46-.306 1.204-.305 1.663.003ZM166.011 322.542c.458.308.457.806-.002 1.112-.46.306-1.204.305-1.662-.003-.459-.308-.458-.806.002-1.112.459-.306 1.203-.305 1.662.003ZM179.293 331.463c.459.308.458.806-.002 1.112-.459.306-1.204.305-1.662-.003-.458-.308-.458-.806.002-1.112.459-.306 1.204-.305 1.662.003ZM192.575 340.384c.459.308.458.806-.002 1.112-.459.306-1.203.305-1.662-.003-.458-.308-.457-.806.002-1.112.46-.307 1.204-.305 1.662.003ZM205.858 349.305c.458.307.457.805-.002 1.112-.46.306-1.204.305-1.663-.003-.458-.308-.457-.806.002-1.112.46-.307 1.204-.305 1.663.003ZM219.14 358.225c.458.308.457.806-.002 1.113-.46.306-1.204.305-1.662-.003-.459-.308-.458-.806.002-1.112.459-.307 1.203-.305 1.662.002ZM73.066 242.299c.458.308.457.806-.002 1.113-.46.306-1.204.305-1.662-.003-.459-.308-.458-.806.002-1.112.46-.307 1.203-.305 1.662.002ZM86.348 251.22c.459.308.458.806-.002 1.113-.46.306-1.204.305-1.662-.003-.459-.308-.458-.806.002-1.113.46-.306 1.204-.305 1.662.003ZM99.63 260.141c.459.308.458.806-.002 1.112-.46.307-1.203.306-1.662-.002-.458-.308-.457-.806.002-1.113.46-.306 1.204-.305 1.662.003ZM112.913 269.062c.458.308.457.806-.002 1.112-.46.307-1.204.305-1.663-.002-.458-.308-.457-.806.002-1.113.46-.306 1.204-.305 1.663.003ZM126.195 277.983c.458.308.457.806-.002 1.112-.46.307-1.204.305-1.662-.003-.459-.307-.458-.805.002-1.112.459-.306 1.203-.305 1.662.003ZM139.477 286.904c.458.308.458.806-.002 1.112-.459.307-1.204.305-1.662-.003-.459-.308-.458-.806.002-1.112.459-.306 1.203-.305 1.662.003ZM152.759 295.825c.459.308.458.806-.002 1.112-.459.306-1.203.305-1.662-.003-.458-.308-.458-.806.002-1.112.46-.306 1.204-.305 1.662.003ZM166.041 304.746c.459.308.458.806-.001 1.112-.46.306-1.204.305-1.663-.003-.458-.308-.457-.806.002-1.112.46-.306 1.204-.305 1.662.003ZM179.324 313.667c.458.308.457.806-.002 1.112-.46.306-1.204.305-1.662-.003-.459-.308-.458-.806.001-1.112.46-.307 1.204-.305 1.663.003ZM192.606 322.588c.458.307.457.805-.002 1.112-.46.306-1.204.305-1.662-.003-.459-.308-.458-.806.002-1.112.459-.307 1.203-.305 1.662.003ZM205.888 331.508c.459.308.458.806-.002 1.113-.459.306-1.204.305-1.662-.003-.458-.308-.458-.806.002-1.112.459-.307 1.204-.306 1.662.002ZM219.17 340.429c.459.308.458.806-.002 1.113-.459.306-1.203.305-1.662-.003-.458-.308-.457-.806.002-1.113.46-.306 1.204-.305 1.662.003ZM232.453 349.35c.458.308.457.806-.002 1.112-.46.307-1.204.306-1.663-.002-.458-.308-.457-.806.002-1.113.46-.306 1.204-.305 1.663.003ZM86.379 233.424c.458.308.457.806-.002 1.112-.46.307-1.204.306-1.662-.002-.459-.308-.458-.806.001-1.113.46-.306 1.204-.305 1.663.003ZM99.66 242.345c.459.308.458.806-.001 1.112-.46.307-1.204.305-1.662-.002-.459-.308-.458-.806.002-1.113.46-.306 1.203-.305 1.662.003ZM112.943 251.266c.459.308.458.806-.002 1.112-.459.307-1.204.305-1.662-.003-.458-.307-.458-.805.002-1.112.459-.306 1.204-.305 1.662.003ZM126.225 260.187c.459.308.458.806-.002 1.112-.459.307-1.203.305-1.662-.003-.458-.308-.457-.806.002-1.112.46-.306 1.204-.305 1.662.003ZM139.508 269.108c.458.308.457.806-.002 1.112-.46.306-1.204.305-1.663-.003-.458-.308-.457-.806.002-1.112.46-.306 1.204-.305 1.663.003ZM152.79 278.029c.458.308.457.806-.002 1.112-.46.306-1.204.305-1.662-.003-.459-.308-.458-.806.002-1.112.459-.306 1.203-.305 1.662.003ZM166.072 286.95c.458.308.458.806-.002 1.112-.459.306-1.204.305-1.662-.003-.459-.308-.458-.806.002-1.112.459-.307 1.204-.305 1.662.003ZM179.354 295.871c.459.307.458.805-.002 1.112-.459.306-1.203.305-1.662-.003-.458-.308-.457-.806.002-1.112.46-.307 1.204-.305 1.662.003ZM192.636 304.791c.459.308.458.806-.001 1.113-.46.306-1.204.305-1.663-.003-.458-.308-.457-.806.002-1.112.46-.307 1.204-.306 1.662.002ZM205.919 313.712c.458.308.457.806-.002 1.113-.46.306-1.204.305-1.662-.003-.459-.308-.458-.806.001-1.113.46-.306 1.204-.305 1.663.003ZM219.201 322.633c.458.308.458.806-.002 1.112-.46.307-1.204.306-1.662-.002-.459-.308-.458-.806.002-1.113.459-.306 1.203-.305 1.662.003ZM232.483 331.554c.459.308.458.806-.002 1.112-.459.307-1.203.305-1.662-.002-.458-.308-.458-.806.002-1.113.459-.306 1.204-.305 1.662.003ZM245.765 340.475c.459.308.458.806-.002 1.112-.459.307-1.203.305-1.662-.003-.458-.308-.457-.805.002-1.112.46-.306 1.204-.305 1.662.003ZM99.691 224.549c.459.308.458.806-.002 1.112-.459.307-1.203.305-1.662-.003-.458-.308-.457-.805.002-1.112.46-.306 1.204-.305 1.662.003ZM112.974 233.47c.458.308.457.806-.002 1.112-.46.307-1.204.305-1.662-.003-.459-.308-.458-.806.001-1.112.46-.306 1.204-.305 1.663.003ZM126.256 242.391c.458.308.458.806-.002 1.112-.46.306-1.204.305-1.662-.003-.459-.308-.458-.806.002-1.112.459-.306 1.203-.305 1.662.003ZM139.538 251.312c.459.308.458.806-.002 1.112-.459.306-1.204.305-1.662-.003-.458-.308-.458-.806.002-1.112.459-.306 1.204-.305 1.662.003ZM152.82 260.233c.459.308.458.806-.002 1.112-.459.306-1.203.305-1.662-.003-.458-.308-.457-.806.002-1.112.46-.307 1.204-.305 1.662.003ZM166.103 269.154c.458.307.457.805-.002 1.112-.46.306-1.204.305-1.663-.003-.458-.308-.457-.806.002-1.112.46-.307 1.204-.305 1.663.003ZM179.385 278.074c.458.308.457.806-.002 1.113-.46.306-1.204.305-1.662-.003-.459-.308-.458-.806.002-1.112.459-.307 1.203-.306 1.662.002ZM192.667 286.995c.459.308.458.806-.002 1.113-.459.306-1.204.305-1.662-.003-.459-.308-.458-.806.002-1.113.459-.306 1.204-.305 1.662.003ZM205.949 295.916c.459.308.458.806-.002 1.112-.459.307-1.203.306-1.662-.002-.458-.308-.457-.806.002-1.113.46-.306 1.204-.305 1.662.003ZM219.231 304.837c.459.308.458.806-.001 1.112-.46.307-1.204.305-1.663-.002-.458-.308-.457-.806.002-1.113.46-.306 1.204-.305 1.662.003ZM232.514 313.758c.458.308.457.806-.002 1.112-.46.307-1.204.305-1.662-.003-.459-.308-.458-.805.002-1.112.459-.306 1.203-.305 1.662.003ZM245.796 322.679c.458.308.458.806-.002 1.112-.459.307-1.204.305-1.662-.003-.459-.308-.458-.806.002-1.112.459-.306 1.203-.305 1.662.003ZM259.078 331.6c.459.308.458.806-.002 1.112-.459.306-1.203.305-1.662-.003-.458-.308-.458-.806.002-1.112.46-.306 1.204-.305 1.662.003ZM113.004 215.674c.459.308.458.806-.002 1.112-.459.306-1.203.305-1.662-.003-.458-.308-.457-.806.002-1.112.46-.306 1.204-.305 1.662.003ZM126.286 224.595c.459.308.458.806-.001 1.112-.46.306-1.204.305-1.663-.003-.458-.308-.457-.806.002-1.112.46-.306 1.204-.305 1.662.003ZM139.569 233.516c.458.308.457.806-.002 1.112-.46.306-1.204.305-1.662-.003-.459-.308-.458-.806.002-1.112.459-.307 1.203-.305 1.662.003ZM152.851 242.437c.458.307.458.805-.002 1.112-.46.306-1.204.305-1.662-.003-.459-.308-.458-.806.002-1.112.459-.307 1.203-.305 1.662.003ZM166.133 251.357c.459.308.458.806-.002 1.113-.459.306-1.203.305-1.662-.003-.458-.308-.458-.806.002-1.112.459-.307 1.204-.306 1.662.002ZM179.415 260.278c.459.308.458.806-.002 1.113-.459.306-1.203.305-1.662-.003-.458-.308-.457-.806.002-1.113.46-.306 1.204-.305 1.662.003ZM192.698 269.199c.458.308.457.806-.002 1.112-.46.307-1.204.306-1.662-.002-.459-.308-.458-.806.001-1.113.46-.306 1.204-.305 1.663.003ZM205.98 278.12c.458.308.457.806-.002 1.112-.46.307-1.204.305-1.662-.002-.459-.308-.458-.806.002-1.113.459-.306 1.203-.305 1.662.003ZM219.262 287.041c.459.308.458.806-.002 1.112-.459.307-1.204.305-1.662-.003-.459-.308-.458-.805.002-1.112.459-.306 1.204-.305 1.662.003ZM232.544 295.962c.459.308.458.806-.002 1.112-.459.307-1.203.305-1.662-.003-.458-.308-.457-.806.002-1.112.46-.306 1.204-.305 1.662.003ZM245.827 304.883c.458.308.457.806-.002 1.112-.46.306-1.204.305-1.663-.003-.458-.308-.457-.806.002-1.112.46-.306 1.204-.305 1.663.003ZM259.109 313.804c.458.308.457.806-.002 1.112-.46.306-1.204.305-1.662-.003-.459-.308-.458-.806.002-1.112.459-.306 1.203-.305 1.662.003ZM272.391 322.725c.458.308.458.806-.002 1.112-.459.306-1.204.305-1.662-.003-.459-.308-.458-.806.002-1.112.459-.307 1.204-.305 1.662.003ZM126.317 206.799c.459.308.458.806-.002 1.112-.459.306-1.204.305-1.662-.003-.459-.308-.458-.806.002-1.112.459-.307 1.204-.305 1.662.003ZM139.599 215.72c.459.307.458.805-.002 1.112-.459.306-1.203.305-1.662-.003-.458-.308-.457-.806.002-1.112.46-.307 1.204-.305 1.662.003ZM152.882 224.64c.458.308.457.806-.002 1.113-.46.306-1.204.305-1.663-.003-.458-.308-.457-.806.002-1.112.46-.307 1.204-.306 1.663.002ZM166.164 233.561c.458.308.457.806-.002 1.113-.46.306-1.204.305-1.662-.003-.459-.308-.458-.806.002-1.113.459-.306 1.203-.305 1.662.003ZM179.446 242.482c.458.308.458.806-.002 1.112-.459.307-1.204.306-1.662-.002-.459-.308-.458-.806.002-1.113.459-.306 1.203-.305 1.662.003ZM192.728 251.403c.459.308.458.806-.002 1.112-.459.307-1.203.305-1.662-.002-.458-.308-.458-.806.002-1.113.46-.306 1.204-.305 1.662.003ZM206.01 260.324c.459.308.458.806-.001 1.112-.46.307-1.204.305-1.663-.003-.458-.308-.457-.805.002-1.112.46-.306 1.204-.305 1.662.003ZM219.293 269.245c.458.308.457.806-.002 1.112-.46.307-1.204.305-1.662-.003-.459-.308-.458-.806.001-1.112.46-.306 1.204-.305 1.663.003ZM232.575 278.166c.458.308.457.806-.002 1.112-.46.306-1.204.305-1.662-.003-.459-.308-.458-.806.002-1.112.459-.306 1.203-.305 1.662.003ZM245.857 287.087c.459.308.458.806-.002 1.112-.459.306-1.204.305-1.662-.003-.458-.308-.458-.806.002-1.112.459-.306 1.204-.305 1.662.003ZM259.139 296.008c.459.308.458.806-.002 1.112-.459.306-1.203.305-1.662-.003-.458-.308-.457-.806.002-1.112.46-.307 1.204-.305 1.662.003ZM272.422 304.929c.458.307.457.805-.002 1.112-.46.306-1.204.305-1.663-.003-.458-.308-.457-.806.002-1.112.46-.307 1.204-.305 1.663.003ZM285.704 313.849c.458.308.457.806-.002 1.113-.46.306-1.204.305-1.662-.003-.459-.308-.458-.806.002-1.112.459-.307 1.203-.306 1.662.002ZM139.63 197.923c.458.308.457.806-.002 1.113-.46.306-1.204.305-1.662-.003-.459-.308-.458-.806.002-1.112.459-.307 1.203-.306 1.662.002ZM152.912 206.844c.459.308.458.806-.002 1.113-.459.306-1.204.305-1.662-.003-.458-.308-.458-.806.002-1.113.459-.306 1.204-.305 1.662.003ZM166.194 215.765c.459.308.458.806-.002 1.112-.459.307-1.203.306-1.662-.002-.458-.308-.457-.806.002-1.113.46-.306 1.204-.305 1.662.003ZM179.477 224.686c.458.308.457.806-.002 1.112-.46.307-1.204.305-1.663-.002-.458-.308-.457-.806.002-1.113.46-.306 1.204-.305 1.663.003ZM192.759 233.607c.458.308.457.806-.002 1.112-.46.307-1.204.305-1.662-.003-.459-.308-.458-.805.002-1.112.459-.306 1.203-.305 1.662.003ZM206.041 242.528c.458.308.458.806-.002 1.112-.459.307-1.204.305-1.662-.003-.459-.308-.458-.806.002-1.112.459-.306 1.204-.305 1.662.003ZM219.323 251.449c.459.308.458.806-.002 1.112-.459.306-1.203.305-1.662-.003-.458-.308-.457-.806.002-1.112.46-.306 1.204-.305 1.662.003ZM232.605 260.37c.459.308.458.806-.001 1.112-.46.306-1.204.305-1.663-.003-.458-.308-.457-.806.002-1.112.46-.306 1.204-.305 1.662.003ZM245.888 269.291c.458.308.457.806-.002 1.112-.46.306-1.204.305-1.662-.003-.459-.308-.458-.806.001-1.112.46-.307 1.204-.305 1.663.003ZM259.17 278.212c.458.307.458.805-.002 1.112-.46.306-1.204.305-1.662-.003-.459-.308-.458-.806.002-1.112.459-.307 1.203-.305 1.662.003ZM272.452 287.132c.459.308.458.806-.002 1.113-.459.306-1.203.305-1.662-.003-.458-.308-.458-.806.002-1.112.459-.307 1.204-.306 1.662.002ZM285.734 296.053c.459.308.458.806-.002 1.113-.459.306-1.203.305-1.662-.003-.458-.308-.457-.806.002-1.113.46-.306 1.204-.305 1.662.003ZM299.017 304.974c.458.308.457.806-.002 1.112-.46.307-1.204.306-1.663-.002-.458-.308-.457-.806.002-1.113.46-.306 1.204-.305 1.663.003ZM152.943 189.048c.458.308.457.806-.002 1.112-.46.307-1.204.306-1.662-.002-.459-.308-.458-.806.001-1.113.46-.306 1.204-.305 1.663.003ZM166.225 197.969c.458.308.458.806-.002 1.112-.46.307-1.204.305-1.662-.002-.459-.308-.458-.806.002-1.113.459-.306 1.203-.305 1.662.003ZM179.507 206.89c.459.308.458.806-.002 1.112-.459.307-1.204.305-1.662-.003-.458-.308-.458-.805.002-1.112.459-.306 1.204-.305 1.662.003ZM192.789 215.811c.459.308.458.806-.002 1.112-.459.307-1.203.305-1.662-.003-.458-.308-.457-.806.002-1.112.46-.306 1.204-.305 1.662.003ZM206.072 224.732c.458.308.457.806-.002 1.112-.46.306-1.204.305-1.663-.003-.458-.308-.457-.806.002-1.112.46-.306 1.204-.305 1.663.003ZM219.354 233.653c.458.308.457.806-.002 1.112-.46.306-1.204.305-1.662-.003-.459-.308-.458-.806.002-1.112.459-.306 1.203-.305 1.662.003ZM232.636 242.574c.459.308.458.806-.002 1.112-.459.306-1.204.305-1.662-.003-.459-.308-.458-.806.002-1.112.459-.307 1.204-.305 1.662.003ZM245.918 251.495c.459.307.458.805-.002 1.112-.459.306-1.203.305-1.662-.003-.458-.308-.457-.806.002-1.112.46-.307 1.204-.305 1.662.003ZM259.2 260.415c.459.308.458.806-.001 1.113-.46.306-1.204.305-1.663-.003-.458-.308-.457-.806.002-1.112.46-.307 1.204-.306 1.662.002ZM272.483 269.336c.458.308.457.806-.002 1.113-.46.306-1.204.305-1.662-.003-.459-.308-.458-.806.002-1.113.459-.306 1.203-.305 1.662.003ZM285.765 278.257c.458.308.458.806-.002 1.112-.459.307-1.204.306-1.662-.002-.459-.308-.458-.806.002-1.113.459-.306 1.203-.305 1.662.003ZM299.047 287.178c.459.308.458.806-.002 1.112-.459.307-1.203.305-1.662-.002-.458-.308-.458-.806.002-1.113.46-.306 1.204-.305 1.662.003ZM312.329 296.099c.459.308.458.806-.002 1.112-.459.307-1.203.305-1.662-.003-.458-.308-.457-.805.002-1.112.46-.306 1.204-.305 1.662.003ZM166.255 180.173c.459.308.458.806-.001 1.112-.46.307-1.204.305-1.663-.003-.458-.308-.457-.805.002-1.112.46-.306 1.204-.305 1.662.003ZM179.538 189.094c.458.308.457.806-.002 1.112-.46.307-1.204.305-1.662-.003-.459-.308-.458-.806.002-1.112.459-.306 1.203-.305 1.662.003ZM192.82 198.015c.458.308.458.806-.002 1.112-.46.306-1.204.305-1.662-.003-.459-.308-.458-.806.002-1.112.459-.306 1.203-.305 1.662.003ZM206.102 206.936c.459.308.458.806-.002 1.112-.459.306-1.203.305-1.662-.003-.458-.308-.458-.806.002-1.112.459-.306 1.204-.305 1.662.003ZM219.384 215.857c.459.308.458.806-.002 1.112-.459.306-1.203.305-1.662-.003-.458-.308-.457-.806.002-1.112.46-.307 1.204-.305 1.662.003ZM232.667 224.778c.458.307.457.805-.002 1.112-.46.306-1.204.305-1.662-.003-.459-.308-.458-.806.001-1.112.46-.307 1.204-.305 1.663.003ZM245.949 233.698c.458.308.457.806-.002 1.113-.46.306-1.204.305-1.662-.003-.459-.308-.458-.806.002-1.112.459-.307 1.203-.306 1.662.002ZM259.231 242.619c.459.308.458.806-.002 1.113-.459.306-1.204.305-1.662-.003-.459-.308-.458-.806.002-1.113.459-.306 1.204-.305 1.662.003ZM272.513 251.54c.459.308.458.806-.002 1.112-.459.307-1.203.306-1.662-.002-.458-.308-.457-.806.002-1.113.46-.306 1.204-.305 1.662.003ZM285.796 260.461c.458.308.457.806-.002 1.112-.46.307-1.204.305-1.663-.002-.458-.308-.457-.806.002-1.113.46-.306 1.204-.305 1.663.003ZM299.078 269.382c.458.308.457.806-.002 1.112-.46.307-1.204.305-1.662-.003-.459-.308-.458-.805.002-1.112.459-.306 1.203-.305 1.662.003ZM312.36 278.303c.458.308.458.806-.002 1.112-.459.307-1.204.305-1.662-.003-.459-.308-.458-.806.002-1.112.459-.306 1.203-.305 1.662.003ZM325.642 287.224c.459.308.458.806-.002 1.112-.459.306-1.203.305-1.662-.003-.458-.308-.458-.806.002-1.112.46-.306 1.204-.305 1.662.003ZM179.568 171.298c.459.308.458.806-.002 1.112-.459.306-1.203.305-1.662-.003-.458-.308-.457-.806.002-1.112.46-.306 1.204-.305 1.662.003ZM192.851 180.219c.458.308.457.806-.002 1.112-.46.306-1.204.305-1.663-.003-.458-.308-.457-.806.002-1.112.46-.306 1.204-.305 1.663.003ZM206.133 189.14c.458.308.457.806-.002 1.112-.46.306-1.204.305-1.662-.003-.459-.308-.458-.806.002-1.112.459-.307 1.203-.305 1.662.003ZM219.415 198.061c.458.307.458.805-.002 1.112-.459.306-1.204.305-1.662-.003-.459-.308-.458-.806.002-1.112.459-.307 1.203-.305 1.662.003ZM232.697 206.981c.459.308.458.806-.002 1.113-.459.306-1.203.305-1.662-.003-.458-.308-.458-.806.002-1.112.46-.307 1.204-.306 1.662.002ZM245.979 215.902c.459.308.458.806-.001 1.113-.46.306-1.204.305-1.663-.003-.458-.308-.457-.806.002-1.113.46-.306 1.204-.305 1.662.003ZM259.262 224.823c.458.308.457.806-.002 1.112-.46.307-1.204.306-1.662-.002-.459-.308-.458-.806.001-1.113.46-.306 1.204-.305 1.663.003ZM272.544 233.744c.458.308.457.806-.002 1.112-.46.307-1.204.305-1.662-.002-.459-.308-.458-.806.002-1.113.459-.306 1.203-.305 1.662.003ZM285.826 242.665c.459.308.458.806-.002 1.112-.459.307-1.204.305-1.662-.003-.458-.308-.458-.805.002-1.112.459-.306 1.204-.305 1.662.003ZM299.108 251.586c.459.308.458.806-.002 1.112-.459.307-1.203.305-1.662-.003-.458-.308-.457-.806.002-1.112.46-.306 1.204-.305 1.662.003ZM312.391 260.507c.458.308.457.806-.002 1.112-.46.306-1.204.305-1.663-.003-.458-.308-.457-.806.002-1.112.46-.306 1.204-.305 1.663.003ZM325.673 269.428c.458.308.457.806-.002 1.112-.46.306-1.204.305-1.662-.003-.459-.308-.458-.806.002-1.112.459-.307 1.203-.305 1.662.003ZM338.955 278.349c.458.308.458.806-.002 1.112-.459.306-1.204.305-1.662-.003-.459-.308-.458-.806.002-1.112.459-.307 1.204-.305 1.662.003ZM192.881 162.423c.459.308.458.806-.002 1.112-.459.306-1.204.305-1.662-.003-.458-.308-.458-.806.002-1.112.459-.307 1.204-.305 1.662.003ZM206.163 171.344c.459.307.458.805-.002 1.112-.459.306-1.203.305-1.662-.003-.458-.308-.457-.806.002-1.112.46-.307 1.204-.305 1.662.003ZM219.446 180.264c.458.308.457.806-.002 1.113-.46.306-1.204.305-1.663-.003-.458-.308-.457-.806.002-1.112.46-.307 1.204-.306 1.663.002ZM232.728 189.185c.458.308.457.806-.002 1.113-.46.306-1.204.305-1.662-.003-.459-.308-.458-.806.002-1.113.459-.306 1.203-.305 1.662.003ZM246.01 198.106c.458.308.458.806-.002 1.112-.459.307-1.204.306-1.662-.002-.459-.308-.458-.806.002-1.113.459-.306 1.204-.305 1.662.003ZM259.292 207.027c.459.308.458.806-.002 1.112-.459.307-1.203.305-1.662-.002-.458-.308-.458-.806.002-1.113.46-.306 1.204-.305 1.662.003ZM272.574 215.948c.459.308.458.806-.001 1.112-.46.307-1.204.305-1.663-.003-.458-.308-.457-.806.002-1.112.46-.306 1.204-.305 1.662.003ZM285.857 224.869c.458.308.457.806-.002 1.112-.46.307-1.204.305-1.662-.003-.459-.308-.458-.806.001-1.112.46-.306 1.204-.305 1.663.003ZM299.139 233.79c.458.308.458.806-.002 1.112-.46.306-1.204.305-1.662-.003-.459-.308-.458-.806.002-1.112.459-.306 1.203-.305 1.662.003ZM312.421 242.711c.459.308.458.806-.002 1.112-.459.306-1.203.305-1.662-.003-.458-.308-.458-.806.002-1.112.459-.307 1.204-.305 1.662.003ZM325.703 251.632c.459.308.458.806-.002 1.112-.459.306-1.203.305-1.662-.003-.458-.308-.457-.806.002-1.112.46-.307 1.204-.305 1.662.003ZM338.986 260.553c.458.307.457.805-.002 1.112-.46.306-1.204.305-1.663-.003-.458-.308-.457-.806.002-1.112.46-.307 1.204-.305 1.663.003ZM352.268 269.473c.458.308.457.806-.002 1.113-.46.306-1.204.305-1.662-.003-.459-.308-.458-.806.002-1.112.459-.307 1.203-.306 1.662.002ZM206.194 153.547c.458.308.458.806-.002 1.113-.46.306-1.204.305-1.662-.003-.459-.308-.458-.806.002-1.112.459-.307 1.203-.306 1.662.002ZM219.476 162.468c.459.308.458.806-.002 1.113-.459.306-1.204.305-1.662-.003-.458-.308-.458-.806.002-1.113.459-.306 1.204-.305 1.662.003ZM232.758 171.389c.459.308.458.806-.002 1.112-.459.307-1.203.306-1.662-.002-.458-.308-.457-.806.002-1.113.46-.306 1.204-.305 1.662.003ZM246.041 180.31c.458.308.457.806-.002 1.112-.46.307-1.204.305-1.663-.002-.458-.308-.457-.806.002-1.113.46-.306 1.204-.305 1.663.003ZM259.323 189.231c.458.308.457.806-.002 1.112-.46.307-1.204.305-1.662-.003-.459-.308-.458-.806.002-1.112.459-.306 1.203-.305 1.662.003ZM272.605 198.152c.458.308.458.806-.002 1.112-.459.307-1.204.305-1.662-.003-.459-.308-.458-.806.002-1.112.459-.306 1.204-.305 1.662.003ZM285.887 207.073c.459.308.458.806-.002 1.112-.459.306-1.203.305-1.662-.003-.458-.308-.457-.806.002-1.112.46-.306 1.204-.305 1.662.003ZM299.169 215.994c.459.308.458.806-.001 1.112-.46.306-1.204.305-1.663-.003-.458-.308-.457-.806.002-1.112.46-.307 1.204-.305 1.662.003ZM312.452 224.915c.458.308.457.806-.002 1.112-.46.306-1.204.305-1.662-.003-.459-.308-.458-.806.002-1.112.459-.307 1.203-.305 1.662.003ZM325.734 233.835c.458.308.458.806-.002 1.113-.46.306-1.204.305-1.662-.003-.459-.308-.458-.806.002-1.112.459-.307 1.203-.305 1.662.002ZM339.016 242.756c.459.308.458.806-.002 1.113-.459.306-1.203.305-1.662-.003-.458-.308-.458-.806.002-1.112.46-.307 1.204-.306 1.662.002ZM352.298 251.677c.459.308.458.806-.002 1.113-.459.306-1.203.305-1.662-.003-.458-.308-.457-.806.002-1.113.46-.306 1.204-.305 1.662.003ZM365.581 260.598c.458.308.457.806-.002 1.112-.46.307-1.204.306-1.662-.002-.459-.308-.458-.806.001-1.113.46-.306 1.204-.305 1.663.003ZM219.507 144.672c.458.308.457.806-.002 1.112-.46.307-1.204.306-1.662-.002-.459-.308-.458-.806.002-1.113.459-.306 1.203-.305 1.662.003ZM232.789 153.593c.458.308.458.806-.002 1.112-.46.307-1.204.305-1.662-.002-.459-.308-.458-.806.002-1.113.459-.306 1.203-.305 1.662.003ZM246.071 162.514c.459.308.458.806-.002 1.112-.459.307-1.203.305-1.662-.003-.458-.308-.458-.806.002-1.112.459-.306 1.204-.305 1.662.003ZM259.353 171.435c.459.308.458.806-.002 1.112-.459.307-1.203.305-1.662-.003-.458-.308-.457-.806.002-1.112.46-.306 1.204-.305 1.662.003ZM272.636 180.356c.458.308.457.806-.002 1.112-.46.306-1.204.305-1.662-.003-.459-.308-.458-.806.001-1.112.46-.306 1.204-.305 1.663.003ZM285.918 189.277c.458.308.457.806-.002 1.112-.46.306-1.204.305-1.662-.003-.459-.308-.458-.806.002-1.112.459-.307 1.203-.305 1.662.003ZM299.2 198.198c.459.308.458.806-.002 1.112-.459.306-1.204.305-1.662-.003-.459-.308-.458-.806.002-1.112.459-.307 1.204-.305 1.662.003ZM312.482 207.118c.459.308.458.806-.002 1.113-.459.306-1.203.305-1.662-.003-.458-.308-.457-.806.002-1.112.46-.307 1.204-.305 1.662.002ZM325.765 216.039c.458.308.457.806-.002 1.113-.46.306-1.204.305-1.663-.003-.458-.308-.457-.806.002-1.112.46-.307 1.204-.306 1.663.002ZM339.047 224.96c.458.308.457.806-.002 1.113-.46.306-1.204.305-1.662-.003-.459-.308-.458-.806.002-1.113.459-.306 1.203-.305 1.662.003ZM352.329 233.881c.458.308.458.806-.002 1.112-.459.307-1.204.306-1.662-.002-.459-.308-.458-.806.002-1.113.459-.306 1.203-.305 1.662.003ZM365.611 242.802c.459.308.458.806-.002 1.112-.459.307-1.203.305-1.662-.003-.458-.307-.458-.805.002-1.112.46-.306 1.204-.305 1.662.003ZM378.893 251.723c.459.308.458.806-.001 1.112-.46.307-1.204.305-1.663-.003-.458-.308-.457-.806.002-1.112.46-.306 1.204-.305 1.662.003Z"/></g><path d="m46.529 292.473.018-.054v-6.524l-.018-.055a1.88 1.88 0 0 1 0-1.239l.018-.054v-.077h.02l.098-.183c.205-.384.545-.758 1.036-1.085l57.477-38.319c.885-.589 2.061-.893 3.255-.891 1.193.002 2.369.31 3.251.902l33.26 22.339c1.006.676 1.377 1.543 1.244 2.328l-.068.403h.178v6.908h-.071l-.014.33c-.029.669-.426 1.373-1.276 1.94L87.459 317.46c-.884.59-2.06.893-3.254.891-1.193-.002-2.369-.31-3.25-.902L47.693 295.11a3.301 3.301 0 0 1-.867-.822l-.104-.146h-.176v-.375l-.018-.054a1.882 1.882 0 0 1 0-1.24Z" fill="#09080D" stroke="#26543F" stroke-width=".691"/><rect x=".831" y=".001" width="76.369" height="47.356" rx="3.645" transform="matrix(.83205 -.5547 .83014 .55756 44.687 284.912)" fill="#208368" fill-opacity=".39" stroke="#208368"/><rect opacity=".2" width="31.388" height="4.837" rx="2" transform="matrix(.83205 -.5547 .83014 .55756 71.037 277.551)" fill="#D9D9D9"/><rect opacity=".1" width="38.684" height="3.066" rx="1.533" transform="matrix(.83205 -.5547 .83014 .55756 91.555 293.956)" fill="#D9D9D9"/><g opacity=".5" clip-path="url(#clip0_1979_204966)"><path fill-rule="evenodd" clip-rule="evenodd" d="M61.313 281.721c-2.076 1.384-2.08 3.633-.009 5.024 1.66 1.114 4.137 1.339 6.128.676.22-.103.178-.226.08-.292-.089-.059-.389-.255-.703-.466-.77.746-1.418.639-1.704.547-.15-.044-.666-.146-.915-.099-.202.041-.563.049-.253-.164.29-.2.779-.155.962-.127.905.156 1.286-.311 1.404-.522-.211-.185-.276-.361-.262-.496-.93.494-2.127.86-3.562-.104-.407-.274-.6-.597-.622-.933-.132-.038-.647-.209-.956-.693 0 0 .216-.276 1.418-.431.216-.257.493-.498.813-.711.32-.213.68-.398 1.066-.542.231-.806.649-.947.649-.947.722.209.975.555 1.031.643.502.016.98.143 1.393.42 1.44.966.88 1.766.137 2.386.253-.012.596.061.947.297.502.337.9.611 1.027.696a.343.343 0 0 0 .436-.053c.988-1.323.658-2.985-.997-4.096-2.072-1.392-5.431-1.397-7.508-.013Z" fill="#F7F7F8"/></g><path d="m86.403 298.176.135.091c.317.213.523.489.587.787.064.298-.018.601-.233.865-.215.264-.552.474-.96.599a3.031 3.031 0 0 1-1.306.095c-.44-.063-.837-.22-1.133-.447-.296-.226-.474-.511-.509-.811-.034-.3.077-.599.317-.853.24-.253.597-.448 1.017-.555" stroke="#42946E" stroke-linecap="round" stroke-linejoin="round"/><path d="m85.36 297.476-.001 1.973-.885-.001" stroke="#42946E" stroke-linecap="round" stroke-linejoin="round"/><path d="m47.529 275.473.018-.054v-6.524l-.018-.055a1.88 1.88 0 0 1 0-1.239l.018-.054v-.077h.02l.098-.183c.205-.384.545-.758 1.036-1.085l57.477-38.319c.885-.589 2.061-.893 3.255-.891 1.193.002 2.369.31 3.251.902l33.26 22.339c1.006.676 1.377 1.543 1.244 2.328l-.068.403h.178v6.908h-.071l-.014.33c-.029.669-.426 1.373-1.276 1.94L88.459 300.46c-.884.59-2.06.893-3.254.891-1.193-.002-2.369-.31-3.25-.902L48.693 278.11a3.301 3.301 0 0 1-.867-.822l-.104-.146h-.176v-.375l-.018-.054a1.882 1.882 0 0 1 0-1.24Z" fill="#09080D" stroke="#26543F" stroke-width=".691"/><rect x=".831" y=".001" width="76.369" height="47.356" rx="3.645" transform="matrix(.83205 -.5547 .83014 .55756 45.687 267.912)" fill="#208368" fill-opacity=".39" stroke="#208368"/><rect opacity=".2" width="31.388" height="4.837" rx="2" transform="matrix(.83205 -.5547 .83014 .55756 72.037 260.551)" fill="#D9D9D9"/><rect opacity=".1" width="38.684" height="3.066" rx="1.533" transform="matrix(.83205 -.5547 .83014 .55756 92.555 276.956)" fill="#D9D9D9"/><g clip-path="url(#clip1_1979_204966)"><path fill-rule="evenodd" clip-rule="evenodd" d="M62.313 264.721c-2.076 1.384-2.08 3.633-.009 5.024 1.66 1.114 4.137 1.339 6.128.676.22-.103.178-.226.08-.292-.089-.059-.389-.255-.703-.466-.77.746-1.418.639-1.704.547-.15-.044-.666-.146-.915-.099-.202.041-.564.049-.253-.164.29-.2.779-.155.962-.127.905.156 1.286-.311 1.404-.522-.211-.185-.276-.361-.262-.496-.93.494-2.127.86-3.562-.104-.407-.274-.6-.597-.622-.933-.132-.038-.647-.209-.956-.693 0 0 .216-.276 1.418-.431.216-.257.493-.498.813-.711.32-.213.68-.398 1.066-.542.231-.806.649-.947.649-.947.722.209.975.555 1.031.643.502.016.98.143 1.393.42 1.44.966.88 1.766.137 2.386.253-.012.596.061.947.297.502.337.9.611 1.027.696a.343.343 0 0 0 .436-.053c.988-1.323.658-2.985-.997-4.096-2.072-1.392-5.431-1.397-7.508-.013Z" fill="#F7F7F8"/></g><path d="m87.403 281.176.135.091c.317.213.523.489.587.787.064.298-.018.601-.233.865-.215.264-.552.474-.96.599a3.031 3.031 0 0 1-1.306.095c-.44-.063-.837-.22-1.133-.447-.296-.226-.474-.511-.509-.811-.034-.3.077-.599.317-.853.24-.253.597-.448 1.017-.555" stroke="#42946E" stroke-linecap="round" stroke-linejoin="round"/><path d="m86.36 280.476-.001 1.973-.885-.001" stroke="#42946E" stroke-linecap="round" stroke-linejoin="round"/><path d="m193.529 285.473.018-.054v-6.524l-.018-.055a1.88 1.88 0 0 1 0-1.239l.018-.054v-.077h.021l.097-.183c.205-.384.545-.758 1.036-1.085l57.477-38.319c.885-.589 2.061-.893 3.255-.891 1.193.002 2.369.31 3.251.902l33.26 22.339c1.006.676 1.377 1.543 1.244 2.328l-.068.403h.178v6.908h-.071l-.014.33c-.029.669-.426 1.373-1.276 1.94l-57.478 38.318c-.884.59-2.06.893-3.254.891-1.193-.002-2.369-.31-3.251-.902l-33.26-22.339a3.276 3.276 0 0 1-.867-.822l-.104-.146h-.176v-.375l-.018-.054a1.877 1.877 0 0 1 0-1.24Z" fill="#09080D" stroke="#26543F" stroke-width=".691"/><rect x=".831" y=".001" width="76.369" height="47.356" rx="3.645" transform="matrix(.83205 -.5547 .83014 .55756 191.687 278.912)" fill="#208368" fill-opacity=".39" stroke="#208368"/><rect opacity=".2" width="31.931" height="4.837" rx="2" transform="matrix(.83205 -.5547 .83014 .55756 217.037 270.551)" fill="#D9D9D9"/><rect opacity=".1" width="25.75" height="3.066" rx="1.533" transform="matrix(.83205 -.5547 .83014 .55756 237.555 286.956)" fill="#D9D9D9"/><g clip-path="url(#clip2_1979_204966)"><path d="M215.419 275.326a.74.74 0 0 0-.552.039.872.872 0 0 0-.231.172c-.131.133-.24.223-.327.284a5.9 5.9 0 0 0-1.055-1.738c-.731-.831-1.316-1.042-1.678-1.072-.959-.08-1.863.136-2.614.625-.4.26-.67.544-.795.703a4.78 4.78 0 0 0-.59.327c-.363.234-.6.497-.71.783-.2.066-.51.178-.832.332-.757.362-1.198.767-1.311 1.204-.137.529.216 1.055 1.05 1.561.265.161 1.173.582 2.123.922.546.196 1.029.338 1.437.423.578.121 1.015.128 1.335.021.18-.06.456-.202.499-.517.072.005.155.002.249-.012.12-.018.247-.052.359-.097.403-.161.686-.376.831-.624l.131.083.183.115c.395.245.717.426 1 .514l.063.021c.155.053.415.142.731.136a1.406 1.406 0 0 0 1-.427c.22-.227.446-.5.35-.872-.092-.352-.451-.734-1.164-1.239l-.052-.044-.034-.029.056-.031.014-.009c.297-.181.585-.453.7-.662.091-.166.347-.718-.166-.892" fill="#000"/><path d="M215.007 275.701c-.672.681-1.016.528-1.016.528-.43-1.485-1.736-2.862-2.469-2.923-2.002-.167-2.994 1.205-3.006 1.231l-.007.006c-.202.088-.41.199-.623.337-.39.252-.574.517-.628.776 0 0-3.833 1.061-1.186 2.67.564.342 4.829 2.212 4.652.906-.065-.477-.08-.907-.08-.907.258-.034.497-.123.674-.266l.002-.019a.796.796 0 0 0 .158.098c.026.323.138.309-.225.676-.367.372.073.305.295.216.268-.107.841-.387.708-.927l.04.045c.161-.011.618.211.964.458.347.247.585.416.847.498.262.081.763.324 1.235-.163.395-.406.377-.766-.051-1.102-.304-.238-.197-.244-.488-.445l-.093-.125c-.393-.336-.583-.402-.206-.563l.081-.046c.238-.145.489-.375.583-.546.202-.368.134-.712-.161-.413" fill="#336791"/><path d="M209.062 276.654c-.087.044-.146.097-.155.138a.045.045 0 0 0 .017.047c.027.024.083.033.115.036a.462.462 0 0 0 .243-.037l.025-.015c.093-.062.105-.166.059-.206-.057-.051-.198-.016-.304.037Zm2.529-1.683c-.059-.031-.166.021-.242.088-.076.067-.122.15-.062.181.046.023.188.021.275-.037a.157.157 0 0 0 .076-.141c-.002-.042-.02-.078-.047-.091" fill="#fff"/><path d="M215.269 275.5c-.129-.044-.265.004-.402.143-.407.413-.663.486-.768.497a5.575 5.575 0 0 0-1.117-1.96 4.161 4.161 0 0 0-.736-.672c-.264-.184-.508-.286-.723-.304-.868-.072-1.689.126-2.374.573-.471.307-.746.65-.789.723-.2.081-.4.181-.594.306-.355.229-.574.487-.654.768a6.951 6.951 0 0 0-.926.361c-.689.332-1.089.695-1.188 1.08-.118.459.205.924.958 1.382.254.154 1.135.561 2.064.893 1.222.438 2.064.587 2.5.442a.63.63 0 0 0 .153-.073c.12-.08.213-.214.182-.438a9.916 9.916 0 0 1-.074-.822 1.56 1.56 0 0 0 .526-.202l.013.007c.004.036.01.073.017.109.026.152.032.184-.225.444-.072.074-.266.27-.099.387.182.127.553-.015.594-.031.145-.058.271-.123.378-.194.259-.173.402-.382.42-.614.659.45 1.341.871 1.62.952.229.066.788.227 1.293-.11.074-.049.147-.109.218-.182.414-.427.411-.736-.013-1.14-.227-.215-.8-.709-1.112-.97.106-.037.221-.099.333-.173.235-.157.455-.37.547-.536.102-.186.229-.561-.022-.646Zm-3.626-.755c.101.07.181.143.264.219.089.082.182.166.31.258.125.09.275.169.42.245.294.155.596.315.736.577a2.307 2.307 0 0 1-.169-.039c-.053-.015-.148-.033-.278-.058-.508-.098-1.698-.326-1.791-.681-.028-.106.042-.28.508-.521Zm-2.258-.844c.621-.396 1.328-.564 2.102-.5.593.05 1.82 1.258 2.294 2.689l-.057-.004-.024-.002c-.139-.381-.531-.588-.879-.772-.143-.076-.278-.147-.388-.225-.116-.083-.203-.163-.287-.24a2.36 2.36 0 0 0-.366-.29.2.2 0 0 0-.052-.04c-.157-.087-.75-.266-1.472-.303a4.754 4.754 0 0 0-1.424.132c.124-.126.308-.289.553-.445Zm1.175 5.337c.034.248-.121.299-.172.316-.331.11-1.143-.05-2.229-.438-.939-.337-1.791-.737-2.004-.866-.673-.409-.964-.814-.865-1.201.162-.631 1.304-1.079 1.787-1.243v.021c.004.804 1.049 1.487 1.114 1.529.024.016.061.038.111.068.184.109.525.313.84.593.292.26.729.413 1.2.421.048 0 .096 0 .144-.003.007.142.027.454.074.803Zm-.212-.999c-.379-.006-.732-.13-.97-.341a5.706 5.706 0 0 0-.879-.622l-.069-.041c.01-.111.199-.526.554-.675a.637.637 0 0 1 .52.02c.971.421 1.154.745 1.301 1.005.03.053.059.104.092.153l.026.039c.066.097.128.187.198.264-.198.132-.475.203-.773.198Zm1.107.703a.842.842 0 0 1-.2.053.649.649 0 0 1 .105-.129c.302-.305.305-.381.271-.576a1.478 1.478 0 0 1-.022-.16c-.008-.097.036-.11.117-.132a.447.447 0 0 1 .249.022c.039.014.106.046.118.097.107.429-.288.686-.638.825Zm3.832-.085c-.365.376-.766.327-1.145.218-.244-.071-1.066-.577-1.91-1.177a.829.829 0 0 0-.619-.083.477.477 0 0 0-.238.124 2.15 2.15 0 0 1-.182-.244l-.026-.039a1.696 1.696 0 0 1-.085-.141c-.154-.272-.364-.645-1.417-1.101-.395-.171-.788-.121-1.106.141a1.354 1.354 0 0 0-.376.502c-.3-.238-.808-.716-.81-1.231-.001-.325.2-.62.599-.877.785-.507 1.676-.571 2.286-.536.525.03.941.135 1.148.204-.432.234-.621.464-.563.683.125.477 1.392.72 2.002.837.111.022.208.04.245.051.243.068.45.083.601.095l.128.011c-.085.102-.219.297.195.549.182.143.996.839 1.266 1.096.358.34.359.555.007.918Zm-.275-2.78c-.065.119-.226.282-.409.417-.203.149-.346.198-.392.201-.257-.157-.191-.235-.122-.318l.031-.038.051-.006c.284-.038.602-.233.944-.58l.004-.004a.795.795 0 0 1-.107.328Z" fill="#fff"/></g><path d="m232.403 291.176.135.091c.317.213.523.489.587.787.064.298-.018.601-.233.865-.215.264-.552.474-.961.599a3.03 3.03 0 0 1-1.306.095c-.439-.063-.836-.22-1.132-.447-.296-.226-.474-.511-.509-.811-.034-.3.077-.599.317-.853.24-.253.597-.448 1.017-.555" stroke="#42946E" stroke-linecap="round" stroke-linejoin="round"/><path d="m231.361 290.476-.002 1.973-.885-.001" stroke="#42946E" stroke-linecap="round" stroke-linejoin="round"/></g><path d="M249 260v-98.5" stroke="url(#paint0_linear_1979_204966)" stroke-width="2.5" stroke-linecap="round"/><path opacity=".8" d="M103 251v-78" stroke="url(#paint1_linear_1979_204966)" stroke-width="2.5" stroke-linecap="round"/><rect width="259.74" height="200.332" rx="4.145" transform="matrix(.83205 -.5547 .83014 .55756 .357 152.711)" fill="#09080D" fill-opacity=".8"/><rect x=".831" y=".001" width="258.74" height="199.332" rx="3.645" transform="matrix(.83205 -.5547 .83014 .55756 .495 153.173)" stroke="#fff" stroke-opacity=".1"/><rect width="259.74" height="200.332" rx="4.145" transform="matrix(.83205 -.5547 .83014 .55756 .357 144.112)" fill="#0B0A0F" fill-opacity=".3"/><rect x=".831" y=".001" width="258.74" height="199.332" rx="3.645" transform="matrix(.83205 -.5547 .83014 .55756 .495 144.574)" stroke="#fff" stroke-opacity=".25"/><g opacity=".5" fill="#33323E"><path d="M6.502 145.676c.458.308.457.806-.002 1.112-.46.307-1.204.305-1.662-.003-.459-.308-.458-.806.002-1.112.46-.306 1.203-.305 1.662.003ZM19.784 154.597c.459.308.458.806-.002 1.112-.46.306-1.204.305-1.662-.003-.459-.308-.458-.806.002-1.112.46-.306 1.204-.305 1.662.003ZM33.066 163.518c.459.308.458.806-.002 1.112-.46.306-1.203.305-1.662-.003-.458-.308-.457-.806.002-1.112.46-.306 1.204-.305 1.662.003ZM46.349 172.439c.458.308.457.806-.002 1.112-.46.306-1.204.305-1.663-.003-.458-.308-.457-.806.002-1.112.46-.307 1.204-.305 1.663.003ZM59.63 181.36c.46.307.458.805-.001 1.112-.46.306-1.204.305-1.662-.003-.459-.308-.458-.806.002-1.112.46-.307 1.203-.305 1.662.003ZM72.913 190.28c.458.308.458.806-.002 1.113-.46.306-1.204.305-1.662-.003-.459-.308-.458-.806.002-1.112.46-.307 1.203-.305 1.662.002ZM86.195 199.201c.459.308.458.806-.002 1.113-.46.306-1.203.305-1.662-.003-.458-.308-.458-.806.002-1.113.46-.306 1.204-.305 1.662.003ZM99.477 208.122c.459.308.458.806-.002 1.112-.459.307-1.203.306-1.662-.002-.458-.308-.457-.806.002-1.113.46-.306 1.204-.305 1.662.003ZM112.76 217.043c.458.308.457.806-.002 1.112-.46.307-1.204.305-1.662-.002-.459-.308-.458-.806.001-1.113.46-.306 1.204-.305 1.663.003ZM126.042 225.964c.458.308.457.806-.002 1.112-.46.307-1.204.305-1.662-.003-.459-.307-.458-.805.002-1.112.459-.306 1.203-.305 1.662.003ZM139.324 234.885c.459.308.458.806-.002 1.112-.459.307-1.204.305-1.662-.003-.458-.308-.458-.806.002-1.112.459-.306 1.204-.305 1.662.003ZM152.606 243.806c.459.308.458.806-.002 1.112-.459.306-1.203.305-1.662-.003-.458-.308-.457-.806.002-1.112.46-.306 1.204-.305 1.662.003ZM165.889 252.727c.458.308.457.806-.002 1.112-.46.306-1.204.305-1.663-.003-.458-.308-.457-.806.002-1.112.46-.306 1.204-.305 1.663.003ZM19.815 136.801c.458.308.457.806-.002 1.112-.46.306-1.204.305-1.662-.003-.459-.308-.458-.806.001-1.112.46-.306 1.204-.305 1.663.003ZM33.097 145.722c.458.308.457.806-.002 1.112-.46.306-1.204.305-1.662-.003-.459-.308-.458-.806.002-1.112.46-.307 1.203-.305 1.662.003ZM46.38 154.643c.457.307.457.805-.003 1.112-.46.306-1.204.305-1.662-.003-.459-.308-.458-.806.002-1.112.46-.307 1.204-.305 1.662.003ZM59.661 163.563c.459.308.458.806-.002 1.113-.46.306-1.203.305-1.662-.003-.458-.308-.457-.806.002-1.112.46-.307 1.204-.305 1.662.002ZM72.944 172.484c.458.308.457.806-.002 1.113-.46.306-1.204.305-1.663-.003-.458-.308-.457-.806.002-1.113.46-.306 1.204-.305 1.662.003ZM86.226 181.405c.458.308.457.806-.002 1.112-.46.307-1.204.306-1.662-.002-.459-.308-.458-.806.002-1.113.46-.306 1.203-.305 1.662.003ZM99.508 190.326c.459.308.458.806-.002 1.112-.46.307-1.204.305-1.662-.002-.459-.308-.458-.806.002-1.113.46-.306 1.203-.305 1.662.003ZM112.79 199.247c.459.308.458.806-.002 1.112-.459.307-1.203.305-1.662-.003-.458-.307-.458-.805.002-1.112.46-.306 1.204-.305 1.662.003ZM126.072 208.168c.459.308.458.806-.001 1.112-.46.307-1.204.305-1.663-.003-.458-.308-.457-.806.002-1.112.46-.306 1.204-.305 1.662.003ZM139.355 217.089c.458.308.457.806-.002 1.112-.46.306-1.204.305-1.662-.003-.459-.308-.458-.806.001-1.112.46-.306 1.204-.305 1.663.003ZM152.637 226.01c.458.308.458.806-.002 1.112-.46.306-1.204.305-1.662-.003-.459-.308-.458-.806.002-1.112.459-.306 1.203-.305 1.662.003ZM165.919 234.931c.459.308.458.806-.002 1.112-.459.306-1.204.305-1.662-.003-.458-.308-.458-.806.002-1.112.459-.307 1.204-.305 1.662.003ZM179.201 243.852c.459.307.458.805-.002 1.112-.459.306-1.203.305-1.662-.003-.458-.308-.457-.806.002-1.112.46-.307 1.204-.305 1.662.003ZM33.127 127.926c.459.307.458.805-.002 1.112-.459.306-1.203.305-1.662-.003-.458-.308-.457-.806.002-1.112.46-.307 1.204-.305 1.662.003ZM46.41 136.846c.458.308.457.806-.002 1.113-.46.306-1.204.305-1.663-.003-.458-.308-.457-.806.003-1.112.459-.307 1.203-.305 1.662.002ZM59.692 145.767c.458.308.458.806-.002 1.113-.46.306-1.204.305-1.662-.003-.459-.308-.458-.806.002-1.113.46-.306 1.203-.305 1.662.003ZM72.974 154.688c.459.308.458.806-.002 1.112-.46.307-1.203.306-1.662-.002-.459-.308-.458-.806.002-1.113.46-.306 1.204-.305 1.662.003ZM86.256 163.609c.459.308.458.806-.002 1.112-.46.307-1.203.305-1.662-.002-.458-.308-.457-.806.002-1.113.46-.306 1.204-.305 1.662.003ZM99.539 172.53c.458.308.457.806-.002 1.112-.46.307-1.204.305-1.663-.003-.458-.307-.457-.805.002-1.112.46-.306 1.204-.305 1.663.003ZM112.821 181.451c.458.308.457.806-.002 1.112-.46.307-1.204.305-1.662-.003-.459-.308-.458-.806.002-1.112.459-.306 1.203-.305 1.662.003ZM126.103 190.372c.458.308.458.806-.002 1.112-.459.306-1.204.305-1.662-.003-.459-.308-.458-.806.002-1.112.459-.306 1.204-.305 1.662.003ZM139.385 199.293c.459.308.458.806-.002 1.112-.459.306-1.203.305-1.662-.003-.458-.308-.457-.806.002-1.112.46-.306 1.204-.305 1.662.003ZM152.667 208.214c.459.308.458.806-.001 1.112-.46.306-1.204.305-1.663-.003-.458-.308-.457-.806.002-1.112.46-.307 1.204-.305 1.662.003ZM165.95 217.135c.458.307.457.805-.002 1.112-.46.306-1.204.305-1.662-.003-.459-.308-.458-.806.002-1.112.459-.307 1.203-.305 1.662.003ZM179.232 226.055c.458.308.458.806-.002 1.113-.46.306-1.204.305-1.662-.003-.459-.308-.458-.806.002-1.112.459-.307 1.203-.306 1.662.002ZM192.514 234.976c.459.308.458.806-.002 1.113-.459.306-1.203.305-1.662-.003-.458-.308-.458-.806.002-1.113.459-.306 1.204-.305 1.662.003ZM46.44 119.05c.459.308.458.806-.002 1.113-.46.306-1.203.305-1.662-.003-.458-.308-.458-.806.002-1.113.46-.306 1.204-.305 1.662.003ZM59.722 127.971c.459.308.458.806-.002 1.112-.459.307-1.203.306-1.662-.002-.458-.308-.457-.806.002-1.113.46-.306 1.204-.305 1.662.003ZM73.005 136.892c.458.308.457.806-.002 1.112-.46.307-1.204.305-1.662-.002-.459-.308-.458-.806.002-1.113.459-.306 1.203-.305 1.662.003ZM86.287 145.813c.458.308.457.806-.002 1.112-.46.307-1.204.305-1.662-.003-.459-.308-.458-.805.002-1.112.46-.306 1.203-.305 1.662.003ZM99.57 154.734c.458.308.457.806-.003 1.112-.46.307-1.203.305-1.662-.003-.458-.308-.458-.806.002-1.112.46-.306 1.204-.305 1.662.003ZM112.851 163.655c.459.308.458.806-.002 1.112-.459.306-1.203.305-1.662-.003-.458-.308-.457-.806.002-1.112.46-.306 1.204-.305 1.662.003ZM126.134 172.576c.458.308.457.806-.002 1.112-.46.306-1.204.305-1.663-.003-.458-.308-.457-.806.002-1.112.46-.306 1.204-.305 1.663.003ZM139.416 181.497c.458.308.457.806-.002 1.112-.46.306-1.204.305-1.662-.003-.459-.308-.458-.806.002-1.112.459-.307 1.203-.305 1.662.003ZM152.698 190.418c.459.307.458.805-.002 1.112-.459.306-1.204.305-1.662-.003-.459-.308-.458-.806.002-1.112.459-.307 1.204-.305 1.662.003ZM165.98 199.338c.459.308.458.806-.002 1.113-.459.306-1.203.305-1.662-.003-.458-.308-.457-.806.002-1.112.46-.307 1.204-.306 1.662.002ZM179.262 208.259c.459.308.458.806-.001 1.113-.46.306-1.204.305-1.663-.003-.458-.308-.457-.806.002-1.113.46-.306 1.204-.305 1.662.003ZM192.545 217.18c.458.308.457.806-.002 1.112-.46.307-1.204.306-1.662-.002-.459-.308-.458-.806.002-1.113.459-.306 1.203-.305 1.662.003ZM205.827 226.101c.458.308.458.806-.002 1.112-.459.307-1.204.305-1.662-.002-.459-.308-.458-.806.002-1.113.459-.306 1.203-.305 1.662.003ZM59.753 110.175c.459.308.458.806-.002 1.112-.46.307-1.204.305-1.662-.002-.459-.308-.458-.806.002-1.113.46-.306 1.204-.305 1.662.003ZM73.035 119.096c.459.308.458.806-.002 1.112-.46.307-1.203.305-1.662-.003-.458-.308-.457-.805.002-1.112.46-.306 1.204-.305 1.662.003ZM86.317 128.017c.459.308.458.806-.001 1.112-.46.307-1.204.305-1.663-.003-.458-.308-.457-.806.002-1.112.46-.306 1.204-.305 1.662.003ZM99.6 136.938c.458.308.457.806-.002 1.112-.46.306-1.204.305-1.662-.003-.459-.308-.458-.806.001-1.112.46-.306 1.204-.305 1.663.003ZM112.882 145.859c.458.308.458.806-.002 1.112-.46.306-1.204.305-1.662-.003-.459-.308-.458-.806.002-1.112.459-.306 1.203-.305 1.662.003ZM126.164 154.78c.459.308.458.806-.002 1.112-.459.306-1.203.305-1.662-.003-.458-.308-.458-.806.002-1.112.46-.307 1.204-.305 1.662.003ZM139.446 163.701c.459.307.458.805-.002 1.112-.459.306-1.203.305-1.662-.003-.458-.308-.457-.806.002-1.112.46-.307 1.204-.305 1.662.003ZM152.729 172.621c.458.308.457.806-.002 1.113-.46.306-1.204.305-1.662-.003-.459-.308-.458-.806.001-1.112.46-.307 1.204-.306 1.663.002ZM166.011 181.542c.458.308.457.806-.002 1.113-.46.306-1.204.305-1.662-.003-.459-.308-.458-.806.002-1.113.459-.306 1.203-.305 1.662.003ZM179.293 190.463c.459.308.458.806-.002 1.112-.459.307-1.204.306-1.662-.002-.458-.308-.458-.806.002-1.113.459-.306 1.204-.305 1.662.003ZM192.575 199.384c.459.308.458.806-.002 1.112-.459.307-1.203.305-1.662-.002-.458-.308-.457-.806.002-1.113.46-.306 1.204-.305 1.662.003ZM205.858 208.305c.458.308.457.806-.002 1.112-.46.307-1.204.305-1.663-.003-.458-.308-.457-.805.002-1.112.46-.306 1.204-.305 1.663.003ZM219.14 217.226c.458.308.457.806-.002 1.112-.46.307-1.204.305-1.662-.003-.459-.308-.458-.806.002-1.112.459-.306 1.203-.305 1.662.003ZM73.066 101.3c.458.308.457.806-.002 1.112-.46.307-1.204.305-1.662-.003-.459-.308-.458-.806.002-1.112.46-.306 1.203-.305 1.662.003ZM86.348 110.221c.459.308.458.806-.002 1.112-.46.306-1.204.305-1.662-.003-.459-.308-.458-.806.002-1.112.46-.306 1.204-.305 1.662.003ZM99.63 119.142c.459.308.458.806-.002 1.112-.46.306-1.203.305-1.662-.003-.458-.308-.457-.806.002-1.112.46-.306 1.204-.305 1.662.003ZM112.913 128.063c.458.308.457.806-.002 1.112-.46.306-1.204.305-1.663-.003-.458-.308-.457-.806.002-1.112.46-.307 1.204-.305 1.663.003ZM126.195 136.984c.458.307.457.805-.002 1.112-.46.306-1.204.305-1.662-.003-.459-.308-.458-.806.002-1.112.459-.307 1.203-.305 1.662.003ZM139.477 145.904c.458.308.458.806-.002 1.113-.459.306-1.204.305-1.662-.003-.459-.308-.458-.806.002-1.112.459-.307 1.203-.306 1.662.002ZM152.759 154.825c.459.308.458.806-.002 1.113-.459.306-1.203.305-1.662-.003-.458-.308-.458-.806.002-1.113.46-.306 1.204-.305 1.662.003ZM166.041 163.746c.459.308.458.806-.001 1.112-.46.307-1.204.306-1.663-.002-.458-.308-.457-.806.002-1.113.46-.306 1.204-.305 1.662.003ZM179.324 172.667c.458.308.457.806-.002 1.112-.46.307-1.204.305-1.662-.002-.459-.308-.458-.806.001-1.113.46-.306 1.204-.305 1.663.003ZM192.606 181.588c.458.308.457.806-.002 1.112-.46.307-1.204.305-1.662-.003-.459-.308-.458-.805.002-1.112.459-.306 1.203-.305 1.662.003ZM205.888 190.509c.459.308.458.806-.002 1.112-.459.307-1.204.305-1.662-.003-.458-.308-.458-.806.002-1.112.459-.306 1.204-.305 1.662.003ZM219.17 199.43c.459.308.458.806-.002 1.112-.459.306-1.203.305-1.662-.003-.458-.308-.457-.806.002-1.112.46-.306 1.204-.305 1.662.003ZM232.453 208.351c.458.308.457.806-.002 1.112-.46.306-1.204.305-1.663-.003-.458-.308-.457-.806.002-1.112.46-.306 1.204-.305 1.663.003ZM86.379 92.425c.458.308.457.806-.002 1.112-.46.306-1.204.305-1.662-.003-.459-.308-.458-.806.001-1.112.46-.306 1.204-.305 1.663.003ZM99.66 101.346c.459.308.458.806-.001 1.112-.46.306-1.204.305-1.662-.003-.459-.308-.458-.806.002-1.112.46-.307 1.203-.305 1.662.003ZM112.943 110.267c.459.307.458.805-.002 1.112-.459.306-1.204.305-1.662-.003-.458-.308-.458-.806.002-1.112.459-.307 1.204-.305 1.662.003ZM126.225 119.187c.459.308.458.806-.002 1.113-.459.306-1.203.305-1.662-.003-.458-.308-.457-.806.002-1.112.46-.307 1.204-.306 1.662.002ZM139.508 128.108c.458.308.457.806-.002 1.113-.46.306-1.204.305-1.663-.003-.458-.308-.457-.806.002-1.113.46-.306 1.204-.305 1.663.003ZM152.79 137.029c.458.308.457.806-.002 1.112-.46.307-1.204.306-1.662-.002-.459-.308-.458-.806.002-1.113.459-.306 1.203-.305 1.662.003ZM166.072 145.95c.458.308.458.806-.002 1.112-.459.307-1.204.305-1.662-.002-.459-.308-.458-.806.002-1.113.459-.306 1.204-.305 1.662.003ZM179.354 154.871c.459.308.458.806-.002 1.112-.459.307-1.203.305-1.662-.003-.458-.308-.457-.805.002-1.112.46-.306 1.204-.305 1.662.003ZM192.636 163.792c.459.308.458.806-.001 1.112-.46.307-1.204.305-1.663-.003-.458-.308-.457-.806.002-1.112.46-.306 1.204-.305 1.662.003ZM205.919 172.713c.458.308.457.806-.002 1.112-.46.306-1.204.305-1.662-.003-.459-.308-.458-.806.001-1.112.46-.306 1.204-.305 1.663.003ZM219.201 181.634c.458.308.458.806-.002 1.112-.46.306-1.204.305-1.662-.003-.459-.308-.458-.806.002-1.112.459-.306 1.203-.305 1.662.003ZM232.483 190.555c.459.308.458.806-.002 1.112-.459.306-1.203.305-1.662-.003-.458-.308-.458-.806.002-1.112.459-.307 1.204-.305 1.662.003ZM245.765 199.476c.459.307.458.805-.002 1.112-.459.306-1.203.305-1.662-.003-.458-.308-.457-.806.002-1.112.46-.307 1.204-.305 1.662.003ZM99.691 83.55c.459.307.458.805-.002 1.112-.459.306-1.203.305-1.662-.003-.458-.308-.457-.806.002-1.112.46-.307 1.204-.305 1.662.002ZM112.974 92.47c.458.308.457.806-.002 1.113-.46.306-1.204.305-1.662-.003-.459-.308-.458-.806.001-1.112.46-.307 1.204-.306 1.663.002ZM126.256 101.391c.458.308.458.806-.002 1.113-.46.306-1.204.305-1.662-.003-.459-.308-.458-.806.002-1.113.459-.306 1.203-.305 1.662.003ZM139.538 110.312c.459.308.458.806-.002 1.112-.459.307-1.204.306-1.662-.002-.458-.308-.458-.806.002-1.113.459-.306 1.204-.305 1.662.003ZM152.82 119.233c.459.308.458.806-.002 1.112-.459.307-1.203.305-1.662-.002-.458-.308-.457-.806.002-1.113.46-.306 1.204-.305 1.662.003ZM166.103 128.154c.458.308.457.806-.002 1.112-.46.307-1.204.305-1.663-.003-.458-.308-.457-.805.002-1.112.46-.306 1.204-.305 1.663.003ZM179.385 137.075c.458.308.457.806-.002 1.112-.46.307-1.204.305-1.662-.003-.459-.308-.458-.806.002-1.112.459-.306 1.203-.305 1.662.003ZM192.667 145.996c.459.308.458.806-.002 1.112-.459.306-1.204.305-1.662-.003-.459-.308-.458-.806.002-1.112.459-.306 1.204-.305 1.662.003ZM205.949 154.917c.459.308.458.806-.002 1.112-.459.306-1.203.305-1.662-.003-.458-.308-.457-.806.002-1.112.46-.306 1.204-.305 1.662.003ZM219.231 163.838c.459.308.458.806-.001 1.112-.46.306-1.204.305-1.663-.003-.458-.308-.457-.806.002-1.112.46-.307 1.204-.305 1.662.003ZM232.514 172.759c.458.307.457.805-.002 1.112-.46.306-1.204.305-1.662-.003-.459-.308-.458-.806.002-1.112.459-.307 1.203-.305 1.662.003ZM245.796 181.679c.458.308.458.806-.002 1.113-.459.306-1.204.305-1.662-.003-.459-.308-.458-.806.002-1.112.459-.307 1.203-.306 1.662.002ZM259.078 190.6c.459.308.458.806-.002 1.113-.459.306-1.203.305-1.662-.003-.458-.308-.458-.806.002-1.113.46-.306 1.204-.305 1.662.003ZM113.004 74.674c.459.308.458.806-.002 1.113-.459.306-1.203.305-1.662-.003-.458-.308-.457-.806.002-1.113.46-.306 1.204-.305 1.662.003ZM126.286 83.595c.459.308.458.806-.001 1.112-.46.307-1.204.306-1.663-.002-.458-.308-.457-.806.002-1.113.46-.306 1.204-.305 1.662.003ZM139.569 92.516c.458.308.457.806-.002 1.112-.46.307-1.204.305-1.662-.002-.459-.308-.458-.806.002-1.113.459-.306 1.203-.305 1.662.003ZM152.851 101.437c.458.308.458.806-.002 1.112-.46.307-1.204.305-1.662-.003-.459-.308-.458-.805.002-1.112.459-.306 1.203-.305 1.662.003ZM166.133 110.358c.459.308.458.806-.002 1.112-.459.307-1.203.305-1.662-.003-.458-.308-.458-.806.002-1.112.459-.306 1.204-.305 1.662.003ZM179.415 119.279c.459.308.458.806-.002 1.112-.459.306-1.203.305-1.662-.003-.458-.308-.457-.806.002-1.112.46-.306 1.204-.305 1.662.003ZM192.698 128.2c.458.308.457.806-.002 1.112-.46.306-1.204.305-1.662-.003-.459-.308-.458-.806.001-1.112.46-.306 1.204-.305 1.663.003ZM205.98 137.121c.458.308.457.806-.002 1.112-.46.306-1.204.305-1.662-.003-.459-.308-.458-.806.002-1.112.459-.307 1.203-.305 1.662.003ZM219.262 146.042c.459.307.458.805-.002 1.112-.459.306-1.204.305-1.662-.003-.459-.308-.458-.806.002-1.112.459-.307 1.204-.305 1.662.003ZM232.544 154.962c.459.308.458.806-.002 1.113-.459.306-1.203.305-1.662-.003-.458-.308-.457-.806.002-1.112.46-.307 1.204-.306 1.662.002ZM245.827 163.883c.458.308.457.806-.002 1.113-.46.306-1.204.305-1.663-.003-.458-.308-.457-.806.002-1.113.46-.306 1.204-.305 1.663.003ZM259.109 172.804c.458.308.457.806-.002 1.112-.46.307-1.204.306-1.662-.002-.459-.308-.458-.806.002-1.113.459-.306 1.203-.305 1.662.003ZM272.391 181.725c.458.308.458.806-.002 1.112-.459.307-1.204.305-1.662-.002-.459-.308-.458-.806.002-1.113.459-.306 1.204-.305 1.662.003ZM126.317 65.8c.459.307.458.805-.002 1.111-.459.307-1.204.305-1.662-.002-.459-.308-.458-.806.002-1.113.459-.306 1.204-.305 1.662.003ZM139.599 74.72c.459.308.458.806-.002 1.112-.459.307-1.203.305-1.662-.003-.458-.307-.457-.805.002-1.112.46-.306 1.204-.305 1.662.003ZM152.882 83.64c.458.309.457.807-.002 1.113-.46.306-1.204.305-1.663-.003-.458-.308-.457-.806.002-1.112.46-.306 1.204-.305 1.663.003ZM166.164 92.562c.458.308.457.806-.002 1.112-.46.306-1.204.305-1.662-.003-.459-.308-.458-.806.002-1.112.459-.306 1.203-.305 1.662.003ZM179.446 101.483c.458.308.458.806-.002 1.112-.459.306-1.204.305-1.662-.003-.459-.308-.458-.806.002-1.112.459-.307 1.203-.305 1.662.003ZM192.728 110.404c.459.308.458.806-.002 1.112-.459.306-1.203.305-1.662-.003-.458-.308-.458-.806.002-1.112.46-.307 1.204-.305 1.662.003ZM206.01 119.325c.459.307.458.805-.001 1.112-.46.306-1.204.305-1.663-.003-.458-.308-.457-.806.002-1.112.46-.307 1.204-.305 1.662.003ZM219.293 128.245c.458.308.457.806-.002 1.113-.46.306-1.204.305-1.662-.003-.459-.308-.458-.806.001-1.112.46-.307 1.204-.306 1.663.002ZM232.575 137.166c.458.308.457.806-.002 1.113-.46.306-1.204.305-1.662-.003-.459-.308-.458-.806.002-1.113.459-.306 1.203-.305 1.662.003ZM245.857 146.087c.459.308.458.806-.002 1.112-.459.307-1.204.306-1.662-.002-.458-.308-.458-.806.002-1.113.459-.306 1.204-.305 1.662.003ZM259.139 155.008c.459.308.458.806-.002 1.112-.459.307-1.203.305-1.662-.002-.458-.308-.457-.806.002-1.113.46-.306 1.204-.305 1.662.003ZM272.422 163.929c.458.308.457.806-.002 1.112-.46.307-1.204.305-1.663-.003-.458-.308-.457-.805.002-1.112.46-.306 1.204-.305 1.663.003ZM285.704 172.85c.458.308.457.806-.002 1.112-.46.307-1.204.305-1.662-.003-.459-.308-.458-.806.002-1.112.459-.306 1.203-.305 1.662.003ZM139.63 56.924c.458.308.457.806-.002 1.112-.46.306-1.204.305-1.662-.003-.459-.308-.458-.806.002-1.112.459-.306 1.203-.305 1.662.003ZM152.912 65.845c.459.308.458.806-.002 1.112-.459.306-1.204.305-1.662-.003-.458-.308-.458-.806.002-1.112.459-.306 1.204-.305 1.662.003ZM166.194 74.766c.459.308.458.806-.002 1.112-.459.306-1.203.305-1.662-.003-.458-.308-.457-.806.002-1.112.46-.306 1.204-.305 1.662.003ZM179.477 83.687c.458.308.457.806-.002 1.112-.46.306-1.204.305-1.663-.003-.458-.308-.457-.806.002-1.112.46-.307 1.204-.305 1.663.003ZM192.759 92.608c.458.307.457.805-.002 1.112-.46.306-1.204.305-1.662-.003-.459-.308-.458-.806.002-1.112.459-.307 1.203-.305 1.662.002ZM206.041 101.528c.458.308.458.806-.002 1.113-.459.306-1.204.305-1.662-.003-.459-.308-.458-.806.002-1.112.459-.307 1.204-.306 1.662.002ZM219.323 110.449c.459.308.458.806-.002 1.113-.459.306-1.203.305-1.662-.003-.458-.308-.457-.806.002-1.113.46-.306 1.204-.305 1.662.003ZM232.605 119.37c.459.308.458.806-.001 1.112-.46.307-1.204.306-1.663-.002-.458-.308-.457-.806.002-1.113.46-.306 1.204-.305 1.662.003ZM245.888 128.291c.458.308.457.806-.002 1.112-.46.307-1.204.305-1.662-.002-.459-.308-.458-.806.001-1.113.46-.306 1.204-.305 1.663.003ZM259.17 137.212c.458.308.458.806-.002 1.112-.46.307-1.204.305-1.662-.003-.459-.308-.458-.806.002-1.112.459-.306 1.203-.305 1.662.003ZM272.452 146.133c.459.308.458.806-.002 1.112-.459.307-1.203.305-1.662-.003-.458-.308-.458-.806.002-1.112.459-.306 1.204-.305 1.662.003ZM285.734 155.054c.459.308.458.806-.002 1.112-.459.306-1.203.305-1.662-.003-.458-.308-.457-.806.002-1.112.46-.306 1.204-.305 1.662.003ZM299.017 163.975c.458.308.457.806-.002 1.112-.46.306-1.204.305-1.663-.003-.458-.308-.457-.806.002-1.112.46-.307 1.204-.305 1.663.003ZM152.943 48.049c.458.308.457.806-.002 1.112-.46.306-1.204.305-1.662-.003-.459-.308-.458-.806.001-1.112.46-.306 1.204-.305 1.663.003ZM166.225 56.97c.458.308.458.806-.002 1.112-.46.306-1.204.305-1.662-.003-.459-.308-.458-.806.002-1.112.459-.307 1.203-.305 1.662.003ZM179.507 65.89c.459.308.458.806-.002 1.113-.459.306-1.204.305-1.662-.003-.458-.308-.458-.806.002-1.112.459-.307 1.204-.305 1.662.002ZM192.789 74.811c.459.308.458.806-.002 1.113-.459.306-1.203.305-1.662-.003-.458-.308-.457-.806.002-1.113.46-.306 1.204-.305 1.662.003ZM206.072 83.732c.458.308.457.806-.002 1.113-.46.306-1.204.305-1.663-.003-.458-.308-.457-.806.002-1.113.46-.306 1.204-.305 1.663.003ZM219.354 92.653c.458.308.457.806-.002 1.112-.46.307-1.204.305-1.662-.002-.459-.308-.458-.806.002-1.113.459-.306 1.203-.305 1.662.003ZM232.636 101.574c.459.308.458.806-.002 1.112-.459.307-1.204.305-1.662-.002-.459-.308-.458-.806.002-1.113.459-.306 1.204-.305 1.662.003ZM245.918 110.495c.459.308.458.806-.002 1.112-.459.307-1.203.305-1.662-.003-.458-.308-.457-.806.002-1.112.46-.306 1.204-.305 1.662.003ZM259.2 119.416c.459.308.458.806-.001 1.112-.46.307-1.204.305-1.663-.003-.458-.308-.457-.806.002-1.112.46-.306 1.204-.305 1.662.003ZM272.483 128.337c.458.308.457.806-.002 1.112-.46.306-1.204.305-1.662-.003-.459-.308-.458-.806.002-1.112.459-.306 1.203-.305 1.662.003ZM285.765 137.258c.458.308.458.806-.002 1.112-.459.306-1.204.305-1.662-.003-.459-.308-.458-.806.002-1.112.459-.307 1.203-.305 1.662.003ZM299.047 146.179c.459.308.458.806-.002 1.112-.459.306-1.203.305-1.662-.003-.458-.308-.458-.806.002-1.112.46-.307 1.204-.305 1.662.003ZM312.329 155.099c.459.308.458.806-.002 1.113-.459.306-1.203.305-1.662-.003-.458-.308-.457-.806.002-1.112.46-.307 1.204-.305 1.662.002ZM166.255 39.173c.459.308.458.806-.001 1.113-.46.306-1.204.305-1.663-.003-.458-.308-.457-.806.002-1.112.46-.307 1.204-.305 1.662.002ZM179.538 48.094c.458.308.457.806-.002 1.113-.46.306-1.204.305-1.662-.003-.459-.308-.458-.806.002-1.112.459-.307 1.203-.306 1.662.002ZM192.82 57.015c.458.308.458.806-.002 1.113-.46.306-1.204.305-1.662-.003-.459-.308-.458-.806.002-1.113.459-.306 1.203-.305 1.662.003ZM206.102 65.936c.459.308.458.806-.002 1.112-.459.307-1.203.305-1.662-.002-.458-.308-.458-.806.002-1.113.459-.306 1.204-.305 1.662.003ZM219.384 74.857c.459.308.458.806-.002 1.112-.459.307-1.203.305-1.662-.002-.458-.308-.457-.806.002-1.113.46-.306 1.204-.305 1.662.003ZM232.667 83.778c.458.308.457.806-.002 1.112-.46.307-1.204.305-1.662-.003-.459-.308-.458-.805.001-1.112.46-.306 1.204-.305 1.663.003ZM245.949 92.699c.458.308.457.806-.002 1.112-.46.306-1.204.305-1.662-.003-.459-.308-.458-.806.002-1.112.459-.306 1.203-.305 1.662.003ZM259.231 101.62c.459.308.458.806-.002 1.112-.459.306-1.204.305-1.662-.003-.459-.308-.458-.806.002-1.112.459-.306 1.204-.305 1.662.003ZM272.513 110.541c.459.308.458.806-.002 1.112-.459.306-1.203.305-1.662-.003-.458-.308-.457-.806.002-1.112.46-.307 1.204-.305 1.662.003ZM285.796 119.462c.458.308.457.805-.002 1.112-.46.306-1.204.305-1.663-.003-.458-.308-.457-.806.002-1.112.46-.307 1.204-.305 1.663.003ZM299.078 128.382c.458.308.457.806-.002 1.113-.46.306-1.204.305-1.662-.003-.459-.308-.458-.806.002-1.112.459-.307 1.203-.305 1.662.002ZM312.36 137.303c.458.308.458.806-.002 1.113-.459.306-1.204.305-1.662-.003-.459-.308-.458-.806.002-1.112.459-.307 1.203-.306 1.662.002ZM325.642 146.224c.459.308.458.806-.002 1.113-.459.306-1.203.305-1.662-.003-.458-.308-.458-.806.002-1.113.46-.306 1.204-.305 1.662.003ZM179.568 30.298c.459.308.458.806-.002 1.113-.459.306-1.203.305-1.662-.003-.458-.308-.457-.806.002-1.113.46-.306 1.204-.305 1.662.003ZM192.851 39.22c.458.307.457.805-.002 1.111-.46.307-1.204.305-1.663-.002-.458-.308-.457-.806.002-1.113.46-.306 1.204-.305 1.663.003ZM206.133 48.14c.458.308.457.806-.002 1.112-.46.307-1.204.305-1.662-.003-.459-.307-.458-.805.002-1.112.459-.306 1.203-.305 1.662.003ZM219.415 57.061c.458.308.458.806-.002 1.112-.459.307-1.204.305-1.662-.003-.459-.308-.458-.806.002-1.112.459-.306 1.203-.305 1.662.003ZM232.697 65.982c.459.308.458.806-.002 1.112-.459.306-1.203.305-1.662-.003-.458-.308-.458-.806.002-1.112.46-.306 1.204-.305 1.662.003ZM245.979 74.903c.459.308.458.806-.001 1.112-.46.306-1.204.305-1.663-.003-.458-.308-.457-.806.002-1.112.46-.306 1.204-.305 1.662.003ZM259.262 83.824c.458.308.457.806-.002 1.112-.46.306-1.204.305-1.662-.003-.459-.308-.458-.806.001-1.112.46-.306 1.204-.305 1.663.003ZM272.544 92.745c.458.307.457.805-.002 1.112-.46.306-1.204.305-1.662-.003-.459-.308-.458-.806.002-1.112.459-.307 1.203-.305 1.662.003ZM285.826 101.665c.459.308.458.806-.002 1.113-.459.306-1.204.305-1.662-.003-.458-.308-.458-.806.002-1.112.459-.307 1.204-.305 1.662.002ZM299.108 110.586c.459.308.458.806-.002 1.113-.459.306-1.203.305-1.662-.003-.458-.308-.457-.806.002-1.112.46-.307 1.204-.306 1.662.002ZM312.391 119.507c.458.308.457.806-.002 1.113-.46.306-1.204.305-1.663-.003-.458-.308-.457-.806.002-1.113.46-.306 1.204-.305 1.663.003ZM325.673 128.428c.458.308.457.806-.002 1.112-.46.307-1.204.306-1.662-.002-.459-.308-.458-.806.002-1.113.459-.306 1.203-.305 1.662.003ZM338.955 137.349c.458.308.458.806-.002 1.112-.459.307-1.204.305-1.662-.003-.459-.307-.458-.805.002-1.112.459-.306 1.204-.305 1.662.003ZM192.881 21.423c.459.308.458.806-.002 1.112-.459.307-1.204.305-1.662-.003-.458-.307-.458-.805.002-1.112.459-.306 1.204-.305 1.662.003ZM206.163 30.344c.459.308.458.806-.002 1.112-.459.307-1.203.305-1.662-.003-.458-.308-.457-.805.002-1.112.46-.306 1.204-.305 1.662.003ZM219.446 39.265c.458.308.457.806-.002 1.112-.46.306-1.204.305-1.663-.003-.458-.308-.457-.806.002-1.112.46-.306 1.204-.305 1.663.003ZM232.728 48.186c.458.308.457.806-.002 1.112-.46.306-1.204.305-1.662-.003-.459-.308-.458-.806.002-1.112.459-.306 1.203-.305 1.662.003ZM246.01 57.107c.458.308.458.806-.002 1.112-.459.306-1.204.305-1.662-.003-.459-.308-.458-.806.002-1.112.459-.306 1.204-.305 1.662.003ZM259.292 66.028c.459.307.458.805-.002 1.112-.459.306-1.203.305-1.662-.003-.458-.308-.458-.806.002-1.112.46-.307 1.204-.305 1.662.003ZM272.574 74.948c.459.308.458.806-.001 1.113-.46.306-1.204.305-1.663-.003-.458-.308-.457-.806.002-1.112.46-.307 1.204-.305 1.662.002ZM285.857 83.87c.458.307.457.805-.002 1.112-.46.306-1.204.305-1.662-.003-.459-.308-.458-.806.001-1.112.46-.307 1.204-.306 1.663.002ZM299.139 92.79c.458.308.458.806-.002 1.112-.46.307-1.204.306-1.662-.002-.459-.308-.458-.806.002-1.113.459-.306 1.203-.305 1.662.003ZM312.421 101.711c.459.308.458.806-.002 1.112-.459.307-1.203.306-1.662-.002-.458-.308-.458-.806.002-1.113.459-.306 1.204-.305 1.662.003ZM325.703 110.632c.459.308.458.806-.002 1.112-.459.307-1.203.305-1.662-.003-.458-.307-.457-.805.002-1.112.46-.306 1.204-.305 1.662.003ZM338.986 119.553c.458.308.457.806-.002 1.112-.46.307-1.204.305-1.663-.003-.458-.308-.457-.806.002-1.112.46-.306 1.204-.305 1.663.003ZM352.268 128.474c.458.308.457.806-.002 1.112-.46.306-1.204.305-1.662-.003-.459-.308-.458-.806.002-1.112.459-.306 1.203-.305 1.662.003ZM206.194 12.548c.458.308.458.806-.002 1.112-.46.306-1.204.305-1.662-.003-.459-.308-.458-.806.002-1.112.459-.306 1.203-.305 1.662.003ZM219.476 21.469c.459.308.458.806-.002 1.112-.459.306-1.204.305-1.662-.003-.458-.308-.458-.806.002-1.112.459-.306 1.204-.305 1.662.003ZM232.758 30.39c.459.308.458.806-.002 1.112-.459.306-1.203.305-1.662-.003-.458-.308-.457-.806.002-1.112.46-.306 1.204-.305 1.662.003ZM246.041 39.31c.458.308.457.806-.002 1.113-.46.306-1.204.305-1.663-.003-.458-.308-.457-.806.002-1.112.46-.307 1.204-.305 1.663.003ZM259.323 48.231c.458.308.457.806-.002 1.113-.46.306-1.204.305-1.662-.003-.459-.308-.458-.806.002-1.112.459-.307 1.203-.305 1.662.002ZM272.605 57.152c.458.308.458.806-.002 1.113-.459.306-1.204.305-1.662-.003-.459-.308-.458-.806.002-1.112.459-.307 1.204-.306 1.662.002ZM285.887 66.073c.459.308.458.806-.002 1.113-.459.306-1.203.305-1.662-.003-.458-.308-.457-.806.002-1.113.46-.306 1.204-.305 1.662.003ZM299.169 74.994c.459.308.458.806-.001 1.112-.46.307-1.204.306-1.663-.002-.458-.308-.457-.806.002-1.113.46-.306 1.204-.305 1.662.003ZM312.452 83.915c.458.308.457.806-.002 1.112-.46.307-1.204.305-1.662-.002-.459-.308-.458-.806.002-1.113.459-.306 1.203-.305 1.662.003ZM325.734 92.836c.458.308.458.806-.002 1.112-.46.307-1.204.305-1.662-.003-.459-.307-.458-.805.002-1.112.459-.306 1.203-.305 1.662.003ZM339.016 101.757c.459.308.458.806-.002 1.112-.459.306-1.203.305-1.662-.003-.458-.308-.458-.806.002-1.112.46-.306 1.204-.305 1.662.003ZM352.298 110.678c.459.308.458.806-.002 1.112-.459.306-1.203.305-1.662-.003-.458-.308-.457-.806.002-1.112.46-.306 1.204-.305 1.662.003ZM365.581 119.599c.458.308.457.806-.002 1.112-.46.306-1.204.305-1.662-.003-.459-.308-.458-.806.001-1.112.46-.307 1.204-.305 1.663.003ZM219.507 3.673c.458.308.457.806-.002 1.112-.46.306-1.204.305-1.662-.003-.459-.308-.458-.806.002-1.112.459-.307 1.203-.305 1.662.003ZM232.789 12.594c.458.308.458.806-.002 1.112-.46.306-1.204.305-1.662-.003-.459-.308-.458-.806.002-1.112.459-.307 1.203-.305 1.662.003ZM246.071 21.515c.459.307.458.805-.002 1.112-.459.306-1.203.305-1.662-.003-.458-.308-.458-.806.002-1.112.459-.307 1.204-.305 1.662.003ZM259.353 30.435c.459.308.458.806-.002 1.113-.459.306-1.203.305-1.662-.003-.458-.308-.457-.806.002-1.113.46-.306 1.204-.304 1.662.003ZM272.636 39.356c.458.308.457.806-.002 1.112-.46.307-1.204.306-1.662-.002-.459-.308-.458-.806.001-1.113.46-.306 1.204-.305 1.663.003ZM285.918 48.277c.458.308.457.806-.002 1.112-.46.307-1.204.305-1.662-.002-.459-.308-.458-.806.002-1.113.459-.306 1.203-.305 1.662.003ZM299.2 57.198c.459.308.458.806-.002 1.112-.459.307-1.204.305-1.662-.003-.459-.307-.458-.805.002-1.112.459-.306 1.204-.305 1.662.003ZM312.482 66.119c.459.308.458.806-.002 1.112-.459.307-1.203.305-1.662-.003-.458-.307-.457-.805.002-1.112.46-.306 1.204-.305 1.662.003ZM325.765 75.04c.458.308.457.806-.002 1.112-.46.306-1.204.305-1.663-.003-.458-.308-.457-.806.002-1.112.46-.306 1.204-.305 1.663.003ZM339.047 83.96c.458.309.457.807-.002 1.113-.46.306-1.204.305-1.662-.003-.459-.308-.458-.806.002-1.112.459-.306 1.203-.305 1.662.003ZM352.329 92.882c.458.308.458.806-.002 1.112-.459.306-1.204.305-1.662-.003-.459-.308-.458-.806.002-1.112.459-.306 1.203-.305 1.662.003ZM365.611 101.803c.459.308.458.805-.002 1.112-.459.306-1.203.305-1.662-.003-.458-.308-.458-.806.002-1.112.46-.307 1.204-.305 1.662.003ZM378.893 110.723c.459.308.458.806-.001 1.113-.46.306-1.204.305-1.663-.003-.458-.308-.457-.806.002-1.112.46-.307 1.204-.305 1.662.002Z"/></g><path d="M11.612 263.183a3.425 3.425 0 0 1-1.542.578c-.533.055-.993-.047-1.38-.307l.851-.567c.174.117.385.156.632.119.247-.044.494-.149.741-.314l.354-.236c.292-.195.452-.377.48-.546.024-.172-.06-.323-.251-.451a.99.99 0 0 0-.648-.164 2.372 2.372 0 0 0-.8.229l-.725.36c-1.067.516-1.974.524-2.72.023-.425-.286-.61-.598-.553-.936.056-.338.346-.681.869-1.029l.32-.214c.483-.322.98-.507 1.491-.555.505-.052.935.041 1.288.278l-.852.568c-.14-.094-.322-.123-.547-.086a1.721 1.721 0 0 0-.682.286l-.32.214c-.259.172-.402.339-.43.501-.035.157.044.3.234.428.326.218.755.199 1.289-.06l.733-.353c.584-.285 1.103-.432 1.558-.443.449-.014.875.114 1.279.386.432.29.628.613.588.97-.04.349-.341.711-.903 1.085l-.354.236Zm5.644-3.852a2.32 2.32 0 0 1-1.297.403 2.224 2.224 0 0 1-1.262-.385l-2.607-1.751-1.298.865-.757-.508 1.298-.866-1.304-.875.835-.556 1.303.875 1.83-1.219.756.508-1.829 1.22 2.599 1.745a.956.956 0 0 0 .496.164.844.844 0 0 0 .497-.14l1.264-.843.757.508-1.281.855Zm4.202-2.69c-.488.326-.997.5-1.524.522a2.39 2.39 0 0 1-1.43-.408c-.438-.294-.637-.619-.597-.976.04-.364.31-.713.81-1.046l1.349-.899-.438-.294a1.418 1.418 0 0 0-.875-.25 1.687 1.687 0 0 0-.91.303c-.264.176-.427.364-.489.563a.48.48 0 0 0 .126.513l-.818.545c-.247-.196-.386-.414-.42-.655-.039-.244.018-.492.17-.743.152-.251.394-.488.725-.709.54-.359 1.107-.55 1.702-.571a2.563 2.563 0 0 1 1.599.431l3.17 2.129-.818.545-.857-.576-.009.006c.252.222.336.473.252.755-.085.281-.324.553-.718.815Zm-.42-.586c.338-.225.532-.467.583-.726.05-.266-.058-.49-.327-.671l-.631-.423-1.332.887c-.247.165-.377.342-.388.529-.006.184.106.354.336.508.252.169.532.245.841.227.309-.019.615-.129.918-.331Zm6.145-1.317-.74-.497 1.45-.966c.46-.308.473-.608.035-.902l-.53-.356-.824-.576-.016.012c.263.222.372.464.327.727-.046.263-.243.51-.59.743a2.593 2.593 0 0 1-1.601.436c-.59-.027-1.15-.22-1.683-.577l-.95-.639c-.533-.357-.816-.731-.849-1.122-.038-.394.181-.751.659-1.069a2.286 2.286 0 0 1 1.112-.393c.387-.033.749.041 1.085.222l.009-.006-.892-.587.826-.551 4.752 3.191c.431.29.636.608.613.953-.023.346-.27.676-.743.991l-1.45.966Zm-1.35-2.475c.297-.199.44-.418.43-.659-.011-.24-.185-.473-.521-.699l-.866-.582a1.91 1.91 0 0 0-1.035-.345 1.666 1.666 0 0 0-.986.285c-.309.206-.455.428-.439.664.011.233.185.463.521.688l.866.582c.342.23.69.351 1.044.363.348.008.676-.091.985-.297Zm4.25-1.484-.757-.508 1.627-1.085-3.111-2.089-1.459.972-.756-.509 2.292-1.528 3.868 2.598 1.526-1.017.757.508-3.987 2.658Zm-3.477-4.963c-.191.127-.39.196-.598.207a.945.945 0 0 1-.572-.159c-.174-.116-.255-.246-.244-.389.012-.142.113-.277.304-.405.191-.127.393-.194.607-.202a.958.958 0 0 1 .58.165c.168.113.247.241.235.383-.017.139-.12.272-.312.4Zm8.573 1.566-4.625-3.107.826-.55.883.593.017-.011c-.27-.234-.381-.478-.336-.733.046-.256.245-.501.6-.737.46-.308.974-.455 1.54-.443a2.91 2.91 0 0 1 1.591.516l3.095 2.078-.835.556-3.002-2.016a1.727 1.727 0 0 0-.976-.317 1.644 1.644 0 0 0-.952.286c-.303.202-.45.423-.439.664.005.236.176.467.513.693l2.934 1.972-.834.556Zm7.166-2.752-.74-.497 1.45-.966c.46-.307.472-.608.035-.902l-.53-.355-.824-.576-.017.011c.264.222.373.464.327.727-.045.263-.242.51-.59.743a2.593 2.593 0 0 1-1.6.436 3.243 3.243 0 0 1-1.683-.577l-.95-.638c-.533-.358-.816-.732-.849-1.123-.039-.394.18-.751.658-1.069a2.296 2.296 0 0 1 1.113-.393c.387-.033.749.041 1.085.222l.009-.006-.892-.587.826-.551 4.751 3.191c.432.29.636.608.613.954-.023.345-.27.675-.742.99l-1.45.966Zm-1.351-2.475c.298-.199.441-.418.43-.659-.01-.24-.184-.473-.52-.699l-.867-.582a1.91 1.91 0 0 0-1.035-.345 1.672 1.672 0 0 0-.985.285c-.31.206-.455.428-.439.664.01.233.184.463.52.689l.867.581c.342.23.69.351 1.043.363.348.008.677-.091.986-.297Z" fill="#95D0B4"/><path d="m9.432 128.24-6.14-4.123.827-.551.866.582.008-.006c-.24-.237-.336-.485-.285-.744.057-.263.257-.508.6-.737.46-.307.988-.449 1.583-.425.59.02 1.15.208 1.683.566l1.32.887c.538.361.824.741.857 1.139.033.391-.184.742-.65 1.053a2.351 2.351 0 0 1-1.095.392 2.221 2.221 0 0 1-1.128-.193l-.017.011 1.068.695 1.337.898-.834.556Zm-.341-2.654c.31-.206.461-.427.456-.664-.011-.24-.187-.475-.53-.705l-1.236-.83a1.884 1.884 0 0 0-1.035-.346 1.701 1.701 0 0 0-1.002.297c-.303.202-.45.424-.439.664.011.24.185.474.52.7l1.229.824c.336.226.684.343 1.043.351.36.008.69-.089.994-.291Zm4.016-1.822-4.625-3.106.826-.551.883.593.016-.011c-.269-.233-.38-.478-.335-.733.05-.259.253-.507.607-.743a2.702 2.702 0 0 1 1.61-.453 3.105 3.105 0 0 1 1.674.549l.336.226-.843.562-.269-.181a1.91 1.91 0 0 0-1.035-.345 1.713 1.713 0 0 0-1.028.314c-.646.43-.613.885.1 1.363l2.917 1.96-.834.556Zm6.765-4.42a3.313 3.313 0 0 1-1.82.583 3.103 3.103 0 0 1-1.8-.544l-1.212-.813c-.55-.369-.815-.77-.797-1.201.011-.436.301-.843.869-1.221a3.296 3.296 0 0 1 1.828-.578c.645-.01 1.24.168 1.784.533l1.219.819c.55.369.818.771.806 1.207-.017.432-.31.837-.877 1.215Zm-.732-.491c.314-.21.475-.433.48-.67.001-.24-.17-.475-.511-.705l-1.211-.813c-.342-.23-.69-.343-1.044-.34-.359 0-.696.104-1.01.314-.315.21-.473.435-.473.675-.006.237.162.47.504.7l1.21.813c.343.23.693.345 1.052.345a1.803 1.803 0 0 0 1.003-.319Zm5.499-2.664a2.622 2.622 0 0 1-1.584.436 3.212 3.212 0 0 1-1.691-.572l-1.329-.892c-.532-.358-.812-.734-.84-1.128-.033-.398.184-.753.65-1.064a2.25 2.25 0 0 1 1.096-.381c.393-.037.763.024 1.11.182l.018-.011-1.069-.695-1.328-.892.834-.556 6.139 4.123-.826.55-.875-.587-.008.006c.247.24.341.492.285.755-.051.259-.245.501-.582.726Zm-.437-.677c.298-.199.441-.418.43-.659-.01-.24-.184-.473-.52-.699l-1.228-.825a1.926 1.926 0 0 0-1.043-.351 1.667 1.667 0 0 0-.986.286c-.309.206-.46.431-.456.675.006.237.177.468.513.694l1.236.83c.342.23.693.349 1.052.357.359.001.693-.102 1.002-.308Zm5.786-2.889a3.184 3.184 0 0 1-1.786.549 3.132 3.132 0 0 1-1.792-.55l-2.927-1.965.835-.557 2.926 1.966c.336.226.681.345 1.035.357.354.004.68-.093.977-.292.303-.202.453-.421.447-.658-.01-.24-.184-.474-.52-.699l-2.927-1.966.835-.556 2.926 1.965c.55.369.818.772.806 1.207-.006.432-.285.832-.835 1.199Zm5.096-3.398a3.408 3.408 0 0 1-1.837.594 3.083 3.083 0 0 1-1.826-.538l-1.236-.83c-.55-.369-.81-.773-.78-1.213.022-.443.318-.854.885-1.232a3.356 3.356 0 0 1 1.753-.583 2.876 2.876 0 0 1 1.7.442l-.827.551a1.633 1.633 0 0 0-.942-.238 1.833 1.833 0 0 0-.952.319c-.32.214-.483.446-.49.698-.006.244.157.477.488.699l1.236.831a1.83 1.83 0 0 0 1.052.334c.37-.007.715-.117 1.036-.331.297-.198.46-.408.49-.63.028-.221-.09-.432-.353-.631l.826-.551c.482.346.703.728.663 1.145-.046.413-.341.801-.886 1.164Zm5.442-3.74a2.32 2.32 0 0 1-1.298.403c-.46 0-.88-.129-1.262-.385l-2.607-1.751-1.298.866-.757-.509 1.298-.865-1.303-.876.834-.556 1.304.876 1.829-1.22.757.509-1.83 1.219 2.6 1.745a.938.938 0 0 0 .496.164.837.837 0 0 0 .497-.14l1.264-.842.757.508-1.281.854Zm2.719-1.813-.757-.508 1.627-1.085-3.112-2.09-1.458.973-.757-.509 2.293-1.528 3.868 2.598 1.526-1.017.756.508-3.986 2.658Zm-3.477-4.963c-.191.127-.39.196-.598.207a.943.943 0 0 1-.573-.159c-.173-.116-.255-.246-.243-.389.011-.142.113-.278.304-.405.19-.127.393-.194.606-.202a.959.959 0 0 1 .58.165c.17.113.247.24.236.383-.017.14-.121.272-.312.4Zm10.427.42a3.319 3.319 0 0 1-1.82.582 3.107 3.107 0 0 1-1.8-.543l-1.211-.814c-.55-.369-.816-.77-.798-1.201.012-.436.302-.843.87-1.221a3.295 3.295 0 0 1 1.827-.577c.646-.01 1.24.167 1.784.532l1.22.82c.549.368.818.77.806 1.206-.018.432-.31.837-.878 1.216Zm-.732-.492c.315-.21.475-.433.481-.67 0-.24-.17-.475-.512-.704l-1.21-.814c-.343-.23-.69-.343-1.044-.34-.36 0-.697.105-1.011.314-.315.21-.472.435-.473.675-.006.237.162.47.504.7l1.211.813c.342.23.693.345 1.052.346.354-.003.688-.11 1.002-.32Zm3.932-1.731-4.625-3.107.826-.55.883.593.016-.012c-.269-.233-.38-.477-.335-.733.045-.255.245-.5.599-.737.46-.307.974-.454 1.541-.442a2.916 2.916 0 0 1 1.59.515l3.095 2.079-.834.556-3.002-2.016a1.732 1.732 0 0 0-.976-.317c-.343-.005-.66.09-.952.285-.304.203-.45.424-.44.664.006.237.177.468.513.694l2.935 1.971-.834.556Z" fill="#868593"/><path d="m47.529 158.473.018-.054v-6.524l-.018-.055a1.88 1.88 0 0 1 0-1.239l.018-.054v-.077h.02l.098-.183c.205-.384.545-.758 1.036-1.085l57.477-38.319c.885-.589 2.061-.893 3.255-.891 1.193.002 2.369.31 3.251.902l33.26 22.339c1.006.676 1.377 1.543 1.244 2.328l-.068.403h.178v6.908h-.071l-.014.33c-.029.669-.426 1.373-1.276 1.94L88.459 183.46c-.884.59-2.06.893-3.254.891-1.193-.002-2.369-.31-3.25-.902L48.693 161.11a3.301 3.301 0 0 1-.867-.822l-.104-.146h-.176v-.375l-.018-.054a1.882 1.882 0 0 1 0-1.24Z" fill="#09080D" stroke="#26543F" stroke-width=".691"/><rect x=".831" y=".001" width="76.369" height="47.356" rx="3.645" transform="matrix(.83205 -.5547 .83014 .55756 45.687 150.912)" fill="#208368" fill-opacity=".39" stroke="#208368"/><rect opacity=".2" width="31.388" height="4.837" rx="2" transform="matrix(.83205 -.5547 .83014 .55756 72.037 141.551)" fill="#D9D9D9"/><rect opacity=".1" width="38.684" height="3.066" rx="1.533" transform="matrix(.83205 -.5547 .83014 .55756 92.555 157.956)" fill="#D9D9D9"/><g clip-path="url(#clip3_1979_204966)"><path fill-rule="evenodd" clip-rule="evenodd" d="M62.313 145.721c-2.076 1.385-2.08 3.633-.009 5.024 1.66 1.115 4.137 1.339 6.128.677.22-.104.178-.226.08-.292-.089-.06-.389-.255-.703-.466-.77.746-1.418.638-1.704.546-.15-.044-.666-.145-.915-.099-.202.041-.564.05-.253-.163.29-.201.779-.156.962-.127.905.155 1.286-.312 1.404-.522-.211-.186-.276-.362-.262-.497-.93.495-2.127.86-3.562-.103-.407-.274-.6-.598-.622-.934-.132-.038-.647-.208-.956-.693 0 0 .216-.276 1.418-.43.216-.258.493-.499.813-.712.32-.213.68-.397 1.066-.541.231-.807.649-.947.649-.947.722.208.975.554 1.031.642.502.016.98.143 1.393.42 1.44.966.88 1.766.137 2.387.253-.013.596.06.947.296.502.337.9.611 1.027.696a.343.343 0 0 0 .436-.053c.988-1.323.658-2.985-.997-4.096-2.072-1.391-5.431-1.397-7.508-.013Z" fill="#F7F7F8"/></g><path d="m87.403 162.176.135.091c.317.214.523.49.587.787.064.298-.018.602-.233.865-.215.264-.552.474-.96.599a3.031 3.031 0 0 1-1.306.095c-.44-.063-.837-.22-1.133-.446-.296-.227-.474-.512-.509-.811-.034-.3.077-.6.317-.853.24-.254.597-.449 1.017-.556" stroke="#42946E" stroke-linecap="round" stroke-linejoin="round"/><path d="m86.36 161.476-.001 1.973-.885-.001" stroke="#42946E" stroke-linecap="round" stroke-linejoin="round"/><path d="m47.529 139.473.018-.054v-6.524l-.018-.055a1.88 1.88 0 0 1 0-1.239l.018-.054v-.077h.02l.098-.183c.205-.384.545-.758 1.036-1.085l57.477-38.319c.885-.59 2.061-.893 3.255-.89 1.193.001 2.369.309 3.251.901l33.26 22.339c1.006.676 1.377 1.543 1.244 2.328l-.068.403h.178v6.908h-.071l-.014.33c-.029.669-.426 1.373-1.276 1.94L88.459 164.46c-.884.59-2.06.893-3.254.891-1.193-.002-2.369-.31-3.25-.902L48.693 142.11a3.301 3.301 0 0 1-.867-.822l-.104-.146h-.176v-.375l-.018-.054a1.882 1.882 0 0 1 0-1.24Z" fill="#09080D" stroke="#26543F" stroke-width=".691"/><rect x=".831" y=".001" width="76.369" height="47.356" rx="3.645" transform="matrix(.83205 -.5547 .83014 .55756 45.687 131.912)" fill="#208368" fill-opacity=".39" stroke="#208368"/><rect opacity=".2" width="31.388" height="4.837" rx="2" transform="matrix(.83205 -.5547 .83014 .55756 72.037 122.551)" fill="#D9D9D9"/><rect opacity=".1" width="38.684" height="3.066" rx="1.533" transform="matrix(.83205 -.5547 .83014 .55756 92.555 138.956)" fill="#D9D9D9"/><g clip-path="url(#clip4_1979_204966)"><path fill-rule="evenodd" clip-rule="evenodd" d="M62.313 126.721c-2.076 1.385-2.08 3.633-.009 5.024 1.66 1.115 4.137 1.339 6.128.677.22-.104.178-.226.08-.292-.089-.06-.389-.255-.703-.466-.77.746-1.418.638-1.704.546-.15-.044-.666-.145-.915-.099-.202.041-.564.05-.253-.163.29-.201.779-.156.962-.127.905.155 1.286-.312 1.404-.522-.211-.186-.276-.362-.262-.497-.93.495-2.127.86-3.562-.103-.407-.274-.6-.598-.622-.934-.132-.038-.647-.208-.956-.693 0 0 .216-.276 1.418-.43.216-.258.493-.499.813-.712.32-.213.68-.397 1.066-.541.231-.807.649-.947.649-.947.722.208.975.554 1.031.642.502.016.98.143 1.393.42 1.44.966.88 1.766.137 2.387.253-.013.596.06.947.296.502.337.9.611 1.027.696a.343.343 0 0 0 .436-.053c.988-1.323.658-2.985-.997-4.096-2.072-1.391-5.431-1.397-7.508-.013Z" fill="#F7F7F8"/></g><path d="m87.403 143.176.135.091c.317.214.523.49.587.787.064.298-.018.602-.233.865-.215.264-.552.474-.96.599a3.031 3.031 0 0 1-1.306.095c-.44-.063-.837-.22-1.133-.446-.296-.227-.474-.512-.509-.811-.034-.3.077-.6.317-.853.24-.254.597-.449 1.017-.556" stroke="#42946E" stroke-linecap="round" stroke-linejoin="round"/><path d="m86.36 142.476-.001 1.973-.885-.001" stroke="#42946E" stroke-linecap="round" stroke-linejoin="round"/><path d="m166.529 77.473.018-.054v-6.524l-.018-.055a1.881 1.881 0 0 1 0-1.239l.018-.054v-.077h.021l.097-.183c.205-.384.545-.758 1.036-1.085l57.477-38.319c.885-.59 2.061-.893 3.255-.89 1.193.001 2.369.309 3.251.901l33.26 22.34c1.006.675 1.377 1.542 1.244 2.327l-.068.403h.178v6.908h-.071l-.014.33c-.029.669-.426 1.373-1.276 1.94l-57.478 38.318c-.884.59-2.06.893-3.254.891-1.193-.002-2.369-.31-3.251-.902l-33.26-22.34a3.274 3.274 0 0 1-.867-.821l-.104-.146h-.176v-.375l-.018-.054a1.876 1.876 0 0 1 0-1.24Z" fill="#09080D"/><path d="m166.529 77.473.018-.054v-6.524l-.018-.055a1.881 1.881 0 0 1 0-1.239l.018-.054v-.077h.021l.097-.183c.205-.384.545-.758 1.036-1.085l57.477-38.319c.885-.59 2.061-.893 3.255-.89 1.193.001 2.369.309 3.251.901l33.26 22.34c1.006.675 1.377 1.542 1.244 2.327l-.068.403h.178v6.908h-.071l-.014.33c-.029.669-.426 1.373-1.276 1.94l-57.478 38.318c-.884.59-2.06.893-3.254.891-1.193-.002-2.369-.31-3.251-.902l-33.26-22.34a3.274 3.274 0 0 1-.867-.821l-.104-.146h-.176v-.375l-.018-.054a1.876 1.876 0 0 1 0-1.24Z" stroke="#fff" stroke-opacity=".25" stroke-width=".691"/><path d="m166.529 77.473.018-.054v-6.524l-.018-.055a1.881 1.881 0 0 1 0-1.239l.018-.054v-.077h.021l.097-.183c.205-.384.545-.758 1.036-1.085l57.477-38.319c.885-.59 2.061-.893 3.255-.89 1.193.001 2.369.309 3.251.901l33.26 22.34c1.006.675 1.377 1.542 1.244 2.327l-.068.403h.178v6.908h-.071l-.014.33c-.029.669-.426 1.373-1.276 1.94l-57.478 38.318c-.884.59-2.06.893-3.254.891-1.193-.002-2.369-.31-3.251-.902l-33.26-22.34a3.274 3.274 0 0 1-.867-.821l-.104-.146h-.176v-.375l-.018-.054a1.876 1.876 0 0 1 0-1.24Z" stroke="#4E4D51" stroke-width=".691"/><rect width="77.369" height="48.356" rx="4.145" transform="matrix(.83205 -.5547 .83014 .55756 164.549 67.45)" fill="#131217"/><rect x=".831" y=".001" width="76.369" height="47.356" rx="3.645" transform="matrix(.83205 -.5547 .83014 .55756 164.687 67.912)" stroke="#fff" stroke-opacity=".25"/><rect x=".831" y=".001" width="76.369" height="47.356" rx="3.645" transform="matrix(.83205 -.5547 .83014 .55756 164.687 67.912)" stroke="#4E4D51" stroke-opacity=".3"/><rect opacity=".2" width="31.388" height="4.837" rx="2" transform="matrix(.83205 -.5547 .83014 .55756 191.037 60.55)" fill="#D9D9D9"/><rect opacity=".1" width="21.702" height="3.066" rx="1.533" transform="matrix(.83205 -.5547 .83014 .55756 211.555 76.956)" fill="#D9D9D9"/><g opacity=".5" clip-path="url(#clip5_1979_204966)"><path fill-rule="evenodd" clip-rule="evenodd" d="M181.313 64.721c-2.076 1.384-2.08 3.633-.009 5.024 1.66 1.114 4.137 1.338 6.128.676.22-.103.178-.226.08-.292-.089-.06-.389-.255-.703-.466-.771.746-1.418.639-1.704.547-.15-.044-.666-.146-.915-.099-.202.04-.563.05-.253-.164.291-.2.779-.155.962-.127.905.156 1.286-.311 1.404-.522-.211-.185-.276-.361-.262-.496-.93.494-2.127.86-3.562-.104-.407-.274-.599-.597-.622-.933-.131-.038-.647-.209-.956-.693 0 0 .216-.276 1.418-.43a3.84 3.84 0 0 1 .813-.712 5.218 5.218 0 0 1 1.066-.542c.231-.806.649-.947.649-.947.722.209.975.555 1.031.643.502.016.981.143 1.393.42 1.439.966.879 1.766.137 2.386.253-.012.596.061.947.297.502.337.9.61 1.027.696a.343.343 0 0 0 .436-.053c.988-1.323.658-2.985-.997-4.096-2.072-1.392-5.431-1.397-7.508-.013Z" fill="#F7F7F8"/></g><path d="m206.403 81.176.135.091c.317.213.523.49.587.787.064.298-.018.601-.233.865-.215.264-.552.474-.961.6a3.038 3.038 0 0 1-1.306.094c-.439-.063-.836-.22-1.132-.447-.296-.226-.474-.51-.509-.81-.034-.3.077-.6.317-.854.24-.253.597-.448 1.017-.555" stroke="#42946E" stroke-linecap="round" stroke-linejoin="round"/><path d="m205.361 80.476-.002 1.973-.885-.001" stroke="#42946E" stroke-linecap="round" stroke-linejoin="round"/><path d="m193.529 146.473.018-.055V139.895l-.018-.055a1.88 1.88 0 0 1 0-1.239l.018-.055v-.076h.021l.097-.183c.205-.384.545-.759 1.036-1.086l57.477-38.318c.885-.59 2.061-.893 3.255-.891 1.193.002 2.369.31 3.251.902l33.26 22.339c1.006.676 1.377 1.543 1.244 2.328l-.068.402h.178v6.908h-.071l-.014.331c-.029.668-.426 1.373-1.276 1.939l-57.478 38.319c-.884.589-2.06.893-3.254.891-1.193-.002-2.369-.31-3.251-.902l-33.26-22.339a3.276 3.276 0 0 1-.867-.822l-.104-.147h-.176v-.374l-.018-.054a1.877 1.877 0 0 1 0-1.24Z" fill="#09080D" stroke="#26543F" stroke-width=".691"/><rect x=".831" y=".001" width="76.369" height="47.356" rx="3.645" transform="matrix(.83205 -.5547 .83014 .55756 191.687 138.912)" fill="#208368" fill-opacity=".39" stroke="#208368"/><rect opacity=".2" width="31.388" height="4.837" rx="2" transform="matrix(.83205 -.5547 .83014 .55756 218.037 129.551)" fill="#D9D9D9"/><rect opacity=".1" width="38.684" height="3.066" rx="1.533" transform="matrix(.83205 -.5547 .83014 .55756 238.555 145.956)" fill="#D9D9D9"/><g clip-path="url(#clip6_1979_204966)"><path d="M216.419 134.326a.74.74 0 0 0-.552.039.872.872 0 0 0-.231.172c-.131.133-.24.223-.327.284a5.9 5.9 0 0 0-1.055-1.738c-.731-.831-1.316-1.042-1.678-1.072-.959-.08-1.863.136-2.614.625-.4.26-.67.544-.795.703a4.78 4.78 0 0 0-.59.327c-.363.234-.6.497-.71.783-.2.066-.51.178-.832.332-.757.362-1.198.767-1.311 1.204-.137.529.216 1.055 1.05 1.561.265.161 1.173.582 2.123.922.546.196 1.029.338 1.437.423.578.121 1.015.128 1.335.021.18-.06.456-.202.499-.517.072.005.155.002.249-.012.12-.018.247-.052.359-.097.403-.161.686-.376.831-.624l.131.083.183.115c.395.245.717.426 1 .514l.063.021c.155.053.415.142.731.136a1.406 1.406 0 0 0 1-.427c.22-.227.446-.5.35-.872-.092-.352-.451-.734-1.164-1.239l-.052-.044-.034-.029.056-.031.014-.009c.297-.181.585-.453.7-.662.091-.166.347-.718-.166-.892" fill="#000"/><path d="M216.007 134.701c-.672.681-1.016.528-1.016.528-.43-1.485-1.736-2.862-2.469-2.923-2.002-.167-2.994 1.205-3.006 1.231l-.007.006c-.202.088-.41.199-.623.337-.39.252-.574.517-.628.776 0 0-3.833 1.061-1.186 2.67.564.342 4.829 2.212 4.652.906-.065-.477-.08-.907-.08-.907.258-.034.497-.123.674-.266l.002-.019a.796.796 0 0 0 .158.098c.026.323.138.309-.225.676-.367.372.073.305.295.216.268-.107.841-.387.708-.927l.04.045c.161-.011.618.211.964.458.347.247.585.416.847.498.262.081.763.324 1.235-.163.395-.406.377-.766-.051-1.102-.304-.238-.197-.244-.488-.445l-.093-.125c-.393-.336-.583-.402-.206-.563l.081-.046c.238-.145.489-.375.583-.546.202-.368.134-.712-.161-.413" fill="#336791"/><path d="M210.062 135.654c-.087.044-.146.097-.155.138a.045.045 0 0 0 .017.047c.027.024.083.033.115.036a.462.462 0 0 0 .243-.037.55.55 0 0 0 .025-.015c.093-.062.105-.166.059-.206-.057-.051-.198-.016-.304.037Zm2.529-1.683c-.059-.031-.166.021-.242.088-.076.067-.122.15-.062.181.046.023.188.021.275-.037a.157.157 0 0 0 .076-.141c-.002-.042-.02-.078-.047-.091" fill="#fff"/><path d="M216.269 134.5c-.129-.044-.265.004-.402.143-.407.413-.663.486-.768.497a5.575 5.575 0 0 0-1.117-1.96 4.161 4.161 0 0 0-.736-.672c-.264-.184-.508-.286-.723-.304-.868-.072-1.689.126-2.374.573-.471.307-.746.65-.789.723-.2.081-.4.181-.594.306-.355.229-.574.487-.654.768a6.951 6.951 0 0 0-.926.361c-.689.332-1.089.695-1.188 1.08-.118.459.205.924.958 1.382.254.154 1.135.561 2.064.893 1.222.438 2.064.587 2.5.442a.63.63 0 0 0 .153-.073c.12-.08.213-.214.182-.438a9.916 9.916 0 0 1-.074-.822 1.56 1.56 0 0 0 .526-.202l.013.007c.004.036.01.073.017.109.026.152.032.184-.225.444-.072.074-.266.27-.099.387.182.127.553-.015.594-.031.145-.058.271-.123.378-.194.259-.173.402-.382.42-.614.659.45 1.341.871 1.62.952.229.066.788.227 1.293-.11.074-.049.147-.109.218-.182.414-.427.411-.736-.013-1.14-.227-.215-.8-.709-1.112-.97.106-.037.221-.099.333-.173.235-.157.455-.37.547-.536.102-.186.229-.561-.022-.646Zm-3.626-.755c.101.07.181.143.264.219.089.082.182.166.31.258.125.09.275.169.42.245.294.155.596.315.736.577a2.307 2.307 0 0 1-.169-.039c-.053-.015-.148-.033-.278-.058-.508-.098-1.698-.326-1.791-.681-.028-.106.042-.28.508-.521Zm-2.258-.844c.621-.396 1.328-.564 2.102-.5.593.05 1.82 1.258 2.294 2.689l-.057-.004-.024-.002c-.139-.381-.531-.588-.879-.772-.143-.076-.278-.147-.388-.225-.116-.083-.203-.163-.287-.24a2.36 2.36 0 0 0-.366-.29.2.2 0 0 0-.052-.04c-.157-.087-.75-.266-1.472-.303a4.754 4.754 0 0 0-1.424.132c.124-.126.308-.289.553-.445Zm1.175 5.337c.034.248-.121.299-.172.316-.331.11-1.143-.05-2.229-.438-.939-.337-1.791-.737-2.004-.866-.673-.409-.964-.814-.865-1.201.162-.631 1.304-1.079 1.787-1.243v.021c.004.804 1.049 1.487 1.114 1.529.024.016.061.038.111.068.184.109.525.313.84.593.292.26.729.413 1.2.421.048 0 .096 0 .144-.003.007.142.027.454.074.803Zm-.212-.999c-.379-.006-.732-.13-.97-.341a5.706 5.706 0 0 0-.879-.622l-.069-.041c.01-.111.199-.526.554-.675a.637.637 0 0 1 .52.02c.971.421 1.154.745 1.301 1.005.03.053.059.104.092.153l.026.039c.066.097.128.187.198.264-.198.132-.475.203-.773.198Zm1.107.703a.842.842 0 0 1-.2.053.649.649 0 0 1 .105-.129c.302-.305.305-.381.271-.576a1.478 1.478 0 0 1-.022-.16c-.008-.097.036-.11.117-.132a.447.447 0 0 1 .249.022c.039.014.106.046.118.097.107.429-.288.686-.638.825Zm3.832-.085c-.365.376-.766.327-1.145.218-.244-.071-1.066-.577-1.91-1.177a.829.829 0 0 0-.619-.083.477.477 0 0 0-.238.124 2.15 2.15 0 0 1-.182-.244l-.026-.039a1.696 1.696 0 0 1-.085-.141c-.154-.272-.364-.645-1.417-1.101-.395-.171-.788-.121-1.106.141a1.354 1.354 0 0 0-.376.502c-.3-.238-.808-.716-.81-1.231-.001-.325.2-.62.599-.877.785-.507 1.676-.571 2.286-.536.525.03.941.135 1.148.204-.432.234-.621.464-.563.683.125.477 1.392.72 2.002.837.111.022.208.04.245.051.243.068.45.083.601.095l.128.011c-.085.102-.219.297.195.549.182.143.996.839 1.266 1.096.358.34.359.555.007.918Zm-.275-2.78c-.065.119-.226.282-.409.417-.203.149-.346.198-.392.201-.257-.157-.191-.235-.122-.318l.031-.038.051-.006c.284-.038.602-.233.944-.58l.004-.004a.795.795 0 0 1-.107.328Z" fill="#fff"/></g><path d="m233.403 150.176.135.091c.317.213.523.489.587.787.064.298-.018.601-.233.865-.215.264-.552.474-.961.599a3.03 3.03 0 0 1-1.306.095c-.439-.063-.836-.22-1.132-.447-.296-.226-.474-.511-.509-.811-.034-.3.077-.599.317-.853.24-.253.597-.448 1.017-.555" stroke="#42946E" stroke-linecap="round" stroke-linejoin="round"/><path d="m232.361 149.476-.002 1.973-.885-.001" stroke="#42946E" stroke-linecap="round" stroke-linejoin="round"/><path opacity=".8" d="M249 132V53m0 0-3 3m3-3 3 3" stroke="url(#paint2_linear_1979_204966)" stroke-width="2.5" stroke-linecap="round"/><path opacity=".8" d="M102 122V43m0 0-3 3m3-3 3 3" stroke="url(#paint3_linear_1979_204966)" stroke-width="2.5" stroke-linecap="round"/><defs><clipPath id="clip0_1979_204966"><path fill="#fff" transform="matrix(.83205 -.5547 .83014 .55756 57.555 284.227)" d="M0 0h9.034v9.034H0z"/></clipPath><clipPath id="clip1_1979_204966"><path fill="#fff" transform="matrix(.83205 -.5547 .83014 .55756 58.555 267.227)" d="M0 0h9.034v9.034H0z"/></clipPath><clipPath id="clip2_1979_204966"><path fill="#fff" transform="matrix(.83205 -.5547 .83014 .55756 203.555 277.227)" d="M0 0h9.034v9.034H0z"/></clipPath><clipPath id="clip3_1979_204966"><path fill="#fff" transform="matrix(.83205 -.5547 .83014 .55756 58.555 148.227)" d="M0 0h9.034v9.034H0z"/></clipPath><clipPath id="clip4_1979_204966"><path fill="#fff" transform="matrix(.83205 -.5547 .83014 .55756 58.555 129.227)" d="M0 0h9.034v9.034H0z"/></clipPath><clipPath id="clip5_1979_204966"><path fill="#fff" transform="matrix(.83205 -.5547 .83014 .55756 177.555 67.227)" d="M0 0h9.034v9.034H0z"/></clipPath><clipPath id="clip6_1979_204966"><path fill="#fff" transform="matrix(.83205 -.5547 .83014 .55756 204.555 136.227)" d="M0 0h9.034v9.034H0z"/></clipPath><linearGradient id="paint0_linear_1979_204966" x1="249" y1="260" x2="249" y2="185" gradientUnits="userSpaceOnUse"><stop stop-color="#42946E" stop-opacity="0"/><stop offset="1" stop-color="#42946E"/></linearGradient><linearGradient id="paint1_linear_1979_204966" x1="103" y1="251" x2="103" y2="176" gradientUnits="userSpaceOnUse"><stop stop-color="#42946E" stop-opacity="0"/><stop offset="1" stop-color="#42946E"/></linearGradient><linearGradient id="paint2_linear_1979_204966" x1="249" y1="135" x2="249" y2="67" gradientUnits="userSpaceOnUse"><stop stop-color="#42946E" stop-opacity="0"/><stop offset="1" stop-color="#42946E"/></linearGradient><linearGradient id="paint3_linear_1979_204966" x1="102" y1="125" x2="102" y2="57" gradientUnits="userSpaceOnUse"><stop stop-color="#42946E" stop-opacity="0"/><stop offset="1" stop-color="#42946E"/></linearGradient></defs></svg>